<?xml version="1.0" encoding="UTF-8" standalone="no"?>
<!-- Created with Inkscape (http://www.inkscape.org/) -->

<svg
   width="95.461784mm"
   height="44.961975mm"
   viewBox="0 0 95.461784 44.961975"
   version="1.1"
   id="svg1"
   xml:space="preserve"
   inkscape:version="1.4.2 (ebf0e940d0, 2025-05-08)"
   sodipodi:docname="anova_mean_things.svg"
   xmlns:inkscape="http://www.inkscape.org/namespaces/inkscape"
   xmlns:sodipodi="http://sodipodi.sourceforge.net/DTD/sodipodi-0.dtd"
   xmlns="http://www.w3.org/2000/svg"
   xmlns:svg="http://www.w3.org/2000/svg"><sodipodi:namedview
     id="namedview1"
     pagecolor="#ffffff"
     bordercolor="#000000"
     borderopacity="0.25"
     inkscape:showpageshadow="2"
     inkscape:pageopacity="0.0"
     inkscape:pagecheckerboard="0"
     inkscape:deskcolor="#d1d1d1"
     inkscape:document-units="mm"
     inkscape:zoom="1.4790714"
     inkscape:cx="137.92438"
     inkscape:cy="61.187041"
     inkscape:window-width="1473"
     inkscape:window-height="795"
     inkscape:window-x="0"
     inkscape:window-y="0"
     inkscape:window-maximized="1"
     inkscape:current-layer="layer1" /><defs
     id="defs1" /><g
     inkscape:label="Layer 1"
     inkscape:groupmode="layer"
     id="layer1"
     transform="translate(-51.574309,-36.197814)"><path
       style="fill:#000000"
       d="m 73.257878,81.129729 c -0.273828,-0.10339 -0.358602,-0.40485 -0.358602,-1.27523 v -0.76393 l -0.338667,0.0498 c -0.186267,0.0274 -0.491066,0.0722 -0.677333,0.0995 -0.376126,0.0553 -0.377665,0.059 -0.24328,0.59272 0.08288,0.32916 0.07561,0.40066 -0.05546,0.54549 -0.265799,0.29371 -0.740026,0.17086 -0.837351,-0.21692 -0.08215,-0.32731 -0.301794,-2.15251 -0.30257,-2.51428 -5.22e-4,-0.24359 0.0476,-0.34718 0.21099,-0.45424 0.193278,-0.12664 0.229361,-0.12709 0.415336,-0.005 0.140569,0.0921 0.221179,0.24595 0.260185,0.49657 0.108132,0.69476 0.08912,0.67598 0.622994,0.61536 0.80974,-0.0919 0.797566,-0.0826 0.732057,-0.55896 -0.06674,-0.48527 0.03505,-0.66761 0.371628,-0.66565 0.404792,0.002 0.527177,0.18704 0.642101,0.9689 0.116555,0.79296 0.196099,2.71074 0.118585,2.85903 -0.113384,0.21692 -0.342101,0.30955 -0.560617,0.22705 z m 14.971958,-0.14044 c -0.161743,-0.13153 -0.193268,-0.28757 -0.280807,-1.3899 l -0.09861,-1.24174 -0.237509,-0.0475 c -0.335656,-0.0671 -0.475449,-0.39685 -0.288939,-0.6815 0.139944,-0.21358 0.140863,-0.21371 1.218509,-0.17663 1.334152,0.0459 1.631006,0.11186 1.791624,0.39802 0.110625,0.19709 0.107677,0.24395 -0.02841,0.45164 -0.162094,0.24739 -0.166403,0.24766 -1.171587,0.0744 l -0.317499,-0.0547 v 0.49218 c 0,0.2707 0.0439,0.83451 0.09756,1.25292 0.09552,0.74481 0.09355,0.764 -0.09405,0.9159 -0.238984,0.19352 -0.359166,0.19494 -0.590287,0.007 z m -2.752761,-0.12467 c -0.08077,-0.11532 -0.131732,-0.36937 -0.131623,-0.65617 l 1.78e-4,-0.46799 -0.547917,0.0283 -0.547917,0.0283 0.04964,0.36216 c 0.04305,0.31404 0.02333,0.38058 -0.148433,0.50089 -0.240249,0.16827 -0.416331,0.17556 -0.621274,0.0257 -0.121875,-0.0891 -0.169309,-0.29063 -0.22421,-0.9525 -0.0383,-0.46171 -0.135444,-1.09541 -0.215879,-1.40822 -0.140541,-0.54656 -0.14017,-0.57547 0.0095,-0.74084 0.191235,-0.21131 0.481662,-0.22182 0.660338,-0.0239 0.07357,0.0815 0.180215,0.33867 0.236988,0.5715 0.175138,0.71826 0.1891,0.7308 0.782397,0.70241 l 0.524096,-0.0251 -0.02555,-0.48245 c -0.0211,-0.39849 0.0054,-0.51343 0.152497,-0.66049 0.124184,-0.12419 0.234366,-0.16106 0.364215,-0.12187 0.273978,0.0827 0.32605,0.15474 0.404272,0.5595 0.113299,0.58627 0.09572,2.72829 -0.02337,2.84738 -0.168406,0.16841 -0.55273,0.12073 -0.697933,-0.0866 z m -3.637368,-0.0925 c -0.152602,-0.1527 -0.265587,-0.18091 -0.646832,-0.1615 -0.525103,0.0267 -0.995591,-0.18992 -1.298025,-0.59772 -0.385001,-0.51914 -0.252517,-1.88088 0.2268,-2.33118 0.676084,-0.63515 2.175625,-0.53422 2.175625,0.14643 0,0.25033 -0.185041,0.51529 -0.35987,0.51529 -0.05158,0 -0.214553,-0.0437 -0.36217,-0.0971 -0.147618,-0.0534 -0.366734,-0.0724 -0.486924,-0.0422 -0.377369,0.0947 -0.484369,0.27578 -0.484369,0.81966 0,0.40667 0.03029,0.51519 0.163767,0.58662 0.321791,0.17222 0.494577,0.10613 0.601009,-0.22986 0.115285,-0.36393 0.288073,-0.52916 0.553372,-0.52916 0.255844,0 0.396394,0.19845 0.469563,0.66302 0.03424,0.21742 0.08913,0.55687 0.121981,0.75433 0.06525,0.39225 -0.0192,0.56548 -0.313133,0.64235 -0.113636,0.0297 -0.24134,-0.0195 -0.360794,-0.13902 z m -6.788318,-0.0644 c -0.365776,-0.10621 -0.55087,-0.34379 -0.600067,-0.77024 -0.02325,-0.20152 -0.09622,-0.51005 -0.162158,-0.68562 -0.06594,-0.17557 -0.118207,-0.44227 -0.116152,-0.59267 0.0039,-0.28816 0.16678,-0.96988 0.269866,-1.12975 0.03344,-0.0519 0.31894,-0.11747 0.634436,-0.14578 0.315495,-0.0283 0.825299,-0.0764 1.132896,-0.1068 0.522112,-0.0517 0.568517,-0.0421 0.6985,0.14344 0.346276,0.49438 0.03534,0.82255 -0.778167,0.8213 -0.646864,-9.9e-4 -1.029934,0.11937 -1.029934,0.32362 0,0.1232 0.07272,0.13455 0.566668,0.0884 0.627309,-0.0586 0.872665,0.0565 0.872665,0.40943 0,0.27967 -0.266333,0.46508 -0.750388,0.52241 -0.557369,0.066 -0.576378,0.24361 -0.03278,0.30625 0.321869,0.0371 0.437066,0.0139 0.576957,-0.11599 0.197127,-0.18308 0.544664,-0.21335 0.697277,-0.0607 0.241577,0.24158 0.03628,0.77644 -0.379667,0.98915 -0.21648,0.11071 -1.223211,0.11295 -1.599953,0.004 z m -10.427521,-0.1841 c -0.04591,-0.0582 -0.106682,-0.52493 -0.135046,-1.03716 -0.02836,-0.51224 -0.09577,-1.14937 -0.149784,-1.41587 -0.109069,-0.53808 -0.0067,-0.95841 0.250844,-1.03033 0.514895,-0.14377 0.68238,-0.14242 0.808277,0.007 0.07145,0.0845 0.408195,0.45848 0.748316,0.83101 0.340122,0.37253 0.72187,0.81068 0.84833,0.97367 l 0.229927,0.29633 0.0013,-0.55033 c 0.0017,-0.7567 0.248674,-1.59669 0.531431,-1.8078 0.212174,-0.15841 0.23094,-0.15917 0.446391,-0.018 0.243409,0.15949 0.243824,0.16865 0.05203,1.14846 -0.05013,0.25612 -0.13226,0.86572 -0.182505,1.35467 -0.08129,0.79111 -0.115609,0.91066 -0.311628,1.08569 -0.163409,0.14591 -0.277185,0.1824 -0.44072,0.14136 -0.297063,-0.0746 -0.382572,-0.15426 -0.906147,-0.84456 -0.247855,-0.32679 -0.586282,-0.74656 -0.752058,-0.93282 l -0.301413,-0.33867 0.05584,0.90637 c 0.04727,0.76733 0.03418,0.93943 -0.08534,1.12184 -0.154367,0.23559 -0.559216,0.29828 -0.708015,0.10962 z m 13.621293,-0.13628 c -0.135449,-0.13545 -0.163562,-0.33951 -0.201206,-1.4605 -0.02716,-0.80888 -0.01168,-1.34318 0.04081,-1.40888 0.04652,-0.0582 0.19333,-0.10584 0.326255,-0.10584 0.436585,0 0.536103,0.28841 0.571469,1.65612 0.03045,1.17742 0.02729,1.20278 -0.166264,1.33836 -0.254721,0.17841 -0.377541,0.17427 -0.571068,-0.0193 z m -15.271654,-0.0179 c -0.08072,-0.047 -0.228405,-0.35428 -0.32818,-0.68277 l -0.18141,-0.59726 -0.391487,0.0586 c -0.501646,0.0751 -0.501655,0.0751 -0.568001,0.44724 -0.104902,0.58843 -0.59712,0.88347 -0.92571,0.55488 -0.08657,-0.0866 -0.125707,-0.22494 -0.101786,-0.35984 0.08396,-0.47345 0.684326,-2.44154 0.854525,-2.80125 0.318377,-0.67288 0.769223,-0.70333 1.406176,-0.095 0.26109,0.24937 0.338554,0.40093 0.416227,0.81439 0.05249,0.2794 0.198364,0.94112 0.324167,1.47048 l 0.228732,0.96249 -0.196788,0.15934 c -0.221241,0.17915 -0.324243,0.19234 -0.536465,0.0687 z m -0.681025,-2.23178 c 0.01038,-0.008 -0.02345,-0.16567 -0.07519,-0.34932 l -0.09406,-0.3339 -0.108873,0.29633 c -0.164035,0.44648 -0.151779,0.52864 0.06875,0.46086 0.104775,-0.0322 0.198992,-0.0655 0.209372,-0.074 z m -4.631285,2.00236 c -0.252277,-0.20428 -0.329693,-0.70256 -0.296678,-1.90954 0.03186,-1.16475 0.08031,-1.25804 0.73492,-1.41508 0.489722,-0.11748 1.448919,-0.065 1.634995,0.0894 0.163656,0.13582 0.162355,0.54122 -0.0022,0.67777 -0.08198,0.068 -0.35727,0.10121 -0.762,0.0918 -0.625826,-0.0145 -0.633648,-0.012 -0.633648,0.20018 0,0.20325 0.02447,0.21487 0.452544,0.21487 0.330892,0 0.490212,0.0416 0.592667,0.15483 0.311105,0.34377 0.05611,0.7756 -0.459212,0.77766 -0.415857,0.002 -0.670666,0.0854 -0.670666,0.22038 0,0.0868 0.147787,0.12058 0.5715,0.13047 0.314325,0.007 0.62865,0.008 0.6985,0.001 0.490547,-0.0473 0.79315,0.34654 0.550631,0.71667 -0.126244,0.19267 -0.170765,0.20024 -1.178203,0.20024 -0.877839,0 -1.077082,-0.0244 -1.233175,-0.15075 z m -5.184419,-0.27748 c -0.210188,-0.12253 -0.309123,-0.57788 -0.230131,-1.05916 0.03769,-0.22967 0.07081,-0.67476 0.07358,-0.98909 0.0057,-0.64219 0.189765,-0.94246 0.548967,-0.89539 0.106996,0.014 0.24746,-0.0164 0.312142,-0.0676 0.376579,-0.29821 1.015519,-0.15727 1.352334,0.2983 0.171409,0.23184 0.208163,0.24727 0.328888,0.13801 0.507365,-0.45916 1.19256,-0.41892 1.582993,0.093 0.196021,0.25699 0.234163,0.4015 0.265981,1.00772 0.04471,0.85177 -0.0076,1.09687 -0.27087,1.26937 -0.163185,0.10693 -0.240729,0.1124 -0.421989,0.0298 -0.257908,-0.11751 -0.249718,-0.082 -0.2249,-0.97413 0.02473,-0.88883 -0.07206,-0.96079 -0.562965,-0.41857 -0.201044,0.22206 -0.365534,0.46778 -0.365534,0.54605 0,0.44962 -0.583586,0.68679 -0.881073,0.35807 -0.1188,-0.13127 -0.134916,-0.25251 -0.08832,-0.66441 0.04176,-0.36914 0.02392,-0.56697 -0.06674,-0.74002 l -0.123747,-0.23618 -0.266727,0.64071 c -0.178154,0.42794 -0.266727,0.78123 -0.266727,1.06388 0,0.59395 -0.284302,0.8392 -0.695166,0.59968 z m 52.722832,-1.52672 c -0.77845,-0.10755 -2.53539,-0.59538 -2.94349,-0.8173 -0.22192,-0.12068 -0.55275,-0.34718 -0.7352,-0.50334 -0.46112,-0.39471 -0.54235,-0.83239 -0.54705,-2.94739 -0.004,-1.70641 0.0849,-2.63305 0.2738,-2.86067 0.0564,-0.0679 0.0801,-0.18207 0.0526,-0.25362 -0.0275,-0.0716 0.0129,-0.25151 0.0896,-0.39991 0.10992,-0.21258 0.14658,-0.59205 0.17275,-1.7886 0.0352,-1.61093 0.15267,-2.43808 0.51523,-3.62953 0.25936,-0.85228 0.4509,-1.24798 0.79239,-1.63691 l 0.25195,-0.28696 -0.17648,-0.15971 c -0.1276,-0.11547 -0.78444,-1.13709 -0.8748,-1.36061 -0.003,-0.008 -0.18604,0.0232 -0.40591,0.0701 -0.23659,0.0505 -0.67884,0.27097 -1.08345,0.54024 -0.37602,0.25024 -0.757002,0.47825 -0.846622,0.5067 -0.22302,0.0708 -0.59957,-0.12479 -0.74712,-0.38803 -0.1984,-0.35398 -0.0678,-0.62849 0.4698,-0.9871 0.26331,-0.17565 0.612402,-0.40989 0.775752,-0.52052 0.16335,-0.11064 0.52843,-0.284 0.81128,-0.38526 0.58775,-0.2104 0.67388,-0.40077 0.21507,-0.47535 -0.16456,-0.0267 -0.33784,-0.0725 -0.38506,-0.1017 -0.0472,-0.0292 -0.46503,0.0208 -0.928462,0.11112 -0.46343,0.0903 -1.09025,0.18718 -1.39293,0.21531 -0.48301,0.0449 -0.57882,0.0285 -0.78317,-0.13356 -0.50556,-0.40104 -0.18294,-1.18841 0.48694,-1.18841 0.15048,0 0.78113,-0.0956 1.40145,-0.21252 0.664482,-0.12522 1.243082,-0.19091 1.408312,-0.15991 l 0.28046,0.0526 0.002,-0.45392 c 0.004,-0.93163 0.48814,-2.29192 1.06894,-3.005 l 0.36125,-0.44351 -0.0806,-0.49238 c -0.0443,-0.2708 -0.0809,-0.49882 -0.0811,-0.50671 -2.7e-4,-0.008 -0.14033,0.0243 -0.31123,0.0715 -0.33711,0.0931 -1.15134,0.0234 -1.42493,-0.12185 -0.43191,-0.22938 -0.50599,-0.70697 -0.16288,-1.05009 0.20425,-0.20424 0.25407,-0.21474 0.78317,-0.16503 0.85405,0.0803 0.83222,0.12578 0.69305,-1.44528 -0.15436,-1.74255 -0.20224,-3.65618 -0.097,-3.87569 0.0455,-0.0949 0.10458,-0.55351 0.13129,-1.01918 0.053,-0.92364 0.37487,-2.39738 0.63499,-2.90724 0.27595,-0.54092 0.8185,-1.1631 1.15238,-1.32154 0.31922,-0.15148 0.41165,-0.15091 1.5609,0.01 0.30163,0.0421 0.47023,0.14006 0.83502,0.48497 0.72451,0.68502 1.1693,1.7535 1.32539,3.18384 0.028,0.25612 0.18014,1.17052 0.3382,2.032 0.40657,2.21594 0.49169,2.98744 0.5015,4.5454 l 0.009,1.37041 0.40759,0.0565 c 0.22417,0.031 0.42105,0.043 0.43751,0.0265 0.0165,-0.0165 -0.002,-0.20134 -0.0399,-0.41086 -0.0384,-0.20951 -0.0966,-1.56203 -0.12927,-3.0056 -0.0559,-2.46988 -0.0486,-2.68458 0.12394,-3.64066 0.39569,-2.19242 0.89364,-3.517 1.59855,-4.25221 0.54094,-0.56418 0.89251,-0.66925 1.68826,-0.50456 1.22402,0.25334 1.89345,0.81946 2.21508,1.87326 0.17209,0.56386 0.21992,0.6475 0.29609,0.51782 0.25146,-0.42815 0.50278,-0.63395 0.94338,-0.77254 0.45693,-0.14372 0.47503,-0.14317 0.69728,0.0213 0.13338,0.0987 0.27429,0.32399 0.33917,0.54222 0.12498,0.42039 0.52324,1.59997 0.84068,2.49 0.26298,0.73731 0.29314,1.68868 0.0698,2.20133 -0.34195,0.78489 -1.19364,1.31234 -2.11909,1.31234 h -0.45627 l -0.006,0.93797 -0.006,0.93798 0.24867,-0.0546 c 0.42988,-0.0944 0.84365,0.22692 0.84857,0.659 0.004,0.35637 -0.31403,0.62177 -0.8303,0.69277 -0.46113,0.0634 -0.49567,0.11554 -0.45017,0.67922 0.01,0.12357 -0.006,0.13883 -0.0594,0.0564 -0.0487,-0.0752 -0.0888,0.0238 -0.11998,0.29633 -0.0311,0.27116 -0.0139,0.42105 0.051,0.44426 0.17922,0.0642 1.13019,1.06174 1.26922,1.3314 0.13395,0.25982 0.57899,1.61362 0.68752,2.09143 0.042,0.18486 0.0881,0.22681 0.19925,0.18123 0.0795,-0.0326 0.50657,-0.11691 0.94896,-0.18731 0.44238,-0.0704 0.90546,-0.18054 1.02906,-0.24473 0.31156,-0.16181 0.51934,-0.14616 0.77985,0.0588 0.29572,0.23262 0.31143,0.72801 0.0314,0.99106 -0.26575,0.24965 -0.75833,0.44174 -1.13912,0.4442 -0.38323,0.002 -0.94952,0.12381 -1.44206,0.30898 -0.60352,0.22691 -0.49424,0.37406 0.635,0.85505 0.54716,0.23305 1.09009,0.4514 1.2065,0.48521 0.571,0.16585 0.78205,0.76592 0.39671,1.12793 -0.31458,0.29554 -0.70508,0.23753 -1.93416,-0.28732 -0.60717,-0.25928 -1.11247,-0.4593 -1.12289,-0.4445 -0.0104,0.0148 -0.0882,0.21374 -0.17294,0.44208 -0.17651,0.47588 -0.59093,0.9677 -1.12515,1.33524 l -0.36979,0.25442 0.41131,0.43692 c 0.22621,0.24031 0.53996,0.62742 0.6972,0.86025 0.15725,0.23283 0.38051,0.53763 0.49614,0.67733 0.43293,0.52306 0.86665,1.81296 1.07941,3.2102 0.13612,0.89387 0.15462,1.89517 0.0405,2.19517 -0.0663,0.17449 -0.0307,0.27772 0.21357,0.61934 0.43273,0.60512 0.62457,1.32513 0.71831,2.69596 0.0952,1.39196 0.0214,1.90024 -0.33918,2.33772 -0.3607,0.43761 -0.89791,0.77637 -1.34508,0.84821 -0.21762,0.035 -0.73857,0.16708 -1.15767,0.2936 -0.57735,0.17428 -0.9948,0.23834 -1.72267,0.26435 -1.09827,0.0392 -1.71017,-0.0638 -2.08731,-0.35146 -0.20682,-0.15774 -0.2967,-0.18162 -0.42125,-0.11192 -0.10189,0.057 -0.58069,0.0705 -1.34306,0.0379 l -1.18473,-0.0507 -0.34583,0.34765 c -0.55084,0.55375 -0.91716,0.67409 -2.11251,0.69399 -0.56502,0.009 -1.21781,-0.009 -1.45064,-0.0414 z m 2.2225,-1.33286 c 0.21736,-0.0291 0.0912,-0.18012 -0.39941,-0.47816 -0.43068,-0.26162 -0.53215,-0.29252 -0.68759,-0.20933 -0.49928,0.26721 -1.11915,-0.002 -1.11439,-0.48383 0.003,-0.26563 0.15529,-1.33986 0.23627,-1.6625 0.0404,-0.16085 -0.0289,-0.30482 -0.31447,-0.65365 -0.38177,-0.46634 -0.43851,-0.50917 -0.90322,-0.68188 -0.39317,-0.14612 -0.58711,-0.55292 -0.42492,-0.89131 0.18204,-0.37982 0.46057,-0.47326 0.99248,-0.33294 0.5565,0.1468 0.9114,0.41509 1.41522,1.06985 0.51276,0.66636 0.65952,1.14033 0.54498,1.75997 -0.11384,0.61582 -0.11444,0.61264 0.10471,0.55803 0.13745,-0.0342 0.37915,0.0759 0.86784,0.39553 0.62882,0.41127 0.73494,0.45072 1.48166,0.55081 1.09585,0.14689 1.73207,0.14427 1.85815,-0.008 0.0555,-0.0669 0.21212,-0.14599 0.34807,-0.17585 0.13594,-0.0299 0.26925,-0.09 0.29622,-0.13365 0.027,-0.0437 0.20576,-0.15931 0.39729,-0.25702 0.19153,-0.0977 0.41183,-0.25618 0.48954,-0.35216 0.12542,-0.15489 0.12846,-0.2172 0.027,-0.55426 -0.25969,-0.86289 -0.0644,-1.69468 0.54651,-2.32831 0.57671,-0.59811 1.11771,-0.70719 1.41343,-0.28498 0.23053,0.32913 0.16309,0.70108 -0.1751,0.96568 -0.34644,0.27105 -0.54446,0.6001 -0.54446,0.90473 0,0.11606 0.10082,0.48302 0.22404,0.81546 0.21515,0.58043 0.21857,0.61594 0.086,0.89385 -0.0759,0.15917 -0.17545,0.2894 -0.22122,0.2894 -0.0458,0 -0.21117,0.12795 -0.36755,0.28434 -0.15639,0.15639 -0.33864,0.30357 -0.40499,0.32708 -0.0664,0.0235 -0.0888,0.0765 -0.05,0.11782 0.10835,0.1151 1.54366,0.0394 1.87453,-0.0988 0.16116,-0.0673 0.37996,-0.12245 0.48623,-0.12247 0.10627,-3e-5 0.39366,-0.0762 0.63863,-0.16933 0.24498,-0.0931 0.53686,-0.1693 0.64864,-0.1693 0.123,0 0.28977,-0.10283 0.42243,-0.26049 0.19196,-0.22813 0.21919,-0.33721 0.21919,-0.87791 0,-1.07611 -0.21623,-2.04646 -0.59653,-2.677 -0.18436,-0.30566 -0.40615,-0.63191 -0.49288,-0.725 -0.42834,-0.45978 -0.46114,-0.87577 -0.0959,-1.21693 0.28472,-0.26597 0.31193,-0.48057 0.16712,-1.31795 -0.26277,-1.51949 -0.49023,-2.16485 -1.02213,-2.89996 -0.32809,-0.45344 -0.34465,-0.46476 -0.28819,-0.19699 0.0329,0.15626 0.15299,0.46352 0.26676,0.6828 0.16547,0.31894 0.19021,0.44247 0.12365,0.61752 -0.10307,0.27111 -0.40419,0.48991 -0.67422,0.48991 -0.31298,0 -0.74187,-0.51583 -0.93492,-1.12445 -0.0919,-0.2896 -0.2621,-0.7742 -0.37832,-1.07688 -0.11621,-0.30268 -0.30271,-0.79798 -0.41444,-1.10067 -0.32315,-0.87546 -0.45481,-1.08036 -0.73354,-1.14158 -0.53012,-0.11643 -0.75873,0.31325 -0.5039,0.9471 0.0524,0.13025 0.12653,0.31302 0.16481,0.40615 0.51096,1.24325 1.09465,2.99642 1.09465,3.2879 0,0.0651 -0.079,0.21865 -0.17548,0.34135 -0.13388,0.1702 -0.2508,0.22308 -0.49324,0.22308 -0.45585,0 -0.6275,-0.23463 -0.9291,-1.27 -0.14243,-0.48895 -0.36878,-1.1557 -0.50299,-1.48166 -0.23038,-0.55951 -0.25897,-0.59241 -0.51094,-0.58796 -0.14681,0.003 -0.70172,0.0121 -1.23314,0.0212 l -0.96623,0.0165 -0.0593,0.35984 c -0.0326,0.19791 -0.15175,0.58843 -0.2647,0.86783 -0.11294,0.2794 -0.29658,0.86633 -0.40808,1.3043 -0.22708,0.89194 -0.4028,1.13692 -0.81546,1.13692 -0.31401,0 -0.6697,-0.34493 -0.66695,-0.64677 0.003,-0.29262 0.37122,-1.65469 0.61154,-2.26014 0.43652,-1.09975 0.38918,-2.1573 -0.10808,-2.41445 -0.32191,-0.16647 -0.37803,-0.16048 -0.72864,0.0778 -0.42003,0.28541 -0.52377,0.46404 -0.70465,1.21325 -0.15309,0.63418 -0.1983,0.9493 -0.3296,2.29759 -0.0494,0.50771 -0.0974,0.65346 -0.25755,0.78317 -0.28238,0.22866 -0.62095,0.20136 -0.89442,-0.0721 -0.25576,-0.25576 -0.25855,-0.36348 -0.0564,-2.17992 0.0465,-0.41821 0.074,-0.77097 0.0611,-0.78391 -0.0467,-0.0467 -0.55095,1.64189 -0.65074,2.1793 -0.0617,0.33221 -0.10666,1.46864 -0.11346,2.86723 -0.0111,2.28807 -0.0136,2.31879 -0.20013,2.46982 -0.10387,0.0841 -0.23597,0.16858 -0.29356,0.18772 -0.12969,0.0431 -0.19031,1.69086 -0.10453,2.84156 l 0.0588,0.78865 0.32704,0.23691 c 0.2367,0.17146 0.63787,0.30943 1.45219,0.49941 0.61883,0.14438 1.22039,0.27342 1.33681,0.28677 0.2163,0.0248 1.73478,0.0217 1.92617,-0.004 z m 2.8683,-13.4563 c 0.0525,-0.0342 0.12386,-0.23202 0.15857,-0.43957 0.0941,-0.56297 0.41188,-0.98088 0.9435,-1.24098 0.40199,-0.19667 0.51847,-0.2165 0.97102,-0.1653 0.68514,0.0775 0.89726,0.16764 1.23338,0.52403 l 0.28295,0.30001 0.58983,-0.38859 c 0.65207,-0.42958 0.749,-0.57328 1.1157,-1.65414 0.34275,-1.01024 0.3792,-1.50616 0.17138,-2.33166 -0.37288,-1.48112 -0.39343,-1.51337 -1.64597,-2.58279 -0.24244,-0.207 -0.3175,-0.3342 -0.3175,-0.53804 0,-0.14683 -0.0339,-0.3853 -0.0754,-0.52994 -0.0682,-0.23793 -0.0481,-0.43174 0.11796,-1.1329 0.0455,-0.19207 0.002,-0.23387 -0.47015,-0.45152 -0.68502,-0.3158 -1.83143,-1.39303 -1.90611,-1.79108 -0.0669,-0.35686 0.14829,-0.78491 0.43026,-0.85568 0.35037,-0.0879 0.62171,0.035 0.83987,0.38061 0.30748,0.48709 1.24675,1.20844 1.38835,1.06623 0.0309,-0.0311 0.0562,-0.50795 0.0561,-1.05974 -1e-4,-0.96844 -0.008,-1.01151 -0.2242,-1.24153 -0.44504,-0.47322 -0.57946,-0.79423 -0.5784,-1.38129 8.2e-4,-0.45716 0.0581,-0.67864 0.33835,-1.30822 0.18554,-0.41684 0.33745,-0.87404 0.33756,-1.016 1.2e-4,-0.14196 -0.11729,-0.63911 -0.2609,-1.10478 -0.30502,-0.98908 -0.57539,-1.30772 -1.23888,-1.46007 -0.34637,-0.0795 -0.42829,-0.0725 -0.56237,0.0484 -0.45105,0.40661 -0.89451,1.62465 -1.23886,3.40274 -0.17861,0.92225 -0.18541,1.10513 -0.13216,3.55461 0.0351,1.61706 0.10259,2.85838 0.18042,3.32083 0.13431,0.7981 0.1055,1.07664 -0.13373,1.29314 -0.23058,0.20868 -0.88785,0.27198 -1.69471,0.16323 -0.39636,-0.0534 -0.83792,-0.0799 -0.98126,-0.0589 -0.19258,0.0283 -0.32487,-0.017 -0.50683,-0.17355 l -0.24623,-0.2118 -0.008,-1.93365 c -0.008,-2.01622 -0.023,-2.16372 -0.49378,-4.85465 -0.15885,-0.90805 -0.33052,-1.95184 -0.38148,-2.31952 -0.10144,-0.73189 -0.4291,-1.57649 -0.74666,-1.92464 -0.26312,-0.28847 -0.91437,-0.38586 -1.15258,-0.17237 -0.48878,0.43804 -0.80702,1.70525 -0.90715,3.61219 -0.0416,0.79164 -0.0968,1.58837 -0.12265,1.77052 -0.0259,0.18215 -0.006,0.71555 0.0451,1.18533 0.0507,0.46978 0.11238,1.05725 0.13713,1.30549 0.0437,0.43862 0.0496,0.44719 0.20738,0.30438 0.0893,-0.0808 0.16239,-0.21899 0.16239,-0.30702 0,-0.25313 0.37952,-0.5757 0.67733,-0.5757 0.33721,0 0.67734,0.32985 0.67734,0.65686 0,0.44921 -0.41161,1.11221 -0.95009,1.53038 -0.43678,0.33919 -0.495,0.41758 -0.44869,0.6041 0.0293,0.11788 0.0708,0.58665 0.0922,1.04171 0.0432,0.91682 -0.0153,1.11154 -0.46169,1.53588 -0.42715,0.40607 -0.79395,1.39967 -0.83894,2.27253 -0.0801,1.55492 0.65546,3.57851 1.54844,4.25962 0.30207,0.2304 0.30244,0.23045 0.49003,0.0641 0.10326,-0.0916 0.39147,-0.29389 0.64047,-0.4496 0.55597,-0.34767 0.96209,-0.36486 1.62174,-0.0686 0.53872,0.24191 0.92094,0.6399 1.15048,1.19794 l 0.16171,0.39317 0.93134,-9.8e-4 c 0.51223,-5.3e-4 0.97429,-0.029 1.0268,-0.0632 z m -1.31641,-1.1702 c -0.32729,-0.2754 -0.58088,-1.05013 -0.44288,-1.35302 0.16561,-0.36347 0.46156,-0.48244 1.10911,-0.44585 0.47679,0.0269 0.62985,0.0718 0.80459,0.23599 0.32793,0.30809 0.29458,0.72163 -0.099,1.22675 -0.47354,0.6078 -0.91921,0.717 -1.37186,0.33613 z m -4.76946,-1.473 c -0.2534,-0.19932 -0.35576,-0.5332 -0.2335,-0.76165 0.0693,-0.12947 0.033,-0.26883 -0.17173,-0.6594 -0.48833,-0.93159 -0.39835,-1.96942 0.26697,-3.07923 0.38438,-0.64119 0.48888,-0.74816 0.97772,-1.00088 0.47622,-0.2462 1.84655,-0.39011 2.41535,-0.25365 0.8179,0.19621 1.55427,1.10583 1.79905,2.22232 0.0634,0.28902 0.11903,0.42459 0.12371,0.30126 0.005,-0.12332 0.17877,-0.56436 0.38687,-0.98007 0.41255,-0.8241 1.14207,-1.62294 1.50039,-1.64296 0.99777,-0.0557 2.34992,0.34137 2.89116,0.84912 0.40648,0.38132 0.7808,1.10724 0.95233,1.84686 0.15739,0.67865 0.11059,1.01059 -0.22776,1.61539 -0.13788,0.24646 -0.23085,0.48021 -0.2066,0.51944 0.0743,0.12023 -0.13173,0.59738 -0.2959,0.68524 -0.22855,0.12231 -0.56265,0.10102 -0.86457,-0.0551 -0.17744,-0.0918 -0.57736,-0.15271 -1.19361,-0.18192 -0.85879,-0.0407 -0.95355,-0.0293 -1.29189,0.15553 -0.55187,0.30147 -0.75527,0.19399 -1.17626,-0.62153 l -0.33866,-0.65605 -0.14058,0.33029 c -0.0773,0.18166 -0.18525,0.3579 -0.23984,0.39164 -0.0546,0.0337 -0.17106,0.22885 -0.25882,0.43357 -0.20613,0.4809 -0.45175,0.60017 -0.94362,0.45823 -0.98952,-0.28556 -2.50261,-0.24901 -2.90849,0.0702 -0.28745,0.22612 -0.54586,0.2303 -0.82172,0.0133 z m 3.79088,-1.69667 c 0.14339,-0.15844 0.14695,-0.22371 0.0474,-0.86783 -0.15188,-0.98223 -0.23617,-1.2773 -0.43828,-1.53425 -0.36328,-0.46183 -1.27655,-0.61756 -1.84512,-0.31463 l -0.28689,0.15285 0.26188,0.0524 c 0.31402,0.0628 0.52243,0.35281 0.58413,0.81284 0.0395,0.29446 0.0122,0.37091 -0.21278,0.59589 -0.29562,0.29562 -0.70272,0.3445 -1.01975,0.12245 -0.1065,-0.0746 -0.21481,-0.11448 -0.24067,-0.0886 -0.08,0.0801 0.0501,0.5916 0.22247,0.8741 l 0.164,0.26885 1.1544,-10e-4 c 0.63493,-8.1e-4 1.17697,0.0211 1.20454,0.0487 0.0956,0.0956 0.25045,0.0493 0.40471,-0.12121 z m 5.70816,-0.49163 c 0.19729,-0.30097 0.19357,-0.39597 -0.0492,-1.25709 -0.10564,-0.37471 -0.18177,-0.47573 -0.52412,-0.69541 -0.52435,-0.33648 -1.17845,-0.48061 -1.57985,-0.34814 -0.37122,0.12251 -0.37921,0.23104 -0.022,0.29877 0.55371,0.10499 0.79507,0.45564 0.65969,0.95841 -0.16344,0.60698 -0.74122,0.86543 -1.19111,0.53281 -0.13469,-0.0996 -0.26548,-0.18105 -0.29065,-0.18105 -0.0944,0 -0.0409,0.42777 0.087,0.69563 l 0.13278,0.27803 h 1.29629 1.2963 z m 3.03078,-10.4035 c 0.28798,-0.38198 0.20779,-0.94125 -0.33272,-2.32061 l -0.28582,-0.72941 -0.43519,0.64474 c -0.71191,1.05472 -1.09263,2.00444 -0.93885,2.34197 0.22121,0.48549 1.6403,0.53058 1.99258,0.0633 z m 18.52191,28.61641 c -0.2794,-0.0101 -1.7272,-0.0603 -3.21733,-0.11158 -3.01667,-0.10376 -4.31054,-0.24529 -5.07235,-0.55484 -0.61126,-0.24838 -1.12516,-0.72144 -1.23119,-1.13335 -0.0423,-0.16418 -0.0838,-3.32746 -0.0924,-7.02951 -0.0146,-6.32688 -0.0713,-8.35181 -0.25387,-9.06181 -0.0423,-0.16435 -0.13738,-0.73285 -0.21137,-1.26334 -0.18796,-1.34759 -0.20734,-1.37557 -1.114,-1.60822 -0.41005,-0.10522 -0.91699,-0.24688 -1.12654,-0.3148 -0.49205,-0.1595 -1.88451,-0.5304 -2.35669,-0.62774 -0.6149,-0.12676 -1.54602,-0.5276 -1.64195,-0.70683 -0.16175,-0.30225 -0.0879,-0.62757 0.23071,-1.01641 0.245,-0.29899 0.38793,-0.39247 0.70417,-0.46056 0.39965,-0.086 1.5417,-0.45753 4.03743,-1.3133 l 1.35467,-0.46451 0.0256,-2.28636 c 0.0141,-1.2575 -0.02,-3.06024 -0.0758,-4.00608 -0.18043,-3.05916 -0.18215,-3.2448 -0.0361,-3.9014 0.17194,-0.7728 0.41296,-1.19901 0.85944,-1.51974 0.31179,-0.22398 0.44751,-0.2591 1.24911,-0.32326 0.49462,-0.0396 0.93561,-0.0944 0.97998,-0.12184 0.0444,-0.0274 0.22463,0.0103 0.40058,0.0838 0.28292,0.11821 1.15943,0.13385 7.57871,0.13528 3.99234,8.9e-4 7.42193,-0.0228 7.62131,-0.0526 0.7943,-0.11885 1.70384,0.42716 2.1707,1.30308 0.15016,0.28172 0.31192,0.53627 0.35947,0.56566 0.26577,0.16425 0.41981,1.27951 0.31773,2.30043 -0.0383,0.38341 -0.0781,5.29831 -0.0883,10.922 -0.0167,9.13989 -0.003,10.35516 0.12456,11.45255 0.27597,2.36599 0.37361,6.12967 0.18891,7.28133 -0.0261,0.16299 -0.082,0.66973 -0.1242,1.1261 -0.12195,1.3197 -0.58928,2.11879 -1.45745,2.4921 -0.49505,0.21287 -1.96382,0.27848 -5.74321,0.25652 -2.11878,-0.0123 -4.08093,-0.0307 -4.36033,-0.0408 z m 9.53958,-1.47737 c 0.171,-0.0776 0.37504,-0.23897 0.45342,-0.35858 0.4454,-0.67977 0.55529,-5.47068 0.20119,-8.77133 -0.19339,-1.80266 -0.19516,-1.91651 -0.18166,-11.72633 0.007,-5.4483 0.0382,-10.31277 0.0682,-10.80994 0.03,-0.49716 0.0231,-0.95436 -0.0153,-1.016 -0.0385,-0.0616 -0.15607,-0.45496 -0.26133,-0.87406 -0.16194,-0.64478 -0.23842,-0.80563 -0.49718,-1.04559 -0.27948,-0.25918 -0.33755,-0.27883 -0.67465,-0.22828 -0.49224,0.0738 -13.93403,0.0708 -15.67112,-0.003 l -1.3662,-0.0584 -0.13397,0.20447 c -0.22039,0.33636 -0.35698,1.23241 -0.29505,1.93565 0.15936,1.80957 0.2366,4.13172 0.21839,6.56542 -0.0237,3.16614 -0.002,3.07551 -0.80102,3.28764 -1.05163,0.27906 -4.41706,1.4482 -4.31872,1.50031 0.0573,0.0303 0.31365,0.10227 0.56977,0.15985 0.25611,0.0576 0.67521,0.17432 0.93133,0.25943 0.41027,0.13634 1.07493,0.29601 2.02915,0.48747 0.20739,0.0416 0.3497,0.14582 0.48511,0.35521 0.1054,0.16299 0.3039,0.41064 0.44113,0.55034 0.30275,0.30822 0.48316,0.89589 0.56348,1.83551 0.0331,0.38747 0.0966,0.79974 0.14113,0.91615 0.19113,0.50003 0.25745,2.22425 0.27843,7.239 0.0123,2.9337 0.0265,6.14498 0.0316,7.13618 l 0.009,1.80218 0.40217,0.17336 c 0.7638,0.32925 2.23306,0.4621 6.07483,0.54927 1.21073,0.0275 2.20818,0.0562 2.21654,0.0639 0.008,0.008 1.98956,0.0135 4.40266,0.0129 3.91244,-9.7e-4 4.42113,-0.0164 4.69838,-0.14218 z m -3.43981,-3.74211 c -0.13236,-0.13236 -0.23865,-0.17584 -0.31365,-0.1283 -0.0624,0.0395 -0.25926,0.0725 -0.43747,0.0732 -0.46109,0.002 -0.75849,-0.32359 -0.98889,-1.08212 -0.1631,-0.53699 -0.17178,-0.65355 -0.0813,-1.09236 0.16621,-0.80643 0.42781,-1.16571 1.03285,-1.41851 0.4783,-0.19985 0.85071,-0.16897 1.11185,0.0922 0.49807,0.49807 0.0533,1.24754 -0.50023,0.84283 -0.12185,-0.0891 -0.20632,-0.0966 -0.33369,-0.0297 -0.21987,0.11557 -0.27817,0.20584 -0.38707,0.59934 -0.11331,0.40947 0.11025,1.20094 0.31683,1.12166 0.0689,-0.0264 0.16021,-0.0481 0.20297,-0.0481 0.0428,0 0.0777,-0.10839 0.0777,-0.24088 0,-0.27115 0.22772,-0.52177 0.47233,-0.51982 0.37266,0.003 0.50275,0.25379 0.57762,1.11369 0.0531,0.61027 0.045,0.65738 -0.13455,0.78317 -0.25954,0.1818 -0.38015,0.16879 -0.6153,-0.0664 z m 1.79395,-0.0326 c -0.36632,-0.40648 -0.2053,-0.91017 0.29096,-0.91017 0.4468,0 0.34251,-0.2039 -0.26835,-0.52466 -0.30268,-0.15894 -0.59795,-0.35132 -0.65616,-0.42751 -0.2637,-0.34515 0.0522,-1.51943 0.49159,-1.82717 0.37373,-0.26176 1.43329,0.0574 1.56741,0.47217 0.13556,0.41925 -0.32395,0.77232 -0.69162,0.53142 -0.27408,-0.17958 -0.42904,-0.16146 -0.48613,0.0569 -0.0628,0.2402 0.0526,0.3732 0.38079,0.43884 0.33775,0.0675 0.79756,0.55419 0.86542,0.9159 0.10945,0.58343 -0.20853,1.20019 -0.68733,1.33315 -0.45215,0.12557 -0.65365,0.11088 -0.80658,-0.0588 z m -7.26952,-0.24567 c -0.13263,-0.1596 -0.14231,-0.86642 -0.0333,-2.42888 l 0.07,-1.00238 0.26979,-0.12865 c 0.24284,-0.11581 0.29584,-0.11519 0.53063,0.006 0.26219,0.13558 0.65809,0.57498 1.06904,1.1865 l 0.2213,0.32931 v -0.55073 c 0,-0.42896 0.0388,-0.60006 0.17548,-0.77381 0.35683,-0.45365 0.86731,-0.15003 0.79692,0.47399 -0.0224,0.19869 -0.0543,0.83396 -0.0709,1.4117 l -0.0302,1.05045 -0.2875,0.23844 c -0.52855,0.43836 -0.78257,0.32206 -1.01382,-0.46418 -0.21128,-0.71836 -0.65011,-1.46392 -0.78328,-1.33076 -0.0495,0.0496 -0.0909,0.47521 -0.0938,0.96561 -0.004,0.61234 -0.0403,0.91925 -0.12143,1.017 -0.14958,0.18022 -0.54922,0.18031 -0.69893,1.6e-4 z m -3.27952,-0.0183 c -0.13188,-0.0861 -0.25658,-0.64625 -0.26199,-1.17698 -0.004,-0.35178 -0.01,-0.35985 -0.23652,-0.30175 -0.12806,0.0328 -0.35047,0.0602 -0.49426,0.0609 -0.2519,10e-4 -0.25811,0.01 -0.17071,0.24149 0.20544,0.54428 -0.45863,0.99178 -0.84219,0.56754 -0.14972,-0.16561 -0.16311,-0.29532 -0.14446,-1.40049 l 0.0205,-1.21798 -0.17322,0.17322 c -0.14165,0.14165 -0.23835,0.16346 -0.53051,0.11965 l -0.35728,-0.0536 0.0269,1.1709 c 0.0309,1.34424 -0.035,1.57839 -0.45544,1.61972 -0.41994,0.0413 -0.47581,-0.10921 -0.46218,-1.2449 0.0152,-1.2637 -0.0299,-1.47826 -0.29663,-1.41132 -0.45296,0.11368 -0.84093,-0.3177 -0.63381,-0.70471 0.11151,-0.20836 0.21829,-0.23432 1.27476,-0.30986 1.2059,-0.0862 1.2852,-0.0797 1.44578,0.11858 0.12835,0.15851 0.15728,0.16416 0.25254,0.0494 0.0648,-0.078 0.21078,-0.11949 0.36687,-0.10415 0.33488,0.0329 0.47193,0.30107 0.47356,0.9266 0.001,0.53558 0.10104,0.635 0.48866,0.48763 0.39594,-0.15054 0.52859,-0.3281 0.52859,-0.70759 0,-0.40921 0.11357,-0.55415 0.43422,-0.55415 0.45612,0 0.51056,0.15949 0.44671,1.30866 -0.0395,0.71055 -0.0251,1.17075 0.0459,1.46673 0.13545,0.56465 7.2e-4,0.89678 -0.37713,0.92967 -0.13937,0.0121 -0.3053,-0.0118 -0.36873,-0.0532 z m 1.55305,-0.52097 c -0.14477,-0.15997 -0.14776,-0.23078 -0.0458,-1.08779 0.06,-0.50417 0.0819,-1.07726 0.0487,-1.27351 -0.0474,-0.28065 -0.0286,-0.39187 0.0882,-0.52088 0.31723,-0.35054 0.76067,-0.10009 0.84746,0.47863 0.0798,0.53215 -0.11967,2.2383 -0.28369,2.42649 -0.17233,0.19772 -0.46439,0.18749 -0.65483,-0.0229 z m 0.007,-5.75551 c -0.51667,-0.098 -0.64025,-0.317 -0.64025,-1.13464 0,-0.38088 0.0572,-0.91192 0.127,-1.18009 0.0698,-0.26817 0.127,-0.61317 0.127,-0.76666 0,-0.48251 0.41842,-0.68577 0.9756,-0.47393 0.15514,0.059 0.39072,0.0548 0.76167,-0.0136 0.46852,-0.0863 0.56466,-0.0809 0.75322,0.0427 0.29543,0.19357 0.37228,0.53261 0.16646,0.73434 -0.12659,0.12407 -0.3197,0.16158 -0.94088,0.1828 -0.57066,0.0195 -0.79398,0.0585 -0.82749,0.14464 -0.0677,0.17389 3.6e-4,0.20584 0.42465,0.19942 0.44798,-0.007 0.63411,0.1373 0.63411,0.49083 0,0.34144 -0.38751,0.54142 -0.90015,0.46455 l -0.36985,-0.0555 v 0.27 c 0,0.26663 0.004,0.26935 0.33157,0.21699 0.18236,-0.0292 0.44833,-0.11975 0.59105,-0.20132 0.27622,-0.15788 0.45862,-0.10892 0.6348,0.17039 0.13069,0.20718 -0.0342,0.57979 -0.33022,0.74632 -0.30243,0.17012 -1.05438,0.25071 -1.51829,0.16271 z m -5.55091,-0.16939 c -0.15628,-0.15628 -0.16933,-0.28222 -0.16933,-1.63406 0,-1.57634 0.0239,-1.66794 0.43456,-1.66794 0.15598,0 0.24864,-0.0545 0.2844,-0.16712 0.0751,-0.23649 0.45093,-0.51021 0.70062,-0.51021 0.29378,0 0.73498,0.49283 0.90827,1.01455 l 0.14134,0.42554 0.43757,-0.46033 c 0.47526,-0.49997 0.73956,-0.61446 1.10114,-0.47699 0.37046,0.14085 0.49121,0.56187 0.57129,1.99184 0.0623,1.11284 0.0543,1.28533 -0.0659,1.41816 -0.18047,0.19942 -0.47083,0.19198 -0.65986,-0.0169 -0.12339,-0.13635 -0.16188,-0.37743 -0.20362,-1.27546 l -0.0515,-1.10733 -0.31737,0.48272 c -0.17455,0.26549 -0.39343,0.73811 -0.48639,1.05026 -0.1786,0.59969 -0.36933,0.8486 -0.65029,0.8486 -0.33391,0 -0.42733,-0.24195 -0.47402,-1.22767 -0.0243,-0.51223 -0.0888,-1.04563 -0.14348,-1.18533 -0.0897,-0.22942 -0.10775,-0.23901 -0.18607,-0.0991 -0.13157,0.23511 -0.40701,1.6553 -0.40827,2.1051 -8.8e-4,0.31389 -0.0406,0.42505 -0.18928,0.52917 -0.2487,0.17419 -0.37004,0.16625 -0.57383,-0.0375 z m 11.84955,-0.004 c -0.15138,-0.15138 -0.16587,-0.23706 -0.11547,-0.68256 0.0602,-0.53204 -0.10344,-1.99366 -0.2321,-2.07317 -0.0879,-0.0543 -0.0929,-0.46495 -0.007,-0.59332 0.0342,-0.0512 0.14759,-0.13812 0.25194,-0.19307 0.1533,-0.0807 0.24264,-0.0726 0.46524,0.0426 0.40233,0.20805 1.26064,1.10449 1.56233,1.63174 l 0.26134,0.45675 0.0569,-0.33683 c 0.0313,-0.18526 0.0451,-0.68908 0.0307,-1.11961 -0.0233,-0.69467 -0.008,-0.79631 0.13812,-0.90308 0.24021,-0.17584 0.52693,-0.14711 0.67751,0.0679 0.21926,0.31303 0.17697,1.65065 -0.0841,2.66006 -0.11874,0.45912 -0.28672,0.90644 -0.37329,0.99405 -0.20494,0.20737 -0.57306,0.12414 -0.67859,-0.15342 -0.042,-0.11059 -0.12145,-0.22889 -0.17644,-0.26288 -0.055,-0.034 -0.28069,-0.34382 -0.50153,-0.68852 l -0.40154,-0.62672 -0.043,0.82303 c -0.0377,0.72159 -0.0664,0.84196 -0.23274,0.97663 -0.24499,0.19838 -0.3847,0.19383 -0.59804,-0.0195 z m -1.62264,-0.0597 c -0.0708,-0.0815 -0.15125,-0.29576 -0.17884,-0.47615 -0.0276,-0.1804 -0.0691,-0.34691 -0.0922,-0.37004 -0.0231,-0.0231 -0.21134,-0.0166 -0.41826,0.0144 -0.34692,0.052 -0.3805,0.0792 -0.4312,0.34951 -0.034,0.18125 -0.13796,0.34745 -0.27245,0.43558 -0.19453,0.12746 -0.24093,0.12931 -0.43994,0.0176 -0.12237,-0.0687 -0.23607,-0.19544 -0.25268,-0.28168 -0.0166,-0.0862 0.15254,-0.71359 0.37589,-1.39409 0.46058,-1.40333 0.66539,-1.70295 1.16409,-1.70295 0.6273,0 1.02997,0.78631 1.24696,2.43497 0.095,0.72161 0.091,0.79738 -0.0493,0.9525 -0.18833,0.20811 -0.48104,0.21725 -0.65202,0.0204 z m -0.43993,-2.00134 c -0.0264,-0.0984 -0.0512,-0.21692 -0.0551,-0.26349 -0.0105,-0.12546 -0.15166,0.23006 -0.15859,0.39951 -0.004,0.0989 0.0369,0.12905 0.12787,0.0942 0.088,-0.0338 0.11739,-0.11258 0.0858,-0.23018 z m -9.96467,-3.70085 c -0.15156,-0.15155 -0.16871,-0.23562 -0.11657,-0.5715 0.0336,-0.21659 0.10524,-0.95791 0.15917,-1.64736 0.10287,-1.31531 0.13826,-1.40939 0.53121,-1.41215 0.10145,-7.1e-4 0.24879,0.063 0.32742,0.14168 0.12536,0.12535 0.13577,0.26879 0.0844,1.16416 -0.0322,0.56166 -0.0763,1.0974 -0.0981,1.19053 -0.0362,0.1548 0.003,0.16891 0.45077,0.16441 0.26968,-0.003 0.55423,-0.0343 0.63234,-0.0702 0.42363,-0.19471 0.85911,0.23026 0.69989,0.683 -0.1252,0.35601 -0.4029,0.44995 -1.02499,0.34673 -0.42615,-0.0707 -0.59568,-0.0614 -0.92525,0.0509 -0.50801,0.1731 -0.50699,0.17315 -0.72035,-0.0402 z m 8.60202,-0.34641 c -0.18627,-0.0979 -0.49107,-0.30115 -0.67733,-0.45172 -0.66113,-0.53442 -1.50009,-0.83499 -1.35284,-0.48468 0.15623,0.37167 0.13849,0.5064 -0.0904,0.68641 -0.28734,0.22602 -0.58087,0.2317 -0.79714,0.0154 -0.15046,-0.15045 -0.16118,-0.24507 -0.11453,-1.01076 0.0348,-0.5713 0.0168,-0.96868 -0.0557,-1.22756 -0.13282,-0.47438 -0.0608,-0.79004 0.2081,-0.91257 0.34195,-0.1558 0.61766,0.0889 0.68672,0.6095 0.031,0.23385 0.0821,0.44106 0.11347,0.46046 0.0314,0.0194 0.44821,-0.2291 0.92625,-0.55223 0.47805,-0.32313 0.93992,-0.58751 1.02639,-0.58751 0.21816,0 0.4233,0.22686 0.4233,0.46811 0,0.20588 -0.15659,0.35621 -0.94988,0.91191 l -0.39956,0.27989 0.27256,0.15584 c 0.1499,0.0857 0.46657,0.30279 0.70371,0.48238 0.23713,0.1796 0.48583,0.32654 0.55266,0.32654 0.42658,0 0.65797,0.59085 0.34301,0.87588 -0.20247,0.18323 -0.40522,0.17201 -0.81883,-0.0453 z m 2.2622,-0.0262 c -0.16361,-0.14164 -0.21576,-0.32161 -0.31893,-1.10067 -0.16832,-1.27104 -0.10095,-1.83737 0.26319,-2.21233 l 0.27709,-0.28533 h 1.18634 c 0.96561,0 1.2111,0.0247 1.3194,0.13305 0.1651,0.1651 0.1698,0.37686 0.0131,0.5916 -0.10416,0.14278 -0.25696,0.1699 -1.16416,0.20668 l -1.04427,0.0423 -0.0278,0.2434 -0.0278,0.2434 0.798,-0.0598 c 0.88019,-0.066 1.07795,0.0118 1.07795,0.42379 0,0.29564 -0.29075,0.44128 -1.016,0.5089 -0.75051,0.07 -0.75884,0.0734 -0.70184,0.29142 0.0405,0.15491 0.11561,0.16925 0.88662,0.16925 0.96261,0 1.16989,0.0727 1.16989,0.41013 0,0.4638 -0.1067,0.50606 -1.35344,0.53606 -1.04262,0.0251 -1.15875,0.0128 -1.33736,-0.14186 z m -7.3374,-0.0612 c -0.0989,-0.14126 -0.13192,-0.4104 -0.13227,-1.0795 -2.6e-4,-0.49023 -0.0409,-1.03699 -0.0904,-1.21501 -0.0729,-0.26259 -0.0645,-0.36247 0.0447,-0.52917 0.18096,-0.27617 0.58552,-0.28074 0.76382,-0.009 0.15888,0.24248 0.3354,2.53887 0.21277,2.76801 -0.16223,0.30312 -0.60639,0.33888 -0.79872,0.0643 z m 5.48035,-5.71733 c -0.0862,-0.12806 -0.22564,-0.38523 -0.30988,-0.5715 -0.0842,-0.18627 -0.29175,-0.56727 -0.46113,-0.84666 l -0.30796,-0.508 -0.0604,0.33866 c -0.0332,0.18627 -0.0626,0.51374 -0.0653,0.72771 -0.006,0.46152 -0.20691,0.69643 -0.56035,0.65447 -0.38925,-0.0462 -0.41776,-0.19196 -0.29452,-1.50565 0.0844,-0.8996 0.0883,-1.22244 0.0155,-1.29518 -0.23438,-0.23438 -0.0236,-0.82501 0.29437,-0.82501 0.17616,0 0.62474,0.24236 0.62474,0.33754 0,0.0436 0.17979,0.29976 0.39954,0.56933 0.21974,0.26957 0.51993,0.67275 0.66707,0.89596 l 0.26755,0.40583 0.0573,-0.53486 c 0.0315,-0.29417 0.0332,-0.59764 0.004,-0.67438 -0.10427,-0.27174 0.2743,-0.74542 0.59575,-0.74542 0.28409,0 0.47143,0.30277 0.4162,0.67266 -0.0247,0.16555 -0.0947,0.84227 -0.15555,1.50382 -0.12848,1.39719 -0.22706,1.63351 -0.68142,1.63351 -0.22042,0 -0.32565,-0.055 -0.44533,-0.23283 z m -8.35221,-0.093 c -0.12413,-0.13717 -0.13038,-0.23395 -0.0506,-0.78317 0.0501,-0.34466 0.085,-1.10291 0.0776,-1.68499 -0.007,-0.58209 -0.01,-1.10791 -0.005,-1.16849 0.0114,-0.1471 0.52739,-0.35597 0.87365,-0.35366 0.59159,0.004 1.3801,0.5293 1.697,1.13063 0.32231,0.61156 0.20296,1.85603 -0.22304,2.32573 -0.26648,0.29382 -0.56659,0.42416 -1.2996,0.56442 -0.83765,0.16029 -0.89914,0.15854 -1.0702,-0.0305 z m 1.71864,-1.18804 c 0.16556,-0.30938 0.19362,-0.91848 0.0556,-1.20759 -0.12235,-0.25633 -0.68362,-0.7385 -0.76393,-0.65625 -0.0284,0.0291 -0.081,1.97582 -0.0573,2.11988 0.0174,0.10542 0.69307,-0.12056 0.76557,-0.25604 z m 2.46076,1.24965 c -0.30267,-0.12033 -0.66458,-0.486 -0.86975,-0.87878 -0.13123,-0.25123 -0.17841,-0.50259 -0.18275,-0.97366 -0.009,-0.98797 0.0702,-1.23573 0.47802,-1.49315 0.67558,-0.42648 1.21099,-0.34665 1.74361,0.25996 0.50959,0.5804 0.69597,1.91924 0.35909,2.57958 -0.26157,0.51271 -0.9435,0.73853 -1.52822,0.50605 z m 0.71548,-1.53434 c -0.003,-0.52511 -0.0388,-0.70201 -0.17831,-0.889 -0.23878,-0.32012 -0.38403,-0.32429 -0.55834,-0.0161 -0.3484,0.61608 -0.007,1.64774 0.52475,1.58579 0.21131,-0.0246 0.21599,-0.0396 0.2119,-0.68074 z m 6.52832,1.18706 c -0.10192,-0.14551 -0.13181,-0.42387 -0.13181,-1.22767 v -1.03949 h -0.23516 c -0.34059,0 -0.6115,-0.21969 -0.6115,-0.49587 0,-0.38317 0.12845,-0.43546 1.06975,-0.43546 0.47661,0 0.97233,-0.0402 1.1016,-0.0894 0.31763,-0.12076 0.60863,-0.034 0.7222,0.21523 0.15304,0.33588 -0.0832,0.60139 -0.64751,0.72767 l -0.46804,0.10474 v 1.1126 c 0,0.75246 -0.0329,1.14548 -0.1016,1.21419 -0.16841,0.16841 -0.55273,0.12074 -0.69793,-0.0866 z m -0.9476,-3.66793 c -0.14839,-0.14839 -0.19564,-0.26036 -0.15183,-0.35983 0.035,-0.0794 0.1392,-0.36414 0.2316,-0.63271 0.1712,-0.49759 0.33566,-0.62693 0.70641,-0.55553 0.51813,0.0998 0.10312,1.76351 -0.4399,1.76351 -0.072,0 -0.22779,-0.0969 -0.34628,-0.21544 z m -10.49038,-2.5785 c -0.14145,-0.0441 -0.3558,-0.18603 -0.47633,-0.31532 l -0.21914,-0.23508 0.0556,-1.56633 c 0.0613,-1.725 0.14103,-2.01094 0.61587,-2.20763 0.28243,-0.11698 1.47084,0.0272 1.90317,0.23088 0.48561,0.22879 0.56023,0.76599 0.16741,1.2052 -0.12171,0.13608 -0.14752,0.21401 -0.079,0.23853 0.24794,0.0887 0.66678,0.42895 0.76357,0.62023 0.0582,0.11502 0.10638,0.35322 0.10707,0.52934 0.002,0.63744 -0.3337,1.09728 -1.01475,1.38799 -0.36095,0.15407 -1.47055,0.22234 -1.82351,0.11219 z m 1.33382,-0.93506 c 0.38763,-0.10766 0.57436,-0.28521 0.57436,-0.54615 0,-0.23516 -0.26411,-0.33814 -1.0795,-0.42089 l -0.52917,-0.0537 v 0.34811 c 0,0.65832 0.32495,0.86965 1.03431,0.67264 z m -0.43355,-2.11877 c 0.13525,-0.0963 0.24591,-0.20559 0.24591,-0.24285 0,-0.0373 -0.16119,-0.0894 -0.3582,-0.1158 -0.38621,-0.0518 -0.48496,0.0178 -0.48717,0.34325 -0.002,0.24724 0.26428,0.25407 0.59946,0.0154 z m 6.68691,2.9344 c -0.0837,-0.10088 -0.0862,-0.32996 -0.0119,-1.08378 0.17515,-1.77597 0.17436,-1.74228 0.0421,-1.79302 -0.0677,-0.026 -0.238,-0.0242 -0.37846,0.004 -0.18071,0.0361 -0.30421,0.007 -0.42241,-0.10009 -0.20906,-0.18919 -0.2121,-0.38916 -0.01,-0.63908 0.14326,-0.17691 0.21317,-0.1915 0.78317,-0.16341 0.34423,0.017 0.92548,0.0229 1.29166,0.0132 0.74269,-0.0197 0.90054,0.0532 0.90054,0.41598 0,0.29307 -0.26993,0.50243 -0.64779,0.50243 -0.44623,0 -0.50654,0.13407 -0.57324,1.27452 -0.0332,0.56823 -0.10548,1.17115 -0.16053,1.33981 -0.0876,0.26824 -0.13815,0.30986 -0.40368,0.33212 -0.19346,0.0162 -0.34209,-0.0209 -0.40975,-0.10248 z m 4.81873,-0.24047 c -0.18249,-0.29931 -0.21123,-0.49263 -0.0919,-0.61806 0.0855,-0.0898 0.26213,-1.5966 0.26213,-2.23583 0,-0.53114 0.0596,-0.67559 0.31931,-0.77434 0.15819,-0.0601 0.26514,-0.0453 0.42398,0.0588 0.21019,0.13771 0.21187,0.14827 0.15882,0.99708 -0.17512,2.80201 -0.18553,2.84756 -0.6513,2.84756 -0.19491,0 -0.29197,-0.0634 -0.42107,-0.27517 z m -8.34624,-0.0543 c -0.65953,-0.40218 -0.88382,-1.04592 -0.85316,-2.44864 0.0229,-1.04903 0.0643,-1.13621 0.52007,-1.09632 0.39372,0.0345 0.4858,0.30037 0.42463,1.22633 -0.0445,0.67317 -0.0278,0.83468 0.12065,1.17032 0.13745,0.31073 0.20897,0.38386 0.35408,0.36206 0.22941,-0.0345 0.46156,-0.59964 0.59486,-1.44818 0.1207,-0.76836 0.25198,-0.99214 0.58204,-0.99214 0.40042,0 0.54575,0.29932 0.42582,0.87704 -0.0528,0.2543 -0.087,0.78689 -0.0761,1.18353 0.0221,0.80065 -0.0579,0.98707 -0.42358,0.98799 -0.12235,3e-4 -0.33676,0.0763 -0.47646,0.16877 -0.32244,0.21354 -0.85109,0.21763 -1.19284,0.009 z m -48.887492,29.5297 c -2.670529,-0.19422 -6.031299,-0.29755 -8.847666,-0.27202 -0.884766,0.008 -4.370916,0.006 -7.746999,-0.004 -5.099805,-0.0155 -6.366245,-0.0431 -7.485431,-0.16275 -1.700172,-0.18181 -4.120198,-0.18609 -6.075136,-0.0108 -1.404756,0.12599 -1.50907,0.12529 -1.717937,-0.0116 -0.357936,-0.23452 -0.417504,-0.44017 -0.43992,-1.51872 -0.01161,-0.5588 -0.05917,-3.0734 -0.105687,-5.588 -0.06021,-3.25488 -0.114785,-4.64923 -0.189451,-4.84008 -0.08087,-0.20672 -0.08253,-0.34239 -0.0072,-0.59267 0.06164,-0.20487 0.114031,-1.43309 0.142044,-3.33025 0.04558,-3.08651 0.05931,-3.38822 0.22354,-4.91067 0.05274,-0.48895 0.106611,-1.5748 0.119705,-2.413 0.01309,-0.83819 0.04928,-2.72414 0.08042,-4.19099 0.05116,-2.41017 0.138441,-7.8018 0.163098,-10.07534 0.0053,-0.48895 0.03948,-0.97063 0.07596,-1.07039 0.08297,-0.22696 0.497071,-0.40527 0.777636,-0.33485 0.376063,0.0944 0.463564,0.34938 0.468699,1.36588 0.02059,4.07659 -0.266619,16.9396 -0.385133,17.24844 -0.06878,0.17923 0.04372,0.18476 1.213652,0.0597 0.783994,-0.0838 2.331092,-0.45706 2.927745,-0.70636 0.467352,-0.19527 0.910389,-1.20905 1.780429,-4.07408 0.212117,-0.6985 0.519651,-1.82245 0.683408,-2.49767 0.417759,-1.72255 0.614092,-2.29137 1.047371,-3.03451 0.615582,-1.0558 1.269336,-1.85992 2.068842,-2.54467 0.954334,-0.81735 1.503916,-1.1534 2.653333,-1.6224 l 0.921701,-0.37609 1.481666,8e-5 c 1.714049,9e-5 2.116335,0.0773 2.91575,0.55943 l 0.551125,0.3324 0.509297,-0.4104 c 0.891809,-0.71863 2.066795,-1.25091 3.601494,-1.63153 1.552371,-0.385 1.866128,-0.38451 2.921,0.005 1.263024,0.46592 1.752995,0.75451 2.319088,1.36594 0.461967,0.49897 0.611665,0.75144 1.109633,1.87145 0.316593,0.71207 0.652716,1.52327 0.746939,1.80267 0.220775,0.65466 1.500569,3.16287 2.32462,4.55592 0.624605,1.05589 0.657387,1.09398 1.238805,1.43933 0.542561,0.32228 0.649503,0.35478 1.16842,0.35512 0.477144,3.1e-4 0.602193,0.0314 0.759445,0.18862 0.260453,0.26045 0.251798,0.71223 -0.01918,1.0014 -0.19738,0.21063 -0.242539,0.21997 -0.931766,0.19282 -0.689159,-0.0272 -0.75905,-0.0485 -1.439333,-0.44025 -0.945419,-0.54439 -1.17561,-0.77763 -1.808036,-1.83196 -0.75456,-1.25795 -2.276989,-4.2343 -2.576808,-5.03767 -0.262119,-0.70235 -0.894038,-2.16227 -1.14742,-2.65089 -0.318625,-0.61443 -0.69931,-0.91935 -1.642903,-1.31595 -0.498208,-0.2094 -1.039183,-0.40508 -1.202167,-0.43484 -0.204783,-0.0374 -0.674895,0.0388 -1.521682,0.24653 -1.409712,0.34588 -2.410118,0.80353 -3.073095,1.40585 l -0.421974,0.38337 0.276993,0.54797 c 0.152347,0.30138 0.454589,1.08136 0.67165,1.7333 0.382031,1.14741 0.402631,1.18607 0.643883,1.20863 0.137074,0.0128 0.420676,0.0963 0.630226,0.18562 0.20955,0.0893 0.563048,0.18607 0.785551,0.21508 0.569188,0.0742 1.788896,0.73288 2.329086,1.25774 0.877408,0.85249 1.740663,3.05317 2.393319,6.10122 0.287078,1.34072 0.779453,3.23221 0.862918,3.31495 0.0118,0.0117 0.578227,0.11859 1.258723,0.23753 0.680496,0.11894 1.537746,0.31222 1.905,0.42949 0.53413,0.17057 0.845611,0.21383 1.556735,0.21618 1.040434,0.003 1.513533,0.16233 1.730051,0.58103 0.185769,0.35924 0.165667,0.57817 -0.0752,0.81904 -0.239452,0.23945 -0.724738,0.28338 -0.892848,0.0808 -0.0806,-0.0971 -0.301127,-0.127 -0.93733,-0.127 -0.662357,0 -0.975011,-0.0452 -1.533894,-0.22175 -0.715278,-0.22596 -2.436861,-0.57106 -2.505649,-0.50227 -0.04728,0.0473 0.416831,1.17254 0.791054,1.91793 0.3595,0.71606 0.890222,1.1892 1.910849,1.70352 l 0.793303,0.39977 1.185333,2.5e-4 c 0.651934,1.4e-4 1.29347,-0.004 1.425636,-0.009 0.332388,-0.0133 0.67692,0.34272 0.67692,0.69952 0,0.19374 -0.0688,0.33171 -0.237981,0.47723 -0.236212,0.20318 -0.249817,0.2045 -1.829856,0.1771 l -1.591874,-0.0276 -0.994158,-0.508 c -1.176084,-0.60096 -1.773797,-1.06911 -2.22207,-1.7404 -0.306419,-0.45887 -1.295938,-2.66867 -1.463003,-3.26719 -0.06513,-0.23334 -0.156888,-0.29955 -0.741876,-0.53536 -0.928769,-0.37439 -1.92898,-0.95992 -2.360917,-1.3821 -0.482568,-0.47167 -1.141,-1.51208 -1.323906,-2.09195 -0.160846,-0.50993 -0.405868,-1.04839 -1.40623,-3.09033 -0.603793,-1.23247 -0.782972,-1.69858 -1.22865,-3.19617 -0.102923,-0.34585 -0.186717,-0.48683 -0.289345,-0.48683 -0.233145,0 -1.275844,0.77941 -1.799769,1.34531 -0.653076,0.7054 -0.883417,1.12515 -1.178832,2.1482 -0.137667,0.47675 -0.379276,1.17162 -0.536909,1.54415 -0.157634,0.37254 -0.445886,1.11549 -0.640562,1.651 -0.47383,1.30343 -0.994431,2.40469 -1.489964,3.15183 -0.630285,0.95032 -2.964384,3.27976 -4.119651,4.11143 -1.651375,1.18882 -2.6342,1.53491 -5.110048,1.79943 -0.923057,0.0986 -2.154535,0.27141 -2.736618,0.38398 -0.582083,0.11257 -1.254096,0.20483 -1.493362,0.20501 l -0.435029,3.2e-4 0.03963,2.89984 c 0.05725,4.18884 0.149057,7.32668 0.216342,7.39397 0.03212,0.0321 0.664394,0.009 1.405053,-0.0507 1.539227,-0.12467 4.65276,-0.07 5.940032,0.10429 0.605873,0.082 2.193559,0.10246 6.434666,0.0828 3.55287,-0.0165 5.849013,0.006 6.222999,0.0608 0.406728,0.0597 1.283299,0.0592 2.794,-0.002 1.626926,-0.0654 2.411213,-0.063 3.005666,0.009 0.442384,0.0538 1.490134,0.10868 2.328334,0.12206 0.838199,0.0134 2.133599,0.0688 2.878666,0.12307 1.253497,0.0914 3.053213,0.0727 3.776058,-0.0392 0.246116,-0.0381 0.354973,-0.005 0.56599,0.17267 0.391837,0.32971 0.398238,0.88846 0.01293,1.12908 -0.208027,0.12992 -3.131871,0.18945 -4.481982,0.0912 z M 54.907611,61.890699 c 0.325967,-0.0731 1.464241,-0.2318 2.529499,-0.35262 1.73088,-0.19631 2.029121,-0.25371 2.804738,-0.53979 1.176955,-0.43411 2.337812,-1.27961 3.872791,-2.82073 1.771684,-1.77877 2.229989,-2.49371 3.111003,-4.8531 0.243437,-0.65194 0.539114,-1.41394 0.657059,-1.69333 0.117946,-0.2794 0.357249,-0.97649 0.531784,-1.54908 0.331273,-1.08679 0.610982,-1.59991 1.34434,-2.46616 0.468865,-0.55383 1.565716,-1.38942 2.220287,-1.69143 l 0.476836,-0.22 -0.373419,-1.10067 c -0.20538,-0.60536 -0.395824,-1.16734 -0.42321,-1.24883 -0.103247,-0.30723 -0.09179,-0.32357 -1.618331,2.30717 -1.589608,2.73941 -2.283077,3.63387 -4.200168,5.41753 -1.112262,1.03484 -1.645985,1.39987 -3.752068,2.56615 -1.611,0.89211 -2.212845,1.17887 -3.036821,1.44694 -0.421839,0.13724 -0.432825,0.14975 -0.804334,0.91602 -0.603998,1.24578 -1.136814,1.98956 -2.145241,2.99464 -1.061772,1.05824 -1.782233,1.58259 -2.5141,1.82974 l -0.500978,0.16919 v 0.55181 0.55182 l 0.613833,-0.0412 c 0.337608,-0.0226 0.880533,-0.10098 1.2065,-0.17411 z m -1.155953,-2.63086 c 0.657051,-0.44216 1.325901,-1.04625 1.931376,-1.74438 0.527499,-0.60822 1.176261,-1.59021 1.100587,-1.66588 -0.01984,-0.0198 -0.335754,0.0387 -0.702038,0.13003 -0.366285,0.0914 -1.129516,0.21289 -1.69607,0.2701 -0.566554,0.0572 -1.076105,0.13245 -1.132335,0.1672 -0.07101,0.0439 -0.115668,0.53167 -0.146209,1.59687 -0.05038,1.75707 -0.06698,1.72498 0.644689,1.24606 z m 25.635362,-3.50122 c -0.120639,-0.41569 -0.244099,-0.95386 -0.519569,-2.26483 -0.482668,-2.29702 -1.212618,-4.38838 -1.799272,-5.15503 -0.39591,-0.51738 -1.291262,-1.01708 -2.143681,-1.19639 -0.33258,-0.07 -0.645035,-0.15214 -0.694344,-0.18261 -0.0563,-0.0348 -0.06915,-0.002 -0.03455,0.0882 0.03031,0.079 0.115609,0.37709 0.189554,0.66245 0.215381,0.83118 0.469731,1.43629 1.416689,3.37038 0.490195,1.00118 0.936144,1.99178 0.990998,2.20133 0.130373,0.49805 0.787782,1.55438 1.129272,1.81452 0.418783,0.31902 1.262259,0.81015 1.391379,0.81015 0.07091,0 0.09969,-0.058 0.07352,-0.14817 z m -17.956979,-3.29019 c 2.201742,-1.21944 2.518011,-1.44431 3.910724,-2.7806 1.725194,-1.6553 2.02567,-2.07168 4.127065,-5.71904 0.362192,-0.62865 0.786982,-1.32385 0.943978,-1.54488 l 0.285448,-0.40189 -0.348319,-0.25232 c -0.466229,-0.33773 -0.736456,-0.38324 -2.275661,-0.38324 h -1.312333 l -0.823728,0.36827 c -1.035421,0.46292 -1.38258,0.69353 -2.232092,1.48275 -0.74296,0.69022 -1.42577,1.61114 -1.81139,2.44304 -0.135615,0.29257 -0.439983,1.29394 -0.676373,2.22527 -0.23639,0.93134 -0.523631,1.97909 -0.638314,2.32834 -0.114683,0.34925 -0.317486,1.016 -0.450674,1.48166 -0.133189,0.46567 -0.323565,1.04669 -0.423059,1.29117 -0.09949,0.24447 -0.151485,0.4445 -0.115536,0.4445 0.03595,0 0.864068,-0.44237 1.840264,-0.98303 z m 60.251989,16.78907 c -0.2582,-0.27484 -0.23407,-0.64098 0.0699,-1.06061 0.29949,-0.41343 0.31114,-0.49189 0.0837,-0.56406 -0.17903,-0.0568 -0.42241,-0.4469 -0.42241,-0.67704 0,-0.0745 0.0581,-0.24782 0.12918,-0.3852 0.11579,-0.22391 0.11579,-0.27569 0,-0.49959 -0.18234,-0.3526 -0.16103,-0.57272 0.0786,-0.81239 0.24005,-0.24005 0.59613,-0.27065 0.87514,-0.0752 0.27889,0.19534 0.54982,0.78708 0.55954,1.22207 0.005,0.22902 0.0761,0.4809 0.17784,0.63144 0.34348,0.50802 0.094,1.47276 -0.56254,2.17562 -0.28958,0.30999 -0.72161,0.32964 -0.98904,0.045 z m -1.87527,-0.22522 c -0.2567,-0.2567 -0.30374,-0.57797 -0.13146,-0.89787 0.14571,-0.27056 0.1448,-0.28405 -0.036,-0.53796 -0.102,-0.14325 -0.18418,-0.3841 -0.18262,-0.53522 0.0141,-1.36532 0.0147,-1.37034 0.19683,-1.56418 0.12857,-0.13686 0.27682,-0.19226 0.51448,-0.19226 0.27494,0 0.39189,0.058 0.66258,0.32871 0.27035,0.27035 0.32822,0.38683 0.32601,0.65616 -0.001,0.18011 -0.0559,0.3977 -0.12095,0.48354 -0.1029,0.13581 -0.0971,0.19077 0.0447,0.42333 0.0896,0.14699 0.16309,0.38156 0.16324,0.52126 3.8e-4,0.35642 -0.31218,1.15646 -0.52099,1.3335 -0.2363,0.20036 -0.70621,0.19061 -0.91583,-0.019 z M 97.615428,49.647969 c -0.22529,-0.22529 -0.24746,-0.29933 -0.24717,-0.8255 2.3e-4,-0.42864 0.0441,-0.64981 0.1697,-0.85583 l 0.16938,-0.27782 -0.1697,-0.33264 c -0.31478,-0.61702 -0.18537,-1.21131 0.34952,-1.60515 0.36884,-0.27157 0.80127,-0.27659 1.01569,-0.0118 0.20867,0.2577 0.20495,0.7012 -0.008,0.89347 -0.16479,0.14914 -0.16479,0.15239 0,0.47542 0.21315,0.4178 0.21073,0.89248 -0.006,1.24855 -0.12622,0.20701 -0.15729,0.35816 -0.11737,0.57094 0.0791,0.42175 -0.018,0.69346 -0.30003,0.8393 -0.36442,0.18845 -0.57851,0.1587 -0.85616,-0.11895 z m -1.94265,-0.15775 c -0.39667,-0.39668 -0.5509,-0.89222 -0.42416,-1.3629 0.0487,-0.18084 0.14423,-0.37502 0.21229,-0.43151 0.10542,-0.0875 0.0803,-0.14372 -0.16994,-0.37969 -0.37518,-0.35384 -0.38567,-0.68652 -0.0406,-1.28816 0.29966,-0.52248 0.53445,-0.7045 0.90876,-0.7045 0.52546,0 0.80962,0.61746 0.4925,1.0702 -0.11258,0.16074 -0.10499,0.1941 0.0848,0.37239 0.23777,0.22337 0.38475,0.66373 0.31615,0.94719 -0.0256,0.1059 -0.13695,0.31429 -0.24739,0.46309 l -0.20079,0.27054 0.21245,0.21245 c 0.44488,0.44488 0.12988,1.15147 -0.51333,1.15147 -0.24603,0 -0.37642,-0.0663 -0.63072,-0.32057 z"
       id="path1" /><path
       id="path2"
       style="fill:none;stroke:#000000;stroke-width:1.0062"
       d="m 101.25475,72.945562 c -0.96679,-10e-7 -1.750529,-0.90241 -1.750529,-2.015587 0,-1.113177 0.783739,-2.015586 1.750529,-2.015587 0.96679,10e-7 0.26462,0.02287 0.89562,0.05497"
       sodipodi:nodetypes="cssc" /></g></svg>
