<?xml version="1.0" encoding="UTF-8" standalone="no"?>
<!-- Created with Inkscape (http://www.inkscape.org/) -->

<svg
   width="41.965523mm"
   height="42.80246mm"
   viewBox="0 0 41.965523 42.80246"
   version="1.1"
   id="svg1"
   xml:space="preserve"
   inkscape:version="1.4.2 (ebf0e940d0, 2025-05-08)"
   sodipodi:docname="bunny_head_small.svg"
   xmlns:inkscape="http://www.inkscape.org/namespaces/inkscape"
   xmlns:sodipodi="http://sodipodi.sourceforge.net/DTD/sodipodi-0.dtd"
   xmlns="http://www.w3.org/2000/svg"
   xmlns:svg="http://www.w3.org/2000/svg"><sodipodi:namedview
     id="namedview1"
     pagecolor="#ffffff"
     bordercolor="#000000"
     borderopacity="0.25"
     inkscape:showpageshadow="2"
     inkscape:pageopacity="0.0"
     inkscape:pagecheckerboard="0"
     inkscape:deskcolor="#d1d1d1"
     inkscape:document-units="mm"
     inkscape:zoom="2.9581428"
     inkscape:cx="207.56267"
     inkscape:cy="82.315162"
     inkscape:window-width="1473"
     inkscape:window-height="795"
     inkscape:window-x="0"
     inkscape:window-y="0"
     inkscape:window-maximized="1"
     inkscape:current-layer="layer1" /><defs
     id="defs1" /><g
     inkscape:label="Layer 1"
     inkscape:groupmode="layer"
     id="layer1"
     transform="translate(-105.4005,-127.04237)"><g
       id="g2"><path
         style="fill:#ffffff;fill-opacity:1;stroke:none;stroke-width:0.264583;stroke-opacity:1"
         d="m 118.90119,129.14693 c -0.16865,0.16866 -0.67462,0.33731 -0.50596,0.50596 0.16865,0.16866 0.67462,-0.67461 0.50596,-0.50596 -0.33731,0.33731 -0.67462,0.67462 -1.01192,1.01193 -0.0843,0.0843 -0.19965,0.14631 -0.25298,0.25298 -0.0377,0.0754 0.0267,0.17298 0,0.25298 -0.0537,0.16119 -0.18578,0.37156 -0.25299,0.50596 -0.10102,0.20204 -0.53191,0.4984 -0.63245,0.63246 -0.0506,0.0675 0.0267,0.17298 0,0.25298 -0.10488,0.31463 -0.11702,0.61352 -0.25298,0.88543 -0.21698,0.43396 0.17997,1.98989 0,2.52981 -0.0189,0.0566 -0.0998,0.0732 -0.12649,0.12649 -0.0566,0.11314 0.0307,0.25676 0,0.37948 -0.0879,0.35138 -0.23323,0.84592 -0.37947,1.13841 -0.13493,0.26985 0.13492,0.74208 0,1.01193 -0.0533,0.10666 -0.18683,0.15375 -0.25299,0.25298 -0.13989,0.20985 0,1.03836 0,1.26491 0,0.29664 0.0298,-0.0596 -0.12648,0.25298 -0.19684,0.39367 0.2649,2.70399 0.37947,3.16226 0.0684,0.27344 -0.0888,0.61894 0,0.88544 0.0189,0.0566 0.10763,0.0699 0.12649,0.12649 0.10086,0.30258 0.005,0.64644 0.12649,1.01192 0.0858,0.25725 -0.11992,0.64561 0,0.88544 0.0189,0.0377 0.0967,-0.0298 0.12649,0 0.0266,0.0266 0,1.5985 0,1.77086 0,0.32794 0.13266,2.0115 0,2.27684 -0.11593,0.23184 -0.29745,0.51287 -0.37947,0.75894 -0.04,0.12 0.0702,0.27422 0,0.37947 -0.0662,0.0992 -0.18683,0.15375 -0.25299,0.25298 -0.0468,0.0702 0.0267,0.17298 0,0.25298 -0.0537,0.1612 -0.18577,0.37156 -0.25298,0.50597 -0.19829,0.39659 -0.57199,0.76451 -0.75894,1.13841 -0.08,0.16 -0.28744,0.22608 -0.37947,0.37947 -0.0686,0.11434 -0.0669,0.26022 -0.12649,0.37948 -0.08,0.16 -0.28025,0.23063 -0.37947,0.37947 -0.0585,0.0878 0.0476,0.28434 0,0.37947 -0.0919,0.18372 -0.19467,0.27268 -0.25299,0.50596 -0.0204,0.0818 0.0377,0.17756 0,0.25298 -0.08,0.16 -0.3229,0.20977 -0.37947,0.37948 -0.0267,0.08 0.0267,0.17298 0,0.25298 -0.0377,0.11313 -0.21527,0.13984 -0.25298,0.25298 -0.18255,0.54765 0.24181,-0.0465 -0.12649,0.50596 -0.0661,0.0992 -0.19965,0.14632 -0.25298,0.25298 -0.0195,0.039 -0.16415,1.96736 -0.12649,2.02385 0.19466,0.292 0.29259,0.28492 0.37947,0.63246 0.0973,0.38931 -0.17782,1.03575 0,1.39139 0.11303,0.22606 0.16264,0.62343 0.25298,0.75895 0.27456,0.41183 0.2353,0.0734 0.37947,0.50596 0.0866,0.25963 0.004,0.63943 0.12649,0.88543 0.086,0.17192 0.29352,0.33404 0.37948,0.50596 0.12602,0.25205 0.24859,0.62369 0.37947,0.88544 0.28406,0.56813 1.61515,1.4303 2.15034,1.64438 0.0783,0.0313 0.17298,-0.0267 0.25298,0 0.0566,0.0189 0.0732,0.0998 0.12649,0.12649 0.31967,0.15983 0.95905,0.0491 1.26491,0.25298 0.57232,0.38155 1.10352,0.74499 1.77087,1.01192 0.16141,0.0646 0.35047,0.0488 0.50596,0.1265 0.10666,0.0533 0.14337,0.206 0.25298,0.25298 0.19761,0.0847 0.43484,0.0418 0.63245,0.12649 0.10962,0.047 0.15376,0.18683 0.25299,0.25298 0.24848,0.16566 0.60519,0.36584 0.88543,0.50596 0.60071,0.30036 1.29888,-0.073 1.89736,0.12649 0.11313,0.0377 0.14631,0.19965 0.25298,0.25298 0.0463,0.0232 0.45275,-0.0532 0.50596,0 0.0298,0.0298 -0.0298,0.0967 0,0.12649 0.073,0.073 3.14708,-0.23779 3.28876,-0.37947 0.0298,-0.0298 -0.0298,-0.0967 0,-0.12649 0.0913,-0.0913 0.51419,-0.20568 0.63245,-0.25298 0.21082,-0.0843 0.41705,-0.18118 0.63245,-0.25298 0.08,-0.0267 0.18282,0.0468 0.25298,0 0.0992,-0.0661 0.13985,-0.21527 0.25299,-0.25298 0.16,-0.0533 0.33731,0 0.50596,0 0.73192,0 1.80674,0.0183 2.40332,-0.37947 0.37947,-0.25299 0.12649,-0.18974 0.37947,-0.37948 0.47335,-0.355 0.93601,-0.65774 1.3914,-0.88543 0.23489,-0.11744 0.42648,-0.47798 0.63245,-0.63246 0.32036,-0.24026 0.68478,-0.27042 1.01193,-0.37947 0.14717,-0.0491 0.6709,-0.58284 0.75894,-0.75894 0.0189,-0.0377 -0.0298,-0.0967 0,-0.12649 0.0298,-0.0298 0.0967,0.0298 0.12649,0 0.0971,-0.0971 0.0726,-0.3982 0.12649,-0.50596 0.08,-0.16 0.29948,-0.21948 0.37948,-0.37948 0.0596,-0.11925 0.0669,-0.26021 0.12649,-0.37947 0.086,-0.17192 0.29351,-0.33404 0.37947,-0.50596 0.0579,-0.11583 -0.0165,-0.56664 0,-0.63245 0.0145,-0.0579 0.0998,-0.0732 0.12649,-0.12649 0.0789,-0.15791 0.0626,-1.3886 0.12649,-1.64438 0.0527,-0.21064 0.27104,-0.4698 0.37947,-0.63246 0.0468,-0.0702 -0.0267,-0.17298 0,-0.25298 0.0655,-0.19661 0.21251,-0.43007 0.25298,-0.63245 0.0483,-0.24169 0.0901,-3.1449 0,-3.41525 -0.0802,-0.24051 -0.39019,-0.78039 -0.50596,-1.01192 -0.0759,-0.15179 -0.30358,-0.22769 -0.37947,-0.37947 -0.0946,-0.18927 -0.21867,-1.19629 -0.25298,-1.26491 -0.25201,-0.50402 -0.25312,-5.3e-4 -0.37948,-0.50596 -0.077,-0.30811 0.0237,-0.58517 -0.12649,-0.88544 -0.18963,-0.37926 -0.71667,-0.42143 -0.88543,-0.75894 -0.0673,-0.13456 -0.063,-3.35287 0,-3.54174 0.0481,-0.14422 0.21611,-0.23199 0.25298,-0.37947 0.0656,-0.26257 -0.0865,-0.62589 0,-0.88543 0.30541,-0.91623 -0.0365,0.19942 0.25298,-0.37947 0.16866,-0.33731 -0.16865,-0.9276 0,-1.26491 0.0533,-0.10667 0.20869,-0.14226 0.25298,-0.25298 0.047,-0.11745 -0.0307,-0.25676 0,-0.37948 0.0145,-0.0578 0.0998,-0.0731 0.12649,-0.12649 0.0998,-0.19963 -0.0554,-0.53742 0,-0.75894 0.29074,-1.16293 0.12649,-2.46082 0.12649,-3.66823 0,-0.52861 0.14357,-2.22561 0,-2.6563 -0.0293,-0.0878 -0.29951,-0.39259 -0.37947,-0.63245 -0.12649,-0.37948 0.12649,-0.88544 0,-1.26491 -0.0189,-0.0566 -0.10763,-0.0699 -0.12649,-0.12649 -0.17703,-0.5311 0.13617,-1.22622 0,-1.77087 -0.22315,-0.8926 -0.50543,-1.7698 -0.88543,-2.52981 -0.0781,-0.15624 -0.0512,-0.49684 -0.12649,-0.63246 -0.36387,-0.65496 -0.71197,-1.10021 -1.3914,-1.39139 -0.0775,-0.0332 -0.16865,0 -0.25298,0 -0.38421,0 -1.26353,-0.12695 -1.64438,0 -0.40269,0.13423 -0.74336,0.6879 -1.13841,0.88543 -0.15367,0.0768 -0.40203,0.0451 -0.50597,0.25298 -0.0879,0.17586 -0.0174,0.41421 -0.12649,0.63246 -0.29865,0.59731 0.0665,-0.77205 -0.25298,0.50596 -0.0205,0.0818 0.0377,0.17756 0,0.25298 -0.1407,0.2814 -0.34984,0.49874 -0.50596,0.75894 -0.17635,0.29391 -0.23819,0.72936 -0.37947,1.01193 -0.10658,0.21316 -0.29242,0.24481 -0.37948,0.50596 -0.0506,0.15179 0.0506,0.35417 0,0.50596 -0.0928,0.27838 -0.13372,0.52044 -0.25298,0.75895 -0.0566,0.11314 0.047,0.26203 0,0.37947 -0.0565,0.14115 -0.19652,0.23832 -0.25298,0.37947 -0.10064,0.2516 0.12073,0.64399 0,0.88544 -0.22199,0.44398 -0.0869,1.01959 -0.25298,1.51788 -0.11247,0.33742 0,0.91383 0,1.26491 0,0.35276 0.0179,0.59663 -0.12649,0.88544 -0.19171,0.38342 0.1327,1.87253 0,2.40332 -0.11082,0.44326 -0.22342,0.32034 -0.37947,0.63245 -0.0969,0.19388 0.0523,0.54973 0,0.75894 -0.0229,0.0915 -0.0967,0.16354 -0.12649,0.25298 -0.12452,0.37356 0.0209,0.82265 -0.12649,1.26491 -0.11121,0.33362 0.15609,0.82623 0,1.13842 -0.068,0.13597 -0.19652,0.23832 -0.25298,0.37947 -0.13875,0.34687 -0.007,3.04292 -0.1265,3.16226 -0.0667,0.0667 -0.17755,0.0699 -0.25298,0.12649 -0.0954,0.0716 -0.14631,0.19965 -0.25298,0.25299 -0.0871,0.0436 -2.74552,0.0968 -3.03577,0 -0.24631,-0.0821 -0.12649,-1.3569 -0.12649,-1.64438 0,-0.21687 -0.0956,-0.69429 0,-0.88544 0.0533,-0.10666 0.19965,-0.14631 0.25298,-0.25298 0.0719,-0.14371 -0.0271,-0.32521 0.12649,-0.63245 0.10163,-0.20327 -0.0728,-0.54067 0,-0.75895 0.0298,-0.0894 0.0967,-0.16353 0.12649,-0.25298 0.0728,-0.21827 -0.10164,-0.55567 0,-0.75894 0.2714,-0.5428 0.12649,-1.38017 0.12649,-2.02385 0,-0.42653 0.1344,-1.11469 0,-1.51789 -0.11206,-0.33618 -0.2256,-0.5777 -0.37947,-0.88543 -0.0773,-0.15453 0.0271,-0.62363 0,-0.75894 -0.0834,-0.41726 -0.20446,-0.7884 -0.37947,-1.13842 -0.16866,-0.33731 0.16865,-0.9276 0,-1.26491 -0.0533,-0.10666 -0.19965,-0.14631 -0.25298,-0.25298 -0.22871,-0.45741 0.22933,-2.19763 0,-2.6563 -0.0267,-0.0533 -0.10764,-0.0699 -0.1265,-0.12649 -0.0533,-0.16 0.0533,-0.34597 0,-0.50596 -0.0189,-0.0566 -0.10763,-0.0699 -0.12649,-0.1265 -0.10603,-0.3181 -0.0923,-0.6906 -0.25298,-1.01192 -0.0533,-0.10667 -0.18683,-0.15375 -0.25298,-0.25298 -0.074,-0.11094 -0.0322,-0.28519 -0.12649,-0.37947 -0.0667,-0.0667 -0.18631,-0.0598 -0.25298,-0.12649 -0.0941,-0.0941 -0.0834,-0.62961 -0.12649,-0.75895 -0.0476,-0.14286 -0.30924,-0.64189 -0.37947,-0.75894 -0.0614,-0.10226 -0.19965,-0.14632 -0.25298,-0.25298 -0.0566,-0.11314 0.0735,-0.27655 0,-0.37948 -0.20635,-0.28888 -0.6001,-0.84719 -1.01193,-1.01192 -0.0783,-0.0313 -0.17298,0.0267 -0.25298,0 -0.11314,-0.0377 -0.14631,-0.19965 -0.25298,-0.25298 -0.50757,-0.25378 -1.26824,0.65338 -1.3914,0.75894 z"
         id="path2" /><path
         id="path1"
         style="fill:#050000;fill-opacity:1;stroke:none;stroke-opacity:1"
         d="m 120.57972,127.04237 c -2.77133,0.005 -4.35521,1.27001 -5.39295,4.3093 -0.72694,2.12901 -0.74165,2.28923 -0.74569,8.25686 -0.001,1.71482 0.034,3.49768 0.0925,5.02074 0.0585,1.52306 0.10895,0.63598 0.20193,1.59621 0,0 -0.58843,0.0789 -1.28027,1.15234 -0.37321,0.57905 -0.47499,1.88494 0.18286,2.08942 0.77812,0.24187 1.27484,-1.02956 1.27484,-1.02956 l 0.0192,0.85243 0.16511,1.1989 -1.28468,1.33273 c -1.24449,1.29114 -2.41846,3.81487 -2.41846,5.19917 0,0.40232 -0.12445,0.4726 -0.59531,0.33589 -0.32742,-0.0951 -1.22387,-0.24509 -1.99212,-0.33331 -0.76825,-0.0882 -1.45978,-0.26285 -1.53686,-0.38757 -0.49919,-0.8077 -2.13479,0.39668 -1.83245,1.34927 0.25088,0.79045 1.11908,1.24916 2.68614,1.41955 1.63641,0.17793 3.46605,0.89052 3.11919,1.21491 -0.1349,0.12616 -1.13843,0.60427 -2.22984,1.06247 -2.68353,1.1266 -2.76549,1.1795 -2.86442,1.8464 -0.11064,0.74594 0.38888,1.34772 1.11879,1.34772 0.31381,0 1.4004,-0.35388 2.41484,-0.78651 1.01445,-0.43263 1.96946,-0.78981 2.12236,-0.79375 0.15291,-0.004 0.52497,0.50012 0.8263,1.12034 0.41416,0.85248 1.05094,1.46633 2.61069,2.51561 2.25946,1.52001 4.45433,2.29978 7.59127,2.69751 1.93918,0.24586 6.31999,0.29258 7.61142,0.0811 3.59283,-0.58822 6.25637,-2.10705 7.64915,-4.36149 0.87762,-1.42057 1.01012,-1.52635 1.74356,-1.39681 0.43656,0.0771 1.27907,0.4874 1.87224,0.91209 1.59146,1.13943 2.3545,1.26403 2.87528,0.46922 0.23334,-0.35612 0.35351,-0.83178 0.26716,-1.05679 -0.18689,-0.48702 -2.58072,-2.11623 -3.94963,-2.6882 -1.9967,-0.83428 -0.39496,-1.06211 3.88969,-0.55294 1.30957,0.15562 1.88609,0.12327 2.18281,-0.12299 0.48734,-0.40445 0.52918,-1.43334 0.0724,-1.77612 -0.42497,-0.31888 -5.92385,-1.22951 -6.24096,-1.03353 -0.13194,0.0815 -0.31751,-0.53396 -0.41187,-1.36787 -0.17345,-1.5328 -1.03807,-3.72055 -2.01073,-5.08652 -0.86237,-1.21109 -0.62155,-2.7872 0.26304,-1.72134 0.49281,0.59381 1.77687,0.50287 2.12648,-0.15038 0.37351,-0.69791 -0.1725,-1.59531 -1.48001,-2.43241 -0.92427,-0.59174 -0.92537,-0.59441 -0.77618,-2.17971 0.0822,-0.87312 0.17462,-3.79015 0.20567,-6.48229 0.0659,-5.71441 -0.34518,-8.00135 -1.77612,-9.88053 -1.11202,-1.46034 -1.84767,-1.78621 -3.57342,-1.58182 -2.34508,0.27774 -3.88365,2.16774 -4.4974,5.52576 -1.21817,6.6651 -1.64701,9.6919 -1.78904,12.62249 -0.15905,3.28176 -0.18183,3.38301 -0.79633,3.53725 -0.34796,0.0873 -0.6625,0.1148 -0.69919,0.061 -0.0367,-0.0539 0.0424,-2.41939 0.1757,-5.25705 0.2567,-5.46462 0.0816,-7.59711 -0.90692,-11.07115 -1.00945,-3.54744 -2.5782,-5.599 -4.27984,-5.59605 z m -0.4222,2.58228 c 0.44501,-0.005 0.73786,0.16801 1.07384,0.61133 0.75547,0.99683 1.78789,4.78218 2.05259,7.52667 0.22254,2.30733 -0.0528,10.29498 -0.40825,11.84321 -0.12043,0.52454 -0.0267,0.89599 0.32608,1.28984 0.45995,0.51346 0.68494,0.54185 3.12023,0.39584 1.44334,-0.0865 2.74956,-0.28304 2.90318,-0.43667 0.16455,-0.16455 0.30067,-1.82573 0.33124,-4.04316 0.0403,-2.92111 0.26175,-4.99053 0.98806,-9.24233 0.9315,-5.45299 1.53547,-7.37705 2.42362,-7.71787 2.40424,-0.92259 3.289,1.38521 3.29386,8.59327 0.004,5.38092 -0.2018,7.91063 -0.64286,7.91063 -0.55175,0 -2.48868,1.40588 -2.61793,1.90014 -0.0695,0.26567 0.0902,0.75005 0.35502,1.07694 0.42964,0.53023 0.56992,0.56135 1.29863,0.2868 l 0.81649,-0.30747 v 1.4118 c 0,1.12055 0.13682,1.57411 0.66249,2.19883 1.14646,1.3625 1.70706,2.93961 1.70997,4.81004 0.007,4.56381 -2.08946,7.91535 -5.66425,9.05526 -2.32014,0.73984 -8.85531,0.62544 -11.99513,-0.2098 -1.8001,-0.47886 -4.48506,-2.06269 -5.19245,-3.06287 -0.79158,-1.11923 -1.56065,-4.11923 -1.36788,-5.33714 0.37313,-2.35747 1.19478,-4.04021 2.42156,-4.95939 1.27279,-0.95366 1.46194,-1.33106 1.57406,-3.13934 0.0292,-0.47219 -0.10399,-1.81504 0.0124,-2.0782 0.11633,-0.26316 0.26867,0.008 0.67916,0.13875 0.25737,0.33891 0.93402,0.86087 1.24851,0.84863 0.81471,-0.0317 1.40808,-1.22653 0.8509,-1.86207 -0.48779,-0.5564 -0.99056,-1.07822 -2.64499,-1.54996 -2.43441,-0.01 -0.53073,0.67889 -0.66797,0.35271 -0.2078,-0.49388 -0.5166,-1.5605 -0.33121,-7.1112 0.2301,-6.88929 0.94001,-8.93251 3.1905,-9.18031 0.0704,-0.008 0.13693,-0.0122 0.2005,-0.0129 z m 1.7322,21.96248 c -0.1982,-0.0129 -0.4295,-0.01 -0.71365,0.003 -0.72315,0.0315 -1.99922,0.33124 -2.83601,0.66611 -1.30112,0.52068 -1.64291,0.81026 -2.35903,2.00091 -1.14023,1.89581 -1.35898,3.60999 -0.64078,5.01779 1.09694,2.15017 3.75209,3.28167 6.26111,2.66805 1.8386,-0.44967 2.70861,-0.94207 3.2551,-1.84071 l 0.47387,-0.77929 0.63873,0.96222 c 1.55614,2.34433 4.09372,3.20199 6.68693,2.25981 1.62341,-0.58983 3.20276,-2.24349 3.6189,-3.78892 0.57574,-2.13813 -0.63547,-5.23491 -2.5337,-6.47867 -1.0432,-0.68354 -4.23963,-0.79186 -5.40794,-0.18345 -0.99511,0.51822 -2.04876,1.8913 -2.2841,2.97708 -0.28977,1.33696 -0.42145,1.50819 -0.62425,0.80977 -0.35246,-1.2138 -1.27304,-2.7699 -2.10788,-3.56309 -0.53554,-0.50882 -0.83272,-0.69152 -1.4273,-0.73019 z m 8.01036,2.60604 c 0.30795,0.008 0.54433,0.21432 0.54519,0.59066 0.002,0.75182 1.01374,2.13341 1.6862,2.30219 0.35477,0.089 0.88249,0.0348 1.17254,-0.12041 0.72453,-0.38775 0.95249,0.26428 0.48162,1.37666 -0.42636,1.00726 -1.07307,1.60249 -2.15077,1.98024 -1.2357,0.43313 -1.53678,0.37819 -2.73265,-0.50126 -1.04434,-0.76802 -1.1063,-0.88453 -0.95291,-1.78594 0.33203,-1.95128 0.68335,-2.98916 1.18029,-3.48609 0.2483,-0.2483 0.53097,-0.36219 0.77049,-0.35605 z m -10.35182,0.24702 c 0.2449,-0.0143 0.31264,0.14292 0.31264,0.58807 0,1.3714 1.95892,2.49146 2.83135,1.61903 0.46006,-0.46006 0.71031,0.72913 0.34107,1.62057 -0.48959,1.18196 -2.40508,1.64863 -4.19923,1.02319 -1.21581,-0.42384 -1.66431,-1.41656 -1.22163,-2.70423 0.40463,-1.17701 1.01885,-1.9227 1.73684,-2.11046 0.0767,-0.0201 0.14244,-0.0329 0.19896,-0.0362 z m 5.88698,7.26105 c -2.02629,0 -2.71908,1.38097 -1.44953,2.88975 0.79131,0.94041 1.71709,1.05794 2.4629,0.31212 1.36854,-1.36854 0.78837,-3.20187 -1.01337,-3.20187 z"
         sodipodi:nodetypes="cccscssccccscccsssccsscccscssssssssccsscsscccscsccsccccsssccccsccsccccsccssccscscsscssccccccccccccsscsccscccccccsscsccssccccccsscs" /></g></g></svg>
