<?xml version="1.0" encoding="UTF-8"?>
<svg width="256" height="256" version="1.1"
     xmlns="http://www.w3.org/2000/svg"
     xmlns:xlink="http://www.w3.org/1999/xlink">
  <defs>
    <linearGradient id="Gradient" x1="0" x2="0" y1="0" y2="1">
      <stop offset="0%" style="stop-color:#3584E4;stop-opacity:1" />
      <stop offset="100%" style="stop-color:#1A5FB4;stop-opacity:1" />
    </linearGradient>
    <filter id="alpha-to-white">
      <feColorMatrix in="SourceGraphic" type="matrix"
                     values="0 0 0 0 1 0 0 0 0 1 0 0 0 0 1 0 0 0 1 0"/>
    </filter>
    <g id="child-svg"><svg xmlns="http://www.w3.org/2000/svg" width="265px" height="265px" viewBox="0 0 500 500">
  <path style="fill:navy;fill-opacity:1;stroke-width:.0829353" d="M 6.06 498.537 C 4.115 497.451 2.468 495.905 1.278 494.045 C -0.21 491.538 -0.316 490.493 0.534 487.046 C 1.384 482.971 187.781 20.372 191.075 14.104 C 193.2 9.925 198.514 5.224 204.252 2.507 C 208.291 0.418 208.503 0.418 249.523 0.209 L 290.756 0 L 296.069 2.298 C 299.576 3.865 302.764 6.164 305.527 9.089 C 309.565 13.477 312.222 19.85 404.783 249.687 C 470.351 412.035 500 486.628 500 488.926 C 500 490.807 499.256 493.105 498.193 494.463 C 494.474 499.478 494.261 499.478 457.811 499.478 L 424.23 499.478 L 419.554 497.075 C 410.84 492.583 407.864 488.717 401.488 472.837 C 363.231 377.037 250.586 98.83 250.267 98.83 C 249.948 98.83 221.574 168.512 187.249 253.657 L 108.929 447.66 C 91.288 491.538 90.65 492.374 80.661 497.284 L 75.348 500 L 42.298 500 C 12.542 500 8.823 499.791 6.166 498.433 L 6.06 498.537 Z" />
</svg></g>
  </defs>
  <rect
      width="256"
      height="256"
      fill="url(#Gradient)"
      ry="0"
      x="0"
      y="0" />
  <use xlink:href="#child-svg" filter="url(#alpha-to-white)"
       transform="matrix(0.4830188679245283,0,0,0.4830188679245283,64,64)" />
</svg>
