<svg xmlns="http://www.w3.org/2000/svg" version="1.1" xmlns:xlink="http://www.w3.org/1999/xlink" width="32" height="32" data--h-bstatus="0OBSERVED"><svg width="32" height="32" viewBox="0 0 32 32" fill="none" xmlns="http://www.w3.org/2000/svg" data--h-bstatus="0OBSERVED">
<path fill-rule="evenodd" clip-rule="evenodd" d="M16.0005 7.31333C15.9992 6.58284 15.8391 5.86136 15.5314 5.19886C15.2236 4.53637 14.7755 3.94869 14.2181 3.47653C13.6607 3.00437 13.0074 2.65902 12.3033 2.4644C11.5992 2.26978 10.8612 2.23053 10.1405 2.34938C9.41971 2.46824 8.7334 2.74235 8.12908 3.15273C7.52476 3.56311 7.01687 4.09995 6.64059 4.72607C6.2643 5.35219 6.02862 6.05263 5.94987 6.77886C5.87111 7.50509 5.95117 8.23977 6.18448 8.93199C4.70297 9.42828 3.41489 10.3776 2.50226 11.6458C1.58964 12.914 1.09863 14.4369 1.09863 15.9993C1.09863 17.5618 1.58964 19.0847 2.50226 20.3529C3.41489 21.621 4.70297 22.5704 6.18448 23.0667C5.95118 23.7588 5.87113 24.4934 5.94985 25.2196C6.02858 25.9458 6.26421 26.6462 6.64042 27.2723C7.01663 27.8984 7.52444 28.4352 8.12867 28.8456C8.7329 29.256 9.41912 29.5302 10.1398 29.6492C10.8605 29.7681 11.5984 29.729 12.3025 29.5345C13.0065 29.34 13.6599 28.9948 14.2174 28.5228C14.7748 28.0508 15.223 27.4632 15.5309 26.8008C15.8388 26.1385 15.999 25.4171 16.0005 24.6867C16.0025 25.4167 16.1632 26.1377 16.4713 26.7995C16.7795 27.4614 17.2277 28.0485 17.7851 28.52C18.3424 28.9916 18.9956 29.3365 19.6994 29.5307C20.4031 29.725 21.1407 29.764 21.861 29.6452C22.5814 29.5263 23.2673 29.2524 23.8713 28.8423C24.4754 28.4322 24.9831 27.8958 25.3594 27.2702C25.7357 26.6445 25.9716 25.9446 26.0508 25.2188C26.1299 24.493 26.0504 23.7587 25.8178 23.0667C27.2989 22.5701 28.5864 21.6207 29.4987 20.3527C30.4109 19.0847 30.9017 17.5621 30.9017 16C30.9017 14.4379 30.4109 12.9153 29.4987 11.6473C28.5864 10.3793 27.2989 9.42992 25.8178 8.93333C26.0504 8.24134 26.1299 7.50708 26.0508 6.78135C25.9717 6.05562 25.7358 5.35574 25.3596 4.73013C24.9834 4.10451 24.4757 3.5681 23.8718 3.15799C23.2678 2.74789 22.582 2.47388 21.8617 2.35493C21.1414 2.23597 20.4039 2.27491 19.7002 2.46905C18.9964 2.66319 18.3432 3.0079 17.7858 3.47932C17.2284 3.95074 16.7801 4.53763 16.4718 5.19939C16.1636 5.86114 16.0027 6.5833 16.0005 7.31333Z" fill="#E5E5E5" data--h-bstatus="0OBSERVED"></path>
<path d="M11.6885 11.688H20.3138V20.3133H11.6885V11.688Z" fill="white" data--h-bstatus="0OBSERVED"></path>
<path d="M13.6673 11.688V9.22266M18.3339 11.688V9.22266M13.6673 22.7773V20.312M18.3339 22.7773V20.312M20.3126 13.6667H22.7779M20.3126 18.3333H22.7779M9.22461 13.6667H11.6886M9.22461 18.3333H11.6886M11.6886 11.688H20.3139V20.3133H11.6886V11.688Z" stroke="#050733" stroke-width="2" data--h-bstatus="0OBSERVED"></path>
<path d="M16.0005 7.31323C15.9992 6.58274 15.8391 5.86126 15.5314 5.19877C15.2236 4.53627 14.7755 3.94859 14.2181 3.47643C13.6607 3.00428 13.0074 2.65893 12.3033 2.4643C11.5992 2.26968 10.8612 2.23044 10.1405 2.34929C9.41971 2.46814 8.7334 2.74225 8.12908 3.15263C7.52476 3.56301 7.01687 4.09986 6.64059 4.72598C6.2643 5.3521 6.02862 6.05253 5.94987 6.77876C5.87111 7.505 5.95117 8.23967 6.18448 8.9319C4.70297 9.42819 3.41489 10.3775 2.50226 11.6457C1.58964 12.9139 1.09863 14.4368 1.09863 15.9992C1.09863 17.5617 1.58964 19.0846 2.50226 20.3528C3.41489 21.621 4.70297 22.5703 6.18448 23.0666C5.95118 23.7587 5.87113 24.4934 5.94985 25.2195C6.02858 25.9457 6.26421 26.6461 6.64042 27.2722C7.01663 27.8983 7.52444 28.4351 8.12867 28.8455C8.7329 29.256 9.41912 29.5301 10.1398 29.6491C10.8605 29.768 11.5984 29.7289 12.3025 29.5344C13.0065 29.3399 13.6599 28.9947 14.2174 28.5227C14.7748 28.0507 15.223 27.4631 15.5309 26.8008C15.8388 26.1384 15.999 25.417 16.0005 24.6866M16.0005 7.31323C16.0012 6.5822 16.1608 5.86007 16.4684 5.19689C16.776 4.53372 17.2241 3.94536 17.7817 3.47262C18.3393 2.99988 18.993 2.65406 19.6976 2.45913C20.4021 2.26421 21.1407 2.22484 21.8619 2.34377C22.5832 2.46269 23.27 2.73706 23.8747 3.14785C24.4794 3.55865 24.9875 4.09603 25.3639 4.72276C25.7402 5.34948 25.9757 6.05055 26.0541 6.77737C26.1325 7.50418 26.0519 8.23935 25.8178 8.9319C27.2993 9.42819 28.5874 10.3775 29.5 11.6457C30.4127 12.9139 30.9037 14.4368 30.9037 15.9992C30.9037 17.5617 30.4127 19.0846 29.5 20.3528C28.5874 21.621 27.2993 22.5703 25.8178 23.0666C26.0504 23.7586 26.1299 24.4929 26.0508 25.2187C25.9716 25.9445 25.7357 26.6444 25.3594 27.2701C24.9831 27.8957 24.4754 28.4321 23.8713 28.8422C23.2673 29.2523 22.5814 29.5262 21.861 29.6451C21.1407 29.764 20.4031 29.7249 19.6994 29.5306C18.9956 29.3364 18.3424 28.9915 17.7851 28.5199C17.2277 28.0484 16.7795 27.4613 16.4713 26.7995C16.1632 26.1376 16.0025 25.4166 16.0005 24.6866" stroke="#050733" stroke-width="2" data--h-bstatus="0OBSERVED"></path>
<path d="M5.94141 24.6986C5.93951 23.4142 6.43061 22.1781 7.31341 21.2452M5.94141 7.31323C5.93985 8.59713 6.43093 9.8327 7.31341 10.7652M26.0587 24.6986C26.0607 23.4142 25.5695 22.1781 24.6867 21.2452M26.0587 7.31323C26.0603 8.59713 25.5692 9.8327 24.6867 10.7652" stroke="#050733" stroke-width="2" data--h-bstatus="0OBSERVED"></path>
</svg><style>@media (prefers-color-scheme: light) { :root { filter: none; } }
@media (prefers-color-scheme: dark) { :root { filter: none; } }
</style></svg>
