<?xml version="1.0" encoding="UTF-8"?>
<svg id="a" xmlns="http://www.w3.org/2000/svg" viewBox="0 0 59.87 56.91">
<defs><style>.b {fill: #ffffff;}</style></defs>
<path class="b" d="M52.08,21.98c-1.05-3.56-2.93-6.77-5.43-9.39l2.55-7.54L40.61.09l-5.25,5.98c-1.74-.42-3.55-.65-5.42-.65s-3.68.23-5.42.65L19.27.09l-8.59,4.96,2.55,7.54c-2.49,2.62-4.38,5.82-5.43,9.39l-7.8,1.56v9.92l7.8,1.56c1.05,3.56,2.93,6.77,5.43,9.39l-2.55,7.54,8.59,4.96,5.25-5.98c1.74.42,3.55.65,5.42.65s3.68-.23,5.42-.65l5.25,5.98,8.59-4.96-2.55-7.54c2.49-2.62,4.38-5.82,5.43-9.39l7.79-1.56v-9.92l-7.79-1.56ZM37.9,40.62c0,.91-.87,1.65-1.94,1.65h-12.03c-1.07,0-1.94-.74-1.94-1.65v-22.09c0-.91.87-1.65,1.94-1.65h2.25v-1.17c0-.54.51-.97,1.14-.97h5.25c.63,0,1.14.44,1.14.97v1.17h2.25c1.07,0,1.94.74,1.94,1.65v22.09Z"/>
</svg>
