<svg xmlns="http://www.w3.org/2000/svg" viewBox="0 0 532.5 132"><path d="M150.27 65.72 135.38 54c2.59-7.12 7.37-23.5 1-33.22-2.17-3.3-6.58-7.22-15.24-7.22s-13.19 4-15.37 7.27c-6.41 9.78-1.49 26.2 1.13 33.27l-4.66 3.9-11-8c3.2-8.43 9.85-29.45 2-41.36C90.83 4.87 85.84.42 76 .42S61.17 4.87 58.72 8.61c-7.81 11.91-1.16 32.93 2 41.36l-11 8-4.62-3.83c2.62-7.07 7.54-23.49 1.13-33.27-2.18-3.32-6.61-7.27-15.37-7.27s-13.07 3.92-15.24 7.22c-6.37 9.72-1.62 26.1 1 33.18L1.73 65.72A4.49 4.49 0 0 0 .1 70.2a77.62 77.62 0 0 0 151.8 0 4.49 4.49 0 0 0-1.63-4.48ZM9.55 71l15.27-12a4.52 4.52 0 0 0 1.36-5.32c-3.26-7.64-6.95-22-3-28 .52-.78 2.09-3.16 7.72-3.16s7.31 2.41 7.83 3.2c3.94 6 .17 20.31-3.12 27.92A4.49 4.49 0 0 0 36.87 59l5.37 4.45-5.44 4A4.51 4.51 0 0 0 35 71v37.78A68.49 68.49 0 0 1 9.55 71ZM44 114.54v-41.2l24.9-18.15a4.5 4.5 0 0 0 1.49-5.43c-2.88-6.65-9.81-27.56-4.13-36.21 1.82-2.78 5-4.12 9.74-4.12s7.92 1.34 9.74 4.12c5.68 8.65-1.25 29.56-4.13 36.21a4.5 4.5 0 0 0 1.49 5.43L108 73.34v41.2a67.94 67.94 0 0 1-64.08 0Zm73.09-5.72V71a4.51 4.51 0 0 0-1.85-3.64l-5.44-4 5.33-4.36a4.49 4.49 0 0 0 1.26-5.26c-2.22-5.1-7.55-21.17-3.12-27.92.52-.79 2.1-3.2 7.83-3.2s7.2 2.38 7.72 3.16c4 6 .26 20.34-3 28a4.52 4.52 0 0 0 1.36 5.32l15.27 12a68.49 68.49 0 0 1-25.4 37.72Z" style="fill:#0097a7"/><path style="fill:none" d="M0 0h152v132H0z"/><path d="M223 4.5h-44a1 1 0 0 0-1 1v10a1 1 0 0 0 1 1h15.5v97a1 1 0 0 0 1 1h11a1 1 0 0 0 1-1v-97H223a1 1 0 0 0 1-1v-10a1 1 0 0 0-1-1ZM243.5 36.5H225a1 1 0 0 0-1 1v89a1 1 0 0 0 1 1h11a1 1 0 0 0 1-1v-12h6.5A19.5 19.5 0 0 0 263 95V56a19.5 19.5 0 0 0-19.5-19.5Zm0 65H237v-52h6.5A6.53 6.53 0 0 1 250 56v39a6.53 6.53 0 0 1-6.5 6.5ZM513 36.5h-26A19.5 19.5 0 0 0 467.5 56v39a19.5 19.5 0 0 0 19.5 19.5h6.5v12a1 1 0 0 0 1 1h11a1 1 0 0 0 1-1v-12h6.5A19.5 19.5 0 0 0 532.5 95V56A19.5 19.5 0 0 0 513 36.5Zm-19.5 65H487a6.51 6.51 0 0 1-6.5-6.5V56a6.52 6.52 0 0 1 6.5-6.5h6.5Zm26-6.5a6.51 6.51 0 0 1-6.5 6.5h-6.5v-52h6.5a6.52 6.52 0 0 1 6.5 6.5ZM299.06 37.5v49.6a6.67 6.67 0 0 1-5.64 6.68 6.51 6.51 0 0 1-7.36-6.45V37.5a1 1 0 0 0-1-1h-11a1 1 0 0 0-1 1v49.26a19.94 19.94 0 0 0 15.81 19.71 19.21 19.21 0 0 0 10.19-.77v2.3a6.53 6.53 0 0 1-6.5 6.5h-12.5a1 1 0 0 0-1 1v11a1 1 0 0 0 1 1h12.5a19.5 19.5 0 0 0 19.5-19.5V37.5a1 1 0 0 0-1-1h-11a1 1 0 0 0-1 1ZM361.39 36.5h-11a1 1 0 0 0-1 1v22a6.53 6.53 0 0 1-6.5 6.5h-6.5V37.5a1 1 0 0 0-1-1h-11a1 1 0 0 0-1 1v76a1 1 0 0 0 1 1h11a1 1 0 0 0 1-1v-33h6.5a6.53 6.53 0 0 1 6.5 6.5v26.5a1 1 0 0 0 1 1h11a1 1 0 0 0 1-1V87a19.43 19.43 0 0 0-5.68-13.75 19.43 19.43 0 0 0 5.68-13.75v-22a1 1 0 0 0-1-1ZM391 36.5A19.5 19.5 0 0 0 371.5 56v39a19.5 19.5 0 0 0 39 0V56A19.5 19.5 0 0 0 391 36.5Zm0 65a6.51 6.51 0 0 1-6.5-6.5V56a6.5 6.5 0 0 1 13 0v39a6.51 6.51 0 0 1-6.5 6.5ZM445.5 37.5V69h-13V37.5a1 1 0 0 0-1-1h-11a1 1 0 0 0-1 1v76a1 1 0 0 0 1 1h11a1 1 0 0 0 1-1V82h13v31.5a1 1 0 0 0 1 1h11a1 1 0 0 0 1-1v-76a1 1 0 0 0-1-1h-11a1 1 0 0 0-1 1Z" style="fill:#0097a7"/></svg>