<svg xmlns="http://www.w3.org/2000/svg" viewBox="0 0 240 40">
  <!-- Detailed hound logo centered -->
  <g transform="translate(41, 37) scale(0.01, -0.01)" fill="#7C8FFF">
    <path d="M1755 3604 c-84 -16 -209 -77 -287 -139 -127 -100 -200 -212 -404
    -615 l-129 -254 0 -101 c0 -92 3 -105 33 -170 l33 -71 -41 -89 c-57 -125 -198
    -358 -341 -563 -135 -194 -147 -225 -106 -266 34 -34 95 -36 124 -4 22 25 126
    182 265 403 49 77 121 203 160 280 39 77 71 141 73 142 1 2 53 -20 116 -48
    141 -62 223 -83 309 -76 143 10 260 84 320 201 l35 69 3 403 3 404 -25 25
    c-31 31 -84 33 -117 6 l-24 -19 0 -389 c0 -384 0 -388 -23 -430 -51 -96 -170
    -128 -309 -83 -95 31 -242 105 -280 142 -61 59 -69 148 -21 243 160 316 282
    544 321 598 54 75 144 155 216 192 101 51 149 56 460 53 l286 -3 46 -27 c61
    -36 94 -75 153 -181 34 -61 70 -107 117 -151 92 -88 146 -108 306 -114 l122
    -4 17 -56 c20 -72 73 -126 137 -144 26 -6 48 -17 51 -24 7 -18 -12 -142 -30
    -196 -37 -113 -139 -227 -251 -280 -79 -38 -151 -48 -345 -48 -132 0 -166 -3
    -210 -20 -71 -26 -123 -71 -156 -134 l-27 -51 -3 -548 -3 -547 26 -26 c23 -23
    33 -26 68 -21 23 3 47 14 54 23 10 14 13 130 13 538 0 669 -25 613 280 620
    133 3 214 10 255 20 178 47 333 174 418 341 54 107 69 180 75 346 7 228 -14
    300 -103 351 -37 22 -54 23 -260 29 -212 5 -222 6 -271 32 -63 32 -98 71 -153
    172 -78 141 -178 224 -316 260 -79 20 -555 20 -660 -1z"/>
    <path d="M2334 3071 c-39 -24 -58 -70 -51 -122 18 -139 219 -136 234 3 12 107
    -92 174 -183 119z"/>
  </g>

  <!-- ChunkHound text centered -->
  <g font-family="'Inter', system-ui, -apple-system, sans-serif" font-weight="600">
    <text x="83" y="26" font-size="18" fill="#FAFAFA">Chunk</text><text x="139" y="26" font-size="18" fill="#7C8FFF">Hound</text>
  </g>
</svg>
