<svg xmlns="http://www.w3.org/2000/svg" viewBox="0 0 300 300">
  <g>
    <path fill="#4f46e5" opacity="1.0"
          d="M 112,118 L 62,81 L 162,81 Z"/>
    <path fill="#4f46e5" opacity="0.85"
          d="M 112,118 L 162,81 L 180,98 L 112,218 Z"/>
    <path fill="#4f46e5" opacity="0.7"
          d="M 112,118 L 62,81 L 44,98 L 112,218 Z"/>
    <path fill="#4f46e5" opacity="0.6"
          d="M 112,218 L 180,98 L 187,108 L 112,268 Z"/>
    <path fill="#4f46e5" opacity="0.5"
          d="M 112,218 L 44,98 L 37,108 L 112,268 Z"/>
  </g>
  
  <g>
    <path fill="#06b6d4" opacity="1.0"
          d="M 187,118 L 137,81 L 237,81 Z"/>
    <path fill="#06b6d4" opacity="0.85"
          d="M 187,118 L 237,81 L 255,98 L 187,218 Z"/>
    <path fill="#06b6d4" opacity="0.7"
          d="M 187,118 L 137,81 L 119,98 L 187,218 Z"/>
    <path fill="#06b6d4" opacity="0.6"
          d="M 187,218 L 255,98 L 262,108 L 187,268 Z"/>
    <path fill="#06b6d4" opacity="0.5"
          d="M 187,218 L 119,98 L 112,108 L 187,268 Z"/>
  </g>
</svg>
