<svg xmlns="http://www.w3.org/2000/svg" width="1024" height="1024" fill="none" viewBox="0 0 1024 1024"><path fill="#0f0c1b" d="M1024 727.183 511.134 1024 0 729.493V601.5l511.134 296L1024 601.5z"/><path fill="#0f0c1b" d="M968.916 53.23c20.567-11.874 37.244-2.248 37.244 21.5v452.571c0 23.748-16.678 52.625-37.244 64.5L568.653 822.893c-20.566 11.874-37.239 2.248-37.239-21.5V348.821c0-23.748 16.673-52.626 37.239-64.5zM592 407.121v304.172c0 18.777 13.183 26.389 29.445 17l303.11-175.001c16.262-9.389 29.445-32.222 29.445-51V198.12zm35-89.894c0-15.037-10.745-21.023-24-13.371-13.255 7.653-24 26.046-24 41.083s10.745 21.024 24 13.371c13.255-7.652 24-26.046 24-41.083M427.702 479.5v337L25 584V247zM216.603 440C168.773 412.386 130 434.772 130 490s38.773 122.386 86.603 150 86.602 5.228 86.602-50-38.773-122.386-86.602-150m146.855 44.544c-12.955-7.48-23.458-1.417-23.458 13.543s10.503 33.151 23.458 40.631 23.458 1.415 23.458-13.544c0-14.96-10.503-33.15-23.458-40.63"/><path fill="#0f0c1b" d="m455.5 464-403-233.5 38.5-21 404.5 232V778l-40 24.5zM501.5 363.5v40L128.644 191.366 166 169.799zM513.5 298c-6.5 9-9 15.5-12 25.5L198 153l31-17zM931 519.064 715 643.772v-88.949l20.784-11.999v64.948l174.431-100.708v-64.967c8.419-5.181 15.888-14.149 20.785-24.097zM895.288 276.814c15.305-8.836 27.713-1.673 27.713 16v80c0 17.673-12.408 39.164-27.713 48L654.713 559.71c-15.306 8.837-27.713 1.674-27.713-16v-80c0-17.673 12.407-39.163 27.713-48zM663.882 457.792v31.943l158.18-91.325v-31.943z"/></svg>