<?xml version="1.0" encoding="utf-8"?>
<!-- Generator: Adobe Illustrator 25.0.1, SVG Export Plug-In . SVG Version: 6.00 Build 0)  -->
<svg version="1.1" id="Layer_1" xmlns="http://www.w3.org/2000/svg" xmlns:xlink="http://www.w3.org/1999/xlink" x="0px" y="0px"
	 viewBox="0 0 48 48" style="enable-background:new 0 0 48 48;" xml:space="preserve">
<style type="text/css">
	.st0{fill:url(#SVGID_1_);stroke:url(#SVGID_2_);stroke-width:0.2;stroke-miterlimit:10;}
	.st1{fill:url(#SVGID_3_);stroke:url(#SVGID_4_);stroke-width:2;stroke-miterlimit:10;}
</style>
<g>
	
		<linearGradient id="SVGID_1_" gradientUnits="userSpaceOnUse" x1="17.0447" y1="26" x2="31.0092" y2="26" gradientTransform="matrix(1 0 0 -1 0 50)">
		<stop  offset="0" style="stop-color:#3E3E3E"/>
		<stop  offset="3.312606e-02" style="stop-color:#3B3B3B"/>
		<stop  offset="0.4343" style="stop-color:#1B1B1B"/>
		<stop  offset="0.7709" style="stop-color:#070707"/>
		<stop  offset="1" style="stop-color:#000000"/>
	</linearGradient>
	<linearGradient id="SVGID_2_" gradientUnits="userSpaceOnUse" x1="16.9048" y1="24" x2="31.0952" y2="24">
		<stop  offset="0" style="stop-color:#3E3E3E"/>
		<stop  offset="3.312606e-02" style="stop-color:#3B3B3B"/>
		<stop  offset="0.4343" style="stop-color:#1B1B1B"/>
		<stop  offset="0.7709" style="stop-color:#070707"/>
		<stop  offset="1" style="stop-color:#000000"/>
	</linearGradient>
	<path class="st0" d="M30.7,25.6c-1-1.1-3.9-0.6-4.6-0.6c-1-1-1.7-2.1-1.9-2.5c0.4-1.1,0.6-2.2,0.6-3.3c0-1-0.4-2.1-1.5-2.1
		c-0.4,0-0.8,0.2-1,0.6c-0.5,0.8-0.3,2.5,0.5,4.3c-0.4,1.2-0.8,2.4-2,4.6c-1.2,0.5-3.6,1.6-3.8,2.8c-0.1,0.4,0,0.7,0.3,1
		c0.3,0.2,0.6,0.4,1,0.4c1.5,0,2.9-2,3.9-3.8c0.8-0.3,2.2-0.7,3.5-0.9c1.6,1.4,2.9,1.6,3.7,1.6c1,0,1.3-0.4,1.4-0.8
		C31.1,26.4,30.9,25.9,30.7,25.6L30.7,25.6z M29.7,26.3c0,0.3-0.4,0.6-1,0.4c-0.8-0.2-1.4-0.6-2-1c0.5-0.1,1.7-0.2,2.5,0
		C29.4,25.7,29.7,25.9,29.7,26.3L29.7,26.3z M23,18c0.1-0.1,0.2-0.2,0.3-0.2c0.4,0,0.4,0.4,0.4,0.8c0,0.8-0.2,1.7-0.5,2.5
		C22.6,19.5,22.8,18.4,23,18z M22.9,25.8c0.3-0.6,0.8-1.8,0.9-2.2c0.4,0.6,1,1.3,1.3,1.6C25.1,25.3,23.8,25.5,22.9,25.8z M20.5,27.4
		c-0.9,1.5-1.9,2.5-2.4,2.5c-0.1,0-0.2,0-0.2-0.1c-0.1-0.1-0.2-0.2-0.1-0.4C17.9,28.9,18.9,28.2,20.5,27.4L20.5,27.4z"/>
	
		<linearGradient id="SVGID_3_" gradientUnits="userSpaceOnUse" x1="11.4913" y1="26" x2="36.5913" y2="26" gradientTransform="matrix(1 0 0 -1 0 50)">
		<stop  offset="0" style="stop-color:#3E3E3E"/>
		<stop  offset="3.312606e-02" style="stop-color:#3B3B3B"/>
		<stop  offset="0.4343" style="stop-color:#1B1B1B"/>
		<stop  offset="0.7709" style="stop-color:#070707"/>
		<stop  offset="1" style="stop-color:#000000"/>
	</linearGradient>
	
		<linearGradient id="SVGID_4_" gradientUnits="userSpaceOnUse" x1="10.4937" y1="26" x2="37.5937" y2="26" gradientTransform="matrix(1 0 0 -1 0 50)">
		<stop  offset="0" style="stop-color:#3E3E3E"/>
		<stop  offset="3.312606e-02" style="stop-color:#3B3B3B"/>
		<stop  offset="0.4343" style="stop-color:#1B1B1B"/>
		<stop  offset="0.7709" style="stop-color:#070707"/>
		<stop  offset="1" style="stop-color:#000000"/>
	</linearGradient>
	<path class="st1" d="M35.3,26.4v9.2c0,1.4-1.1,2.6-2.6,2.6H15.4c-1.4,0-2.6-1.1-2.6-2.6V12.4c0-1.4,1.1-2.6,2.6-2.6h9.8
		c5.5,0,10,4.5,10,10v0.9c0,0.3,0.3,0.6,0.6,0.6h0.1c0.3,0,0.6-0.3,0.6-0.6v-0.9c0-6.3-5.1-11.3-11.3-11.3h-9.8
		c-2.1,0-3.9,1.7-3.9,3.9v23.2c0,2.1,1.7,3.9,3.9,3.9h17.3c2.1,0,3.9-1.7,3.9-3.9v-9.2c0-0.4-0.3-0.7-0.7-0.7l0,0
		C35.6,25.8,35.3,26.1,35.3,26.4z"/>
</g>
</svg>
