<?xml version="1.0" encoding="utf-8" standalone="no"?>
<!DOCTYPE svg PUBLIC "-//W3C//DTD SVG 1.1//EN"
        "http://www.w3.org/Graphics/SVG/1.1/DTD/svg11.dtd">
<svg xmlns:xlink="http://www.w3.org/1999/xlink" width="1152pt" height="1152pt" viewBox="0 0 1152 1152"
     xmlns="http://www.w3.org/2000/svg" version="1.1">
    <metadata>
        <rdf:RDF xmlns:dc="http://purl.org/dc/elements/1.1/" xmlns:cc="http://creativecommons.org/ns#"
                 xmlns:rdf="http://www.w3.org/1999/02/22-rdf-syntax-ns#">
            <cc:Work>
                <dc:type rdf:resource="http://purl.org/dc/dcmitype/StillImage"/>
                <dc:date>2025-08-09T20:37:51.526527</dc:date>
                <dc:format>image/svg+xml</dc:format>
                <dc:creator>
                    <cc:Agent>
                        <dc:title>Matplotlib v3.7.5, https://matplotlib.org/</dc:title>
                    </cc:Agent>
                </dc:creator>
            </cc:Work>
        </rdf:RDF>
    </metadata>
    <defs>
        <style type="text/css">*{stroke-linejoin: round; stroke-linecap: butt}</style>
    </defs>
    <g id="figure_1">
        <g id="patch_1">
            <path d="M 0 1152
L 1152 1152
L 1152 0
L 0 0
z
" style="fill: #ffffff"/>
        </g>
        <g id="axes_1">
            <g id="LineCollection_1">
                <path d="M 726.108769 428.98061
L 865.869166 477.996229
" clip-path="url(#p1f81da8b3b)" style="fill: none; stroke: #33334c; stroke-opacity: 0.279763; stroke-width: 2.034644"/>
                <path d="M 726.108769 428.98061
L 440.719802 669.237871
" clip-path="url(#p1f81da8b3b)" style="fill: none; stroke: #33334c; stroke-opacity: 0.134952; stroke-width: 0.817943"/>
                <path d="M 726.108769 428.98061
L 527.478712 493.19187
" clip-path="url(#p1f81da8b3b)" style="fill: none; stroke: #33334c; stroke-opacity: 0.237675; stroke-width: 1.659508"/>
                <path d="M 726.108769 428.98061
L 609.050976 501.596145
" clip-path="url(#p1f81da8b3b)" style="fill: none; stroke: #33334c; stroke-opacity: 0.244931; stroke-width: 1.72308"/>
                <path d="M 726.108769 428.98061
L 620.059923 588.763103
" clip-path="url(#p1f81da8b3b)" style="fill: none; stroke: #33334c; stroke-opacity: 0.296129; stroke-width: 2.184495"/>
                <path d="M 726.108769 428.98061
L 890.532451 725.545395
" clip-path="url(#p1f81da8b3b)" style="fill: none; stroke: #33334c; stroke-opacity: 0.211424; stroke-width: 1.433653"/>
                <path d="M 726.108769 428.98061
L 462.991045 215.214545
" clip-path="url(#p1f81da8b3b)" style="fill: none; stroke: #33334c; stroke-opacity: 0.060563; stroke-width: 0.300439"/>
                <path d="M 726.108769 428.98061
L 650.978704 754.20689
" clip-path="url(#p1f81da8b3b)" style="fill: none; stroke: #33334c; stroke-opacity: 0.176126; stroke-width: 1.140981"/>
                <path d="M 726.108769 428.98061
L 591.519406 381.566044
" clip-path="url(#p1f81da8b3b)" style="fill: none; stroke: #33334c; stroke-opacity: 0.155177; stroke-width: 0.973947"/>
                <path d="M 726.108769 428.98061
L 959.32562 580.91335
" clip-path="url(#p1f81da8b3b)" style="fill: none; stroke: #33334c; stroke-opacity: 0.101754; stroke-width: 0.574699"/>
                <path d="M 726.108769 428.98061
L 221.47438 536.377953
" clip-path="url(#p1f81da8b3b)" style="fill: none; stroke: #33334c; stroke-opacity: 0.102043; stroke-width: 0.576737"/>
                <path d="M 726.108769 428.98061
L 241.93515 779.294403
" clip-path="url(#p1f81da8b3b)" style="fill: none; stroke: #33334c; stroke-opacity: 0.066751; stroke-width: 0.33929"/>
                <path d="M 726.108769 428.98061
L 706.137483 928.486287
" clip-path="url(#p1f81da8b3b)" style="fill: none; stroke: #33334c; stroke-opacity: 0.062048; stroke-width: 0.309676"/>
                <path d="M 726.108769 428.98061
L 486.324387 599.252563
" clip-path="url(#p1f81da8b3b)" style="fill: none; stroke: #33334c; stroke-opacity: 0.05; stroke-width: 0.209405"/>
                <path d="M 865.869166 477.996229
L 440.719802 669.237871
" clip-path="url(#p1f81da8b3b)" style="fill: none; stroke: #33334c; stroke-opacity: 0.140228; stroke-width: 0.858112"/>
                <path d="M 865.869166 477.996229
L 527.478712 493.19187
" clip-path="url(#p1f81da8b3b)" style="fill: none; stroke: #33334c; stroke-opacity: 0.200777; stroke-width: 1.343979"/>
                <path d="M 865.869166 477.996229
L 609.050976 501.596145
" clip-path="url(#p1f81da8b3b)" style="fill: none; stroke: #33334c; stroke-opacity: 0.201938; stroke-width: 1.353699"/>
                <path d="M 865.869166 477.996229
L 620.059923 588.763103
" clip-path="url(#p1f81da8b3b)" style="fill: none; stroke: #33334c; stroke-opacity: 0.249937; stroke-width: 1.767211"/>
                <path d="M 865.869166 477.996229
L 890.532451 725.545395
" clip-path="url(#p1f81da8b3b)" style="fill: none; stroke: #33334c; stroke-opacity: 0.19998; stroke-width: 1.337315"/>
                <path d="M 865.869166 477.996229
L 591.519406 381.566044
" clip-path="url(#p1f81da8b3b)" style="fill: none; stroke: #33334c; stroke-opacity: 0.115582; stroke-width: 0.673924"/>
                <path d="M 865.869166 477.996229
L 650.978704 754.20689
" clip-path="url(#p1f81da8b3b)" style="fill: none; stroke: #33334c; stroke-opacity: 0.133752; stroke-width: 0.80886"/>
                <path d="M 865.869166 477.996229
L 221.47438 536.377953
" clip-path="url(#p1f81da8b3b)" style="fill: none; stroke: #33334c; stroke-opacity: 0.076139; stroke-width: 0.39995"/>
                <path d="M 865.869166 477.996229
L 959.32562 580.91335
" clip-path="url(#p1f81da8b3b)" style="fill: none; stroke: #33334c; stroke-opacity: 0.093742; stroke-width: 0.518701"/>
                <path d="M 440.719802 669.237871
L 371.305381 333.474764
" clip-path="url(#p1f81da8b3b)" style="fill: none; stroke: #33334c; stroke-opacity: 0.14431; stroke-width: 0.889448"/>
                <path d="M 440.719802 669.237871
L 527.478712 493.19187
" clip-path="url(#p1f81da8b3b)" style="fill: none; stroke: #33334c; stroke-opacity: 0.352565; stroke-width: 2.716749"/>
                <path d="M 440.719802 669.237871
L 757.971981 622.015963
" clip-path="url(#p1f81da8b3b)" style="fill: none; stroke: #33334c; stroke-opacity: 0.057235; stroke-width: 0.279949"/>
                <path d="M 440.719802 669.237871
L 609.050976 501.596145
" clip-path="url(#p1f81da8b3b)" style="fill: none; stroke: #33334c; stroke-opacity: 0.31564; stroke-width: 2.365862"/>
                <path d="M 440.719802 669.237871
L 374.084272 446.214618
" clip-path="url(#p1f81da8b3b)" style="fill: none; stroke: #33334c; stroke-opacity: 0.066239; stroke-width: 0.336043"/>
                <path d="M 440.719802 669.237871
L 486.324387 599.252563
" clip-path="url(#p1f81da8b3b)" style="fill: none; stroke: #33334c; stroke-opacity: 0.095159; stroke-width: 0.528519"/>
                <path d="M 440.719802 669.237871
L 620.059923 588.763103
" clip-path="url(#p1f81da8b3b)" style="fill: none; stroke: #33334c; stroke-opacity: 0.161205; stroke-width: 1.021464"/>
                <path d="M 440.719802 669.237871
L 221.47438 536.377953
" clip-path="url(#p1f81da8b3b)" style="fill: none; stroke: #33334c; stroke-opacity: 0.065983; stroke-width: 0.334416"/>
                <path d="M 440.719802 669.237871
L 650.978704 754.20689
" clip-path="url(#p1f81da8b3b)" style="fill: none; stroke: #33334c; stroke-opacity: 0.119777; stroke-width: 0.704638"/>
                <path d="M 440.719802 669.237871
L 591.519406 381.566044
" clip-path="url(#p1f81da8b3b)" style="fill: none; stroke: #33334c; stroke-opacity: 0.159926; stroke-width: 1.011345"/>
                <path d="M 440.719802 669.237871
L 959.32562 580.91335
" clip-path="url(#p1f81da8b3b)" style="fill: none; stroke: #33334c; stroke-opacity: 0.062848; stroke-width: 0.314675"/>
                <path d="M 440.719802 669.237871
L 890.532451 725.545395
" clip-path="url(#p1f81da8b3b)" style="fill: none; stroke: #33334c; stroke-opacity: 0.100108; stroke-width: 0.563102"/>
                <path d="M 527.478712 493.19187
L 609.050976 501.596145
" clip-path="url(#p1f81da8b3b)" style="fill: none; stroke: #33334c; stroke-opacity: 0.670456; stroke-width: 6.066839"/>
                <path d="M 527.478712 493.19187
L 620.059923 588.763103
" clip-path="url(#p1f81da8b3b)" style="fill: none; stroke: #33334c; stroke-opacity: 0.481912; stroke-width: 4.015219"/>
                <path d="M 527.478712 493.19187
L 371.305381 333.474764
" clip-path="url(#p1f81da8b3b)" style="fill: none; stroke: #33334c; stroke-opacity: 0.262067; stroke-width: 1.87506"/>
                <path d="M 527.478712 493.19187
L 486.324387 599.252563
" clip-path="url(#p1f81da8b3b)" style="fill: none; stroke: #33334c; stroke-opacity: 0.295467; stroke-width: 2.178394"/>
                <path d="M 527.478712 493.19187
L 959.32562 580.91335
" clip-path="url(#p1f81da8b3b)" style="fill: none; stroke: #33334c; stroke-opacity: 0.102235; stroke-width: 0.578095"/>
                <path d="M 527.478712 493.19187
L 374.084272 446.214618
" clip-path="url(#p1f81da8b3b)" style="fill: none; stroke: #33334c; stroke-opacity: 0.266551; stroke-width: 1.915254"/>
                <path d="M 527.478712 493.19187
L 757.971981 622.015963
" clip-path="url(#p1f81da8b3b)" style="fill: none; stroke: #33334c; stroke-opacity: 0.102139; stroke-width: 0.577416"/>
                <path d="M 527.478712 493.19187
L 650.978704 754.20689
" clip-path="url(#p1f81da8b3b)" style="fill: none; stroke: #33334c; stroke-opacity: 0.234378; stroke-width: 1.63078"/>
                <path d="M 527.478712 493.19187
L 591.519406 381.566044
" clip-path="url(#p1f81da8b3b)" style="fill: none; stroke: #33334c; stroke-opacity: 0.364254; stroke-width: 2.8298"/>
                <path d="M 527.478712 493.19187
L 890.532451 725.545395
" clip-path="url(#p1f81da8b3b)" style="fill: none; stroke: #33334c; stroke-opacity: 0.121154; stroke-width: 0.714777"/>
                <path d="M 527.478712 493.19187
L 221.47438 536.377953
" clip-path="url(#p1f81da8b3b)" style="fill: none; stroke: #33334c; stroke-opacity: 0.102905; stroke-width: 0.582838"/>
                <path d="M 527.478712 493.19187
L 801.917582 298.62529
" clip-path="url(#p1f81da8b3b)" style="fill: none; stroke: #33334c; stroke-opacity: 0.11505; stroke-width: 0.670052"/>
                <path d="M 527.478712 493.19187
L 241.93515 779.294403
" clip-path="url(#p1f81da8b3b)" style="fill: none; stroke: #33334c; stroke-opacity: 0.052884; stroke-width: 0.253605"/>
                <path d="M 527.478712 493.19187
L 706.137483 928.486287
" clip-path="url(#p1f81da8b3b)" style="fill: none; stroke: #33334c; stroke-opacity: 0.05; stroke-width: 0.203667"/>
                <path d="M 609.050976 501.596145
L 374.084272 446.214618
" clip-path="url(#p1f81da8b3b)" style="fill: none; stroke: #33334c; stroke-opacity: 0.281721; stroke-width: 2.05246"/>
                <path d="M 609.050976 501.596145
L 757.971981 622.015963
" clip-path="url(#p1f81da8b3b)" style="fill: none; stroke: #33334c; stroke-opacity: 0.11865; stroke-width: 0.696364"/>
                <path d="M 609.050976 501.596145
L 486.324387 599.252563
" clip-path="url(#p1f81da8b3b)" style="fill: none; stroke: #33334c; stroke-opacity: 0.298767; stroke-width: 2.208845"/>
                <path d="M 609.050976 501.596145
L 620.059923 588.763103
" clip-path="url(#p1f81da8b3b)" style="fill: none; stroke: #33334c; stroke-opacity: 0.49232; stroke-width: 4.123907"/>
                <path d="M 609.050976 501.596145
L 371.305381 333.474764
" clip-path="url(#p1f81da8b3b)" style="fill: none; stroke: #33334c; stroke-opacity: 0.269782; stroke-width: 1.94431"/>
                <path d="M 609.050976 501.596145
L 650.978704 754.20689
" clip-path="url(#p1f81da8b3b)" style="fill: none; stroke: #33334c; stroke-opacity: 0.240291; stroke-width: 1.682372"/>
                <path d="M 609.050976 501.596145
L 591.519406 381.566044
" clip-path="url(#p1f81da8b3b)" style="fill: none; stroke: #33334c; stroke-opacity: 0.374407; stroke-width: 2.928732"/>
                <path d="M 609.050976 501.596145
L 959.32562 580.91335
" clip-path="url(#p1f81da8b3b)" style="fill: none; stroke: #33334c; stroke-opacity: 0.098247; stroke-width: 0.550047"/>
                <path d="M 609.050976 501.596145
L 221.47438 536.377953
" clip-path="url(#p1f81da8b3b)" style="fill: none; stroke: #33334c; stroke-opacity: 0.113445; stroke-width: 0.658391"/>
                <path d="M 609.050976 501.596145
L 890.532451 725.545395
" clip-path="url(#p1f81da8b3b)" style="fill: none; stroke: #33334c; stroke-opacity: 0.119604; stroke-width: 0.703367"/>
                <path d="M 609.050976 501.596145
L 241.93515 779.294403
" clip-path="url(#p1f81da8b3b)" style="fill: none; stroke: #33334c; stroke-opacity: 0.074846; stroke-width: 0.391482"/>
                <path d="M 609.050976 501.596145
L 706.137483 928.486287
" clip-path="url(#p1f81da8b3b)" style="fill: none; stroke: #33334c; stroke-opacity: 0.065208; stroke-width: 0.329518"/>
                <path d="M 609.050976 501.596145
L 801.917582 298.62529
" clip-path="url(#p1f81da8b3b)" style="fill: none; stroke: #33334c; stroke-opacity: 0.119344; stroke-width: 0.70146"/>
                <path d="M 374.084272 446.214618
L 757.971981 622.015963
" clip-path="url(#p1f81da8b3b)" style="fill: none; stroke: #33334c; stroke-opacity: 0.184089; stroke-width: 1.205826"/>
                <path d="M 374.084272 446.214618
L 486.324387 599.252563
" clip-path="url(#p1f81da8b3b)" style="fill: none; stroke: #33334c; stroke-opacity: 0.305757; stroke-width: 2.273632"/>
                <path d="M 374.084272 446.214618
L 371.305381 333.474764
" clip-path="url(#p1f81da8b3b)" style="fill: none; stroke: #33334c; stroke-opacity: 0.273584; stroke-width: 1.978627"/>
                <path d="M 374.084272 446.214618
L 591.519406 381.566044
" clip-path="url(#p1f81da8b3b)" style="fill: none; stroke: #33334c; stroke-opacity: 0.10863; stroke-width: 0.623646"/>
                <path d="M 374.084272 446.214618
L 620.059923 588.763103
" clip-path="url(#p1f81da8b3b)" style="fill: none; stroke: #33334c; stroke-opacity: 0.193465; stroke-width: 1.283076"/>
                <path d="M 374.084272 446.214618
L 462.991045 215.214545
" clip-path="url(#p1f81da8b3b)" style="fill: none; stroke: #33334c; stroke-opacity: 0.061779; stroke-width: 0.308003"/>
                <path d="M 374.084272 446.214618
L 801.917582 298.62529
" clip-path="url(#p1f81da8b3b)" style="fill: none; stroke: #33334c; stroke-opacity: 0.142009; stroke-width: 0.871757"/>
                <path d="M 374.084272 446.214618
L 241.93515 779.294403
" clip-path="url(#p1f81da8b3b)" style="fill: none; stroke: #33334c; stroke-opacity: 0.05392; stroke-width: 0.259831"/>
                <path d="M 374.084272 446.214618
L 706.137483 928.486287
" clip-path="url(#p1f81da8b3b)" style="fill: none; stroke: #33334c; stroke-opacity: 0.05; stroke-width: 0.229091"/>
                <path d="M 757.971981 622.015963
L 486.324387 599.252563
" clip-path="url(#p1f81da8b3b)" style="fill: none; stroke: #33334c; stroke-opacity: 0.170522; stroke-width: 1.095784"/>
                <path d="M 757.971981 622.015963
L 371.305381 333.474764
" clip-path="url(#p1f81da8b3b)" style="fill: none; stroke: #33334c; stroke-opacity: 0.116728; stroke-width: 0.682287"/>
                <path d="M 757.971981 622.015963
L 801.917582 298.62529
" clip-path="url(#p1f81da8b3b)" style="fill: none; stroke: #33334c; stroke-opacity: 0.093945; stroke-width: 0.520108"/>
                <path d="M 757.971981 622.015963
L 241.93515 779.294403
" clip-path="url(#p1f81da8b3b)" style="fill: none; stroke: #33334c; stroke-opacity: 0.05031; stroke-width: 0.238268"/>
                <path d="M 757.971981 622.015963
L 706.137483 928.486287
" clip-path="url(#p1f81da8b3b)" style="fill: none; stroke: #33334c; stroke-opacity: 0.05; stroke-width: 0.200778"/>
                <path d="M 757.971981 622.015963
L 462.991045 215.214545
" clip-path="url(#p1f81da8b3b)" style="fill: none; stroke: #33334c; stroke-opacity: 0.057939; stroke-width: 0.284258"/>
                <path d="M 757.971981 622.015963
L 620.059923 588.763103
" clip-path="url(#p1f81da8b3b)" style="fill: none; stroke: #33334c; stroke-opacity: 0.097357; stroke-width: 0.543826"/>
                <path d="M 757.971981 622.015963
L 591.519406 381.566044
" clip-path="url(#p1f81da8b3b)" style="fill: none; stroke: #33334c; stroke-opacity: 0.055233; stroke-width: 0.267763"/>
                <path d="M 241.93515 779.294403
L 371.305381 333.474764
" clip-path="url(#p1f81da8b3b)" style="fill: none; stroke: #33334c; stroke-opacity: 0.05; stroke-width: 0.229091"/>
                <path d="M 241.93515 779.294403
L 486.324387 599.252563
" clip-path="url(#p1f81da8b3b)" style="fill: none; stroke: #33334c; stroke-opacity: 0.063509; stroke-width: 0.318821"/>
                <path d="M 241.93515 779.294403
L 706.137483 928.486287
" clip-path="url(#p1f81da8b3b)" style="fill: none; stroke: #33334c; stroke-opacity: 0.150255; stroke-width: 0.935487"/>
                <path d="M 241.93515 779.294403
L 462.991045 215.214545
" clip-path="url(#p1f81da8b3b)" style="fill: none; stroke: #33334c; stroke-opacity: 0.05581; stroke-width: 0.271263"/>
                <path d="M 241.93515 779.294403
L 591.519406 381.566044
" clip-path="url(#p1f81da8b3b)" style="fill: none; stroke: #33334c; stroke-opacity: 0.060154; stroke-width: 0.297904"/>
                <path d="M 241.93515 779.294403
L 620.059923 588.763103
" clip-path="url(#p1f81da8b3b)" style="fill: none; stroke: #33334c; stroke-opacity: 0.059742; stroke-width: 0.295362"/>
                <path d="M 371.305381 333.474764
L 486.324387 599.252563
" clip-path="url(#p1f81da8b3b)" style="fill: none; stroke: #33334c; stroke-opacity: 0.260783; stroke-width: 1.863589"/>
                <path d="M 371.305381 333.474764
L 462.991045 215.214545
" clip-path="url(#p1f81da8b3b)" style="fill: none; stroke: #33334c; stroke-opacity: 0.08027; stroke-width: 0.427262"/>
                <path d="M 371.305381 333.474764
L 801.917582 298.62529
" clip-path="url(#p1f81da8b3b)" style="fill: none; stroke: #33334c; stroke-opacity: 0.102714; stroke-width: 0.581484"/>
                <path d="M 371.305381 333.474764
L 620.059923 588.763103
" clip-path="url(#p1f81da8b3b)" style="fill: none; stroke: #33334c; stroke-opacity: 0.182593; stroke-width: 1.193591"/>
                <path d="M 371.305381 333.474764
L 591.519406 381.566044
" clip-path="url(#p1f81da8b3b)" style="fill: none; stroke: #33334c; stroke-opacity: 0.117692; stroke-width: 0.689338"/>
                <path d="M 486.324387 599.252563
L 706.137483 928.486287
" clip-path="url(#p1f81da8b3b)" style="fill: none; stroke: #33334c; stroke-opacity: 0.054067; stroke-width: 0.260716"/>
                <path d="M 486.324387 599.252563
L 801.917582 298.62529
" clip-path="url(#p1f81da8b3b)" style="fill: none; stroke: #33334c; stroke-opacity: 0.221783; stroke-width: 1.521985"/>
                <path d="M 486.324387 599.252563
L 443.194105 948.305455
" clip-path="url(#p1f81da8b3b)" style="fill: none; stroke: #33334c; stroke-opacity: 0.105653; stroke-width: 0.602353"/>
                <path d="M 486.324387 599.252563
L 462.991045 215.214545
" clip-path="url(#p1f81da8b3b)" style="fill: none; stroke: #33334c; stroke-opacity: 0.05; stroke-width: 0.205586"/>
                <path d="M 486.324387 599.252563
L 620.059923 588.763103
" clip-path="url(#p1f81da8b3b)" style="fill: none; stroke: #33334c; stroke-opacity: 0.223839; stroke-width: 1.539641"/>
                <path d="M 486.324387 599.252563
L 591.519406 381.566044
" clip-path="url(#p1f81da8b3b)" style="fill: none; stroke: #33334c; stroke-opacity: 0.096761; stroke-width: 0.539666"/>
                <path d="M 706.137483 928.486287
L 462.991045 215.214545
" clip-path="url(#p1f81da8b3b)" style="fill: none; stroke: #33334c; stroke-opacity: 0.05; stroke-width: 0.223526"/>
                <path d="M 706.137483 928.486287
L 591.519406 381.566044
" clip-path="url(#p1f81da8b3b)" style="fill: none; stroke: #33334c; stroke-opacity: 0.055954; stroke-width: 0.272136"/>
                <path d="M 706.137483 928.486287
L 620.059923 588.763103
" clip-path="url(#p1f81da8b3b)" style="fill: none; stroke: #33334c; stroke-opacity: 0.05; stroke-width: 0.216974"/>
                <path d="M 620.059923 588.763103
L 591.519406 381.566044
" clip-path="url(#p1f81da8b3b)" style="fill: none; stroke: #33334c; stroke-opacity: 0.403748; stroke-width: 3.21838"/>
                <path d="M 620.059923 588.763103
L 221.47438 536.377953
" clip-path="url(#p1f81da8b3b)" style="fill: none; stroke: #33334c; stroke-opacity: 0.136462; stroke-width: 0.8294"/>
                <path d="M 620.059923 588.763103
L 650.978704 754.20689
" clip-path="url(#p1f81da8b3b)" style="fill: none; stroke: #33334c; stroke-opacity: 0.240454; stroke-width: 1.683797"/>
                <path d="M 620.059923 588.763103
L 443.194105 948.305455
" clip-path="url(#p1f81da8b3b)" style="fill: none; stroke: #33334c; stroke-opacity: 0.073658; stroke-width: 0.383729"/>
                <path d="M 620.059923 588.763103
L 890.532451 725.545395
" clip-path="url(#p1f81da8b3b)" style="fill: none; stroke: #33334c; stroke-opacity: 0.17539; stroke-width: 1.135026"/>
                <path d="M 620.059923 588.763103
L 959.32562 580.91335
" clip-path="url(#p1f81da8b3b)" style="fill: none; stroke: #33334c; stroke-opacity: 0.107055; stroke-width: 0.612365"/>
                <path d="M 620.059923 588.763103
L 462.991045 215.214545
" clip-path="url(#p1f81da8b3b)" style="fill: none; stroke: #33334c; stroke-opacity: 0.076954; stroke-width: 0.405309"/>
                <path d="M 620.059923 588.763103
L 801.917582 298.62529
" clip-path="url(#p1f81da8b3b)" style="fill: none; stroke: #33334c; stroke-opacity: 0.058498; stroke-width: 0.287689"/>
                <path d="M 591.519406 381.566044
L 221.47438 536.377953
" clip-path="url(#p1f81da8b3b)" style="fill: none; stroke: #33334c; stroke-opacity: 0.094856; stroke-width: 0.526421"/>
                <path d="M 591.519406 381.566044
L 650.978704 754.20689
" clip-path="url(#p1f81da8b3b)" style="fill: none; stroke: #33334c; stroke-opacity: 0.150255; stroke-width: 0.935487"/>
                <path d="M 591.519406 381.566044
L 462.991045 215.214545
" clip-path="url(#p1f81da8b3b)" style="fill: none; stroke: #33334c; stroke-opacity: 0.05333; stroke-width: 0.25628"/>
                <path d="M 591.519406 381.566044
L 890.532451 725.545395
" clip-path="url(#p1f81da8b3b)" style="fill: none; stroke: #33334c; stroke-opacity: 0.109824; stroke-width: 0.632227"/>
                <path d="M 591.519406 381.566044
L 959.32562 580.91335
" clip-path="url(#p1f81da8b3b)" style="fill: none; stroke: #33334c; stroke-opacity: 0.065338; stroke-width: 0.330336"/>
                <path d="M 221.47438 536.377953
L 650.978704 754.20689
" clip-path="url(#p1f81da8b3b)" style="fill: none; stroke: #33334c; stroke-opacity: 0.093538; stroke-width: 0.517294"/>
                <path d="M 221.47438 536.377953
L 890.532451 725.545395
" clip-path="url(#p1f81da8b3b)" style="fill: none; stroke: #33334c; stroke-opacity: 0.056668; stroke-width: 0.276485"/>
                <path d="M 650.978704 754.20689
L 890.532451 725.545395
" clip-path="url(#p1f81da8b3b)" style="fill: none; stroke: #33334c; stroke-opacity: 0.081281; stroke-width: 0.433999"/>
                <path d="M 890.532451 725.545395
L 959.32562 580.91335
" clip-path="url(#p1f81da8b3b)" style="fill: none; stroke: #33334c; stroke-opacity: 0.072094; stroke-width: 0.373572"/>
                <path d="M 801.917582 298.62529
L 443.194105 948.305455
" clip-path="url(#p1f81da8b3b)" style="fill: none; stroke: #33334c; stroke-opacity: 0.06827; stroke-width: 0.348969"/>
            </g>
            <g id="PathCollection_1">
                <path d="M 726.108769 469.043353
C 736.733533 469.043353 746.924564 464.82209 754.437407 457.309247
C 761.950249 449.796405 766.171512 439.605373 766.171512 428.98061
C 766.171512 418.355846 761.950249 408.164815 754.437407 400.651972
C 746.924564 393.13913 736.733533 388.917866 726.108769 388.917866
C 715.484005 388.917866 705.292974 393.13913 697.780132 400.651972
C 690.267289 408.164815 686.046026 418.355846 686.046026 428.98061
C 686.046026 439.605373 690.267289 449.796405 697.780132 457.309247
C 705.292974 464.82209 715.484005 469.043353 726.108769 469.043353
z
" clip-path="url(#p1f81da8b3b)" style="fill: #add8e6; fill-opacity: 0.9; stroke: #d3d3d3; stroke-opacity: 0.9"/>
                <path d="M 865.869166 514.385662
C 875.519756 514.385662 884.776383 510.551442 891.600381 503.727444
C 898.424379 496.903446 902.258599 487.64682 902.258599 477.996229
C 902.258599 468.345639 898.424379 459.089012 891.600381 452.265014
C 884.776383 445.441016 875.519756 441.606796 865.869166 441.606796
C 856.218575 441.606796 846.961948 445.441016 840.13795 452.265014
C 833.313952 459.089012 829.479732 468.345639 829.479732 477.996229
C 829.479732 487.64682 833.313952 496.903446 840.13795 503.727444
C 846.961948 510.551442 856.218575 514.385662 865.869166 514.385662
z
" clip-path="url(#p1f81da8b3b)" style="fill: #add8e6; fill-opacity: 0.9; stroke: #d3d3d3; stroke-opacity: 0.9"/>
                <path d="M 440.719802 712.27027
C 452.132128 712.27027 463.07857 707.736105 471.148303 699.666372
C 479.218036 691.596639 483.752201 680.650197 483.752201 669.237871
C 483.752201 657.825546 479.218036 646.879103 471.148303 638.80937
C 463.07857 630.739637 452.132128 626.205472 440.719802 626.205472
C 429.307476 626.205472 418.361034 630.739637 410.291301 638.80937
C 402.221568 646.879103 397.687403 657.825546 397.687403 669.237871
C 397.687403 680.650197 402.221568 691.596639 410.291301 699.666372
C 418.361034 707.736105 429.307476 712.27027 440.719802 712.27027
z
" clip-path="url(#p1f81da8b3b)" style="fill: #add8e6; fill-opacity: 0.9; stroke: #d3d3d3; stroke-opacity: 0.9"/>
                <path d="M 527.478712 550.936852
C 542.79286 550.936852 557.481842 544.852477 568.31058 534.023739
C 579.139318 523.195001 585.223694 508.506018 585.223694 493.19187
C 585.223694 477.877722 579.139318 463.18874 568.31058 452.360002
C 557.481842 441.531264 542.79286 435.446888 527.478712 435.446888
C 512.164564 435.446888 497.475582 441.531264 486.646844 452.360002
C 475.818105 463.18874 469.73373 477.877722 469.73373 493.19187
C 469.73373 508.506018 475.818105 523.195001 486.646844 534.023739
C 497.475582 544.852477 512.164564 550.936852 527.478712 550.936852
z
" clip-path="url(#p1f81da8b3b)" style="fill: #add8e6; fill-opacity: 0.9; stroke: #d3d3d3; stroke-opacity: 0.9"/>
                <path d="M 609.050976 559.563177
C 624.424013 559.563177 639.169479 553.455405 650.039858 542.585027
C 660.910236 531.714648 667.018008 516.969182 667.018008 501.596145
C 667.018008 486.223108 660.910236 471.477641 650.039858 460.607263
C 639.169479 449.736884 624.424013 443.629112 609.050976 443.629112
C 593.677939 443.629112 578.932472 449.736884 568.062094 460.607263
C 557.191715 471.477641 551.083943 486.223108 551.083943 501.596145
C 551.083943 516.969182 557.191715 531.714648 568.062094 542.585027
C 578.932472 553.455405 593.677939 559.563177 609.050976 559.563177
z
" clip-path="url(#p1f81da8b3b)" style="fill: #add8e6; fill-opacity: 0.9; stroke: #d3d3d3; stroke-opacity: 0.9"/>
                <path d="M 374.084272 488.406764
C 385.273759 488.406764 396.006461 483.961133 403.918624 476.04897
C 411.830787 468.136808 416.276417 457.404106 416.276417 446.214618
C 416.276417 435.02513 411.830787 424.292428 403.918624 416.380265
C 396.006461 408.468103 385.273759 404.022472 374.084272 404.022472
C 362.894784 404.022472 352.162082 408.468103 344.249919 416.380265
C 336.337756 424.292428 331.892126 435.02513 331.892126 446.214618
C 331.892126 457.404106 336.337756 468.136808 344.249919 476.04897
C 352.162082 483.961133 362.894784 488.406764 374.084272 488.406764
z
" clip-path="url(#p1f81da8b3b)" style="fill: #add8e6; fill-opacity: 0.9; stroke: #d3d3d3; stroke-opacity: 0.9"/>
                <path d="M 757.971981 651.971488
C 765.916279 651.971488 773.536268 648.815185 779.153735 643.197718
C 784.771202 637.580251 787.927505 629.960261 787.927505 622.015963
C 787.927505 614.071665 784.771202 606.451675 779.153735 600.834208
C 773.536268 595.216741 765.916279 592.060438 757.971981 592.060438
C 750.027683 592.060438 742.407693 595.216741 736.790226 600.834208
C 731.172759 606.451675 728.016456 614.071665 728.016456 622.015963
C 728.016456 629.960261 731.172759 637.580251 736.790226 643.197718
C 742.407693 648.815185 750.027683 651.971488 757.971981 651.971488
z
" clip-path="url(#p1f81da8b3b)" style="fill: #add8e6; fill-opacity: 0.9; stroke: #d3d3d3; stroke-opacity: 0.9"/>
                <path d="M 241.93515 804.532378
C 248.628339 804.532378 255.048294 801.873146 259.781094 797.140346
C 264.513893 792.407547 267.173125 785.987592 267.173125 779.294403
C 267.173125 772.601213 264.513893 766.181259 259.781094 761.448459
C 255.048294 756.71566 248.628339 754.056427 241.93515 754.056427
C 235.241961 754.056427 228.822006 756.71566 224.089207 761.448459
C 219.356407 766.181259 216.697175 772.601213 216.697175 779.294403
C 216.697175 785.987592 219.356407 792.407547 224.089207 797.140346
C 228.822006 801.873146 235.241961 804.532378 241.93515 804.532378
z
" clip-path="url(#p1f81da8b3b)" style="fill: #add8e6; fill-opacity: 0.9; stroke: #d3d3d3; stroke-opacity: 0.9"/>
                <path d="M 371.305381 374.546354
C 382.197694 374.546354 392.645353 370.218793 400.347381 362.516764
C 408.049409 354.814736 412.376971 344.367077 412.376971 333.474764
C 412.376971 322.582451 408.049409 312.134793 400.347381 304.432765
C 392.645353 296.730736 382.197694 292.403174 371.305381 292.403174
C 360.413068 292.403174 349.96541 296.730736 342.263382 304.432765
C 334.561353 312.134793 330.233791 322.582451 330.233791 333.474764
C 330.233791 344.367077 334.561353 354.814736 342.263382 362.516764
C 349.96541 370.218793 360.413068 374.546354 371.305381 374.546354
z
" clip-path="url(#p1f81da8b3b)" style="fill: #add8e6; fill-opacity: 0.9; stroke: #d3d3d3; stroke-opacity: 0.9"/>
                <path d="M 486.324387 644.116292
C 498.222387 644.116292 509.634678 639.389166 518.047834 630.97601
C 526.460991 622.562853 531.188116 611.150563 531.188116 599.252563
C 531.188116 587.354563 526.460991 575.942272 518.047834 567.529116
C 509.634678 559.115959 498.222387 554.388834 486.324387 554.388834
C 474.426387 554.388834 463.014097 559.115959 454.60094 567.529116
C 446.187784 575.942272 441.460658 587.354563 441.460658 599.252563
C 441.460658 611.150563 446.187784 622.562853 454.60094 630.97601
C 463.014097 639.389166 474.426387 644.116292 486.324387 644.116292
z
" clip-path="url(#p1f81da8b3b)" style="fill: #add8e6; fill-opacity: 0.9; stroke: #d3d3d3; stroke-opacity: 0.9"/>
                <path d="M 706.137483 952.103421
C 712.40082 952.103421 718.408471 949.614971 722.837319 945.186123
C 727.266167 940.757274 729.754618 934.749624 729.754618 928.486287
C 729.754618 922.22295 727.266167 916.215299 722.837319 911.786451
C 718.408471 907.357603 712.40082 904.869152 706.137483 904.869152
C 699.874146 904.869152 693.866495 907.357603 689.437647 911.786451
C 685.008799 916.215299 682.520349 922.22295 682.520349 928.486287
C 682.520349 934.749624 685.008799 940.757274 689.437647 945.186123
C 693.866495 949.614971 699.874146 952.103421 706.137483 952.103421
z
" clip-path="url(#p1f81da8b3b)" style="fill: #add8e6; fill-opacity: 0.9; stroke: #d3d3d3; stroke-opacity: 0.9"/>
                <path d="M 620.059923 642.615755
C 634.341813 642.615755 648.040677 636.9415 658.139499 626.842679
C 668.23832 616.743857 673.912575 603.044993 673.912575 588.763103
C 673.912575 574.481213 668.23832 560.782349 658.139499 550.683528
C 648.040677 540.584706 634.341813 534.910451 620.059923 534.910451
C 605.778033 534.910451 592.079169 540.584706 581.980348 550.683528
C 571.881526 560.782349 566.207271 574.481213 566.207271 588.763103
C 566.207271 603.044993 571.881526 616.743857 581.980348 626.842679
C 592.079169 636.9415 605.778033 642.615755 620.059923 642.615755
z
" clip-path="url(#p1f81da8b3b)" style="fill: #add8e6; fill-opacity: 0.9; stroke: #d3d3d3; stroke-opacity: 0.9"/>
                <path d="M 591.519406 425.532844
C 603.179538 425.532844 614.36367 420.900224 622.608628 412.655266
C 630.853586 404.410308 635.486206 393.226176 635.486206 381.566044
C 635.486206 369.905913 630.853586 358.72178 622.608628 350.476822
C 614.36367 342.231864 603.179538 337.599245 591.519406 337.599245
C 579.859275 337.599245 568.675142 342.231864 560.430184 350.476822
C 552.185226 358.72178 547.552607 369.905913 547.552607 381.566044
C 547.552607 393.226176 552.185226 404.410308 560.430184 412.655266
C 568.675142 420.900224 579.859275 425.532844 591.519406 425.532844
z
" clip-path="url(#p1f81da8b3b)" style="fill: #add8e6; fill-opacity: 0.9; stroke: #d3d3d3; stroke-opacity: 0.9"/>
                <path d="M 221.47438 561.815995
C 228.220628 561.815995 234.691474 559.135682 239.461792 554.365365
C 244.232109 549.595048 246.912421 543.124201 246.912421 536.377953
C 246.912421 529.631706 244.232109 523.160859 239.461792 518.390542
C 234.691474 513.620225 228.220628 510.939912 221.47438 510.939912
C 214.728133 510.939912 208.257286 513.620225 203.486969 518.390542
C 198.716652 523.160859 196.036339 529.631706 196.036339 536.377953
C 196.036339 543.124201 198.716652 549.595048 203.486969 554.365365
C 208.257286 559.135682 214.728133 561.815995 221.47438 561.815995
z
" clip-path="url(#p1f81da8b3b)" style="fill: #add8e6; fill-opacity: 0.9; stroke: #d3d3d3; stroke-opacity: 0.9"/>
                <path d="M 650.978704 788.53093
C 660.081546 788.53093 668.812784 784.914332 675.249465 778.477651
C 681.686146 772.04097 685.302744 763.309732 685.302744 754.20689
C 685.302744 745.104049 681.686146 736.37281 675.249465 729.936129
C 668.812784 723.499448 660.081546 719.882851 650.978704 719.882851
C 641.875863 719.882851 633.144624 723.499448 626.707943 729.936129
C 620.271262 736.37281 616.654665 745.104049 616.654665 754.20689
C 616.654665 763.309732 620.271262 772.04097 626.707943 778.477651
C 633.144624 784.914332 641.875863 788.53093 650.978704 788.53093
z
" clip-path="url(#p1f81da8b3b)" style="fill: #add8e6; fill-opacity: 0.9; stroke: #d3d3d3; stroke-opacity: 0.9"/>
                <path d="M 890.532451 755.463177
C 898.466739 755.463177 906.077128 752.310851 911.687517 746.700461
C 917.297906 741.090072 920.450232 733.479683 920.450232 725.545395
C 920.450232 717.611106 917.297906 710.000718 911.687517 704.390329
C 906.077128 698.779939 898.466739 695.627613 890.532451 695.627613
C 882.598162 695.627613 874.987773 698.779939 869.377384 704.390329
C 863.766995 710.000718 860.614669 717.611106 860.614669 725.545395
C 860.614669 733.479683 863.766995 741.090072 869.377384 746.700461
C 874.987773 752.310851 882.598162 755.463177 890.532451 755.463177
z
" clip-path="url(#p1f81da8b3b)" style="fill: #add8e6; fill-opacity: 0.9; stroke: #d3d3d3; stroke-opacity: 0.9"/>
                <path d="M 462.991045 239.663989
C 469.475113 239.663989 475.694484 237.087841 480.279412 232.502913
C 484.864341 227.917984 487.440489 221.698614 487.440489 215.214545
C 487.440489 208.730477 484.864341 202.511107 480.279412 197.926178
C 475.694484 193.341249 469.475113 190.765102 462.991045 190.765102
C 456.506977 190.765102 450.287606 193.341249 445.702678 197.926178
C 441.117749 202.511107 438.541601 208.730477 438.541601 215.214545
C 438.541601 221.698614 441.117749 227.917984 445.702678 232.502913
C 450.287606 237.087841 456.506977 239.663989 462.991045 239.663989
z
" clip-path="url(#p1f81da8b3b)" style="fill: #add8e6; fill-opacity: 0.9; stroke: #d3d3d3; stroke-opacity: 0.9"/>
                <path d="M 801.917582 328.280628
C 809.78227 328.280628 817.325899 325.155954 822.887073 319.59478
C 828.448247 314.033606 831.572921 306.489977 831.572921 298.62529
C 831.572921 290.760602 828.448247 283.216973 822.887073 277.655799
C 817.325899 272.094625 809.78227 268.969951 801.917582 268.969951
C 794.052895 268.969951 786.509266 272.094625 780.948092 277.655799
C 775.386918 283.216973 772.262244 290.760602 772.262244 298.62529
C 772.262244 306.489977 775.386918 314.033606 780.948092 319.59478
C 786.509266 325.155954 794.052895 328.280628 801.917582 328.280628
z
" clip-path="url(#p1f81da8b3b)" style="fill: #add8e6; fill-opacity: 0.9; stroke: #d3d3d3; stroke-opacity: 0.9"/>
                <path d="M 443.194105 971.672616
C 449.391149 971.672616 455.335212 969.210504 459.717183 964.828533
C 464.099155 960.446561 466.561266 954.502498 466.561266 948.305455
C 466.561266 942.108411 464.099155 936.164348 459.717183 931.782376
C 455.335212 927.400405 449.391149 924.938293 443.194105 924.938293
C 436.997062 924.938293 431.052999 927.400405 426.671027 931.782376
C 422.289056 936.164348 419.826944 942.108411 419.826944 948.305455
C 419.826944 954.502498 422.289056 960.446561 426.671027 964.828533
C 431.052999 969.210504 436.997062 971.672616 443.194105 971.672616
z
" clip-path="url(#p1f81da8b3b)" style="fill: #add8e6; fill-opacity: 0.9; stroke: #d3d3d3; stroke-opacity: 0.9"/>
                <path d="M 959.32562 603.813471
C 965.398803 603.813471 971.224062 601.40057 975.518451 597.106181
C 979.81284 592.811792 982.225741 586.986533 982.225741 580.91335
C 982.225741 574.840167 979.81284 569.014908 975.518451 564.720519
C 971.224062 560.42613 965.398803 558.013229 959.32562 558.013229
C 953.252437 558.013229 947.427178 560.42613 943.132789 564.720519
C 938.8384 569.014908 936.425499 574.840167 936.425499 580.91335
C 936.425499 586.986533 938.8384 592.811792 943.132789 597.106181
C 947.427178 601.40057 953.252437 603.813471 959.32562 603.813471
z
" clip-path="url(#p1f81da8b3b)" style="fill: #add8e6; fill-opacity: 0.9; stroke: #d3d3d3; stroke-opacity: 0.9"/>
            </g>
            <g id="text_1">
                <g id="patch_2">
                    <path d="M 704.781509 434.629762
L 747.43603 434.629762
Q 749.088055 434.629762 749.088055 432.977737
L 749.088055 424.983483
Q 749.088055 423.331457 747.43603 423.331457
L 704.781509 423.331457
Q 703.129483 423.331457 703.129483 424.983483
L 703.129483 432.977737
Q 703.129483 434.629762 704.781509 434.629762
z
" style="fill: #ffffff; opacity: 0.1"/>
                </g>
                <!-- Disruption -->
                <g style="fill: #262626" transform="translate(704.781509 431.259889) scale(0.082601 -0.082601)">
                    <defs>
                        <path id="DejaVuSans-44" d="M 1259 4147
L 1259 519
L 2022 519
Q 2988 519 3436 956
Q 3884 1394 3884 2338
Q 3884 3275 3436 3711
Q 2988 4147 2022 4147
L 1259 4147
z
M 628 4666
L 1925 4666
Q 3281 4666 3915 4102
Q 4550 3538 4550 2338
Q 4550 1131 3912 565
Q 3275 0 1925 0
L 628 0
L 628 4666
z
" transform="scale(0.015625)"/>
                        <path id="DejaVuSans-69" d="M 603 3500
L 1178 3500
L 1178 0
L 603 0
L 603 3500
z
M 603 4863
L 1178 4863
L 1178 4134
L 603 4134
L 603 4863
z
" transform="scale(0.015625)"/>
                        <path id="DejaVuSans-73" d="M 2834 3397
L 2834 2853
Q 2591 2978 2328 3040
Q 2066 3103 1784 3103
Q 1356 3103 1142 2972
Q 928 2841 928 2578
Q 928 2378 1081 2264
Q 1234 2150 1697 2047
L 1894 2003
Q 2506 1872 2764 1633
Q 3022 1394 3022 966
Q 3022 478 2636 193
Q 2250 -91 1575 -91
Q 1294 -91 989 -36
Q 684 19 347 128
L 347 722
Q 666 556 975 473
Q 1284 391 1588 391
Q 1994 391 2212 530
Q 2431 669 2431 922
Q 2431 1156 2273 1281
Q 2116 1406 1581 1522
L 1381 1569
Q 847 1681 609 1914
Q 372 2147 372 2553
Q 372 3047 722 3315
Q 1072 3584 1716 3584
Q 2034 3584 2315 3537
Q 2597 3491 2834 3397
z
" transform="scale(0.015625)"/>
                        <path id="DejaVuSans-72" d="M 2631 2963
Q 2534 3019 2420 3045
Q 2306 3072 2169 3072
Q 1681 3072 1420 2755
Q 1159 2438 1159 1844
L 1159 0
L 581 0
L 581 3500
L 1159 3500
L 1159 2956
Q 1341 3275 1631 3429
Q 1922 3584 2338 3584
Q 2397 3584 2469 3576
Q 2541 3569 2628 3553
L 2631 2963
z
" transform="scale(0.015625)"/>
                        <path id="DejaVuSans-75" d="M 544 1381
L 544 3500
L 1119 3500
L 1119 1403
Q 1119 906 1312 657
Q 1506 409 1894 409
Q 2359 409 2629 706
Q 2900 1003 2900 1516
L 2900 3500
L 3475 3500
L 3475 0
L 2900 0
L 2900 538
Q 2691 219 2414 64
Q 2138 -91 1772 -91
Q 1169 -91 856 284
Q 544 659 544 1381
z
M 1991 3584
L 1991 3584
z
" transform="scale(0.015625)"/>
                        <path id="DejaVuSans-70" d="M 1159 525
L 1159 -1331
L 581 -1331
L 581 3500
L 1159 3500
L 1159 2969
Q 1341 3281 1617 3432
Q 1894 3584 2278 3584
Q 2916 3584 3314 3078
Q 3713 2572 3713 1747
Q 3713 922 3314 415
Q 2916 -91 2278 -91
Q 1894 -91 1617 61
Q 1341 213 1159 525
z
M 3116 1747
Q 3116 2381 2855 2742
Q 2594 3103 2138 3103
Q 1681 3103 1420 2742
Q 1159 2381 1159 1747
Q 1159 1113 1420 752
Q 1681 391 2138 391
Q 2594 391 2855 752
Q 3116 1113 3116 1747
z
" transform="scale(0.015625)"/>
                        <path id="DejaVuSans-74" d="M 1172 4494
L 1172 3500
L 2356 3500
L 2356 3053
L 1172 3053
L 1172 1153
Q 1172 725 1289 603
Q 1406 481 1766 481
L 2356 481
L 2356 0
L 1766 0
Q 1100 0 847 248
Q 594 497 594 1153
L 594 3053
L 172 3053
L 172 3500
L 594 3500
L 594 4494
L 1172 4494
z
" transform="scale(0.015625)"/>
                        <path id="DejaVuSans-6f" d="M 1959 3097
Q 1497 3097 1228 2736
Q 959 2375 959 1747
Q 959 1119 1226 758
Q 1494 397 1959 397
Q 2419 397 2687 759
Q 2956 1122 2956 1747
Q 2956 2369 2687 2733
Q 2419 3097 1959 3097
z
M 1959 3584
Q 2709 3584 3137 3096
Q 3566 2609 3566 1747
Q 3566 888 3137 398
Q 2709 -91 1959 -91
Q 1206 -91 779 398
Q 353 888 353 1747
Q 353 2609 779 3096
Q 1206 3584 1959 3584
z
" transform="scale(0.015625)"/>
                        <path id="DejaVuSans-6e" d="M 3513 2113
L 3513 0
L 2938 0
L 2938 2094
Q 2938 2591 2744 2837
Q 2550 3084 2163 3084
Q 1697 3084 1428 2787
Q 1159 2491 1159 1978
L 1159 0
L 581 0
L 581 3500
L 1159 3500
L 1159 2956
Q 1366 3272 1645 3428
Q 1925 3584 2291 3584
Q 2894 3584 3203 3211
Q 3513 2838 3513 2113
z
" transform="scale(0.015625)"/>
                    </defs>
                    <use xlink:href="#DejaVuSans-44"/>
                    <use xlink:href="#DejaVuSans-69" x="77.001953"/>
                    <use xlink:href="#DejaVuSans-73" x="104.785156"/>
                    <use xlink:href="#DejaVuSans-72" x="156.884766"/>
                    <use xlink:href="#DejaVuSans-75" x="197.998047"/>
                    <use xlink:href="#DejaVuSans-70" x="261.376953"/>
                    <use xlink:href="#DejaVuSans-74" x="324.853516"/>
                    <use xlink:href="#DejaVuSans-69" x="364.0625"/>
                    <use xlink:href="#DejaVuSans-6f" x="391.845703"/>
                    <use xlink:href="#DejaVuSans-6e" x="453.027344"/>
                </g>
            </g>
            <g id="text_2">
                <g id="patch_3">
                    <path d="M 848.903291 484.309213
L 882.835041 484.309213
Q 884.681195 484.309213 884.681195 482.463059
L 884.681195 473.5294
Q 884.681195 471.683245 882.835041 471.683245
L 848.903291 471.683245
Q 847.057136 471.683245 847.057136 473.5294
L 847.057136 482.463059
Q 847.057136 484.309213 848.903291 484.309213
z
" style="fill: #ffffff; opacity: 0.1"/>
                </g>
                <!-- Outage -->
                <g style="fill: #262626" transform="translate(848.903291 480.543346) scale(0.092308 -0.092308)">
                    <defs>
                        <path id="DejaVuSans-4f" d="M 2522 4238
Q 1834 4238 1429 3725
Q 1025 3213 1025 2328
Q 1025 1447 1429 934
Q 1834 422 2522 422
Q 3209 422 3611 934
Q 4013 1447 4013 2328
Q 4013 3213 3611 3725
Q 3209 4238 2522 4238
z
M 2522 4750
Q 3503 4750 4090 4092
Q 4678 3434 4678 2328
Q 4678 1225 4090 567
Q 3503 -91 2522 -91
Q 1538 -91 948 565
Q 359 1222 359 2328
Q 359 3434 948 4092
Q 1538 4750 2522 4750
z
" transform="scale(0.015625)"/>
                        <path id="DejaVuSans-61" d="M 2194 1759
Q 1497 1759 1228 1600
Q 959 1441 959 1056
Q 959 750 1161 570
Q 1363 391 1709 391
Q 2188 391 2477 730
Q 2766 1069 2766 1631
L 2766 1759
L 2194 1759
z
M 3341 1997
L 3341 0
L 2766 0
L 2766 531
Q 2569 213 2275 61
Q 1981 -91 1556 -91
Q 1019 -91 701 211
Q 384 513 384 1019
Q 384 1609 779 1909
Q 1175 2209 1959 2209
L 2766 2209
L 2766 2266
Q 2766 2663 2505 2880
Q 2244 3097 1772 3097
Q 1472 3097 1187 3025
Q 903 2953 641 2809
L 641 3341
Q 956 3463 1253 3523
Q 1550 3584 1831 3584
Q 2591 3584 2966 3190
Q 3341 2797 3341 1997
z
" transform="scale(0.015625)"/>
                        <path id="DejaVuSans-67" d="M 2906 1791
Q 2906 2416 2648 2759
Q 2391 3103 1925 3103
Q 1463 3103 1205 2759
Q 947 2416 947 1791
Q 947 1169 1205 825
Q 1463 481 1925 481
Q 2391 481 2648 825
Q 2906 1169 2906 1791
z
M 3481 434
Q 3481 -459 3084 -895
Q 2688 -1331 1869 -1331
Q 1566 -1331 1297 -1286
Q 1028 -1241 775 -1147
L 775 -588
Q 1028 -725 1275 -790
Q 1522 -856 1778 -856
Q 2344 -856 2625 -561
Q 2906 -266 2906 331
L 2906 616
Q 2728 306 2450 153
Q 2172 0 1784 0
Q 1141 0 747 490
Q 353 981 353 1791
Q 353 2603 747 3093
Q 1141 3584 1784 3584
Q 2172 3584 2450 3431
Q 2728 3278 2906 2969
L 2906 3500
L 3481 3500
L 3481 434
z
" transform="scale(0.015625)"/>
                        <path id="DejaVuSans-65" d="M 3597 1894
L 3597 1613
L 953 1613
Q 991 1019 1311 708
Q 1631 397 2203 397
Q 2534 397 2845 478
Q 3156 559 3463 722
L 3463 178
Q 3153 47 2828 -22
Q 2503 -91 2169 -91
Q 1331 -91 842 396
Q 353 884 353 1716
Q 353 2575 817 3079
Q 1281 3584 2069 3584
Q 2775 3584 3186 3129
Q 3597 2675 3597 1894
z
M 3022 2063
Q 3016 2534 2758 2815
Q 2500 3097 2075 3097
Q 1594 3097 1305 2825
Q 1016 2553 972 2059
L 3022 2063
z
" transform="scale(0.015625)"/>
                    </defs>
                    <use xlink:href="#DejaVuSans-4f"/>
                    <use xlink:href="#DejaVuSans-75" x="78.710938"/>
                    <use xlink:href="#DejaVuSans-74" x="142.089844"/>
                    <use xlink:href="#DejaVuSans-61" x="181.298828"/>
                    <use xlink:href="#DejaVuSans-67" x="242.578125"/>
                    <use xlink:href="#DejaVuSans-65" x="306.054688"/>
                </g>
            </g>
            <g id="text_3">
                <g id="patch_4">
                    <path d="M 420.711265 675.902308
L 460.728339 675.902308
Q 462.677272 675.902308 462.677272 673.953375
L 462.677272 664.522367
Q 462.677272 662.573434 460.728339 662.573434
L 420.711265 662.573434
Q 418.762332 662.573434 418.762332 664.522367
L 418.762332 673.953375
Q 418.762332 675.902308 420.711265 675.902308
z
" style="fill: #ffffff; opacity: 0.1"/>
                </g>
                <!-- Security -->
                <g style="fill: #262626" transform="translate(420.711265 671.92679) scale(0.097447 -0.097447)">
                    <defs>
                        <path id="DejaVuSans-53" d="M 3425 4513
L 3425 3897
Q 3066 4069 2747 4153
Q 2428 4238 2131 4238
Q 1616 4238 1336 4038
Q 1056 3838 1056 3469
Q 1056 3159 1242 3001
Q 1428 2844 1947 2747
L 2328 2669
Q 3034 2534 3370 2195
Q 3706 1856 3706 1288
Q 3706 609 3251 259
Q 2797 -91 1919 -91
Q 1588 -91 1214 -16
Q 841 59 441 206
L 441 856
Q 825 641 1194 531
Q 1563 422 1919 422
Q 2459 422 2753 634
Q 3047 847 3047 1241
Q 3047 1584 2836 1778
Q 2625 1972 2144 2069
L 1759 2144
Q 1053 2284 737 2584
Q 422 2884 422 3419
Q 422 4038 858 4394
Q 1294 4750 2059 4750
Q 2388 4750 2728 4690
Q 3069 4631 3425 4513
z
" transform="scale(0.015625)"/>
                        <path id="DejaVuSans-63" d="M 3122 3366
L 3122 2828
Q 2878 2963 2633 3030
Q 2388 3097 2138 3097
Q 1578 3097 1268 2742
Q 959 2388 959 1747
Q 959 1106 1268 751
Q 1578 397 2138 397
Q 2388 397 2633 464
Q 2878 531 3122 666
L 3122 134
Q 2881 22 2623 -34
Q 2366 -91 2075 -91
Q 1284 -91 818 406
Q 353 903 353 1747
Q 353 2603 823 3093
Q 1294 3584 2113 3584
Q 2378 3584 2631 3529
Q 2884 3475 3122 3366
z
" transform="scale(0.015625)"/>
                        <path id="DejaVuSans-79" d="M 2059 -325
Q 1816 -950 1584 -1140
Q 1353 -1331 966 -1331
L 506 -1331
L 506 -850
L 844 -850
Q 1081 -850 1212 -737
Q 1344 -625 1503 -206
L 1606 56
L 191 3500
L 800 3500
L 1894 763
L 2988 3500
L 3597 3500
L 2059 -325
z
" transform="scale(0.015625)"/>
                    </defs>
                    <use xlink:href="#DejaVuSans-53"/>
                    <use xlink:href="#DejaVuSans-65" x="63.476562"/>
                    <use xlink:href="#DejaVuSans-63" x="125"/>
                    <use xlink:href="#DejaVuSans-75" x="179.980469"/>
                    <use xlink:href="#DejaVuSans-72" x="243.359375"/>
                    <use xlink:href="#DejaVuSans-69" x="284.472656"/>
                    <use xlink:href="#DejaVuSans-74" x="312.255859"/>
                    <use xlink:href="#DejaVuSans-79" x="351.464844"/>
                </g>
            </g>
            <g id="text_4">
                <g id="patch_5">
                    <path d="M 517.505456 508.252398
L 537.451968 508.252398
Q 541.856234 508.252398 541.856234 503.848131
L 541.856234 482.535609
Q 541.856234 478.131342 537.451968 478.131342
L 517.505456 478.131342
Q 513.101189 478.131342 513.101189 482.535609
L 513.101189 503.848131
Q 513.101189 508.252398 517.505456 508.252398
z
" style="fill: #ffffff; opacity: 0.1"/>
                </g>
                <!-- IT -->
                <g style="fill: #262626" transform="translate(517.505456 499.268382) scale(0.220213 -0.220213)">
                    <defs>
                        <path id="DejaVuSans-49" d="M 628 4666
L 1259 4666
L 1259 0
L 628 0
L 628 4666
z
" transform="scale(0.015625)"/>
                        <path id="DejaVuSans-54" d="M -19 4666
L 3928 4666
L 3928 4134
L 2272 4134
L 2272 0
L 1638 0
L 1638 4134
L -19 4134
L -19 4666
z
" transform="scale(0.015625)"/>
                    </defs>
                    <use xlink:href="#DejaVuSans-49"/>
                    <use xlink:href="#DejaVuSans-54" x="29.492188"/>
                </g>
            </g>
            <g id="text_5">
                <g id="patch_6">
                    <path d="M 570.532674 509.688233
L 647.569277 509.688233
Q 649.935709 509.688233 649.935709 507.321801
L 649.935709 495.870489
Q 649.935709 493.504057 647.569277 493.504057
L 570.532674 493.504057
Q 568.166243 493.504057 568.166243 495.870489
L 568.166243 507.321801
Q 568.166243 509.688233 570.532674 509.688233
z
" style="fill: #ffffff; opacity: 0.1"/>
                </g>
                <!-- Tech Support -->
                <g style="fill: #262626" transform="translate(570.532674 504.861081) scale(0.118322 -0.118322)">
                    <defs>
                        <path id="DejaVuSans-68" d="M 3513 2113
L 3513 0
L 2938 0
L 2938 2094
Q 2938 2591 2744 2837
Q 2550 3084 2163 3084
Q 1697 3084 1428 2787
Q 1159 2491 1159 1978
L 1159 0
L 581 0
L 581 4863
L 1159 4863
L 1159 2956
Q 1366 3272 1645 3428
Q 1925 3584 2291 3584
Q 2894 3584 3203 3211
Q 3513 2838 3513 2113
z
" transform="scale(0.015625)"/>
                        <path id="DejaVuSans-20" transform="scale(0.015625)"/>
                    </defs>
                    <use xlink:href="#DejaVuSans-54"/>
                    <use xlink:href="#DejaVuSans-65" x="44.083984"/>
                    <use xlink:href="#DejaVuSans-63" x="105.607422"/>
                    <use xlink:href="#DejaVuSans-68" x="160.587891"/>
                    <use xlink:href="#DejaVuSans-20" x="223.966797"/>
                    <use xlink:href="#DejaVuSans-53" x="255.753906"/>
                    <use xlink:href="#DejaVuSans-75" x="319.230469"/>
                    <use xlink:href="#DejaVuSans-70" x="382.609375"/>
                    <use xlink:href="#DejaVuSans-70" x="446.085938"/>
                    <use xlink:href="#DejaVuSans-6f" x="509.5625"/>
                    <use xlink:href="#DejaVuSans-72" x="570.744141"/>
                    <use xlink:href="#DejaVuSans-74" x="611.857422"/>
                </g>
            </g>
            <g id="text_6">
                <g id="patch_7">
                    <path d="M 355.083299 453.093915
L 393.085244 453.093915
Q 395.09701 453.093915 395.09701 451.082149
L 395.09701 441.347087
Q 395.09701 439.335321 393.085244 439.335321
L 355.083299 439.335321
Q 353.071533 439.335321 353.071533 441.347087
L 353.071533 451.082149
Q 353.071533 453.093915 355.083299 453.093915
z
" style="fill: #ffffff; opacity: 0.1"/>
                </g>
                <!-- Feature -->
                <g style="fill: #262626" transform="translate(355.083299 448.990226) scale(0.100588 -0.100588)">
                    <defs>
                        <path id="DejaVuSans-46" d="M 628 4666
L 3309 4666
L 3309 4134
L 1259 4134
L 1259 2759
L 3109 2759
L 3109 2228
L 1259 2228
L 1259 0
L 628 0
L 628 4666
z
" transform="scale(0.015625)"/>
                    </defs>
                    <use xlink:href="#DejaVuSans-46"/>
                    <use xlink:href="#DejaVuSans-65" x="52.019531"/>
                    <use xlink:href="#DejaVuSans-61" x="113.542969"/>
                    <use xlink:href="#DejaVuSans-74" x="174.822266"/>
                    <use xlink:href="#DejaVuSans-75" x="214.03125"/>
                    <use xlink:href="#DejaVuSans-72" x="277.410156"/>
                    <use xlink:href="#DejaVuSans-65" x="316.273438"/>
                </g>
            </g>
            <g id="text_7">
                <g id="patch_8">
                    <path d="M 743.861676 627.099784
L 772.082285 627.099784
Q 773.568986 627.099784 773.568986 625.613083
L 773.568986 618.418843
Q 773.568986 616.932142 772.082285 616.932142
L 743.861676 616.932142
Q 742.374975 616.932142 742.374975 618.418843
L 742.374975 625.613083
Q 742.374975 627.099784 743.861676 627.099784
z
" style="fill: #ffffff; opacity: 0.1"/>
                </g>
                <!-- Product -->
                <g style="fill: #262626" transform="translate(743.861676 624.067146) scale(0.074335 -0.074335)">
                    <defs>
                        <path id="DejaVuSans-50" d="M 1259 4147
L 1259 2394
L 2053 2394
Q 2494 2394 2734 2622
Q 2975 2850 2975 3272
Q 2975 3691 2734 3919
Q 2494 4147 2053 4147
L 1259 4147
z
M 628 4666
L 2053 4666
Q 2838 4666 3239 4311
Q 3641 3956 3641 3272
Q 3641 2581 3239 2228
Q 2838 1875 2053 1875
L 1259 1875
L 1259 0
L 628 0
L 628 4666
z
" transform="scale(0.015625)"/>
                        <path id="DejaVuSans-64" d="M 2906 2969
L 2906 4863
L 3481 4863
L 3481 0
L 2906 0
L 2906 525
Q 2725 213 2448 61
Q 2172 -91 1784 -91
Q 1150 -91 751 415
Q 353 922 353 1747
Q 353 2572 751 3078
Q 1150 3584 1784 3584
Q 2172 3584 2448 3432
Q 2725 3281 2906 2969
z
M 947 1747
Q 947 1113 1208 752
Q 1469 391 1925 391
Q 2381 391 2643 752
Q 2906 1113 2906 1747
Q 2906 2381 2643 2742
Q 2381 3103 1925 3103
Q 1469 3103 1208 2742
Q 947 2381 947 1747
z
" transform="scale(0.015625)"/>
                    </defs>
                    <use xlink:href="#DejaVuSans-50"/>
                    <use xlink:href="#DejaVuSans-72" x="58.552734"/>
                    <use xlink:href="#DejaVuSans-6f" x="97.416016"/>
                    <use xlink:href="#DejaVuSans-64" x="158.597656"/>
                    <use xlink:href="#DejaVuSans-75" x="222.074219"/>
                    <use xlink:href="#DejaVuSans-63" x="285.453125"/>
                    <use xlink:href="#DejaVuSans-74" x="340.433594"/>
                </g>
            </g>
            <g id="text_8">
                <g id="patch_9">
                    <path d="M 231.726779 783.848683
L 252.143521 783.848683
Q 253.475364 783.848683 253.475364 782.516839
L 253.475364 776.071966
Q 253.475364 774.740123 252.143521 774.740123
L 231.726779 774.740123
Q 230.394936 774.740123 230.394936 776.071966
L 230.394936 782.516839
Q 230.394936 783.848683 231.726779 783.848683
z
" style="fill: #ffffff; opacity: 0.1"/>
                </g>
                <!-- Billing -->
                <g style="fill: #262626" transform="translate(231.726779 781.13193) scale(0.066592 -0.066592)">
                    <defs>
                        <path id="DejaVuSans-42" d="M 1259 2228
L 1259 519
L 2272 519
Q 2781 519 3026 730
Q 3272 941 3272 1375
Q 3272 1813 3026 2020
Q 2781 2228 2272 2228
L 1259 2228
z
M 1259 4147
L 1259 2741
L 2194 2741
Q 2656 2741 2882 2914
Q 3109 3088 3109 3444
Q 3109 3797 2882 3972
Q 2656 4147 2194 4147
L 1259 4147
z
M 628 4666
L 2241 4666
Q 2963 4666 3353 4366
Q 3744 4066 3744 3513
Q 3744 3084 3544 2831
Q 3344 2578 2956 2516
Q 3422 2416 3680 2098
Q 3938 1781 3938 1306
Q 3938 681 3513 340
Q 3088 0 2303 0
L 628 0
L 628 4666
z
" transform="scale(0.015625)"/>
                        <path id="DejaVuSans-6c" d="M 603 4863
L 1178 4863
L 1178 0
L 603 0
L 603 4863
z
" transform="scale(0.015625)"/>
                    </defs>
                    <use xlink:href="#DejaVuSans-42"/>
                    <use xlink:href="#DejaVuSans-69" x="68.603516"/>
                    <use xlink:href="#DejaVuSans-6c" x="96.386719"/>
                    <use xlink:href="#DejaVuSans-6c" x="124.169922"/>
                    <use xlink:href="#DejaVuSans-69" x="151.953125"/>
                    <use xlink:href="#DejaVuSans-6e" x="179.736328"/>
                    <use xlink:href="#DejaVuSans-67" x="243.115234"/>
                </g>
            </g>
            <g id="text_9">
                <g id="patch_10">
                    <path d="M 342.101645 338.656464
L 400.509118 338.656464
Q 402.024442 338.656464 402.024442 337.141139
L 402.024442 329.808389
Q 402.024442 328.293065 400.509118 328.293065
L 342.101645 328.293065
Q 340.58632 328.293065 340.58632 329.808389
L 340.58632 337.141139
Q 340.58632 338.656464 342.101645 338.656464
z
" style="fill: #ffffff; opacity: 0.1"/>
                </g>
                <!-- Documentation -->
                <g style="fill: #262626" transform="translate(342.101645 335.565439) scale(0.075766 -0.075766)">
                    <defs>
                        <path id="DejaVuSans-6d" d="M 3328 2828
Q 3544 3216 3844 3400
Q 4144 3584 4550 3584
Q 5097 3584 5394 3201
Q 5691 2819 5691 2113
L 5691 0
L 5113 0
L 5113 2094
Q 5113 2597 4934 2840
Q 4756 3084 4391 3084
Q 3944 3084 3684 2787
Q 3425 2491 3425 1978
L 3425 0
L 2847 0
L 2847 2094
Q 2847 2600 2669 2842
Q 2491 3084 2119 3084
Q 1678 3084 1418 2786
Q 1159 2488 1159 1978
L 1159 0
L 581 0
L 581 3500
L 1159 3500
L 1159 2956
Q 1356 3278 1631 3431
Q 1906 3584 2284 3584
Q 2666 3584 2933 3390
Q 3200 3197 3328 2828
z
" transform="scale(0.015625)"/>
                    </defs>
                    <use xlink:href="#DejaVuSans-44"/>
                    <use xlink:href="#DejaVuSans-6f" x="77.001953"/>
                    <use xlink:href="#DejaVuSans-63" x="138.183594"/>
                    <use xlink:href="#DejaVuSans-75" x="193.164062"/>
                    <use xlink:href="#DejaVuSans-6d" x="256.542969"/>
                    <use xlink:href="#DejaVuSans-65" x="353.955078"/>
                    <use xlink:href="#DejaVuSans-6e" x="415.478516"/>
                    <use xlink:href="#DejaVuSans-74" x="478.857422"/>
                    <use xlink:href="#DejaVuSans-61" x="518.066406"/>
                    <use xlink:href="#DejaVuSans-74" x="579.345703"/>
                    <use xlink:href="#DejaVuSans-69" x="618.554688"/>
                    <use xlink:href="#DejaVuSans-6f" x="646.337891"/>
                    <use xlink:href="#DejaVuSans-6e" x="707.519531"/>
                </g>
            </g>
            <g id="text_10">
                <g id="patch_11">
                    <path d="M 462.04016 606.227565
L 510.608614 606.227565
Q 512.648368 606.227565 512.648368 604.187811
L 512.648368 594.317314
Q 512.648368 592.27756 510.608614 592.27756
L 462.04016 592.27756
Q 460.000406 592.27756 460.000406 594.317314
L 460.000406 604.187811
Q 460.000406 606.227565 462.04016 606.227565
z
" style="fill: #ffffff; opacity: 0.1"/>
                </g>
                <!-- Feedback -->
                <g style="fill: #262626" transform="translate(462.04016 602.066786) scale(0.101988 -0.101988)">
                    <defs>
                        <path id="DejaVuSans-62" d="M 3116 1747
Q 3116 2381 2855 2742
Q 2594 3103 2138 3103
Q 1681 3103 1420 2742
Q 1159 2381 1159 1747
Q 1159 1113 1420 752
Q 1681 391 2138 391
Q 2594 391 2855 752
Q 3116 1113 3116 1747
z
M 1159 2969
Q 1341 3281 1617 3432
Q 1894 3584 2278 3584
Q 2916 3584 3314 3078
Q 3713 2572 3713 1747
Q 3713 922 3314 415
Q 2916 -91 2278 -91
Q 1894 -91 1617 61
Q 1341 213 1159 525
L 1159 0
L 581 0
L 581 4863
L 1159 4863
L 1159 2969
z
" transform="scale(0.015625)"/>
                        <path id="DejaVuSans-6b" d="M 581 4863
L 1159 4863
L 1159 1991
L 2875 3500
L 3609 3500
L 1753 1863
L 3688 0
L 2938 0
L 1159 1709
L 1159 0
L 581 0
L 581 4863
z
" transform="scale(0.015625)"/>
                    </defs>
                    <use xlink:href="#DejaVuSans-46"/>
                    <use xlink:href="#DejaVuSans-65" x="52.019531"/>
                    <use xlink:href="#DejaVuSans-65" x="113.542969"/>
                    <use xlink:href="#DejaVuSans-64" x="175.066406"/>
                    <use xlink:href="#DejaVuSans-62" x="238.542969"/>
                    <use xlink:href="#DejaVuSans-61" x="302.019531"/>
                    <use xlink:href="#DejaVuSans-63" x="363.298828"/>
                    <use xlink:href="#DejaVuSans-6b" x="418.279297"/>
                </g>
            </g>
            <g id="text_11">
                <g id="patch_12">
                    <path d="M 692.076521 932.879522
L 720.198446 932.879522
Q 721.483193 932.879522 721.483193 931.594774
L 721.483193 925.377799
Q 721.483193 924.093052 720.198446 924.093052
L 692.076521 924.093052
Q 690.791773 924.093052 690.791773 925.377799
L 690.791773 931.594774
Q 690.791773 932.879522 692.076521 932.879522
z
" style="fill: #ffffff; opacity: 0.1"/>
                </g>
                <!-- Payment -->
                <g style="fill: #262626" transform="translate(692.076521 930.258837) scale(0.064237 -0.064237)">
                    <use xlink:href="#DejaVuSans-50"/>
                    <use xlink:href="#DejaVuSans-61" x="55.802734"/>
                    <use xlink:href="#DejaVuSans-79" x="117.082031"/>
                    <use xlink:href="#DejaVuSans-6d" x="176.261719"/>
                    <use xlink:href="#DejaVuSans-65" x="273.673828"/>
                    <use xlink:href="#DejaVuSans-6e" x="335.197266"/>
                    <use xlink:href="#DejaVuSans-74" x="398.576172"/>
                </g>
            </g>
            <g id="text_12">
                <g id="patch_13">
                    <path d="M 584.764639 596.382143
L 655.355207 596.382143
Q 657.583302 596.382143 657.583302 594.154048
L 657.583302 583.372158
Q 657.583302 581.144063 655.355207 581.144063
L 584.764639 581.144063
Q 582.536544 581.144063 582.536544 583.372158
L 582.536544 594.154048
Q 582.536544 596.382143 584.764639 596.382143
z
" style="fill: #ffffff; opacity: 0.1"/>
                </g>
                <!-- Performance -->
                <g style="fill: #262626" transform="translate(584.764639 591.837178) scale(0.111405 -0.111405)">
                    <defs>
                        <path id="DejaVuSans-66" d="M 2375 4863
L 2375 4384
L 1825 4384
Q 1516 4384 1395 4259
Q 1275 4134 1275 3809
L 1275 3500
L 2222 3500
L 2222 3053
L 1275 3053
L 1275 0
L 697 0
L 697 3053
L 147 3053
L 147 3500
L 697 3500
L 697 3744
Q 697 4328 969 4595
Q 1241 4863 1831 4863
L 2375 4863
z
" transform="scale(0.015625)"/>
                    </defs>
                    <use xlink:href="#DejaVuSans-50"/>
                    <use xlink:href="#DejaVuSans-65" x="56.677734"/>
                    <use xlink:href="#DejaVuSans-72" x="118.201172"/>
                    <use xlink:href="#DejaVuSans-66" x="159.314453"/>
                    <use xlink:href="#DejaVuSans-6f" x="194.519531"/>
                    <use xlink:href="#DejaVuSans-72" x="255.701172"/>
                    <use xlink:href="#DejaVuSans-6d" x="295.064453"/>
                    <use xlink:href="#DejaVuSans-61" x="392.476562"/>
                    <use xlink:href="#DejaVuSans-6e" x="453.755859"/>
                    <use xlink:href="#DejaVuSans-63" x="517.134766"/>
                    <use xlink:href="#DejaVuSans-65" x="572.115234"/>
                </g>
            </g>
            <g id="text_13">
                <g id="patch_14">
                    <path d="M 577.733617 391.212791
L 605.305195 391.212791
Q 608.126268 391.212791 608.126268 388.391718
L 608.126268 374.74037
Q 608.126268 371.919298 605.305195 371.919298
L 577.733617 371.919298
Q 574.912544 371.919298 574.912544 374.74037
L 574.912544 388.391718
Q 574.912544 391.212791 577.733617 391.212791
z
" style="fill: #ffffff; opacity: 0.1"/>
                </g>
                <!-- Bug -->
                <g style="fill: #262626" transform="translate(577.733617 385.458243) scale(0.141054 -0.141054)">
                    <use xlink:href="#DejaVuSans-42"/>
                    <use xlink:href="#DejaVuSans-75" x="68.603516"/>
                    <use xlink:href="#DejaVuSans-67" x="131.982422"/>
                </g>
            </g>
            <g id="text_14">
                <g id="patch_15">
                    <path d="M 206.155515 540.718084
L 236.793245 540.718084
Q 238.062463 540.718084 238.062463 539.448866
L 238.062463 533.307041
Q 238.062463 532.037823 236.793245 532.037823
L 206.155515 532.037823
Q 204.886297 532.037823 204.886297 533.307041
L 204.886297 539.448866
Q 204.886297 540.718084 206.155515 540.718084
z
" style="fill: #ffffff; opacity: 0.1"/>
                </g>
                <!-- Hardware -->
                <g style="fill: #262626" transform="translate(206.155515 538.129078) scale(0.063461 -0.063461)">
                    <defs>
                        <path id="DejaVuSans-48" d="M 628 4666
L 1259 4666
L 1259 2753
L 3553 2753
L 3553 4666
L 4184 4666
L 4184 0
L 3553 0
L 3553 2222
L 1259 2222
L 1259 0
L 628 0
L 628 4666
z
" transform="scale(0.015625)"/>
                        <path id="DejaVuSans-77" d="M 269 3500
L 844 3500
L 1563 769
L 2278 3500
L 2956 3500
L 3675 769
L 4391 3500
L 4966 3500
L 4050 0
L 3372 0
L 2619 2869
L 1863 0
L 1184 0
L 269 3500
z
" transform="scale(0.015625)"/>
                    </defs>
                    <use xlink:href="#DejaVuSans-48"/>
                    <use xlink:href="#DejaVuSans-61" x="75.195312"/>
                    <use xlink:href="#DejaVuSans-72" x="136.474609"/>
                    <use xlink:href="#DejaVuSans-64" x="175.837891"/>
                    <use xlink:href="#DejaVuSans-77" x="239.314453"/>
                    <use xlink:href="#DejaVuSans-61" x="321.101562"/>
                    <use xlink:href="#DejaVuSans-72" x="382.380859"/>
                    <use xlink:href="#DejaVuSans-65" x="421.244141"/>
                </g>
            </g>
            <g id="text_15">
                <g id="patch_16">
                    <path d="M 633.716828 759.861799
L 668.24058 759.861799
Q 669.894289 759.861799 669.894289 758.20809
L 669.894289 750.205691
Q 669.894289 748.551982 668.24058 748.551982
L 633.716828 748.551982
Q 632.06312 748.551982 632.06312 750.205691
L 632.06312 758.20809
Q 632.06312 759.861799 633.716828 759.861799
z
" style="fill: #ffffff; opacity: 0.1"/>
                </g>
                <!-- Network -->
                <g style="fill: #262626" transform="translate(633.716828 756.488492) scale(0.082685 -0.082685)">
                    <defs>
                        <path id="DejaVuSans-4e" d="M 628 4666
L 1478 4666
L 3547 763
L 3547 4666
L 4159 4666
L 4159 0
L 3309 0
L 1241 3903
L 1241 0
L 628 0
L 628 4666
z
" transform="scale(0.015625)"/>
                    </defs>
                    <use xlink:href="#DejaVuSans-4e"/>
                    <use xlink:href="#DejaVuSans-65" x="74.804688"/>
                    <use xlink:href="#DejaVuSans-74" x="136.328125"/>
                    <use xlink:href="#DejaVuSans-77" x="175.537109"/>
                    <use xlink:href="#DejaVuSans-6f" x="257.324219"/>
                    <use xlink:href="#DejaVuSans-72" x="318.505859"/>
                    <use xlink:href="#DejaVuSans-6b" x="359.619141"/>
                </g>
            </g>
            <g id="text_16">
                <g id="patch_17">
                    <path d="M 874.196959 730.363971
L 906.867942 730.363971
Q 908.277076 730.363971 908.277076 728.954838
L 908.277076 722.135952
Q 908.277076 720.726819 906.867942 720.726819
L 874.196959 720.726819
Q 872.787826 720.726819 872.787826 722.135952
L 872.787826 728.954838
Q 872.787826 730.363971 874.196959 730.363971
z
" style="fill: #ffffff; opacity: 0.1"/>
                </g>
                <!-- Recovery -->
                <g style="fill: #262626" transform="translate(874.196959 727.489559) scale(0.070457 -0.070457)">
                    <defs>
                        <path id="DejaVuSans-52" d="M 2841 2188
Q 3044 2119 3236 1894
Q 3428 1669 3622 1275
L 4263 0
L 3584 0
L 2988 1197
Q 2756 1666 2539 1819
Q 2322 1972 1947 1972
L 1259 1972
L 1259 0
L 628 0
L 628 4666
L 2053 4666
Q 2853 4666 3247 4331
Q 3641 3997 3641 3322
Q 3641 2881 3436 2590
Q 3231 2300 2841 2188
z
M 1259 4147
L 1259 2491
L 2053 2491
Q 2509 2491 2742 2702
Q 2975 2913 2975 3322
Q 2975 3731 2742 3939
Q 2509 4147 2053 4147
L 1259 4147
z
" transform="scale(0.015625)"/>
                        <path id="DejaVuSans-76" d="M 191 3500
L 800 3500
L 1894 563
L 2988 3500
L 3597 3500
L 2284 0
L 1503 0
L 191 3500
z
" transform="scale(0.015625)"/>
                    </defs>
                    <use xlink:href="#DejaVuSans-52"/>
                    <use xlink:href="#DejaVuSans-65" x="64.982422"/>
                    <use xlink:href="#DejaVuSans-63" x="126.505859"/>
                    <use xlink:href="#DejaVuSans-6f" x="181.486328"/>
                    <use xlink:href="#DejaVuSans-76" x="242.667969"/>
                    <use xlink:href="#DejaVuSans-65" x="301.847656"/>
                    <use xlink:href="#DejaVuSans-72" x="363.371094"/>
                    <use xlink:href="#DejaVuSans-79" x="404.484375"/>
                </g>
            </g>
            <g id="text_17">
                <g id="patch_18">
                    <path d="M 450.058466 219.689143
L 475.923624 219.689143
Q 477.232165 219.689143 477.232165 218.380602
L 477.232165 212.048489
Q 477.232165 210.739948 475.923624 210.739948
L 450.058466 210.739948
Q 448.749925 210.739948 448.749925 212.048489
L 448.749925 218.380602
Q 448.749925 219.689143 450.058466 219.689143
z
" style="fill: #ffffff; opacity: 0.1"/>
                </g>
                <!-- Support -->
                <g style="fill: #262626" transform="translate(450.058466 217.019923) scale(0.065427 -0.065427)">
                    <use xlink:href="#DejaVuSans-53"/>
                    <use xlink:href="#DejaVuSans-75" x="63.476562"/>
                    <use xlink:href="#DejaVuSans-70" x="126.855469"/>
                    <use xlink:href="#DejaVuSans-70" x="190.332031"/>
                    <use xlink:href="#DejaVuSans-6f" x="253.808594"/>
                    <use xlink:href="#DejaVuSans-72" x="314.990234"/>
                    <use xlink:href="#DejaVuSans-74" x="356.103516"/>
                </g>
            </g>
            <g id="text_18">
                <g id="patch_19">
                    <path d="M 790.780331 304.348536
L 813.054834 304.348536
Q 814.728527 304.348536 814.728527 302.674843
L 814.728527 294.575736
Q 814.728527 292.902043 813.054834 292.902043
L 790.780331 292.902043
Q 789.106637 292.902043 789.106637 294.575736
L 789.106637 302.674843
Q 789.106637 304.348536 790.780331 304.348536
z
" style="fill: #ffffff; opacity: 0.1"/>
                </g>
                <!-- Sales -->
                <g style="fill: #262626" transform="translate(790.780331 300.934463) scale(0.083685 -0.083685)">
                    <use xlink:href="#DejaVuSans-53"/>
                    <use xlink:href="#DejaVuSans-61" x="63.476562"/>
                    <use xlink:href="#DejaVuSans-6c" x="124.755859"/>
                    <use xlink:href="#DejaVuSans-65" x="152.539062"/>
                    <use xlink:href="#DejaVuSans-73" x="214.0625"/>
                </g>
            </g>
            <g id="text_19">
                <g id="patch_20">
                    <path d="M 428.244261 952.408892
L 458.143949 952.408892
Q 459.343949 952.408892 459.343949 951.208892
L 459.343949 945.402017
Q 459.343949 944.202017 458.143949 944.202017
L 428.244261 944.202017
Q 427.044261 944.202017 427.044261 945.402017
L 427.044261 951.208892
Q 427.044261 952.408892 428.244261 952.408892
z
" style="fill: #ffffff; opacity: 0.1"/>
                </g>
                <!-- Marketing -->
                <g style="fill: #262626" transform="translate(428.244261 949.96108) scale(0.06 -0.06)">
                    <defs>
                        <path id="DejaVuSans-4d" d="M 628 4666
L 1569 4666
L 2759 1491
L 3956 4666
L 4897 4666
L 4897 0
L 4281 0
L 4281 4097
L 3078 897
L 2444 897
L 1241 4097
L 1241 0
L 628 0
L 628 4666
z
" transform="scale(0.015625)"/>
                    </defs>
                    <use xlink:href="#DejaVuSans-4d"/>
                    <use xlink:href="#DejaVuSans-61" x="86.279297"/>
                    <use xlink:href="#DejaVuSans-72" x="147.558594"/>
                    <use xlink:href="#DejaVuSans-6b" x="188.671875"/>
                    <use xlink:href="#DejaVuSans-65" x="242.957031"/>
                    <use xlink:href="#DejaVuSans-74" x="304.480469"/>
                    <use xlink:href="#DejaVuSans-69" x="343.689453"/>
                    <use xlink:href="#DejaVuSans-6e" x="371.472656"/>
                    <use xlink:href="#DejaVuSans-67" x="434.851562"/>
                </g>
            </g>
            <g id="text_20">
                <g id="patch_21">
                    <path d="M 940.00562 585.016788
L 978.64562 585.016788
Q 979.84562 585.016788 979.84562 583.816788
L 979.84562 578.009913
Q 979.84562 576.809913 978.64562 576.809913
L 940.00562 576.809913
Q 938.80562 576.809913 938.80562 578.009913
L 938.80562 583.816788
Q 938.80562 585.016788 940.00562 585.016788
z
" style="fill: #ffffff; opacity: 0.1"/>
                </g>
                <!-- Maintenance -->
                <g style="fill: #262626" transform="translate(940.00562 582.568975) scale(0.06 -0.06)">
                    <use xlink:href="#DejaVuSans-4d"/>
                    <use xlink:href="#DejaVuSans-61" x="86.279297"/>
                    <use xlink:href="#DejaVuSans-69" x="147.558594"/>
                    <use xlink:href="#DejaVuSans-6e" x="175.341797"/>
                    <use xlink:href="#DejaVuSans-74" x="238.720703"/>
                    <use xlink:href="#DejaVuSans-65" x="277.929688"/>
                    <use xlink:href="#DejaVuSans-6e" x="339.453125"/>
                    <use xlink:href="#DejaVuSans-61" x="402.832031"/>
                    <use xlink:href="#DejaVuSans-6e" x="464.111328"/>
                    <use xlink:href="#DejaVuSans-63" x="527.490234"/>
                    <use xlink:href="#DejaVuSans-65" x="582.470703"/>
                </g>
            </g>
            <g id="text_21">
                <!-- Tag Co-Occurrence Netzwerk (Relative Weights, Normalized by Number of Tickets) -->
                <g style="fill: #262626" transform="translate(343.29375 132.24) scale(0.12 -0.12)">
                    <defs>
                        <path id="DejaVuSans-43" d="M 4122 4306
L 4122 3641
Q 3803 3938 3442 4084
Q 3081 4231 2675 4231
Q 1875 4231 1450 3742
Q 1025 3253 1025 2328
Q 1025 1406 1450 917
Q 1875 428 2675 428
Q 3081 428 3442 575
Q 3803 722 4122 1019
L 4122 359
Q 3791 134 3420 21
Q 3050 -91 2638 -91
Q 1578 -91 968 557
Q 359 1206 359 2328
Q 359 3453 968 4101
Q 1578 4750 2638 4750
Q 3056 4750 3426 4639
Q 3797 4528 4122 4306
z
" transform="scale(0.015625)"/>
                        <path id="DejaVuSans-2d" d="M 313 2009
L 1997 2009
L 1997 1497
L 313 1497
L 313 2009
z
" transform="scale(0.015625)"/>
                        <path id="DejaVuSans-7a" d="M 353 3500
L 3084 3500
L 3084 2975
L 922 459
L 3084 459
L 3084 0
L 275 0
L 275 525
L 2438 3041
L 353 3041
L 353 3500
z
" transform="scale(0.015625)"/>
                        <path id="DejaVuSans-28" d="M 1984 4856
Q 1566 4138 1362 3434
Q 1159 2731 1159 2009
Q 1159 1288 1364 580
Q 1569 -128 1984 -844
L 1484 -844
Q 1016 -109 783 600
Q 550 1309 550 2009
Q 550 2706 781 3412
Q 1013 4119 1484 4856
L 1984 4856
z
" transform="scale(0.015625)"/>
                        <path id="DejaVuSans-57" d="M 213 4666
L 850 4666
L 1831 722
L 2809 4666
L 3519 4666
L 4500 722
L 5478 4666
L 6119 4666
L 4947 0
L 4153 0
L 3169 4050
L 2175 0
L 1381 0
L 213 4666
z
" transform="scale(0.015625)"/>
                        <path id="DejaVuSans-2c" d="M 750 794
L 1409 794
L 1409 256
L 897 -744
L 494 -744
L 750 256
L 750 794
z
" transform="scale(0.015625)"/>
                        <path id="DejaVuSans-29" d="M 513 4856
L 1013 4856
Q 1481 4119 1714 3412
Q 1947 2706 1947 2009
Q 1947 1309 1714 600
Q 1481 -109 1013 -844
L 513 -844
Q 928 -128 1133 580
Q 1338 1288 1338 2009
Q 1338 2731 1133 3434
Q 928 4138 513 4856
z
" transform="scale(0.015625)"/>
                    </defs>
                    <use xlink:href="#DejaVuSans-54"/>
                    <use xlink:href="#DejaVuSans-61" x="44.583984"/>
                    <use xlink:href="#DejaVuSans-67" x="105.863281"/>
                    <use xlink:href="#DejaVuSans-20" x="169.339844"/>
                    <use xlink:href="#DejaVuSans-43" x="201.126953"/>
                    <use xlink:href="#DejaVuSans-6f" x="270.951172"/>
                    <use xlink:href="#DejaVuSans-2d" x="334.007812"/>
                    <use xlink:href="#DejaVuSans-4f" x="372.841797"/>
                    <use xlink:href="#DejaVuSans-63" x="451.552734"/>
                    <use xlink:href="#DejaVuSans-63" x="506.533203"/>
                    <use xlink:href="#DejaVuSans-75" x="561.513672"/>
                    <use xlink:href="#DejaVuSans-72" x="624.892578"/>
                    <use xlink:href="#DejaVuSans-72" x="664.255859"/>
                    <use xlink:href="#DejaVuSans-65" x="703.119141"/>
                    <use xlink:href="#DejaVuSans-6e" x="764.642578"/>
                    <use xlink:href="#DejaVuSans-63" x="828.021484"/>
                    <use xlink:href="#DejaVuSans-65" x="883.001953"/>
                    <use xlink:href="#DejaVuSans-20" x="944.525391"/>
                    <use xlink:href="#DejaVuSans-4e" x="976.3125"/>
                    <use xlink:href="#DejaVuSans-65" x="1051.117188"/>
                    <use xlink:href="#DejaVuSans-74" x="1112.640625"/>
                    <use xlink:href="#DejaVuSans-7a" x="1151.849609"/>
                    <use xlink:href="#DejaVuSans-77" x="1204.339844"/>
                    <use xlink:href="#DejaVuSans-65" x="1286.126953"/>
                    <use xlink:href="#DejaVuSans-72" x="1347.650391"/>
                    <use xlink:href="#DejaVuSans-6b" x="1388.763672"/>
                    <use xlink:href="#DejaVuSans-20" x="1446.673828"/>
                    <use xlink:href="#DejaVuSans-28" x="1478.460938"/>
                    <use xlink:href="#DejaVuSans-52" x="1517.474609"/>
                    <use xlink:href="#DejaVuSans-65" x="1582.457031"/>
                    <use xlink:href="#DejaVuSans-6c" x="1643.980469"/>
                    <use xlink:href="#DejaVuSans-61" x="1671.763672"/>
                    <use xlink:href="#DejaVuSans-74" x="1733.042969"/>
                    <use xlink:href="#DejaVuSans-69" x="1772.251953"/>
                    <use xlink:href="#DejaVuSans-76" x="1800.035156"/>
                    <use xlink:href="#DejaVuSans-65" x="1859.214844"/>
                    <use xlink:href="#DejaVuSans-20" x="1920.738281"/>
                    <use xlink:href="#DejaVuSans-57" x="1952.525391"/>
                    <use xlink:href="#DejaVuSans-65" x="2045.527344"/>
                    <use xlink:href="#DejaVuSans-69" x="2107.050781"/>
                    <use xlink:href="#DejaVuSans-67" x="2134.833984"/>
                    <use xlink:href="#DejaVuSans-68" x="2198.310547"/>
                    <use xlink:href="#DejaVuSans-74" x="2261.689453"/>
                    <use xlink:href="#DejaVuSans-73" x="2300.898438"/>
                    <use xlink:href="#DejaVuSans-2c" x="2352.998047"/>
                    <use xlink:href="#DejaVuSans-20" x="2384.785156"/>
                    <use xlink:href="#DejaVuSans-4e" x="2416.572266"/>
                    <use xlink:href="#DejaVuSans-6f" x="2491.376953"/>
                    <use xlink:href="#DejaVuSans-72" x="2552.558594"/>
                    <use xlink:href="#DejaVuSans-6d" x="2591.921875"/>
                    <use xlink:href="#DejaVuSans-61" x="2689.333984"/>
                    <use xlink:href="#DejaVuSans-6c" x="2750.613281"/>
                    <use xlink:href="#DejaVuSans-69" x="2778.396484"/>
                    <use xlink:href="#DejaVuSans-7a" x="2806.179688"/>
                    <use xlink:href="#DejaVuSans-65" x="2858.669922"/>
                    <use xlink:href="#DejaVuSans-64" x="2920.193359"/>
                    <use xlink:href="#DejaVuSans-20" x="2983.669922"/>
                    <use xlink:href="#DejaVuSans-62" x="3015.457031"/>
                    <use xlink:href="#DejaVuSans-79" x="3078.933594"/>
                    <use xlink:href="#DejaVuSans-20" x="3138.113281"/>
                    <use xlink:href="#DejaVuSans-4e" x="3169.900391"/>
                    <use xlink:href="#DejaVuSans-75" x="3244.705078"/>
                    <use xlink:href="#DejaVuSans-6d" x="3308.083984"/>
                    <use xlink:href="#DejaVuSans-62" x="3405.496094"/>
                    <use xlink:href="#DejaVuSans-65" x="3468.972656"/>
                    <use xlink:href="#DejaVuSans-72" x="3530.496094"/>
                    <use xlink:href="#DejaVuSans-20" x="3571.609375"/>
                    <use xlink:href="#DejaVuSans-6f" x="3603.396484"/>
                    <use xlink:href="#DejaVuSans-66" x="3664.578125"/>
                    <use xlink:href="#DejaVuSans-20" x="3699.783203"/>
                    <use xlink:href="#DejaVuSans-54" x="3731.570312"/>
                    <use xlink:href="#DejaVuSans-69" x="3789.529297"/>
                    <use xlink:href="#DejaVuSans-63" x="3817.3125"/>
                    <use xlink:href="#DejaVuSans-6b" x="3872.292969"/>
                    <use xlink:href="#DejaVuSans-65" x="3926.578125"/>
                    <use xlink:href="#DejaVuSans-74" x="3988.101562"/>
                    <use xlink:href="#DejaVuSans-73" x="4027.310547"/>
                    <use xlink:href="#DejaVuSans-29" x="4079.410156"/>
                </g>
            </g>
        </g>
    </g>
    <defs>
        <clipPath id="p1f81da8b3b">
            <rect x="144" y="138.24" width="892.8" height="887.04"/>
        </clipPath>
    </defs>
</svg>
