<svg width="606" height="71" viewBox="0 0 606 71" fill="none" xmlns="http://www.w3.org/2000/svg">
<path d="M54.25 19.1667C54.25 23.0327 43.8406 26.1667 31 26.1667C18.1594 26.1667 7.75 23.0327 7.75 19.1667M54.25 19.1667C54.25 15.3007 43.8406 12.1667 31 12.1667C18.1594 12.1667 7.75 15.3007 7.75 19.1667M54.25 19.1667V51.8333C54.25 55.7067 43.9167 58.8333 31 58.8333C18.0833 58.8333 7.75 55.7067 7.75 51.8333V19.1667M54.25 35.5C54.25 39.3733 43.9167 42.5 31 42.5C18.0833 42.5 7.75 39.3733 7.75 35.5" stroke="white" stroke-width="4" stroke-linecap="round" stroke-linejoin="round"/>
<path d="M88.144 47.48C85.136 47.48 82.736 46.792 80.944 45.416C79.152 44.008 78.128 42.024 77.872 39.464H81.568C81.792 41.032 82.48 42.232 83.632 43.064C84.784 43.896 86.32 44.312 88.24 44.312C89.936 44.312 91.264 43.992 92.224 43.352C93.184 42.712 93.664 41.8 93.664 40.616C93.664 39.784 93.392 39.064 92.848 38.456C92.304 37.816 91.216 37.288 89.584 36.872L85.648 35.864C83.408 35.288 81.728 34.408 80.608 33.224C79.488 32.008 78.928 30.568 78.928 28.904C78.928 26.792 79.712 25.128 81.28 23.912C82.848 22.664 84.976 22.04 87.664 22.04C90.32 22.04 92.48 22.68 94.144 23.96C95.808 25.24 96.752 27.016 96.976 29.288H93.28C93.056 27.976 92.448 26.968 91.456 26.264C90.464 25.56 89.152 25.208 87.52 25.208C85.952 25.208 84.736 25.512 83.872 26.12C83.008 26.696 82.576 27.528 82.576 28.616C82.576 29.448 82.88 30.168 83.488 30.776C84.128 31.384 85.184 31.896 86.656 32.312L90.496 33.368C92.768 33.976 94.48 34.904 95.632 36.152C96.784 37.4 97.36 38.904 97.36 40.664C97.36 42.808 96.544 44.488 94.912 45.704C93.28 46.888 91.024 47.48 88.144 47.48ZM120.986 56.84V41.288L121.706 41.432C121.098 43.288 119.978 44.76 118.346 45.848C116.746 46.936 114.826 47.48 112.586 47.48C110.378 47.48 108.442 46.968 106.778 45.944C105.146 44.888 103.866 43.416 102.938 41.528C102.042 39.608 101.594 37.384 101.594 34.856C101.594 32.296 102.058 30.056 102.986 28.136C103.914 26.216 105.21 24.728 106.874 23.672C108.538 22.616 110.49 22.088 112.73 22.088C115.034 22.088 116.97 22.648 118.538 23.768C120.106 24.888 121.178 26.472 121.754 28.52L121.226 28.616V22.52H124.826V56.84H120.986ZM113.306 44.12C115.77 44.12 117.69 43.288 119.066 41.624C120.474 39.928 121.178 37.624 121.178 34.712C121.178 31.864 120.474 29.608 119.066 27.944C117.658 26.28 115.738 25.448 113.306 25.448C110.874 25.448 108.97 26.28 107.594 27.944C106.218 29.608 105.53 31.912 105.53 34.856C105.53 37.736 106.218 40.008 107.594 41.672C108.97 43.304 110.874 44.12 113.306 44.12ZM132.528 47V12.44H136.368V47H132.528ZM159.083 47C158.955 46.456 158.859 45.832 158.795 45.128C158.763 44.424 158.747 43.528 158.747 42.44H158.507V30.728C158.507 28.872 158.075 27.512 157.211 26.648C156.379 25.752 155.019 25.304 153.131 25.304C151.275 25.304 149.787 25.688 148.667 26.456C147.579 27.192 146.971 28.248 146.843 29.624H143.147C143.307 27.256 144.299 25.4 146.123 24.056C147.947 22.712 150.331 22.04 153.275 22.04C156.315 22.04 158.571 22.76 160.043 24.2C161.515 25.64 162.251 27.8 162.251 30.68V42.44C162.251 43.144 162.299 43.88 162.395 44.648C162.491 45.384 162.619 46.168 162.779 47H159.083ZM150.683 47.48C148.155 47.48 146.139 46.872 144.635 45.656C143.163 44.408 142.427 42.712 142.427 40.568C142.427 38.424 143.163 36.76 144.635 35.576C146.107 34.392 148.251 33.56 151.067 33.08L159.611 31.64V34.808L151.643 36.056C149.851 36.344 148.491 36.824 147.563 37.496C146.635 38.168 146.171 39.144 146.171 40.424C146.171 41.672 146.587 42.616 147.419 43.256C148.283 43.896 149.547 44.216 151.211 44.216C153.355 44.216 155.099 43.736 156.443 42.776C157.819 41.784 158.507 40.504 158.507 38.936L159.131 42.344C158.619 43.976 157.611 45.24 156.107 46.136C154.635 47.032 152.827 47.48 150.683 47.48ZM169.653 47V12.44H173.493V47H169.653ZM190.88 47.48C188.64 47.48 186.64 46.936 184.88 45.848C183.152 44.728 181.776 43.208 180.752 41.288C179.76 39.336 179.264 37.128 179.264 34.664C179.264 32.2 179.76 30.024 180.752 28.136C181.776 26.248 183.152 24.76 184.88 23.672C186.64 22.584 188.624 22.04 190.832 22.04C192.656 22.04 194.288 22.392 195.728 23.096C197.2 23.8 198.4 24.808 199.328 26.12C200.288 27.4 200.896 28.904 201.152 30.632H197.6C197.28 29.064 196.544 27.784 195.392 26.792C194.24 25.8 192.752 25.304 190.928 25.304C189.36 25.304 188 25.688 186.848 26.456C185.696 27.224 184.8 28.312 184.16 29.72C183.52 31.128 183.2 32.776 183.2 34.664C183.2 36.552 183.52 38.216 184.16 39.656C184.8 41.096 185.696 42.216 186.848 43.016C188.032 43.816 189.408 44.216 190.976 44.216C192.736 44.216 194.208 43.736 195.392 42.776C196.576 41.784 197.328 40.504 197.648 38.936H201.2C200.912 40.632 200.272 42.136 199.28 43.448C198.32 44.728 197.12 45.72 195.68 46.424C194.24 47.128 192.64 47.48 190.88 47.48ZM206.778 47V12.44H210.618V47H206.778ZM224.298 47V30.968C224.298 29.112 223.834 27.72 222.906 26.792C221.978 25.864 220.602 25.4 218.778 25.4C217.178 25.4 215.754 25.752 214.506 26.456C213.29 27.16 212.33 28.136 211.626 29.384C210.954 30.632 210.618 32.088 210.618 33.752L209.993 27.944C210.826 26.12 212.09 24.68 213.786 23.624C215.514 22.568 217.466 22.04 219.642 22.04C222.202 22.04 224.25 22.776 225.786 24.248C227.354 25.688 228.138 27.592 228.138 29.96V47H224.298ZM245.544 47.48C243.208 47.48 241.144 46.936 239.352 45.848C237.56 44.728 236.152 43.208 235.128 41.288C234.104 39.368 233.592 37.16 233.592 34.664C233.592 32.168 234.088 29.976 235.08 28.088C236.104 26.168 237.528 24.68 239.352 23.624C241.176 22.568 243.272 22.04 245.64 22.04C247.912 22.04 249.88 22.536 251.544 23.528C253.24 24.52 254.536 25.912 255.432 27.704C256.36 29.496 256.824 31.608 256.824 34.04C256.824 34.36 256.808 34.664 256.776 34.952C256.776 35.24 256.744 35.56 256.68 35.912H236.472V32.696H254.328L253.08 34.472C253.08 31.528 252.424 29.272 251.112 27.704C249.832 26.104 248.008 25.304 245.64 25.304C243.208 25.304 241.24 26.152 239.736 27.848C238.264 29.512 237.528 31.768 237.528 34.616C237.528 37.528 238.264 39.864 239.736 41.624C241.24 43.352 243.24 44.216 245.736 44.216C247.304 44.216 248.68 43.88 249.864 43.208C251.048 42.504 251.912 41.512 252.456 40.232H256.104C255.304 42.472 253.96 44.248 252.072 45.56C250.216 46.84 248.04 47.48 245.544 47.48ZM262.606 47V22.52H266.206V28.28H266.446V47H262.606ZM279.118 47V30.776C279.118 28.92 278.702 27.56 277.87 26.696C277.038 25.832 275.838 25.4 274.27 25.4C272.798 25.4 271.47 25.752 270.286 26.456C269.102 27.16 268.158 28.136 267.454 29.384C266.782 30.632 266.446 32.088 266.446 33.752L265.822 27.944C266.654 26.12 267.902 24.68 269.566 23.624C271.23 22.568 273.038 22.04 274.99 22.04C277.358 22.04 279.278 22.744 280.75 24.152C282.222 25.528 282.958 27.4 282.958 29.768V47H279.118ZM295.63 47V30.776C295.63 28.92 295.214 27.56 294.382 26.696C293.55 25.832 292.35 25.4 290.782 25.4C289.31 25.4 287.982 25.752 286.798 26.456C285.614 27.16 284.67 28.136 283.966 29.384C283.294 30.632 282.958 32.088 282.958 33.752L281.998 27.944C282.83 26.12 284.11 24.68 285.838 23.624C287.566 22.568 289.422 22.04 291.406 22.04C293.774 22.04 295.71 22.744 297.214 24.152C298.718 25.528 299.47 27.4 299.47 29.768V47H295.63ZM307.936 56.84L313.408 44.12L314.272 42.776L322.288 22.52H326.224L312.016 56.84H307.936ZM313.84 47.24L302.848 22.52H307.072L316.528 44.648L313.84 47.24ZM327.903 35.768V32.12H344.511V35.768H327.903ZM358.741 47.432C356.021 47.432 354.037 46.824 352.789 45.608C351.573 44.36 350.965 42.568 350.965 40.232V16.808L354.805 15.368V40.184C354.805 41.56 355.157 42.568 355.861 43.208C356.565 43.848 357.717 44.168 359.317 44.168C359.957 44.168 360.501 44.136 360.949 44.072C361.429 43.976 361.813 43.864 362.101 43.736V47C361.781 47.128 361.317 47.224 360.709 47.288C360.133 47.384 359.477 47.432 358.741 47.432ZM345.925 25.784V22.52H362.101V25.784H345.925ZM376.56 47.48C374.224 47.48 372.16 46.936 370.368 45.848C368.576 44.728 367.168 43.208 366.144 41.288C365.12 39.368 364.608 37.16 364.608 34.664C364.608 32.168 365.104 29.976 366.096 28.088C367.12 26.168 368.544 24.68 370.368 23.624C372.192 22.568 374.288 22.04 376.656 22.04C378.928 22.04 380.896 22.536 382.56 23.528C384.256 24.52 385.552 25.912 386.448 27.704C387.376 29.496 387.84 31.608 387.84 34.04C387.84 34.36 387.824 34.664 387.792 34.952C387.792 35.24 387.76 35.56 387.696 35.912H367.488V32.696H385.344L384.096 34.472C384.096 31.528 383.44 29.272 382.128 27.704C380.848 26.104 379.024 25.304 376.656 25.304C374.224 25.304 372.256 26.152 370.752 27.848C369.28 29.512 368.544 31.768 368.544 34.616C368.544 37.528 369.28 39.864 370.752 41.624C372.256 43.352 374.256 44.216 376.752 44.216C378.32 44.216 379.696 43.88 380.88 43.208C382.064 42.504 382.928 41.512 383.472 40.232H387.12C386.32 42.472 384.976 44.248 383.088 45.56C381.232 46.84 379.056 47.48 376.56 47.48ZM393.621 47V22.52H397.221V28.28H397.461V47H393.621ZM411.141 47V30.968C411.141 29.112 410.677 27.72 409.749 26.792C408.821 25.864 407.445 25.4 405.621 25.4C404.021 25.4 402.597 25.752 401.349 26.456C400.133 27.16 399.173 28.136 398.469 29.384C397.797 30.632 397.461 32.088 397.461 33.752L396.837 27.944C397.669 26.12 398.933 24.68 400.629 23.624C402.357 22.568 404.309 22.04 406.485 22.04C409.045 22.04 411.093 22.776 412.629 24.248C414.197 25.688 414.981 27.592 414.981 29.96V47H411.141ZM437.239 47C437.111 46.456 437.015 45.832 436.951 45.128C436.919 44.424 436.903 43.528 436.903 42.44H436.663V30.728C436.663 28.872 436.231 27.512 435.367 26.648C434.535 25.752 433.175 25.304 431.287 25.304C429.431 25.304 427.943 25.688 426.823 26.456C425.735 27.192 425.127 28.248 424.999 29.624H421.303C421.463 27.256 422.455 25.4 424.279 24.056C426.103 22.712 428.487 22.04 431.431 22.04C434.471 22.04 436.727 22.76 438.199 24.2C439.671 25.64 440.407 27.8 440.407 30.68V42.44C440.407 43.144 440.455 43.88 440.551 44.648C440.647 45.384 440.775 46.168 440.935 47H437.239ZM428.839 47.48C426.311 47.48 424.295 46.872 422.791 45.656C421.319 44.408 420.583 42.712 420.583 40.568C420.583 38.424 421.319 36.76 422.791 35.576C424.263 34.392 426.407 33.56 429.223 33.08L437.767 31.64V34.808L429.799 36.056C428.007 36.344 426.647 36.824 425.719 37.496C424.791 38.168 424.327 39.144 424.327 40.424C424.327 41.672 424.743 42.616 425.575 43.256C426.439 43.896 427.703 44.216 429.367 44.216C431.511 44.216 433.255 43.736 434.599 42.776C435.975 41.784 436.663 40.504 436.663 38.936L437.287 42.344C436.775 43.976 435.767 45.24 434.263 46.136C432.791 47.032 430.983 47.48 428.839 47.48ZM447.809 47V22.52H451.409V28.28H451.649V47H447.809ZM465.329 47V30.968C465.329 29.112 464.865 27.72 463.937 26.792C463.009 25.864 461.633 25.4 459.809 25.4C458.209 25.4 456.785 25.752 455.537 26.456C454.321 27.16 453.361 28.136 452.657 29.384C451.985 30.632 451.649 32.088 451.649 33.752L451.025 27.944C451.857 26.12 453.121 24.68 454.817 23.624C456.545 22.568 458.497 22.04 460.673 22.04C463.233 22.04 465.281 22.776 466.817 24.248C468.385 25.688 469.169 27.592 469.169 29.96V47H465.329ZM485.679 47.432C482.959 47.432 480.975 46.824 479.727 45.608C478.511 44.36 477.903 42.568 477.903 40.232V16.808L481.743 15.368V40.184C481.743 41.56 482.095 42.568 482.799 43.208C483.503 43.848 484.655 44.168 486.255 44.168C486.895 44.168 487.439 44.136 487.887 44.072C488.367 43.976 488.751 43.864 489.039 43.736V47C488.719 47.128 488.255 47.224 487.647 47.288C487.071 47.384 486.415 47.432 485.679 47.432ZM472.863 25.784V22.52H489.039V25.784H472.863ZM502.191 47.48C499.183 47.48 496.783 46.792 494.991 45.416C493.199 44.008 492.175 42.024 491.919 39.464H495.615C495.839 41.032 496.527 42.232 497.679 43.064C498.831 43.896 500.367 44.312 502.287 44.312C503.983 44.312 505.311 43.992 506.271 43.352C507.231 42.712 507.711 41.8 507.711 40.616C507.711 39.784 507.439 39.064 506.895 38.456C506.351 37.816 505.263 37.288 503.631 36.872L499.695 35.864C497.455 35.288 495.775 34.408 494.655 33.224C493.535 32.008 492.975 30.568 492.975 28.904C492.975 26.792 493.759 25.128 495.327 23.912C496.895 22.664 499.023 22.04 501.711 22.04C504.367 22.04 506.527 22.68 508.191 23.96C509.855 25.24 510.799 27.016 511.023 29.288H507.327C507.103 27.976 506.495 26.968 505.503 26.264C504.511 25.56 503.199 25.208 501.567 25.208C499.999 25.208 498.783 25.512 497.919 26.12C497.055 26.696 496.623 27.528 496.623 28.616C496.623 29.448 496.927 30.168 497.535 30.776C498.175 31.384 499.231 31.896 500.703 32.312L504.543 33.368C506.815 33.976 508.527 34.904 509.679 36.152C510.831 37.4 511.407 38.904 511.407 40.664C511.407 42.808 510.591 44.488 508.959 45.704C507.327 46.888 505.071 47.48 502.191 47.48Z" fill="white"/>
</svg>
