<svg xmlns:dc="http://purl.org/dc/elements/1.1/" xmlns:cc="http://creativecommons.org/ns#" xmlns:rdf="http://www.w3.org/1999/02/22-rdf-syntax-ns#" xmlns:svg="http://www.w3.org/2000/svg" xmlns="http://www.w3.org/2000/svg" id="svg21" xml:space="preserve" y="0px" x="0px" version="1.1" viewBox="241.58 354.59 540.83 58.83"><metadata id="metadata27"><rdf:RDF><cc:Work rdf:about=""><dc:format>image/svg+xml</dc:format><dc:type rdf:resource="http://purl.org/dc/dcmitype/StillImage"/></cc:Work></rdf:RDF></metadata><defs id="defs25"/><g style="stroke-width:0;stroke-miterlimit:2" transform="translate(-0.002375,-0.002831)" stroke-miterlimit="2" id="logo-group"><path class="c1" d="m 281.39,386 c -1.5187,2.478 -4.7956,3.2769 -7.2735,1.678 -2.5582,-1.5176 -3.2769,-4.7956 -1.7582,-7.2725 0.95933,-1.5989 1.5989,-3.4373 1.5989,-5.1153 0,-2.078 -0.48021,-8.6328 -6.8746,-8.6328 h -14.866 v 40.043 c 0,2.878 -2.3978,5.2758 -5.3549,5.2758 -2.878,0 -5.2758,-2.3978 -5.2758,-5.2758 v -45.398 c 0,-2.8769 2.3978,-5.2747 5.2758,-5.2747 h 20.221 c 11.99,0 17.424,9.99 17.424,19.262 0,3.5966 -1.1187,7.4329 -3.1165,10.71 z" style="font-variant-ligatures:normal;fill:#f9f9f9" id="path12"/><path class="c3" d="m 262.77,394.39 c -2.878,0 -5.2758,-2.3978 -5.2758,-5.3549 0,-2.8769 2.3978,-5.2747 5.2758,-5.2747 2.9571,0 5.2747,2.3978 5.2747,5.2747 0,2.9571 -2.3176,5.3549 -5.2747,5.3549 z" style="font-variant-ligatures:normal;fill:#cc9c4a" id="path14"/><path class="c1" d="m 316.6,411.98 h -11.269 c -2.878,0 -5.2758,-2.3978 -5.2758,-5.2758 v -45.398 c 0,-2.8769 2.3978,-5.2747 5.2758,-5.2747 2.9571,0 5.3549,2.3978 5.3549,5.2747 v 40.043 h 5.9142 c 2.9571,0 5.2758,2.3978 5.2758,5.3549 -10e-6,2.878 -2.3187,5.2758 -5.2758,5.2758 z" style="font-variant-ligatures:normal;fill:#f9f9f9" id="path17"/><path class="c3" d="m 327.23,406.7 c 0,-2.9571 2.3176,-5.3549 5.2747,-5.3549 2.9571,0 5.2758,2.3978 5.2758,5.3549 0,2.878 -2.3186,5.2758 -5.2758,5.2758 -2.9571,0 -5.2747,-2.3978 -5.2747,-5.2758 z" style="font-variant-ligatures:normal;fill:#cc9c4a" id="path19"/><path class="c1" d="m 395.46,388.4 c 0,12.069 -7.5933,25.017 -24.378,25.017 -14.547,0 -24.378,-10.071 -24.378,-25.017 v -27.095 c 0,-2.8769 2.3978,-5.2747 5.2758,-5.2747 2.9571,0 5.3549,2.3978 5.3549,5.2747 V 388.4 c 0,4.3956 1.278,14.387 13.747,14.387 10.15,0 13.747,-7.4329 13.747,-14.387 v -11.19 c 0,-2.8769 2.3978,-5.2747 5.356,-5.2747 2.8769,0 5.2747,2.3978 5.2747,5.2747 v 11.19 z" style="font-variant-ligatures:normal;fill:#f9f9f9" id="path22"/><path class="c3" d="m 384.83,361.3 c 0,-2.8769 2.3978,-5.2747 5.356,-5.2747 2.8769,0 5.2747,2.3978 5.2747,5.2747 0,2.9571 -2.3978,5.3549 -5.2747,5.3549 -2.9582,0 -5.356,-2.3978 -5.356,-5.3549 z" style="font-variant-ligatures:normal;fill:#cc9c4a" id="path24"/><path class="c1" d="m 441.15,354.59 c 5.3549,0 12.868,1.0395 18.943,5.9955 2.2374,1.8374 2.3978,5.0351 0.71868,7.4329 -1.5978,2.2374 -4.7956,1.9176 -7.3527,0.55934 -3.3571,-1.678 -7.2735,-3.3571 -12.309,-3.3571 -10.391,0 -18.783,8.3922 -18.783,18.783 0,10.39 8.3922,18.782 18.783,18.782 4.156,0 9.0318,-1.278 12.548,-3.2769 v -11.03 c 0,-2.878 2.3176,-5.2758 5.2747,-5.2758 2.9582,0 5.2758,2.3978 5.2758,5.2758 v 12.548 c 0,1.4384 0,2.5582 -0.55934,3.7571 -0.48021,0.95824 -1.2791,1.678 -2.3186,2.3978 -5.2747,3.756 -13.267,6.234 -20.221,6.234 -16.225,0 -29.414,-13.188 -29.414,-29.413 0,-16.305 13.189,-29.414 29.414,-29.414 z" style="font-variant-ligatures:normal;fill:#f9f9f9" id="path27"/><path class="c3" d="m 443.15,383.2 c 2.8769,0 5.2747,2.3978 5.2747,5.2758 0,2.9571 -2.3978,5.3549 -5.2747,5.3549 -2.9571,0 -5.3549,-2.3978 -5.3549,-5.3549 0,-2.878 2.3978,-5.2758 5.3549,-5.2758 z" style="font-variant-ligatures:normal;fill:#cc9c4a" id="path29"/><path class="c1" d="m 516.68,381.52 c 2.3978,-1.9186 4.8752,-6.634 4.8752,-11.59 0,-7.5922 -5.9142,-13.906 -17.024,-13.906 h -16.625 c -2.8774,0 -5.2752,2.3978 -5.2752,5.2747 v 45.398 c 0,2.9571 2.3978,5.2758 5.2752,5.2758 2.9571,0 5.3554,-2.3186 5.3554,-5.2758 v -18.703 h 11.589 c 5.0351,0 9.4312,2.6384 9.4312,6.7142 0,2.478 -0.87911,3.9966 -1.1989,5.4351 -0.63955,2.478 0,4.4758 2.3978,5.7549 2.5577,1.3582 5.7549,0.55934 7.1933,-1.9978 1.5187,-2.6384 2.2379,-5.5955 2.2379,-9.2724 0,-5.7538 -3.6763,-10.949 -8.2323,-13.108 z m -12.948,-2.9571 h -10.47 v -13.188 h 10.47 c 5.5148,0 7.9928,3.1967 7.9928,6.634 0,3.9956 -3.4368,6.5538 -7.9928,6.5538 z" style="font-variant-ligatures:normal;fill:#f9f9f9" id="path32"/><path class="c3" d="m 503.81,411.98 c -2.9571,0 -5.2752,-2.3978 -5.2752,-5.2758 0,-2.9571 2.3181,-5.3549 5.2752,-5.3549 2.9576,0 5.2752,2.3978 5.2752,5.3549 0,2.878 -2.3176,5.2758 -5.2752,5.2758 z" style="font-variant-ligatures:normal;fill:#cc9c4a" id="path34"/><path class="c1" d="m 567.92,413.42 c -16.225,0 -29.414,-13.188 -29.414,-29.493 0,-9.112 4.1571,-17.424 11.35,-23.099 2.2374,-1.7582 5.5944,-1.3593 7.4329,0.95933 1.7582,2.2373 1.3582,5.5944 -0.95932,7.4329 -4.556,3.5966 -7.1933,8.8713 -7.1933,14.706 0,10.39 8.3922,18.862 18.783,18.862 10.39,0 18.862,-8.4724 18.862,-18.862 0,-5.8351 -2.6373,-11.11 -7.2735,-14.706 -2.3176,-1.8384 -2.7176,-5.1955 -0.87911,-7.4329 1.7582,-2.3186 5.1153,-2.7176 7.4329,-0.95933 7.1933,5.6746 11.35,13.987 11.35,23.099 -3e-5,16.305 -13.268,29.493 -29.493,29.493 z" style="font-variant-ligatures:normal;fill:#f9f9f9" id="path37"/><path class="c3" d="m 567.92,354.59 c 2.9571,0 5.3549,2.3978 5.3549,5.356 0,2.8769 -2.3978,5.2747 -5.3549,5.2747 -2.878,0 -5.2758,-2.3978 -5.2758,-5.2747 0,-2.9582 2.3978,-5.356 5.2758,-5.356 z" style="font-variant-ligatures:normal;fill:#cc9c4a" id="path39"/><path class="c1" d="m 650.42,389.12 -14.227,-30.052 c -0.87911,-1.8384 -2.7978,-3.0373 -4.7955,-3.0373 -2.078,0 -3.9164,1.1989 -4.7956,3.0373 l -21.58,45.318 c -1.1989,2.6373 -0.0797,5.8351 2.5577,7.1131 2.6373,1.1989 5.7549,0.0802 7.0334,-2.5571 l 5.0356,-10.55 h 26.855 c 1.8384,0 3.4368,-0.95933 4.3961,-2.3978 1.8384,-2.7175 0.39942,-5.0351 -0.47969,-6.8735 z m -26.456,0.15934 7.4334,-15.666 7.5131,15.666 z" style="font-variant-ligatures:normal;fill:#f9f9f9" id="path42"/><path class="c3" d="m 658.25,406.7 c 0,2.878 -2.3978,5.2758 -5.3549,5.2758 -2.8774,0 -5.2752,-2.3978 -5.2752,-5.2758 0,-2.9571 2.3978,-5.3549 5.2752,-5.3549 2.9571,0 5.3549,2.3978 5.3549,5.3549 z" style="font-variant-ligatures:normal;fill:#cc9c4a" id="path44"/><path class="c1" d="m 714.65,373.85 c 0,-10.869 -7.434,-17.823 -18.864,-17.823 h -17.183 c -2.878,0 -5.2758,2.3978 -5.2758,5.2747 v 45.398 c 0,2.878 2.3978,5.2758 5.2758,5.2758 2.9571,0 5.3549,-2.3978 5.3549,-5.2758 v -14.387 h 11.589 l 2.3978,3.8362 c 1.5187,2.478 4.7956,3.1978 7.2735,1.5989 4.8758,-3.1175 0.95933,-8.2329 0.95933,-8.2329 5.5153,-3.1164 8.4724,-8.7911 8.4724,-15.666 z m -19.103,9.2724 h -11.589 v -16.786 h 11.828 c 5.5153,0 8.2329,3.278 8.2329,8.1526 0,4.4758 -2.1582,8.6328 -8.4724,8.6328 z" style="font-variant-ligatures:normal;fill:#f9f9f9" id="path47"/><path class="c3" d="m 711.05,411.9 c -2.878,0 -5.2758,-2.3978 -5.2758,-5.2747 0,-2.9582 2.3978,-5.356 5.2758,-5.356 2.9571,0 5.2747,2.3978 5.2747,5.356 0,2.8769 -2.3176,5.2747 -5.2747,5.2747 z" style="font-variant-ligatures:normal;fill:#cc9c4a" id="path49"/><path class="c1" d="m 773.22,405.58 c -2.2374,1.8384 -5.5944,1.5989 -7.5131,-0.63955 -1.5978,-1.9186 -1.678,-4.9549 0.55934,-7.1933 0.56041,-0.63955 1.2791,-1.4384 1.8384,-2.078 2.3978,-2.9571 3.7571,-7.034 3.7571,-11.669 0,-11.59 -6.1549,-17.744 -18.144,-17.744 h -9.2713 v 40.442 c 0,2.878 -2.3978,5.2758 -5.3549,5.2758 -2.878,0 -5.2758,-2.3978 -5.2758,-5.2758 v -45.398 c 0,-2.8769 2.3978,-5.2747 5.2758,-5.2747 h 0.0802 0.0791 14.467 c 17.744,0 28.694,10.63 28.694,27.974 -2e-5,8.3922 -3.2769,16.545 -9.1922,21.58 z" style="font-variant-ligatures:normal;fill:#f9f9f9" id="path52"/><path class="c3" d="m 755,411.98 c -2.8769,0 -5.2758,-2.3978 -5.2758,-5.2758 0,-2.9571 2.3988,-5.3549 5.2758,-5.3549 2.9571,0 5.3549,2.3978 5.3549,5.3549 0,2.878 -2.3978,5.2758 -5.3549,5.2758 z" style="font-variant-ligatures:normal;fill:#cc9c4a" id="path54"/></g></svg>