<svg width="3641" height="2247" xmlns="http://www.w3.org/2000/svg" xmlns:xlink="http://www.w3.org/1999/xlink" xml:space="preserve" overflow="hidden"><g transform="translate(-234 -99)"><path d="M2934.88 716.131 3315.71 427.301 3416.17 559.761 3035.34 848.591Z" stroke="#FF0000" stroke-width="4.58333" stroke-miterlimit="8" fill="#FF9797" fill-rule="evenodd"/><path d="M780 1136C964.943 881.597 1149.89 627.194 1439.99 570.391 1730.1 513.589 2223.28 822.377 2520.64 795.184 2818 767.992 2944.92 667.378 3148 487" stroke="#2F5597" stroke-width="10.3125" stroke-miterlimit="8" stroke-dasharray="41.25 30.9375" fill="none" fill-rule="evenodd"/><path d="M1020 1290C1179.56 1107.93 1274.45 927.062 1538.57 901.657 1802.69 876.251 2307.36 1164.79 2604.73 1137.57 2902.09 1110.35 3126.92 951.561 3330 771" stroke="#2F5597" stroke-width="10.3125" stroke-miterlimit="8" fill="none" fill-rule="evenodd"/><path d="M1971 841 3747.67 1440.09" stroke="#FF0000" stroke-width="2.29167" stroke-miterlimit="8" stroke-dasharray="9.16667 6.875" fill="none" fill-rule="evenodd"/><path d="M2.29167-1.96607e-06 2.29201 397.743-2.29133 397.743-2.29167 1.96607e-06ZM13.7503 393.159 0.000360892 420.659-13.7497 393.159Z" fill="#FF0000" transform="matrix(0.947579 0.319523 0.319523 -0.947579 1970.84 840.591)"/><path d="M1971.57 838.419 2324.41 957.397 2322.94 961.74 1970.1 842.762ZM2323.72 945.074 2345.39 966.891 2314.94 971.133Z" fill="#FF0000"/><path d="M0 0 240.969 714.617" stroke="#FF0000" stroke-width="2.29167" stroke-miterlimit="8" stroke-dasharray="9.16667 6.875" fill="none" fill-rule="evenodd" transform="matrix(1 0 0 -1 1972 837.617)"/><text fill="#FF0000" font-family="Times New Roman,Times New Roman_MSFontService,sans-serif" font-style="italic" font-weight="400" font-size="83" transform="matrix(0.947579 0.319522 -0.319522 0.947579 2298.45 1047)">x</text><text fill="#FF0000" font-family="Times New Roman,Times New Roman_MSFontService,sans-serif" font-style="italic" font-weight="400" font-size="83" transform="matrix(0.947579 0.319522 -0.319522 0.947579 2019.62 475)">y</text><path d="M0 0 0.000360892 1130.22" stroke="#FF0000" stroke-width="2.29167" stroke-miterlimit="8" stroke-dasharray="18.3333 6.875" fill="none" fill-rule="evenodd" transform="matrix(0.947579 0.319523 0.319523 -0.947579 3005.79 1171.97)"/><path d="M0 0 1287.36 0.000360892" stroke="#FF0000" stroke-width="2.29167" stroke-miterlimit="8" stroke-dasharray="18.3333 6.875" fill="none" fill-rule="evenodd" transform="matrix(-0.947579 -0.319523 -0.319523 0.947579 3375.17 699.375)"/><text fill="#2F5597" font-family="Times New Roman,Times New Roman_MSFontService,sans-serif" font-style="italic" font-weight="400" font-size="83" transform="matrix(1 0 0 1 1231.63 1723)">heading</text><path d="M731.088 1734.36 3275.17 1338.33" stroke="#2F5597" stroke-width="2.29167" stroke-miterlimit="8" stroke-dasharray="9.16667 6.875" fill="none" fill-rule="evenodd"/><path d="M2.29167-1.96607e-06 2.29201 397.743-2.29133 397.743-2.29167 1.96607e-06ZM13.7503 393.159 0.000360892 420.659-13.7497 393.159Z" fill="#2F5597" transform="matrix(0.9881 -0.153813 -0.153813 -0.9881 731.088 1734.36)"/><path d="M730.736 1732.1 1098.66 1674.82 1099.37 1679.35 731.441 1736.62ZM1092.37 1664.2 1121.66 1673.56 1096.6 1691.38Z" fill="#2F5597"/><path d="M0 0 0.000360892 1351.43" stroke="#2F5597" stroke-width="2.29167" stroke-miterlimit="8" stroke-dasharray="9.16667 6.875" fill="none" fill-rule="evenodd" transform="matrix(0.9881 -0.153813 -0.153813 -0.9881 730.623 1731.37)"/><text fill="#2F5597" font-family="Times New Roman,Times New Roman_MSFontService,sans-serif" font-style="italic" font-weight="400" font-size="83" transform="matrix(0.9881 -0.153813 0.153813 0.9881 1117.06 1766)">x</text><text fill="#2F5597" font-family="Times New Roman,Times New Roman_MSFontService,sans-serif" font-style="italic" font-weight="400" font-size="83" transform="matrix(0.9881 -0.153813 0.153813 0.9881 605.541 1387)">y</text><path d="M0 0 0.000360892 1130.22" stroke="#2F5597" stroke-width="2.29167" stroke-miterlimit="8" stroke-dasharray="18.3333 6.875" fill="none" fill-rule="evenodd" transform="matrix(0.9881 -0.153813 -0.153813 -0.9881 1368.2 1641.21)"/><path d="M0 0 669.867 104.275" stroke="#2F5597" stroke-width="2.29167" stroke-miterlimit="8" stroke-dasharray="18.3333 6.875" fill="none" fill-rule="evenodd" transform="matrix(-1 0 0 1 1219.87 661)"/><path d="M0.664961-0.933145 436.08 309.345 434.75 311.211-0.664961 0.933145ZM439.662 296.42 454.078 323.577 423.703 318.816Z" fill="#FF0000" transform="matrix(1 0 0 -1 3184 633.577)"/><path d="M3344.19 557.691 3349.53 564.045 3355.22 572.899 3360.14 582.036 3364.33 591.485 3367.78 601.199 3370.48 611.133 3372.41 621.242 3373.57 631.481 3373.95 641.804 3373.53 652.166 3372.3 662.522 3370.26 672.826 3367.39 683.031 3363.74 692.964 3357.29 690.59 3360.9 680.784 3360.81 681.041 3363.61 671.096 3363.54 671.358 3365.53 661.318 3365.49 661.582 3366.68 651.491 3366.66 651.755 3367.07 641.658 3367.07 641.922 3366.71 631.861 3366.72 632.123 3365.59 622.145 3365.63 622.404 3363.75 612.552 3363.81 612.807 3361.18 603.125 3361.26 603.375 3357.9 593.908 3358 594.152 3353.91 584.944 3354.03 585.181 3349.23 576.276 3349.37 576.504 3343.87 567.947 3344.13 568.301 3338.93 562.116ZM3334.47 572.544 3326.14 542.945 3354.82 554.048Z" fill="#FF0000"/><text fill="#2F5597" font-family="Times New Roman,Times New Roman_MSFontService,sans-serif" font-style="italic" font-weight="400" font-size="83" transform="matrix(1 0 0 1 1005.81 2244)">x</text><text fill="#2F5597" font-family="Times New Roman,Times New Roman_MSFontService,sans-serif" font-style="italic" font-weight="400" font-size="55" transform="matrix(1 0 0 1 1042.48 2264)">ref</text><text fill="#2F5597" font-family="Times New Roman,Times New Roman_MSFontService,sans-serif" font-style="italic" font-weight="400" font-size="83" transform="matrix(1 0 0 1 329.93 1592)">y</text><text fill="#2F5597" font-family="Times New Roman,Times New Roman_MSFontService,sans-serif" font-style="italic" font-weight="400" font-size="55" transform="matrix(1 0 0 1 366.597 1612)">ref</text><path d="M355.5 2177.21 1019.06 2177.21 1019.06 2181.79 355.5 2181.79ZM1014.48 2165.75 1041.98 2179.5 1014.48 2193.25Z" fill="#2F5597"/><path d="M2.29167-1.48645e-06 2.29201 533.472-2.29132 533.472-2.29167 1.48645e-06ZM13.7503 528.889 0.000360892 556.389-13.7497 528.889Z" fill="#2F5597" transform="matrix(1 0 0 -1 355.5 2178.89)"/><text fill="#2F5597" font-family="Times New Roman,Times New Roman_MSFontService,sans-serif" font-style="italic" font-weight="400" font-size="83" transform="matrix(1 0 0 1 283.987 2253)">lat</text><text fill="#2F5597" font-family="Times New Roman,Times New Roman_MSFontService,sans-serif" font-style="italic" font-weight="400" font-size="83" transform="matrix(1 0 0 1 371.07 2253)">, </text><text fill="#2F5597" font-family="Times New Roman,Times New Roman_MSFontService,sans-serif" font-style="italic" font-weight="400" font-size="83" transform="matrix(1 0 0 1 412.32 2253)">lon</text><path d="M731 1750 731.001 2222.77" stroke="#2F5597" stroke-width="2.29167" stroke-miterlimit="8" stroke-dasharray="9.16667 6.875" fill="none" fill-rule="evenodd"/><path d="M286 1734 1477.33 1734" stroke="#2F5597" stroke-width="2.29167" stroke-miterlimit="8" stroke-dasharray="9.16667 6.875" fill="none" fill-rule="evenodd"/><text fill="#2F5597" font-family="Times New Roman,Times New Roman_MSFontService,sans-serif" font-style="italic" font-weight="400" font-size="83" transform="matrix(1 0 0 1 711.066 2277)">x</text><text fill="#2F5597" font-family="Times New Roman,Times New Roman_MSFontService,sans-serif" font-style="italic" font-weight="400" font-size="55" transform="matrix(1 0 0 1 747.733 2297)">offset</text><text fill="#2F5597" font-family="Times New Roman,Times New Roman_MSFontService,sans-serif" font-style="italic" font-weight="400" font-size="83" transform="matrix(1 0 0 1 384.425 1793)">y</text><text fill="#2F5597" font-family="Times New Roman,Times New Roman_MSFontService,sans-serif" font-style="italic" font-weight="400" font-size="55" transform="matrix(1 0 0 1 421.092 1813)">offset</text><path d="M1217.31 1675.78 1219.92 1684.07 1221.81 1694.69 1222.85 1705.33 1223.05 1716.05 1222.39 1726.78 1220.9 1737.34 1214.09 1736.37 1215.57 1725.95 1215.54 1726.22 1216.18 1715.77 1216.17 1716.04 1215.98 1705.6 1215.99 1705.87 1214.98 1695.49 1215.02 1695.76 1213.19 1685.49 1213.29 1685.92 1210.76 1677.84ZM1202.66 1685.79 1206.26 1655.25 1228.52 1676.46Z" fill="#2F5597"/><text fill="#FF0000" font-family="Times New Roman,Times New Roman_MSFontService,sans-serif" font-style="italic" font-weight="400" font-size="83" transform="matrix(1 0 0 1 2182.35 1607)">x</text><text fill="#FF0000" font-family="Times New Roman,Times New Roman_MSFontService,sans-serif" font-style="italic" font-weight="400" font-size="55" transform="matrix(1 0 0 1 2219.02 1627)">ref</text><text fill="#FF0000" font-family="Times New Roman,Times New Roman_MSFontService,sans-serif" font-style="italic" font-weight="400" font-size="83" transform="matrix(1 0 0 1 1787.78 1332)">y</text><text fill="#FF0000" font-family="Times New Roman,Times New Roman_MSFontService,sans-serif" font-style="italic" font-weight="400" font-size="55" transform="matrix(1 0 0 1 1824.45 1352)">ref</text><path d="M1766.5 1594.21 2136.12 1594.21 2136.12 1598.79 1766.5 1598.79ZM2131.53 1582.75 2159.03 1596.5 2131.53 1610.25Z" fill="#FF0000"/><path d="M2.29167-2.70331e-06 2.292 283.022-2.29133 283.022-2.29167 2.70331e-06ZM13.7503 278.438 0.000360892 305.938-13.7497 278.438Z" fill="#FF0000" transform="matrix(1 0 0 -1 1766.5 1596.44)"/><text fill="#FF0000" font-family="Times New Roman,Times New Roman_MSFontService,sans-serif" font-style="italic" font-weight="400" font-size="83" transform="matrix(1 0 0 1 1694.25 1670)">lat</text><text fill="#FF0000" font-family="Times New Roman,Times New Roman_MSFontService,sans-serif" font-style="italic" font-weight="400" font-size="83" transform="matrix(1 0 0 1 1781.33 1670)">, </text><text fill="#FF0000" font-family="Times New Roman,Times New Roman_MSFontService,sans-serif" font-style="italic" font-weight="400" font-size="83" transform="matrix(1 0 0 1 1822.58 1670)">lon</text><path d="M1972 841 1972 1643.38" stroke="#FF0000" stroke-width="2.29167" stroke-miterlimit="8" stroke-dasharray="9.16667 6.875" fill="none" fill-rule="evenodd"/><path d="M1697 841 2888.33 841.001" stroke="#FF0000" stroke-width="2.29167" stroke-miterlimit="8" stroke-dasharray="9.16667 6.875" fill="none" fill-rule="evenodd"/><text fill="#FF0000" font-family="Times New Roman,Times New Roman_MSFontService,sans-serif" font-style="italic" font-weight="400" font-size="83" transform="matrix(1 0 0 1 1976.94 1652)">x</text><text fill="#FF0000" font-family="Times New Roman,Times New Roman_MSFontService,sans-serif" font-style="italic" font-weight="400" font-size="55" transform="matrix(1 0 0 1 2013.61 1672)">offset</text><text fill="#FF0000" font-family="Times New Roman,Times New Roman_MSFontService,sans-serif" font-style="italic" font-weight="400" font-size="83" transform="matrix(1 0 0 1 1785.89 800)">y</text><text fill="#FF0000" font-family="Times New Roman,Times New Roman_MSFontService,sans-serif" font-style="italic" font-weight="400" font-size="55" transform="matrix(1 0 0 1 1822.56 820)">offset</text><path d="M1987.17 871.869 1980.92 876.101 1973.71 876.955 1966.85 876.416 1960.05 874.469 1953.78 871.203 1948.43 866.878 1944.11 861.683 1940.89 855.803 1938.84 849.419 1938.04 842.707 1938.58 835.853 1940.53 829.053 1943.8 822.779 1948.12 817.435 1953.32 813.112 1959.2 809.888 1965.58 807.84 1972.29 807.045 1979.15 807.584 1985.91 809.52 1990.82 811.936 1995.19 815.003 1999.01 818.658 2002.22 822.824 2004.76 827.424 2006.6 832.379 2007.67 837.612 2007.92 842.773 2001.05 843.101 2000.82 838.207 2000.88 838.733 1999.92 834.018 2000.06 834.521 1998.41 830.056 1998.62 830.527 1996.33 826.381 1996.61 826.813 1993.72 823.057 1994.07 823.443 1990.63 820.149 1991.03 820.481 1987.09 817.717 1987.55 817.988 1983.15 815.825 1983.72 816.045 1977.59 814.288 1978.26 814.411 1972.09 813.925 1972.77 813.912 1966.72 814.628 1967.37 814.487 1961.61 816.334 1962.21 816.075 1956.91 818.98 1957.46 818.608 1952.78 822.503 1953.25 822.023 1949.36 826.836 1949.74 826.26 1946.79 831.92 1947.05 831.279 1945.29 837.413 1945.41 836.736 1944.93 842.908 1944.91 842.235 1945.63 848.28 1945.49 847.635 1947.33 853.39 1947.07 852.787 1949.98 858.087 1949.61 857.54 1953.5 862.22 1953.02 861.747 1957.84 865.642 1957.26 865.265 1962.92 868.21 1962.28 867.955 1968.41 869.712 1967.74 869.59 1973.91 870.075 1973.23 870.088 1979.28 869.372 1977.76 869.939 1983.32 866.175ZM1972.63 861.885 2002.26 853.667 1991.06 882.3Z" fill="#FF0000"/><path d="M1766 810 1766 1639.94" stroke="#FF0000" stroke-width="2.29167" stroke-miterlimit="8" stroke-dasharray="9.16667 6.875" fill="none" fill-rule="evenodd"/><text fill="#FF0000" font-family="Times New Roman,Times New Roman_MSFontService,sans-serif" font-style="italic" font-weight="400" font-size="83" transform="matrix(1 0 0 1 2019.1 832)">heading</text><text fill="#2F5597" font-family="Times New Roman,Times New Roman_MSFontService,sans-serif" font-style="italic" font-weight="400" font-size="83" transform="matrix(1 0 0 1 2069.97 2083)">in </text><text fill="#2F5597" font-family="Times New Roman,Times New Roman_MSFontService,sans-serif" font-style="italic" font-weight="400" font-size="83" transform="matrix(1 0 0 1 2154.76 2083)">blue</text><text fill="#2F5597" font-family="Times New Roman,Times New Roman_MSFontService,sans-serif" font-style="italic" font-weight="400" font-size="83" transform="matrix(1 0 0 1 2296.85 2083)">: </text><text fill="#2F5597" font-family="Times New Roman,Times New Roman_MSFontService,sans-serif" font-style="italic" font-weight="400" font-size="83" transform="matrix(1 0 0 1 2344.97 2083)">coordinate</text><text fill="#2F5597" font-family="Times New Roman,Times New Roman_MSFontService,sans-serif" font-style="italic" font-weight="400" font-size="83" transform="matrix(1 0 0 1 2720.02 2083)">system of </text><text fill="#2F5597" font-family="Times New Roman,Times New Roman_MSFontService,sans-serif" font-style="italic" font-weight="400" font-size="83" transform="matrix(1 0 0 1 3045.44 2083)">map</text><text fill="#FF0000" font-family="Times New Roman,Times New Roman_MSFontService,sans-serif" font-style="italic" font-weight="400" font-size="83" transform="matrix(1 0 0 1 2069.97 2182)">in </text><text fill="#FF0000" font-family="Times New Roman,Times New Roman_MSFontService,sans-serif" font-style="italic" font-weight="400" font-size="83" transform="matrix(1 0 0 1 2154.76 2182)">red</text><text fill="#FF0000" font-family="Times New Roman,Times New Roman_MSFontService,sans-serif" font-style="italic" font-weight="400" font-size="83" transform="matrix(1 0 0 1 2261.69 2182)">: </text><text fill="#FF0000" font-family="Times New Roman,Times New Roman_MSFontService,sans-serif" font-style="italic" font-weight="400" font-size="83" transform="matrix(1 0 0 1 2309.82 2182)">coordinate</text><text fill="#FF0000" font-family="Times New Roman,Times New Roman_MSFontService,sans-serif" font-style="italic" font-weight="400" font-size="83" transform="matrix(1 0 0 1 2684.87 2182)">system of a Ground Truth message</text></g></svg>