<svg width="3406" height="1692" xmlns="http://www.w3.org/2000/svg" xmlns:xlink="http://www.w3.org/1999/xlink" xml:space="preserve" overflow="hidden"><defs><clipPath id="clip0"><rect x="623" y="615" width="3406" height="1692"/></clipPath></defs><g clip-path="url(#clip0)" transform="translate(-623 -615)"><rect x="640" y="624" width="3389" height="1683" fill="#156082"/><text fill="#FFFFFF" font-family="Aptos,Aptos_MSFontService,sans-serif" font-weight="400" font-size="83" transform="matrix(1 0 0 1 673.396 717)">MCAP File</text><rect x="699" y="791" width="3134" height="552" fill="#FFFFFF"/><text font-family="Aptos,Aptos_MSFontService,sans-serif" font-weight="400" font-size="83" transform="matrix(1 0 0 1 732.208 1093)">/ground_truth</text><rect x="699" y="1465" width="3134" height="773" fill="#FFFFFF"/><text font-family="Aptos,Aptos_MSFontService,sans-serif" font-weight="400" font-size="83" transform="matrix(1 0 0 1 732.207 1878)">/</text><text font-family="Aptos,Aptos_MSFontService,sans-serif" font-weight="400" font-size="83" transform="matrix(1 0 0 1 755.239 1878)">ground_truth_map</text><rect x="1527" y="854" width="739" height="426" fill="#156082"/><text fill="#FFFFFF" font-family="Aptos,Aptos_MSFontService,sans-serif" font-weight="400" font-size="83" transform="matrix(1 0 0 1 1587.36 946)">osi3.GroundTruth</text><text fill="#FFFFFF" font-family="Aptos,Aptos_MSFontService,sans-serif" font-style="italic" font-weight="400" font-size="46" transform="matrix(1 0 0 1 1560.47 1111)">timestamp = 1s</text><text fill="#FFFFFF" font-family="Aptos,Aptos_MSFontService,sans-serif" font-style="italic" font-weight="400" font-size="46" transform="matrix(1 0 0 1 1560.47 1166)">map_reference</text><text fill="#FFFFFF" font-family="Aptos,Aptos_MSFontService,sans-serif" font-style="italic" font-weight="400" font-size="46" transform="matrix(1 0 0 1 1869.85 1166)">= “map_1”</text><rect x="2285" y="854" width="738" height="426" fill="#156082"/><text fill="#FFFFFF" font-family="Aptos,Aptos_MSFontService,sans-serif" font-weight="400" font-size="83" transform="matrix(1 0 0 1 2344.56 946)">osi3.GroundTruth</text><text fill="#FFFFFF" font-family="Aptos,Aptos_MSFontService,sans-serif" font-style="italic" font-weight="400" font-size="46" transform="matrix(1 0 0 1 2317.68 1111)">timestamp = 2s</text><text fill="#FFFFFF" font-family="Aptos,Aptos_MSFontService,sans-serif" font-style="italic" font-weight="400" font-size="46" transform="matrix(1 0 0 1 2317.68 1166)">map_reference</text><text fill="#FFFFFF" font-family="Aptos,Aptos_MSFontService,sans-serif" font-style="italic" font-weight="400" font-size="46" transform="matrix(1 0 0 1 2627.05 1166)">= “map_1”</text><rect x="3042" y="854" width="738" height="426" fill="#156082"/><text fill="#FFFFFF" font-family="Aptos,Aptos_MSFontService,sans-serif" font-weight="400" font-size="83" transform="matrix(1 0 0 1 3101.76 946)">osi3.GroundTruth</text><text fill="#FFFFFF" font-family="Aptos,Aptos_MSFontService,sans-serif" font-style="italic" font-weight="400" font-size="46" transform="matrix(1 0 0 1 3074.88 1111)">timestamp = 3s</text><text fill="#FFFFFF" font-family="Aptos,Aptos_MSFontService,sans-serif" font-style="italic" font-weight="400" font-size="46" transform="matrix(1 0 0 1 3074.88 1166)">map_reference</text><text fill="#FFFFFF" font-family="Aptos,Aptos_MSFontService,sans-serif" font-style="italic" font-weight="400" font-size="46" transform="matrix(1 0 0 1 3384.25 1166)">= “map_1”</text><rect x="1527" y="1514" width="1234" height="675" fill="#156082"/><text fill="#FFFFFF" font-family="Aptos,Aptos_MSFontService,sans-serif" font-weight="400" font-size="83" transform="matrix(1 0 0 1 1688.07 1607)">osi3</text><text fill="#FFFFFF" font-family="Aptos,Aptos_MSFontService,sans-serif" font-weight="400" font-size="83" transform="matrix(1 0 0 1 1837.03 1607)">.</text><text fill="#FFFFFF" font-family="Aptos,Aptos_MSFontService,sans-serif" font-weight="400" font-size="83" transform="matrix(1 0 0 1 1860.52 1607)">MapAsamOpenDrive</text><text fill="#FFFFFF" font-family="Aptos,Aptos_MSFontService,sans-serif" font-style="italic" font-weight="400" font-size="46" transform="matrix(1 0 0 1 1560.47 1771)">map_reference</text><text fill="#FFFFFF" font-family="Aptos,Aptos_MSFontService,sans-serif" font-style="italic" font-weight="400" font-size="46" transform="matrix(1 0 0 1 1869.85 1771)">= “map_1”</text><rect x="1603" y="1848" width="1082" height="287" fill="#FFFFFF"/><text font-family="Aptos,Aptos_MSFontService,sans-serif" font-weight="400" font-size="83" transform="matrix(1 0 0 1 1738.36 2018)">ASAM OpenDRIVE XML</text><path d="M1823 847C1823 814.968 1893.22 789 1979.84 789L2495.16 789C2581.78 789 2652 763.033 2652 731 2652 763.033 2722.22 789 2808.84 789L3324.16 789C3410.78 789 3481 814.968 3481 847" stroke="#000000" stroke-width="27.5" stroke-miterlimit="8" fill="none" fill-rule="evenodd"/><text font-family="Aptos,Aptos_MSFontService,sans-serif" font-weight="700" font-size="83" transform="matrix(1 0 0 1 2537.29 720)">&gt;</text><text font-family="Aptos,Aptos_MSFontService,sans-serif" font-weight="700" font-size="83" transform="matrix(1 0 0 1 2581.41 720)">=</text><text font-family="Aptos,Aptos_MSFontService,sans-serif" font-weight="700" font-size="83" transform="matrix(1 0 0 1 2625.52 720)">10Hz</text></g></svg>