<?xml version="1.0" encoding="UTF-8" standalone="no"?>
<!-- Created with Inkscape (http://www.inkscape.org/) -->

<svg
   width="308.08112mm"
   height="234.729mm"
   viewBox="0 0 308.08112 234.729"
   version="1.1"
   id="svg1"
   xml:space="preserve"
   inkscape:version="1.4.2 (ebf0e940d0, 2025-05-08)"
   sodipodi:docname="ttest_tea.svg"
   xmlns:inkscape="http://www.inkscape.org/namespaces/inkscape"
   xmlns:sodipodi="http://sodipodi.sourceforge.net/DTD/sodipodi-0.dtd"
   xmlns="http://www.w3.org/2000/svg"
   xmlns:svg="http://www.w3.org/2000/svg"><sodipodi:namedview
     id="namedview1"
     pagecolor="#ffffff"
     bordercolor="#000000"
     borderopacity="0.25"
     inkscape:showpageshadow="2"
     inkscape:pageopacity="0.0"
     inkscape:pagecheckerboard="0"
     inkscape:deskcolor="#d1d1d1"
     inkscape:document-units="mm"
     inkscape:zoom="0.36976784"
     inkscape:cx="839.71607"
     inkscape:cy="444.87373"
     inkscape:window-width="1473"
     inkscape:window-height="795"
     inkscape:window-x="0"
     inkscape:window-y="0"
     inkscape:window-maximized="1"
     inkscape:current-layer="layer1" /><defs
     id="defs1" /><g
     inkscape:label="Layer 1"
     inkscape:groupmode="layer"
     id="layer1"
     transform="translate(52.626703,-41.490358)"><path
       style="fill:#000000"
       d="m 59.890774,275.64622 c -0.509323,-0.30317 -1.07487,-0.7422 -1.256771,-0.97562 -0.419941,-0.5389 -0.427231,-1.70845 -0.01323,-2.12245 0.489529,-0.48953 1.663907,-0.37633 2.196042,0.21167 0.263389,0.29104 0.579498,0.52917 0.702465,0.52917 0.449226,0 0.199799,-0.66107 -0.867555,-2.2993 -2.228659,-3.42068 -1.414649,-6.43195 1.738689,-6.43195 1.257645,0 3.056609,1.5642 3.056609,2.65772 0,1.56069 -1.43141,2.05679 -2.526175,0.87552 -1.001168,-1.08028 -0.769251,-0.20842 0.460137,1.72983 0.88571,1.39641 1.131648,2.05251 1.221653,3.25906 0.104487,1.40069 0.05412,1.56925 -0.691734,2.31511 -0.999058,0.99906 -2.596098,1.09886 -4.02013,0.25124 z m 174.511616,-0.12717 c -0.30335,-0.30335 -0.41578,-0.94724 -0.41578,-2.38125 v -1.96548 l -1.32291,-0.0397 c -0.72761,-0.0218 -1.46686,-0.0516 -1.64279,-0.0661 -0.17593,-0.0145 -0.53395,0.67672 -0.7956,1.53616 -0.26165,0.85944 -0.60854,1.72265 -0.77086,1.91823 -0.40176,0.48409 -1.68676,0.44888 -2.19581,-0.0602 -0.56891,-0.56891 -0.52346,-1.19413 0.21557,-2.96564 0.34725,-0.83236 1.05901,-2.89088 1.58171,-4.5745 1.03448,-3.33211 1.78451,-4.68987 2.88238,-5.21787 2.29108,-1.10185 4.51129,3.52511 4.87463,10.15881 0.15144,2.7648 0.12745,2.97163 -0.40665,3.50573 -0.67112,0.67111 -1.4273,0.7284 -2.00389,0.1518 z m -0.94494,-7.40457 c 0,-0.50365 -0.62538,-2.49841 -0.78328,-2.49841 -0.19221,0 -0.80422,1.78514 -0.80422,2.3458 0,0.16502 0.35719,0.30003 0.79375,0.30003 0.43656,0 0.79375,-0.0663 0.79375,-0.14742 z m 16.04297,7.00739 c -0.68703,-0.54042 -0.69714,-0.59656 -0.69714,-3.8721 0,-1.82805 -0.13964,-4.0816 -0.31032,-5.00788 -0.3071,-1.66673 -0.31936,-1.68415 -1.18452,-1.68415 -1.51393,0 -2.2104,-1.94808 -0.93464,-2.61423 0.81733,-0.42677 5.47363,-0.62546 7.03951,-0.30038 1.91427,0.3974 2.59204,1.49557 1.56,2.52761 -0.35937,0.35937 -0.73536,0.41166 -1.96219,0.27286 -0.92031,-0.10412 -1.58217,-0.0673 -1.68159,0.0936 -0.0902,0.1459 -0.0469,1.01388 0.0962,1.92885 0.14306,0.91497 0.33081,3.06309 0.41721,4.77361 0.15458,3.05997 0.14648,3.12064 -0.50318,3.77031 -0.80111,0.8011 -0.9515,0.81025 -1.83929,0.11192 z m -299.88639,-0.28319 c -1.739325,-1.11373 -1.97927,-2.06042 -2.117466,-8.35439 l -0.123267,-5.61408 0.894674,-0.89159 c 0.828163,-0.82532 1.055383,-0.90388 3.056428,-1.05675 1.188965,-0.0908 2.888958,-0.41013 3.777764,-0.70955 1.764399,-0.59438 2.480248,-0.45682 2.795755,0.53726 0.445557,1.40382 -1.95305,2.66252 -5.830861,3.05982 l -1.713786,0.17558 v 2.08692 2.08693 l 0.856591,-0.44297 c 0.471126,-0.24362 1.173739,-0.78246 1.561362,-1.19742 0.864117,-0.92503 1.127861,-0.93686 1.97613,-0.0886 1.162694,1.1627 0.182668,2.65924 -2.721864,4.15642 l -1.68057,0.86626 0.166106,1.19063 c 0.333276,2.38887 1.064708,2.36782 3.738453,-0.10759 0.881835,-0.81643 1.846783,-1.47991 2.152326,-1.47991 0.706175,0 1.459557,1.12096 1.233041,1.83465 -0.258047,0.81303 -2.420565,2.86047 -3.944363,3.73445 -1.61005,0.92346 -2.865471,0.98934 -4.076453,0.21392 z m 254.41468,0.10395 c -0.73057,-0.83197 -0.78019,-1.61953 -0.32552,-5.16655 0.32396,-2.52723 0.39856,-4.29591 0.26873,-6.37049 -0.15667,-2.50332 -0.12148,-2.93632 0.27411,-3.37344 0.24962,-0.27582 0.7146,-0.5015 1.03329,-0.5015 1.04318,0 1.38224,0.75189 1.58225,3.50869 l 0.18737,2.58264 1.30437,-0.70993 c 1.84743,-1.0055 3.67289,-3.01978 3.67289,-4.05282 0,-1.03445 0.96273,-1.57763 1.97707,-1.11546 2.02984,0.92485 0.31833,4.73745 -3.16445,7.04918 -0.80215,0.53244 -1.45846,1.02547 -1.45846,1.09562 0,0.0702 0.54975,0.3632 1.22167,0.65122 1.03899,0.44536 4.59917,3.61826 4.59917,4.09886 0,0.0811 -0.18165,0.49872 -0.40367,0.92806 -0.32627,0.63092 -0.57522,0.78061 -1.29828,0.78061 -0.75071,0 -1.07466,-0.21504 -2.01389,-1.33686 -0.61561,-0.73527 -1.68651,-1.6243 -2.37979,-1.97561 -0.69328,-0.35131 -1.50359,-0.94777 -1.80069,-1.32547 l -0.54018,-0.68673 -0.15922,1.00869 c -0.31674,2.00653 -0.32557,2.21416 -0.10005,2.35353 0.126,0.0779 0.2291,0.53053 0.2291,1.0059 0,1.57646 -1.78517,2.6003 -2.70582,1.55186 z m 34.444,-0.26458 c -1.2246,-1.09473 -1.12576,-3.34295 0.16116,-3.66594 0.9148,-0.2296 1.41044,0.0335 1.7976,0.95431 0.41915,0.99687 0.69889,0.76147 0.69889,-0.58811 0,-0.73133 -0.30594,-1.536 -1.05833,-2.78347 -0.85301,-1.41431 -1.05833,-2.00693 -1.05833,-3.05467 0,-1.12108 0.12162,-1.42156 0.88399,-2.18392 1.04486,-1.04486 2.01287,-1.34283 3.31082,-1.01912 1.13601,0.28332 1.79,1.26665 1.53038,2.30106 -0.20637,0.82224 -1.30303,1.22309 -2.05737,0.752 -0.2671,-0.16681 -0.54679,-0.30329 -0.62152,-0.30329 -0.33766,0 -0.0851,1.18025 0.39761,1.85817 1.54422,2.16866 1.96928,4.57447 1.16386,6.58742 -0.5465,1.36584 -1.36085,1.87316 -3.00679,1.87316 -1.07508,0 -1.48309,-0.13859 -2.14197,-0.7276 z m -277.456084,0.19532 c -0.378081,-0.15225 -0.685484,-0.62055 -0.878931,-1.33896 -0.277074,-1.02897 -0.168092,-1.54261 1.587705,-7.48286 1.03686,-3.50793 2.07591,-6.58879 2.309001,-6.84635 0.544766,-0.60196 1.726747,-0.60148 2.271919,9.3e-4 0.475053,0.52493 1.810566,3.59621 2.614714,6.01306 0.314105,0.94404 0.586789,2.66481 0.672746,4.24535 0.12383,2.27696 0.07991,2.72248 -0.306464,3.10885 -0.466848,0.46685 -1.387209,0.58756 -1.894957,0.24852 -0.596753,-0.39846 -0.844829,-1.2934 -0.704251,-2.54061 0.139344,-1.23625 0.124094,-1.27357 -0.404708,-0.99057 -0.302229,0.16175 -1.016994,0.29409 -1.588366,0.29409 -1.027106,0 -1.043289,0.0157 -1.430495,1.38906 -0.2154,0.76399 -0.33974,1.82087 -0.276312,2.34864 0.0936,0.77878 -2.05e-4,1.0405 -0.497854,1.38906 -0.690627,0.48374 -0.677812,0.48233 -1.473747,0.16179 z m 4.737907,-8.66199 c 0.357122,-0.4113 0.358146,-0.56645 0.0092,-1.38906 -0.34897,-0.82258 -0.415032,-0.86692 -0.591278,-0.39688 -0.496092,1.32307 -0.577114,2.24896 -0.196801,2.24896 0.20729,0 0.557802,-0.20836 0.778917,-0.46302 z M 104.3869,274.5287 c -0.31641,-0.3368 -0.57529,-0.74769 -0.57529,-0.9131 0,-0.19171 -0.40768,-0.11569 -1.12448,0.20968 -2.11516,0.9601 -3.607841,0.44765 -4.506921,-1.54727 -0.77191,-1.71274 -0.73525,-5.26085 0.0811,-7.85257 1.01042,-3.20771 3.636231,-5.15937 6.941571,-5.15937 2.05384,0 3.39013,2.36574 1.89109,3.34794 -0.64875,0.42508 -0.73541,0.42332 -1.58129,-0.0322 -0.85369,-0.45974 -0.94989,-0.46095 -2.08841,-0.0262 -0.65642,0.25069 -1.42081,0.77504 -1.69865,1.16523 -1.27885,1.79597 -1.746131,7.27651 -0.65152,7.64138 0.47401,0.158 1.93974,-1.57374 2.2233,-2.62682 0.35099,-1.30348 1.29066,-1.96387 2.15009,-1.51106 0.8936,0.4708 0.95766,0.66381 0.81493,2.45532 -0.11261,1.41344 -0.0567,1.69051 0.42965,2.12894 1.15487,1.04111 0.38851,3.33243 -1.11457,3.33243 -0.33843,0 -0.87421,-0.27556 -1.19062,-0.61236 z m -53.961358,-0.29778 c -0.30192,-0.38383 -0.806831,-2.04342 -1.245336,-4.09329 -0.703061,-3.28659 -0.716562,-3.47973 -0.288861,-4.13248 0.350116,-0.53435 0.628115,-0.66682 1.265596,-0.60307 0.980932,0.0981 1.124126,0.34223 1.587316,2.70622 l 0.358714,1.83076 1.115776,-1.84667 c 0.613678,-1.01567 1.115777,-2.03937 1.115777,-2.27489 0,-1.16397 1.675921,-1.65616 2.508125,-0.73658 0.646839,0.71475 0.394193,2.10898 -0.693335,3.82618 -0.466467,0.73655 -1.364972,2.2857 -1.996678,3.44256 -0.631706,1.15685 -1.29569,2.19683 -1.475521,2.31105 -0.666632,0.42341 -1.741889,0.21816 -2.251573,-0.42979 z m 138.899408,0.32807 c -0.48102,-0.48102 -0.3813,-1.72389 0.16967,-2.1149 0.76197,-0.54073 1.06104,-1.2942 2.01128,-5.06712 0.48759,-1.93594 1.24969,-4.23932 1.69356,-5.11862 1.43341,-2.83958 3.21026,-3.71993 4.63418,-2.29602 0.85206,0.85207 2.18752,4.86183 2.57507,7.73174 0.15026,1.11267 0.38488,2.38868 0.52138,2.83558 0.57279,1.87522 -0.003,3.2885 -1.33931,3.2885 -0.89259,0 -1.5875,-0.82201 -1.5875,-1.87788 0,-0.38599 -0.0744,-1.07388 -0.16536,-1.52863 -0.14249,-0.71243 -0.27976,-0.82769 -0.99219,-0.83313 -0.45476,-0.003 -1.2514,-0.10506 -1.77033,-0.22574 l -0.9435,-0.21943 -0.58966,1.89957 c -0.75722,2.43938 -1.87001,3.84358 -3.04593,3.84358 -0.46963,0 -0.99674,-0.14288 -1.17136,-0.3175 z m 7.88458,-8.19796 c 0,-0.64092 -0.87115,-3.39079 -1.07419,-3.39079 -0.11589,0 -0.46529,0.68043 -0.77644,1.51206 -0.5367,1.43445 -0.54187,1.52952 -0.10073,1.85208 0.5839,0.42697 1.95136,0.44564 1.95136,0.0267 z m -164.709513,7.41603 c -1.886866,-1.65669 -2.433366,-3.78831 -1.147652,-4.47641 0.818665,-0.43813 1.689078,0.0575 2.33926,1.33192 0.299926,0.5879 0.63547,1.06892 0.745654,1.06892 0.815212,0 2.245272,-1.88775 2.561141,-3.38084 l 0.18348,-0.86729 -0.98561,0.66886 c -1.07266,0.72792 -1.713811,0.82463 -2.53906,0.38297 -0.854591,-0.45736 -1.305051,-1.95872 -1.471949,-4.90592 -0.136704,-2.414 -0.09754,-2.81226 0.322192,-3.27606 1.218731,-1.34668 2.33289,-0.20238 2.47128,2.53814 0.05446,1.07853 0.207,1.96097 0.33897,1.96097 0.245968,0 0.786175,-1.12496 1.193108,-2.48459 0.259989,-0.86867 1.017833,-1.25107 1.858733,-0.93791 0.8584,0.31967 1.542265,2.78234 1.53819,5.53917 -0.0039,2.63623 -0.610781,4.27448 -2.188892,5.90878 -1.951044,2.02052 -3.634576,2.32029 -5.218845,0.92929 z m 43.019331,0.38413 c -1.995785,-1.04491 -2.641311,-4.39046 -1.648822,-8.5453 0.696937,-2.91757 1.191815,-4.05767 2.056559,-4.73788 0.619096,-0.48698 1.060779,-0.55361 3.669822,-0.55361 3.239842,0 3.846302,0.25416 3.837732,1.60834 -0.008,1.30202 -0.30515,1.43437 -3.217898,1.43437 h -2.711208 l -0.500831,1.66992 c -0.275457,0.91845 -0.435205,1.73554 -0.354994,1.81575 0.313348,0.31335 2.795982,-0.51533 3.367987,-1.1242 0.716885,-0.76309 1.584973,-0.82567 2.189364,-0.15782 1.38181,1.52687 -0.512888,3.3751 -4.17143,4.06912 -1.847496,0.35046 -2.106002,0.66712 -1.368259,1.67604 0.360436,0.49293 0.441334,0.47326 2.512182,-0.61089 2.483258,-1.30004 3.026817,-1.36713 3.629117,-0.44791 0.68677,1.04814 0.19192,1.70948 -2.221482,2.96891 -2.604428,1.35911 -3.827146,1.58474 -5.067839,0.93516 z m 142.622482,-0.0482 c -0.46169,-0.46169 -0.49626,-0.94498 -0.46302,-6.47293 0.0322,-5.34531 0.0855,-6.02353 0.50676,-6.44473 0.38273,-0.38266 1.03352,-0.4886 3.47805,-0.5662 2.77374,-0.0881 3.05046,-0.0522 3.56407,0.46138 0.70268,0.70269 0.74116,2.16011 0.073,2.7648 -0.60251,0.54526 -1.46346,0.56387 -1.8974,0.041 -0.2115,-0.25485 -0.7975,-0.39688 -1.63747,-0.39688 -1.25037,0 -1.3044,0.03 -1.22437,0.68049 0.0492,0.39978 0.38104,0.85993 0.80446,1.11546 0.67294,0.40611 0.81519,0.40286 2.14435,-0.0489 1.58014,-0.53711 2.38035,-0.34504 2.69518,0.64691 0.42321,1.33343 -1.38282,2.43959 -4.04877,2.47978 -1.65667,0.025 -1.66311,0.0384 -1.57281,3.28163 0.0533,1.91585 -0.005,2.25129 -0.45229,2.57968 -0.70098,0.51521 -1.37459,0.47368 -1.96973,-0.12146 z m -195.48213,0.0488 c -0.888981,-0.17206 -1.846544,-1.49463 -2.168263,-2.99475 -0.15849,-0.73902 -0.288164,-3.16482 -0.288164,-5.39068 0,-4.83806 -0.03938,-4.77212 3.226512,-5.40235 3.265127,-0.63008 4.647493,-0.58262 5.265653,0.18078 0.647063,0.79909 0.63524,1.22556 -0.05306,1.91386 -0.420641,0.42064 -0.752773,0.51751 -1.358744,0.39632 -0.441109,-0.0882 -1.232378,-0.053 -1.758377,0.0782 -0.525998,0.13123 -1.283782,0.31234 -1.683964,0.40247 -0.685318,0.15434 -0.727604,0.24814 -0.727604,1.61403 0,0.79759 0.111909,1.45017 0.248686,1.45017 0.136778,0 0.984724,-0.34225 1.884325,-0.76055 1.749171,-0.81334 2.479829,-0.80722 2.924949,0.0245 0.569033,1.06325 0.07942,1.69454 -2.213126,2.85354 -2.670372,1.35001 -2.824839,1.4737 -2.65437,2.12558 0.07471,0.28569 0.151716,0.51888 0.171124,0.51821 0.01941,-6.7e-4 0.749662,-0.2955 1.622787,-0.65518 1.856333,-0.76469 2.58431,-0.82253 3.156101,-0.25074 0.794009,0.79401 0.191627,2.49465 -0.883629,2.49465 -0.182431,0 -1.145513,0.35718 -2.140181,0.79375 -0.994668,0.43656 -1.848062,0.77753 -1.896431,0.75771 -0.04837,-0.0198 -0.35177,-0.0871 -0.674225,-0.14951 z M 8.4413003,273.4767 c -0.3521,-0.53737 -0.353052,-0.97952 -0.0084,-3.90261 0.471325,-3.99741 0.486542,-5.11777 0.08461,-6.2293 -0.252827,-0.69918 -0.224462,-1.12139 0.156762,-2.3334 0.255993,-0.81387 0.592007,-1.55798 0.746696,-1.65358 0.15469,-0.0956 1.3815967,-0.22415 2.7264607,-0.28565 2.381746,-0.10891 2.466876,-0.0924 3.280196,0.63636 1.395507,1.25041 1.567096,3.9346 0.396261,6.19874 -0.40901,0.79094 -0.402065,0.83606 0.191558,1.24454 2.562128,1.76303 3.697564,4.78566 2.172965,5.78461 -0.617327,0.40449 -0.766054,0.41179 -1.379153,0.0677 -0.432383,-0.24269 -0.753691,-0.71079 -0.866502,-1.26237 -0.09861,-0.48216 -0.51259,-1.22454 -0.919951,-1.64974 -0.704339,-0.73517 -2.615749,-1.83006 -3.194836,-1.83006 -0.148905,0 -0.404585,1.08711 -0.568179,2.41579 -0.319763,2.59707 -0.748553,3.40504 -1.8070477,3.40504 -0.348363,0 -0.786275,-0.26239 -1.01144,-0.60603 z m 4.8095587,-8.96648 c 0.177995,-0.361 0.356589,-1.06354 0.396875,-1.56119 0.07056,-0.87166 0.03929,-0.90484 -0.852795,-0.90484 h -0.926041 l -0.07814,1.78185 c -0.07713,1.75883 -0.0703,1.779 0.529167,1.5612 0.334019,-0.12136 0.75294,-0.51602 0.930936,-0.87702 z m 129.328511,8.94838 c -0.52452,-0.38354 -0.57303,-1.11176 -0.26041,-3.90887 l 0.16657,-1.4903 -1.6977,-0.29564 c -0.93373,-0.1626 -1.7623,-0.29564 -1.84128,-0.29564 -0.079,0 -0.19652,1.00864 -0.26123,2.24142 -0.12801,2.43902 -0.57112,3.31483 -1.67711,3.31483 -1.17668,0 -1.31393,-0.56153 -1.31967,-5.3989 -0.003,-2.48764 -0.10545,-5.06681 -0.22779,-5.7315 -0.2524,-1.37139 0.18753,-2.09877 1.26938,-2.09877 0.92679,0 1.39034,0.75354 1.73166,2.81499 0.29844,1.8025 0.34973,1.89635 1.12061,2.05052 0.44432,0.0889 1.1394,0.16158 1.54463,0.16158 0.70613,0 0.74978,-0.0771 1.0495,-1.85406 0.22994,-1.36325 0.46198,-1.9586 0.87652,-2.24896 0.69364,-0.48584 1.00263,-0.49438 1.61762,-0.0447 0.59327,0.43381 0.8038,3.9182 0.53608,8.87233 -0.1461,2.70343 -0.2634,3.35613 -0.67758,3.77031 -0.59059,0.5906 -1.26823,0.63972 -1.9498,0.14134 z m 16.28115,-0.077 c -0.64627,-0.22621 -1.4384,-0.58384 -1.76028,-0.79475 -0.53534,-0.35077 -0.64281,-0.3259 -1.26033,0.29162 -0.80668,0.80668 -0.98497,0.82465 -1.78165,0.17954 -0.66152,-0.53567 -0.65933,-0.58177 0.27149,-5.72217 0.13176,-0.7276 0.17118,-2.31555 0.0876,-3.52878 l -0.15194,-2.20587 1.16528,-1.09953 c 1.85129,-1.74682 2.37004,-2.02571 3.77143,-2.02762 1.10774,-10e-4 1.40625,0.12128 2.18282,0.89784 0.95753,0.95754 1.20107,2.27604 0.6207,3.36046 -0.23238,0.43422 -0.11011,0.71281 0.73352,1.67121 1.50871,1.71399 2.72036,4.22632 2.72036,5.64061 0,3.05447 -3.0297,4.58673 -6.59901,3.33744 z m 3.63798,-3.17962 c 0.14927,-1.04793 -2.18863,-4.83196 -2.79962,-4.53136 -0.663,0.32619 -1.58123,0.71682 -1.97841,0.84164 -0.30344,0.0954 -0.46302,0.4145 -0.46302,0.92593 0,0.42923 -0.0661,0.95256 -0.1468,1.16296 -0.10249,0.26709 0.10448,0.43279 0.68577,0.54905 0.51633,0.10327 0.88402,0.36328 0.96803,0.68455 0.17112,0.65436 1.22825,1.05871 2.59404,0.99221 0.86442,-0.0421 1.0733,-0.1566 1.14001,-0.62498 z m -3.60824,-7.93423 c 0.68309,-0.61819 0.65475,-1.25969 -0.0392,-0.88828 -0.66558,0.35621 -1.22423,1.32616 -0.76381,1.32616 0.17556,0 0.53694,-0.19704 0.80306,-0.43788 z m 10.17578,11.15035 c -0.5776,-0.5776 -0.83951,-2.71057 -0.45285,-3.68788 0.17558,-0.44378 0.38737,-1.71639 0.47066,-2.82803 0.14544,-1.9412 0.12386,-2.04512 -0.54582,-2.6274 -0.93754,-0.81518 -0.8918,-1.74872 0.16264,-3.31942 3.39191,-5.05257 9.77118,-1.74817 7.16716,3.71252 -0.39692,0.83235 -0.38321,0.88533 0.63802,2.46537 0.57401,0.8881 1.24044,1.81152 1.48096,2.05204 0.85523,0.85522 0.3287,2.06954 -1.04707,2.41484 -0.82237,0.2064 -1.53395,-0.4033 -2.35209,-2.01534 -0.7754,-1.52783 -1.52869,-2.21298 -2.19913,-2.00019 -0.44581,0.1415 -0.54296,0.5068 -0.70321,2.64425 -0.14389,1.91925 -0.30277,2.60549 -0.70262,3.03468 -0.60834,0.65297 -1.3578,0.71341 -1.91665,0.15456 z m 4.06035,-9.77913 c 0.17782,-0.21426 0.34123,-0.77981 0.36312,-1.25677 0.0343,-0.74821 -0.054,-0.8781 -0.64429,-0.94671 -0.95095,-0.11054 -1.37144,0.48943 -1.15429,1.64696 0.19174,1.02207 0.84039,1.27354 1.43546,0.55652 z m 10.36977,9.98966 c -0.33906,-0.0646 -1.07852,-0.57946 -1.64322,-1.14417 -1.93774,-1.93774 -2.32916,-5.44765 -1.06244,-9.52697 1.05222,-3.38856 2.48145,-4.56837 5.57111,-4.59888 1.36649,-0.0135 1.96439,0.1198 2.91042,0.64883 1.05248,0.58856 1.19062,0.77175 1.19062,1.57888 0,1.28584 -0.89885,1.73671 -2.23224,1.11968 -1.13356,-0.52456 -2.96616,-0.57527 -3.54124,-0.098 -0.43657,0.36232 -1.39749,2.6138 -1.1999,2.8114 0.063,0.063 0.58617,-0.0535 1.16268,-0.25887 1.29974,-0.46293 2.82325,-0.50006 3.24425,-0.0791 0.41579,0.4158 0.40758,1.66052 -0.0132,2.00548 -0.1819,0.14911 -0.82458,0.40313 -1.42817,0.56448 -1.57136,0.42006 -3.53277,1.32579 -3.53277,1.63133 0,0.51729 0.72145,1.97152 1.15747,2.33313 0.57804,0.47938 1.75295,-0.003 1.75295,-0.71982 0,-0.63849 0.81315,-1.3696 1.52328,-1.3696 0.94913,0 1.46181,0.75644 1.30501,1.92547 -0.28677,2.13804 -2.72952,3.64056 -5.16458,3.1767 z m -210.065267,-0.48695 c -0.573447,-0.40166 -0.588038,-0.53978 -0.588038,-5.56679 0,-4.71408 0.04769,-5.25017 0.557688,-6.26885 2.064084,-4.12284 6.548972,-5.22685 7.652309,-1.88371 0.50643,1.5345 -0.196775,4.19926 -1.655995,6.2753 -0.290945,0.41393 -0.235855,0.55239 0.408538,1.02681 1.110025,0.81722 2.720351,3.12863 2.918761,4.1895 0.227655,1.21723 -0.363709,2.11045 -1.39724,2.11045 -0.866311,0 -1.153786,-0.29627 -1.58392,-1.6324 -0.395611,-1.22888 -2.4136,-3.1301 -3.322354,-3.1301 -0.657824,0 -0.66737,0.0303 -0.66737,2.11667 0,1.76389 -0.08819,2.20486 -0.529167,2.64583 -0.636832,0.63683 -1.016048,0.66164 -1.793212,0.11729 z m 3.570451,-9.18076 c 0.850181,-1.18385 1.607914,-3.24998 1.303531,-3.55437 -0.294907,-0.29491 -1.592458,0.81658 -2.088171,1.78873 -0.473423,0.92844 -0.638876,2.89161 -0.243701,2.89161 0.120852,0 0.583606,-0.50668 1.028341,-1.12597 z m 26.0761343,8.90463 -0.50118,-0.68801 -0.90995,0.55473 c -1.86583305,1.13746 -3.686961,0.51673 -4.782134,-1.62999 -0.481073,-0.94298 -0.534334,-1.4131 -0.424313,-3.7453 0.200932,-4.25931 1.44057,-7.09035 3.64789895,-8.33094 1.53738905,-0.86406 3.76323505,-0.69868 4.66217805,0.34641 0.714333,0.83046 0.795347,1.79376 0.200854,2.38825 -0.526004,0.52601 -1.543531,0.53534 -2.05997,0.0189 -1.543833,-1.54383 -3.60967305,1.87828 -3.60967305,5.97951 0,1.97592 0.159383,2.61945 0.648759,2.61945 0.533291,0 1.19555105,-0.90408 1.77031305,-2.41673 0.59812,-1.57412 0.835195,-1.80665 1.84801,-1.81255 0.90455,-0.005 1.303287,0.50706 1.481694,1.9038 0.07973,0.62417 0.307148,1.45636 0.505382,1.84932 0.479826,0.95115 0.456533,2.33787 -0.05145,3.06312 -0.58339,0.83291 -1.782862,0.78349 -2.426416,-0.1 z M 126.62241,273.3656 c -0.33266,-0.0637 -1.0768,-0.56488 -1.65365,-1.11363 -1.21571,-1.15648 -1.37871,-2.14149 -0.46078,-2.78444 0.85164,-0.59651 1.33318,-0.51254 2.19009,0.38187 0.41825,0.43657 0.99189,0.79375 1.27474,0.79375 0.4392,0 0.49252,-0.13412 0.36522,-0.91858 -0.082,-0.50521 -0.5209,-1.45903 -0.97538,-2.11959 -1.69363,-2.46161 -2.0584,-4.49786 -1.03809,-5.79497 1.50457,-1.91276 4.99016,-2.19852 6.31245,-0.51751 0.60001,0.7628 0.72006,2.18894 0.22585,2.68315 -0.55902,0.55902 -1.71487,0.37263 -2.2507,-0.36294 -0.40134,-0.55096 -0.63212,-0.6462 -1.21269,-0.50049 -0.93852,0.23556 -0.91244,0.77048 0.11631,2.3859 1.84753,2.90115 2.27608,4.94007 1.36314,6.48554 -0.69694,1.17983 -2.40961,1.73588 -4.25651,1.38194 z m -14.73225,-0.37556 c -1.97331,-0.46212 -2.78246,-1.83209 -2.78541,-4.71595 -0.002,-1.97733 0.53092,-7.15632 0.81051,-7.87624 0.32253,-0.83051 1.44692,-1.05948 2.13878,-0.43554 0.4934,0.44497 0.53218,0.69275 0.388,2.47876 -0.0881,1.09141 -0.23745,3.20128 -0.33188,4.68861 l -0.17167,2.70423 0.71628,0.27233 c 0.39396,0.14978 1.23141,0.27233 1.86101,0.27233 0.99882,0 1.16577,-0.0839 1.30989,-0.65811 0.23379,-0.93151 1.28842,-1.57954 1.97372,-1.21278 0.29123,0.15586 0.60648,0.28339 0.70056,0.28339 0.0941,0 0.13166,-1.79553 0.0835,-3.99008 -0.0811,-3.70039 -0.0502,-4.01734 0.42609,-4.36562 0.71767,-0.52478 1.30461,-0.46854 1.89279,0.18138 0.45522,0.50299 0.50525,1.01774 0.51665,5.31529 0.008,2.87517 -0.0995,4.98462 -0.27062,5.33005 -0.41583,0.83933 -1.812,0.91664 -2.36241,0.13081 -0.23226,-0.3316 -0.4223,-0.4615 -0.4223,-0.28866 0,0.17284 -0.36952,0.73511 -0.82116,1.2495 -0.80193,0.91335 -0.86541,0.93462 -2.71197,0.90867 -1.03996,-0.0146 -2.36313,-0.13719 -2.9404,-0.27237 z m -26.011351,-0.37752 c -0.57634,-0.40369 -0.58803,-0.52384 -0.58803,-6.0444 0,-6.4282 0.0258,-6.5083 2.09749,-6.5083 0.93338,0 1.2695,0.14949 1.93349,0.8599 1.40017,1.49806 2.49853,2.92799 3.50577,4.56406 l 0.97734,1.5875 -0.19821,-2.77813 c -0.25719,-3.60487 -0.19981,-4.4935 0.32781,-5.07651 0.57118,-0.63115 1.53344,-0.60962 2.14611,0.048 0.44347,0.47601 0.48987,1.00119 0.47333,5.35781 -0.0162,4.27886 -0.0787,4.95069 -0.54751,5.88704 -0.69431,1.38683 -1.69928,1.77275 -2.69007,1.03301 -0.38755,-0.28935 -1.25052,-1.49996 -1.9177,-2.69026 -0.66718,-1.19029 -1.62978,-2.73279 -2.1391,-3.42778 l -0.92605,-1.26361 -0.0677,3.96875 c -0.0626,3.66716 -0.11002,4.00394 -0.62462,4.43177 -0.68531,0.56976 -1.00853,0.57914 -1.76235,0.0511 z m -100.203662,-0.84094 c -1.63018,-0.39136 -1.787103,-1.15238 -1.455352,-7.05799 0.156047,-2.77785 0.340385,-5.3151 0.40964,-5.63832 0.263378,-1.22922 2.17352,-1.4445 2.77897,-0.31321 0.207894,0.38846 0.214716,0.9077 0.02342,1.78282 -0.148446,0.6791 -0.322648,2.81172 -0.387117,4.73914 l -0.117215,3.50442 1.374838,-0.16159 c 1.542543,-0.18129 2.2676047,0.24485 2.2676047,1.33274 0,0.86613 -0.7351667,1.38665 -2.2489587,1.59231 -0.727604,0.0989 -1.50151,0.2173 -1.719791,0.26322 -0.218282,0.0459 -0.635,0.0263 -0.926042,-0.0435 z m 77.473045,-22.60286 c -4.771449,-0.35309 -9.632588,-1.74577 -11.117632,-3.18514 -1.019324,-0.98796 -1.508516,-2.2908 -1.269231,-3.38026 0.409011,-1.86221 4.040073,-4.76851 5.957676,-4.76851 1.189455,0 2.113436,1.023 2.113436,2.33992 0,1.35746 -0.680772,2.17993 -1.979029,2.39096 -1.965706,0.31951 -1.37161,0.75996 2.508195,1.85953 2.424731,0.68718 16.57387,0.93501 23.415622,0.41014 2.52647,-0.19382 4.42273,-0.93371 5.98312,-2.3345 l 1.12079,-1.00615 -0.82068,-0.76699 c -0.45137,-0.42184 -0.8997,-1.01597 -0.99628,-1.32029 -0.37385,-1.1779 0.83048,-2.63095 2.18062,-2.63095 0.23716,0 1.08241,0.44649 1.87832,0.99219 3.08621,2.11601 2.84317,4.84178 -0.70878,7.94924 -2.20407,1.92826 -4.26748,2.8495 -7.1819,3.20646 -2.933205,0.35927 -17.283841,0.52558 -21.084247,0.24435 z m 72.545708,0.0397 c -0.87312,-0.12106 -2.48047,-0.34002 -3.57187,-0.48659 -1.09141,-0.14657 -2.81782,-0.45139 -3.83646,-0.67737 -1.01865,-0.22598 -2.17192,-0.41294 -2.56284,-0.41547 -0.39091,-0.003 -1.63667,-0.36113 -2.76834,-0.7969 -1.56515,-0.60268 -2.39238,-1.12294 -3.45644,-2.17377 -1.35496,-1.33813 -1.39876,-1.4274 -1.39636,-2.84572 0.005,-2.73089 2.16262,-5.30586 4.80618,-5.73485 0.6564,-0.10652 1.06842,0.005 1.62132,0.44027 0.63052,0.49596 0.72933,0.7453 0.66137,1.6689 -0.0802,1.08937 -0.25975,1.28891 -2.18349,2.42602 -0.24619,0.14552 -0.46891,0.50271 -0.49493,0.79375 -0.0678,0.75836 2.38418,1.90089 4.5829,2.13547 0.94589,0.10091 2.00374,0.28995 2.35078,0.42008 0.34704,0.13013 2.49017,0.48301 4.7625,0.78417 5.45326,0.72275 10.89879,0.54892 13.9439,-0.4451 2.49012,-0.81286 3.76933,-1.46325 4.5742,-2.32567 0.569,-0.60969 0.58935,-0.71207 0.21577,-1.08565 -1.38674,-1.38673 -0.30603,-3.59901 1.74812,-3.57853 0.8977,0.009 2.71242,0.92489 3.19364,1.61193 0.55307,0.78962 0.55331,2.40714 5.3e-4,3.47611 -0.85695,1.65715 -3.05726,3.65714 -5.0318,4.57368 -2.57307,1.19437 -5.19993,1.98345 -7.10451,2.13412 -3.29327,0.26053 -8.52492,0.31314 -10.05417,0.10112 z m -66.013542,-7.48679 c -0.07276,-0.0729 -1.59843,-0.43448 -3.390376,-0.80361 -4.381221,-0.90251 -5.095026,-1.28995 -7.377182,-4.00418 -1.044267,-1.24198 -1.973876,-2.13645 -2.065798,-1.98772 -0.350566,0.56723 -2.274107,1.32104 -3.361833,1.31746 -0.624261,-0.002 -2.266114,-0.41254 -3.648562,-0.91218 -2.035673,-0.73574 -2.699191,-1.11541 -3.490042,-1.997 -1.506832,-1.67972 -2.067779,-3.08194 -2.23781,-5.59397 -0.127478,-1.88335 -0.06167,-2.44064 0.446676,-3.78286 0.674874,-1.7819 2.561375,-3.99171 3.883616,-4.5492 1.072937,-0.45238 2.818736,-0.44225 4.125815,0.0239 0.975936,0.34808 1.016471,0.33862 1.256771,-0.29342 0.136569,-0.3592 0.248308,-1.05137 0.248308,-1.53816 0,-0.8847 1.168117,-2.63973 2.683691,-4.03209 0.612723,-0.56291 3.613282,-1.92721 4.989226,-2.26851 2.786922,-0.69129 10.197598,-1.57159 14.022917,-1.66575 5.064546,-0.12467 6.120164,0.10418 8.125944,1.76167 0.69138,0.57132 1.47617,1.03877 1.74397,1.03877 0.65471,0 2.54966,1.13262 3.4159,2.0417 0.38595,0.40504 1.25413,1.96027 1.9293,3.45608 l 1.22758,2.71966 -0.17418,2.43972 c -0.27281,3.82143 -1.28768,7.05631 -3.75365,11.96472 -0.96122,1.91328 -2.7598,4.00653 -4.22751,4.92013 -1.04097,0.64797 -4.502165,1.20533 -8.684229,1.39845 -1.74625,0.0806 -3.710782,0.22136 -4.365625,0.31271 -0.654844,0.0914 -1.250157,0.1065 -1.322917,0.0336 z m 5.291667,-4.55975 c 1.236927,-0.0587 3.260989,-0.24428 4.497916,-0.4125 3.430758,-0.46658 4.108298,-1.19996 6.697038,-7.24894 1.08399,-2.53291 1.42521,-3.86712 1.63945,-6.41045 l 0.1611,-1.91253 -1.98705,0.94365 c -2.63864,1.25308 -5.661931,1.64668 -14.844913,1.93264 -3.929062,0.12235 -7.203281,0.18949 -7.276042,0.1492 -0.07276,-0.0403 -1.263385,-0.20813 -2.645833,-0.37297 -1.382448,-0.16483 -2.735586,-0.36776 -3.006974,-0.45096 -0.538128,-0.16495 -0.541537,-0.41392 0.04761,3.47703 0.132324,0.87392 0.620302,2.34115 1.084396,3.26051 0.968195,1.91799 3.798945,5.52735 4.624732,5.89679 1.193253,0.53384 6.424941,1.48103 7.568986,1.37036 0.654844,-0.0633 2.202657,-0.16317 3.439584,-0.22183 z m -6.826251,-1.49665 c -0.5128,-0.5128 -0.378009,-1.33474 0.699626,-4.26623 1.258369,-3.42315 1.803779,-4.37243 2.96593,-5.16217 0.717575,-0.48763 1.155486,-0.59287 2.056326,-0.49415 1.761408,0.19301 2.507428,1.08355 3.218549,3.84205 0.325676,1.26333 0.768307,2.78991 0.983624,3.39239 0.444795,1.24461 0.192977,2.05548 -0.729228,2.34818 -0.840754,0.26684 -1.65967,-0.45634 -2.191502,-1.93532 -0.318636,-0.8861 -0.602154,-1.2978 -0.832777,-1.2093 -0.192317,0.0738 -0.909475,0.21531 -1.593684,0.31447 -1.192236,0.17279 -1.264099,0.23323 -1.726457,1.45222 -0.265342,0.69956 -0.624999,1.4437 -0.799237,1.65364 -0.384357,0.46313 -1.613774,0.50162 -2.05117,0.0642 z m 5.524974,-6.29708 c 0.133619,0 0.242943,-0.1786 0.242943,-0.39688 0,-0.59472 -0.73178,-0.47787 -1.079804,0.17241 -0.263053,0.49152 -0.243297,0.54574 0.144622,0.39688 0.247112,-0.0948 0.558619,-0.17241 0.692239,-0.17241 z m -19.459207,2.21853 c 0.916132,-0.60028 0.813937,-0.82346 -0.377062,-0.82346 -1.153567,0 -3.82626,-1.37378 -4.264016,-2.19174 -0.545205,-1.01872 -0.313119,-2.28914 0.551028,-3.01627 0.447727,-0.37674 0.953743,-0.68564 1.124479,-0.68645 0.949717,-0.005 2.294679,-0.59281 2.2934,-1.00315 -0.0012,-0.37972 -0.282085,-0.45059 -1.785938,-0.45059 -2.08585,0 -2.281865,0.0962 -2.978939,1.46262 -0.787306,1.54325 -0.605727,4.07568 0.385219,5.37252 0.331129,0.43335 3.18911,1.6532 4.059642,1.73275 0.187021,0.0171 0.633505,-0.16122 0.992187,-0.39623 z m 7.187491,-12.80649 c 0.482962,-1.27952 1.725974,-1.6365 6.032367,-1.73245 2.037292,-0.0454 4.239948,-0.1963 4.894792,-0.33537 1.81448,-0.38533 4.139811,-0.3628 7.034625,0.0682 2.365064,0.35208 2.688953,0.46899 3.297483,1.19028 l 0.67482,0.79986 1.11112,-0.54974 c 0.61112,-0.30236 1.11112,-0.673 1.11112,-0.82365 0,-0.44102 -0.87027,-0.97618 -1.60224,-0.98529 -0.37191,-0.005 -1.07965,-0.30607 -1.57276,-0.66987 -0.49311,-0.36381 -1.042884,-0.66146 -1.221729,-0.66146 -0.178844,0 -0.671998,-0.29184 -1.095898,-0.64853 -0.75508,-0.63535 -0.850838,-0.64665 -4.716655,-0.55632 -4.535638,0.10599 -11.555585,1.12117 -14.010178,2.02606 -1.615791,0.59567 -3.012292,1.83129 -3.025507,2.67695 -0.0045,0.28942 0.306351,0.54597 0.852778,0.70374 1.529589,0.44166 1.911963,0.35574 2.235862,-0.50236 z m 74.427158,21.16416 c -0.80036,-0.12434 -2.16958,-0.34118 -3.0427,-0.48187 -2.68845,-0.43321 -4.83741,-1.59069 -6.96337,-3.75065 -1.03843,-1.05503 -2.15337,-2.46748 -2.47764,-3.13878 -0.32427,-0.67129 -0.86278,-1.62409 -1.19669,-2.11734 -0.3339,-0.49325 -0.6071,-1.1006 -0.6071,-1.34966 0,-0.24906 -0.31147,-1.03612 -0.69217,-1.74902 -0.40387,-0.7563 -0.7863,-2.038 -0.91817,-3.07723 -0.1243,-0.97958 -0.46767,-2.25476 -0.76304,-2.83373 -0.79933,-1.56681 -0.71068,-2.97423 0.25672,-4.07604 0.43656,-0.49722 0.79375,-1.02801 0.79375,-1.17953 0,-0.59947 1.42021,-1.90852 3.03144,-2.79416 0.93336,-0.51305 2.98461,-1.38575 4.55831,-1.93935 l 2.86129,-1.00655 5.42396,0.0196 c 4.04758,0.0146 5.92751,0.13209 7.40833,0.46281 1.09141,0.24375 2.40841,0.44328 2.92667,0.44339 0.54581,1.3e-4 1.16013,0.20316 1.45999,0.48253 0.28474,0.26526 1.09709,0.6282 1.80525,0.80651 1.67836,0.42262 3.13939,1.16852 4.85698,2.47965 1.18155,0.90195 1.4556,1.28248 1.8157,2.52118 0.23671,0.81424 0.36405,1.9067 0.28818,2.47232 -0.13298,0.99147 -0.11498,1.01723 0.83013,1.18818 1.25256,0.22656 2.19097,0.71173 3.35725,1.73574 1.27172,1.11659 1.70985,2.05321 1.70985,3.6553 0,1.66692 -0.41945,2.69258 -2.01631,4.93038 -1.45596,2.04035 -2.83902,3.12627 -4.6768,3.67203 -1.42476,0.42311 -2.14693,0.33536 -3.71742,-0.45168 -0.55981,-0.28055 -1.05068,-0.47201 -1.09083,-0.42548 -0.0402,0.0465 -0.28513,0.50132 -0.5444,1.01064 -1.19111,2.33995 -2.74815,3.6685 -4.9118,4.19104 -1.6148,0.38998 -7.93565,0.58401 -9.76536,0.29975 z m 8.6666,-4.39834 c 1.00331,-0.17692 2.02784,-1.27916 2.64721,-2.84798 0.2347,-0.59451 1.23793,-2.7106 2.22938,-4.70242 1.82158,-3.65953 2.13791,-4.63356 1.41471,-4.35604 -0.21337,0.0819 -1.73142,0.41638 -3.37344,0.74334 -4.45259,0.8866 -10.56867,0.83506 -15.95008,-0.13442 -3.52019,-0.63417 -5.90494,-1.18845 -7.1211,-1.65514 -0.56609,-0.21722 -0.27619,1.5087 0.5356,3.18873 0.34781,0.71979 0.63237,1.51644 0.63237,1.77032 0,0.25388 0.13236,0.5434 0.29413,0.64338 0.16176,0.1 0.5733,0.81304 0.91451,1.58459 0.73499,1.66193 3.31394,4.39539 4.54844,4.82093 0.84077,0.28982 0.85426,0.28271 0.54078,-0.28515 -0.2204,-0.39922 -0.30044,-1.78891 -0.25453,-4.41884 0.0824,-4.7189 -0.013,-4.59426 3.3885,-4.42812 1.87517,0.0916 2.62871,0.24699 3.34527,0.68985 1.00213,0.61935 1.89949,2.17528 1.69829,2.94467 -0.0689,0.26356 0.0979,0.81783 0.37082,1.23171 0.27288,0.41389 0.49693,1.21941 0.49788,1.79006 0.001,0.88594 -0.17291,1.20489 -1.19352,2.18281 -0.6574,0.6299 -1.3788,1.14527 -1.60312,1.14527 -0.22431,0 -0.32902,0.12755 -0.23267,0.28343 0.17324,0.28032 4.7392,0.14959 6.67057,-0.19098 z m -7.46747,-2.85707 c 0.50465,-0.21086 0.91754,-0.52125 0.91754,-0.68977 0,-0.18975 -0.17627,-0.2321 -0.46302,-0.11125 -0.25466,0.10733 -1.0881,0.25387 -1.85208,0.32566 -0.93956,0.0883 -1.38907,0.24834 -1.38907,0.49462 0,0.4894 1.59562,0.47837 2.78663,-0.0193 z m 18.79585,-1.93761 c 0.87914,-0.73324 2.49461,-3.18679 2.49461,-3.78878 0,-0.72301 -1.00401,-1.54324 -1.90262,-1.55435 -0.95615,-0.0118 -1.1427,0.38546 -0.48828,1.03988 0.58531,0.58531 0.69765,1.59974 0.26639,2.40556 -0.38513,0.71962 -1.72187,1.34905 -2.46756,1.1619 -0.94321,-0.23673 -1.14049,0.56595 -0.22171,0.90213 1.06291,0.38891 1.70899,0.34257 2.31917,-0.16634 z m -19.49935,-1.75005 0.62792,-0.34811 -0.62792,-0.16806 c -1.21432,-0.32502 -1.81854,-0.20745 -1.81854,0.35387 0,0.6262 0.84563,0.70168 1.81854,0.1623 z m 12.32527,-9.18286 c 0.63193,-0.15912 1.54785,-0.62583 2.03539,-1.03713 l 0.88642,-0.74782 -1.53347,-0.70761 c -0.84342,-0.38918 -2.56982,-0.88407 -3.83646,-1.09976 -1.26664,-0.21568 -2.56647,-0.56151 -2.88852,-0.76849 -1.56547,-1.00619 -9.52393,-1.24252 -12.88596,-0.38265 -2.25983,0.57796 -6.22758,2.35941 -6.23514,2.79946 -0.003,0.15412 0.56405,0.46214 1.25934,0.68449 1.19071,0.38077 1.3043,0.3743 1.95481,-0.11138 0.62621,-0.46753 1.1563,-0.5166 5.68115,-0.5259 2.74478,-0.006 6.59785,0.0841 8.56238,0.19943 l 3.57187,0.20968 0.79375,0.87397 c 0.89448,0.98488 1.0326,1.01705 2.63444,0.61371 z m -2.94974,-10.29903 c -1.50363,-0.59927 -1.70874,-2.40083 -0.57142,-5.01896 0.28372,-0.65314 0.63549,-1.7247 0.78172,-2.38125 0.30132,-1.353 1.91261,-3.97362 3.20643,-5.21499 2.20198,-2.11271 6.43169,-2.86964 8.9472,-1.60115 0.92431,0.46611 1.33846,0.9071 1.90814,2.03182 0.91471,1.8059 0.9107,2.40894 -0.0292,4.39572 -1.16158,2.45533 -2.61459,3.17276 -4.62483,2.28354 -2.59372,-1.14733 -2.53278,-4.1842 0.0964,-4.80258 0.88356,-0.20782 0.86773,-0.21694 -0.40324,-0.2323 -0.7803,-0.009 -1.67837,0.17358 -2.1895,0.44619 -1.09173,0.58226 -2.64241,2.73768 -2.86894,3.98776 -0.0949,0.52351 -0.37841,1.36855 -0.63011,1.87787 -0.25169,0.50933 -0.53855,1.37206 -0.63747,1.91719 -0.31243,1.72168 -1.72333,2.81403 -2.98512,2.31114 z m -84.267052,-1.4535 c -0.87628,-0.48349 -0.957646,-0.77838 -0.960878,-3.48245 -0.0014,-1.18955 -0.149533,-2.81946 -0.329136,-3.62201 -0.311383,-1.3914 -0.385411,-1.4845 -1.59385,-2.00435 -1.618485,-0.69626 -1.933709,-0.70294 -1.575386,-0.0334 0.828634,1.54832 -0.389379,3.68718 -2.388724,4.19467 -2.42888,0.61652 -4.481133,-1.04033 -4.481133,-3.61775 0,-1.31555 0.320869,-2.17532 1.254528,-3.36152 1.333667,-1.6944 2.157428,-2.02532 4.771985,-1.917 1.953617,0.081 2.604666,0.23419 4.241509,0.99838 2.254734,1.05265 3.071887,1.91267 3.614749,3.80436 0.378609,1.31932 0.927223,5.35706 0.931725,6.85739 0.0026,0.87578 -1.184748,2.24468 -2.114496,2.43776 -0.363802,0.0755 -0.980704,-0.0388 -1.370893,-0.25407 z m 14.039444,-0.65993 c -0.235578,-0.13765 -0.57105,-0.59484 -0.745491,-1.01598 -0.379074,-0.91516 -0.06566,-1.75812 1.49069,-4.00933 1.34464,-1.94498 2.36459,-2.45755 4.526653,-2.27482 1.974825,0.16691 3.382495,0.88021 4.257715,2.15752 0.80456,1.17417 0.65582,2.78363 -0.35023,3.78968 -1.34924,1.34923 -3.846199,0.63726 -3.948311,-1.1258 -0.0493,-0.85116 -0.574512,-0.90368 -0.99191,-0.0992 -0.169878,0.32743 -0.717819,1.10133 -1.217648,1.7198 -0.730069,0.90335 -1.074393,1.12289 -1.750962,1.11643 -0.4632,-0.004 -1.034928,-0.12067 -1.270506,-0.25831 z m 60.180968,-0.12435 c -0.30679,-0.21488 -0.6344,-0.6959 -0.72802,-1.06892 -0.22748,-0.90635 0.63836,-2.82637 1.56299,-3.46593 1.97663,-1.36724 2.56543,-2.08435 2.70132,-3.28997 0.11842,-1.05065 0.0325,-1.31171 -0.75367,-2.28928 -0.81396,-1.01214 -1.89992,-1.66603 -2.76688,-1.66603 -0.20152,0 -0.0749,0.2705 0.30406,0.64943 0.78836,0.78836 0.82921,1.69649 0.11704,2.60187 -0.6875,0.87402 -1.81343,1.11643 -2.94593,0.63426 -1.84012,-0.78345 -2.65708,-2.50263 -2.066,-4.34766 1.38128,-4.31166 6.17124,-4.9943 9.79224,-1.39554 2.59201,2.57608 3.23056,4.99997 2.10734,7.99928 -0.40561,1.0831 -1.05528,1.92173 -2.87724,3.71409 -2.50094,2.46033 -3.23105,2.77626 -4.44725,1.9244 z m -65.344855,-4.40642 c -0.719393,-0.36138 -1.151477,-1.30889 -1.166277,-2.55751 -0.01723,-1.45403 -0.552285,-2.7056 -1.912162,-4.47286 -1.754211,-2.27973 -3.809365,-4.06095 -6.045669,-5.23984 l -1.952431,-1.02924 -3.439584,-0.0212 c -1.891771,-0.0117 -4.927864,0.12808 -6.746875,0.31053 -7.05568,0.70771 -10.019417,0.80771 -20.505209,0.69182 -5.966354,-0.0659 -15.848542,-0.12265 -21.9604167,-0.12603 -10.884228,-0.006 -11.12473,-0.0174 -11.707813,-0.55658 -0.802683,-0.74219 -0.797648,-2.13201 0.01065,-2.9403 0.577794,-0.5778 0.845308,-0.61318 5.75468795,-0.76109 2.83179905,-0.0853 8.36341205,-0.0936 12.29247475,-0.0184 3.929063,0.0752 12.144375,0.15091 18.256251,0.16824 9.3392,0.0265 11.86193,-0.0501 15.808854,-0.47973 2.582995,-0.28117 4.693071,-0.57453 4.689058,-0.6519 -0.004,-0.0774 -0.716582,-0.615 -1.583485,-1.19473 -1.887904,-1.26251 -2.330037,-1.82589 -3.446073,-4.39114 -1.060804,-2.43828 -1.104095,-3.81015 -0.184534,-5.84778 1.126554,-2.4963 3.624606,-3.88886 6.312813,-3.51914 1.689941,0.23243 2.873784,1.05376 3.60493,2.50105 0.776472,1.537 0.750239,1.97808 -0.218077,3.66663 -0.974354,1.69909 -2.102716,2.31711 -3.402938,1.86385 -1.420196,-0.49509 -1.813878,-2.2058 -0.764636,-3.32267 l 0.575288,-0.61237 h -0.688376 c -0.813171,0 -1.785115,1.09576 -1.785115,2.01252 0,0.34002 0.281382,1.25449 0.625295,2.03213 0.546527,1.2358 0.904817,1.60138 2.84427,2.90214 1.220437,0.81853 2.571363,1.62096 3.002057,1.78318 0.430695,0.16223 1.458301,0.70513 2.283569,1.20645 0.825268,0.50133 1.563522,0.9115 1.640564,0.9115 0.320683,0 0.500068,-4.4771 0.214102,-5.34359 -0.447354,-1.3555 -1.061157,-7.93898 -1.257054,-13.48282 -0.182277,-5.15843 0.142937,-9.19096 0.852775,-10.57408 1.010056,-1.96809 5.292371,-4.62477 9.949406,-6.17245 1.641301,-0.54546 2.580541,-0.68004 4.894792,-0.70135 1.575071,-0.0145 3.161422,-0.11403 3.525224,-0.22117 0.363803,-0.10714 0.903992,-0.10786 1.200421,-0.002 0.421807,0.1512 0.719479,-0.0218 1.369412,-0.79596 0.721895,-0.85987 0.811325,-1.13176 0.684125,-2.0801 -0.14035,-1.04642 -0.168956,-1.0751 -0.700681,-0.70266 -0.763571,0.53482 -1.563859,0.48606 -2.364989,-0.14411 -1.501253,-1.18089 -1.067481,-3.09213 1.038718,-4.57672 1.109166,-0.78181 1.186512,-0.91134 1.056873,-1.76982 -0.293738,-1.94517 -0.740802,-15.87065 -0.594601,-18.52107 0.164767,-2.987 1.158028,-7.58083 1.99296,-9.21743 0.86236,-1.69037 2.55781,-3.63468 3.60121,-4.12981 0.99755,-0.47336 1.28639,-0.47158 4.87781,0.0301 0.94259,0.13168 1.46946,0.43768 2.60944,1.51553 2.26407,2.14067 3.65405,5.47969 4.14182,9.9495 0.0873,0.80036 0.56294,3.65786 1.05688,6.35 1.27054,6.9248 1.536541,9.33577 1.567191,14.20439 l 0.0269,4.28251 1.27372,0.17642 c 0.70054,0.097 1.31579,0.13433 1.36722,0.0829 0.0514,-0.0514 -0.005,-0.6292 -0.12476,-1.28393 -0.12005,-0.65473 -0.30184,-4.88135 -0.40397,-9.3925 -0.17474,-7.71838 -0.1519,-8.38932 0.38732,-11.37708 1.23651,-6.8513 2.79262,-10.9906 4.99547,-13.28813 1.69042,-1.76308 2.78909,-2.09143 5.2758,-1.57675 2.27249,0.47034 3.79207,1.24813 5.17992,2.6513 0.93222,0.94252 1.25349,1.58647 2.11395,4.23715 0.6532,2.01222 1.11814,4.08398 1.30513,5.81566 0.31383,2.90635 0.37472,16.14923 0.0849,18.46877 l -0.17735,1.41941 0.95574,0.5147 c 1.75235,0.9437 2.60963,2.85069 1.97274,4.38829 -0.53892,1.30105 -1.94153,1.72276 -3.07933,0.92581 -0.52883,-0.3704 -0.56225,-0.34257 -0.71497,0.59532 -0.10772,0.66146 -0.0544,1.01973 0.16257,1.09326 0.17753,0.0602 0.77503,0.56617 1.32779,1.12448 0.55275,0.55831 1.03017,1.01508 1.06092,1.01506 0.0308,-3e-5 0.94889,-0.17008 2.0403,-0.3779 2.45296,-0.46707 9.44638,-0.62986 10.18646,-0.23711 0.29104,0.15445 0.99094,0.36428 1.55533,0.4663 1.38829,0.25093 3.56837,1.28521 4.50024,2.13502 0.42014,0.38314 1.27021,1.58508 1.88903,2.67098 0.87963,1.54355 1.19245,2.43469 1.43361,4.084 0.16966,1.16031 0.23323,2.23139 0.14127,2.38019 -0.092,0.14879 0.0265,1.04278 0.26318,1.98664 0.23671,0.94386 0.36161,1.82738 0.27756,1.96338 -0.0841,0.136 -0.0213,1.05705 0.13945,2.04676 0.16075,0.98972 0.40199,4.35933 0.53608,7.48803 0.18726,4.3693 0.60789,10.63985 0.75876,11.31094 0.008,0.0364 1.15183,0.0661 2.54145,0.0661 h 2.52658 l 0.9661,-2.03432 c 0.71851,-1.51298 0.96944,-2.39095 0.97915,-3.42585 0.0168,-1.79619 -0.3624,-2.21155 -1.32668,-1.45304 -0.84216,0.66244 -1.45336,0.70589 -2.47781,0.17613 -0.87381,-0.45187 -1.07726,-0.8758 -1.07726,-2.24471 0,-1.20834 0.78742,-2.3091 2.0203,-2.82423 1.32941,-0.55546 2.23606,-0.44572 4.09021,0.49509 1.60287,0.8133 1.73463,0.95309 2.43151,2.57968 0.62568,1.46042 0.71855,1.98004 0.61577,3.44534 -0.0666,0.94906 -0.4293,2.54451 -0.80605,3.54547 l -0.68502,1.81991 3.37654,-0.17095 c 1.85709,-0.094 9.12845,-0.30112 16.15856,-0.46021 10.20884,-0.23104 13.53785,-0.22017 16.53646,0.054 2.06494,0.18878 4.27514,0.32301 4.91157,0.29828 1.49402,-0.058 2.58961,0.52251 3.13184,1.65959 0.51063,1.07081 0.23747,1.95307 -0.81904,2.64533 -0.60638,0.39731 -0.87837,0.39342 -3.65007,-0.0522 -2.62978,-0.42276 -4.46242,-0.47368 -15.03341,-0.41775 -6.6212,0.035 -12.63386,0.11865 -13.36146,0.1858 -0.7276,0.0672 -4.20165,0.2022 -7.72011,0.30009 l -6.39719,0.17799 -2.57685,2.61887 c -1.41727,1.44037 -2.85542,2.68877 -3.19589,2.77423 -0.7494,0.18808 -1.84723,-0.47241 -2.2483,-1.35266 -0.40942,-0.89859 -0.0877,-1.8389 1.00191,-2.92853 0.5218,-0.5218 0.89239,-1.00506 0.82353,-1.07392 -0.0688,-0.0688 -2.19412,-0.23639 -4.72281,-0.37231 -2.52869,-0.13592 -5.43106,-0.36177 -6.44971,-0.50189 -1.62847,-0.22401 -7.96859,-0.0107 -8.15871,0.27454 -0.0362,0.0543 -0.21634,0.69399 -0.40037,1.42159 -0.18402,0.7276 -0.50757,1.5884 -0.719,1.91289 -0.63577,0.97574 -5.18806,4.61195 -6.46463,5.16371 -0.65484,0.28303 -1.6747,0.74135 -2.26634,1.01848 -1.28276,0.60085 -1.76391,0.62078 -3.30892,0.13707 -0.64439,-0.20175 -1.67609,-0.50372 -2.29268,-0.67106 -1.41317,-0.38352 -2.88706,-1.86781 -3.27116,-3.29426 -0.15904,-0.59063 -0.24788,-2.03041 -0.19742,-3.19951 l 0.0917,-2.12565 -3.70416,0.0319 c -4.19395,0.0361 -8.292231,0.34729 -8.475291,0.64348 -0.0675,0.10925 0.23422,0.87728 0.67053,1.70672 0.91325,1.73612 0.99691,2.91236 0.36399,5.11779 -0.62742,2.18625 -2.00774,3.42946 -4.70123,4.23425 -1.37856,0.4119 -2.35933,0.562 -2.90678,0.44488 -0.45442,-0.0972 -1.5114,-0.27871 -2.34883,-0.4033 -3.08446,-0.45888 -6.4019,-3.3323 -7.86136,-6.80917 -0.469301,-1.11802 -0.985491,-2.6631 -1.147087,-3.43351 l -0.293812,-1.40076 h -6.16309 c -3.389699,0 -6.163089,0.0672 -6.163089,0.14937 0,0.0822 0.367453,0.45857 0.816562,0.83647 0.897017,0.75479 3.170671,3.53455 4.332607,5.29702 1.351774,2.05044 1.914572,6.08211 1.002394,7.18078 -0.551347,0.66406 -1.828248,0.92019 -2.615649,0.52465 z m 22.917954,-6.79455 c 0.64638,-0.31342 0.99451,-0.70681 1.16579,-1.31734 0.21584,-0.76934 0.0993,-1.14533 -1.00314,-3.23621 -0.68605,-1.30116 -1.59761,-2.71599 -2.02569,-3.14407 -0.908,-0.908 -0.99199,-1.79896 -0.25762,-2.73256 0.61813,-0.78583 2.30262,-1.14578 3.27935,-0.70076 0.48801,0.22236 1.51408,0.2142 4.04919,-0.0322 1.867551,-0.18151 4.943361,-0.37247 6.835131,-0.42434 1.89177,-0.0519 4.53385,-0.21533 5.87129,-0.36324 3.47488,-0.3843 4.31517,0.0632 4.31517,2.29805 0,0.74633 -0.21854,1.28056 -0.82459,2.01581 -0.74071,0.89862 -0.82818,1.19197 -0.8599,2.88414 l -0.0353,1.88377 1.52233,0.45659 c 0.83728,0.25112 1.58645,0.35284 1.66482,0.22604 0.0784,-0.1268 0.63103,-0.3621 1.22816,-0.52288 1.45587,-0.39203 5.27243,-3.45689 5.69006,-4.56937 0.52163,-1.38949 0.42181,-3.62349 -0.20806,-4.65668 -1.1758,-1.9287 -4.57187,-5.32 -6.00849,-6.00005 -0.77156,-0.36524 -1.46891,-0.83624 -1.54966,-1.04667 -0.2001,-0.52145 -0.68765,-0.48017 -3.00062,0.25409 -3.20252,1.01664 -8.45531,1.54811 -14.067801,1.42336 -4.32255,-0.0961 -5.14363,-0.18958 -7.55106,-0.85982 l -2.70115,-0.75201 -1.07271,0.90037 c -2.86661,2.40605 -3.40496,2.96226 -4.09593,4.23179 -0.70147,1.28883 -0.73398,1.49079 -0.56608,3.51589 0.42679,5.14773 1.8957,8.52008 4.25785,9.77525 1.29359,0.68738 3.47136,1.21449 4.36563,1.05666 0.3638,-0.0642 1.07617,-0.31783 1.58303,-0.56361 z m -20.487534,-11.42416 5.569459,-0.003 0.314814,-1.52135 c 0.489231,-2.36423 3.062752,-6.04105 5.173001,-7.39073 l 1.01631,-0.65001 -1.56079,-1.6351 c -1.28175,-1.34277 -1.951113,-2.3097 -3.362686,-4.85756 -0.01446,-0.0261 -0.588472,0.0724 -1.275578,0.21899 -0.739347,0.15768 -2.121359,0.8468 -3.385765,1.68825 -1.175065,0.782 -2.365629,1.49454 -2.645699,1.58343 -0.696929,0.2212 -1.873657,-0.38995 -2.334742,-1.21258 -0.620018,-1.10619 -0.211736,-1.96403 1.468132,-3.08468 0.822832,-0.54892 1.913722,-1.2809 2.4242,-1.62664 0.510479,-0.34573 1.651347,-0.8875 2.535264,-1.20392 1.836699,-0.6575 2.105867,-1.25243 0.672093,-1.48548 -0.514265,-0.0836 -1.055764,-0.2266 -1.20333,-0.3178 -0.147566,-0.0912 -1.45321,0.0651 -2.90143,0.34723 -1.448221,0.28218 -3.407035,0.58496 -4.35292,0.67286 -1.509386,0.14027 -1.80881,0.0892 -2.447396,-0.41737 -1.579856,-1.25326 -0.571683,-3.71379 1.521683,-3.71379 0.470255,0 2.441049,-0.29886 4.379542,-0.66414 1.971213,-0.37144 3.893468,-0.59493 4.361658,-0.5071 l 0.837124,0.15705 0.174619,-2.07259 c 0.09604,-1.13992 0.248219,-2.47254 0.338172,-2.96137 l 0.163552,-0.88877 -3.143123,0.12422 c -2.825077,0.11165 -3.371209,0.21743 -5.397205,1.04537 -2.412969,0.98608 -3.936852,1.8649 -5.061227,2.91878 -0.616467,0.57782 -0.724383,0.93969 -0.897475,3.00945 -0.363595,4.3477 0.404501,16.47179 1.221823,19.28598 0.190515,0.65597 0.244165,1.82025 0.141117,3.06244 -0.09144,1.10225 -0.07591,2.09499 0.0345,2.20607 0.110417,0.11109 0.617476,0.13328 1.126799,0.0493 0.509323,-0.0839 3.432299,-0.15395 6.495501,-0.15555 z m 69.605905,-3.11177 c -0.096,-1.56435 -0.23836,-4.63021 -0.3163,-6.81302 -0.0779,-2.18281 -0.25425,-4.98078 -0.39182,-6.21771 -0.13757,-1.23693 -0.25046,-2.86628 -0.25087,-3.6208 -4.1e-4,-0.75451 -0.13009,-1.70701 -0.28819,-2.11666 -0.15809,-0.40966 -0.34107,-1.87233 -0.40663,-3.2504 -0.10787,-2.26749 -0.20894,-2.66605 -1.06374,-4.19456 -0.76894,-1.37501 -1.15744,-1.78318 -2.08973,-2.19557 -1.7872,-0.79057 -3.43483,-1.03467 -6.86808,-1.01751 -2.86007,0.0143 -3.81963,0.0934 -4.81502,0.39677 -0.22859,0.0697 -0.14252,0.63584 0.30838,2.02843 0.34402,1.06247 0.70006,2.27001 0.7912,2.68342 0.12753,0.57842 0.26988,0.70895 0.61766,0.56634 0.24857,-0.10192 1.58304,-0.36533 2.96549,-0.58536 1.38245,-0.22003 2.82957,-0.56418 3.21582,-0.76478 0.97362,-0.50566 1.62295,-0.45673 2.43704,0.18363 0.92413,0.72693 0.97323,2.27502 0.0982,3.09705 -0.83046,0.78019 -2.36978,1.38044 -3.55976,1.38814 -1.19759,0.008 -2.96725,0.38692 -4.50642,0.96558 -1.88602,0.70906 -1.54451,1.16892 1.98438,2.67201 1.70987,0.72829 3.40651,1.41063 3.77031,1.5163 1.75433,0.50956 2.40496,2.28682 1.2768,3.48769 -0.9251,0.98472 -2.17328,0.80805 -6.08135,-0.8608 -1.8974,-0.81024 -3.47646,-1.43532 -3.50902,-1.38906 -0.0326,0.0463 -0.27747,0.67243 -0.54425,1.3915 -0.57446,1.54844 -2.05806,3.23628 -3.86243,4.39414 -0.71647,0.45975 -1.30267,0.93015 -1.30267,1.04533 0,0.11519 0.60199,0.59572 1.33775,1.06786 0.73576,0.47213 1.65353,1.28822 2.03949,1.81351 0.38595,0.5253 1.32552,1.6243 2.08792,2.44222 0.7624,0.81792 1.70011,2.12761 2.08379,2.91042 l 0.69761,1.42329 4.27724,-0.0783 c 2.35249,-0.0431 4.93209,0.0323 5.73245,0.1675 0.80037,0.13522 2.09739,0.25977 2.88227,0.27678 l 1.42706,0.0309 z m -34.81578,-7.36522 c 4.4969,-0.62277 7.21234,-1.58754 10.3312,-3.67059 2.87737,-1.92175 3.0584,-2.16382 4.25428,-5.68868 1.07109,-3.15702 1.185,-4.70675 0.53556,-7.28645 -1.16315,-4.62021 -1.2398,-4.74087 -5.10605,-8.03821 -0.81938,-0.69882 -0.98252,-1.03041 -1.15174,-2.34108 -0.25361,-1.96431 -0.1976,-3.44339 0.15537,-4.10292 0.18077,-0.33779 0.18925,-0.61451 0.0239,-0.77988 -0.14098,-0.14097 -1.67006,-0.32179 -3.39795,-0.40182 -3.61053,-0.16721 -4.33226,-0.51861 -4.33226,-2.10929 0,-1.88203 1.48114,-2.40989 5.73031,-2.04223 2.30163,0.19915 2.75382,0.17562 2.87869,-0.14984 0.31101,-0.81059 0.39904,-10.96375 0.13218,-15.2443 -0.23281,-3.73423 -0.41419,-4.91735 -1.09214,-7.12376 -0.94975,-3.09097 -1.79364,-4.08629 -3.86854,-4.56273 -1.0824,-0.24854 -1.3384,-0.22651 -1.7574,0.15121 -1.40954,1.27068 -2.79536,5.07705 -3.87145,10.63357 -0.55815,2.88204 -0.5794,3.45355 -0.413,11.10816 0.10986,5.05333 0.3206,8.93244 0.56381,10.37759 0.41972,2.49408 0.32971,3.36452 -0.41789,4.04108 -0.72057,0.65211 -2.77453,0.84994 -5.29597,0.51008 -1.23862,-0.16694 -2.618511,-0.24975 -3.066431,-0.18401 -0.60182,0.0883 -1.01525,-0.0532 -1.58386,-0.54233 l -0.76946,-0.66187 -0.0241,-6.04266 c -0.0251,-6.30069 -0.072,-6.76162 -1.54306,-15.1708 -0.49641,-2.83766 -1.03286,-6.09948 -1.19212,-7.24849 -0.317,-2.28714 -1.34095,-4.92654 -2.33331,-6.0145 -0.82224,-0.90146 -2.85739,-1.20582 -3.60183,-0.53866 -0.7435,0.66633 -1.39454,2.10053 -2.07185,4.56417 -0.57516,2.09212 -0.61016,2.66382 -0.58179,9.50429 0.0166,4.00305 0.11809,8.56789 0.22552,10.14409 0.18816,2.7606 0.2162,2.86027 0.76357,2.71471 0.31252,-0.0831 1.54925,-0.35611 2.74828,-0.60667 2.14672,-0.44859 2.1912,-0.44725 2.91041,0.0876 0.54528,0.40554 0.75034,0.80818 0.80917,1.58877 0.10281,1.36421 -0.45125,1.86272 -2.63237,2.36849 -0.92387,0.21423 -2.11744,0.50629 -2.65239,0.64901 l -0.97262,0.25951 0.12284,3.03137 c 0.13574,3.34998 -0.017,3.90343 -1.45447,5.26999 -0.44582,0.42383 -1.19122,1.67399 -1.65644,2.77813 -1.787969,4.24348 -1.116695,10.17386 1.68738,14.90717 1.73047,2.92106 3.83862,4.37567 7.99342,5.51538 2.41576,0.66266 3.08833,0.73162 7.30169,0.74858 2.891941,0.0117 5.783461,-0.13955 7.672911,-0.40122 z m -6.07501,-3.43945 c -1.02279,-0.86063 -1.815261,-3.28167 -1.384,-4.22819 0.51753,-1.13585 1.44236,-1.50763 3.46595,-1.39329 1.48999,0.0842 1.96828,0.22448 2.51434,0.73748 1.02481,0.96275 0.92056,2.25508 -0.30924,3.83357 -1.4798,1.8994 -2.87254,2.24065 -4.28705,1.05043 z m -12.649611,-5.34209 c -0.32453,-0.0519 -0.81791,-0.38408 -1.09642,-0.73814 -0.2785,-0.35406 -0.62944,-0.64375 -0.77986,-0.64375 -0.39097,0 -2.05746,-2.84697 -2.40056,-4.10104 -0.62365,-2.2795 -0.0509,-5.10472 1.5898,-7.84149 1.2012,-2.00372 1.52776,-2.33801 3.05538,-3.12776 1.4882,-0.76937 5.77047,-1.21907 7.54798,-0.79265 2.55595,0.61316 4.857091,3.45571 5.622021,6.94477 0.19801,0.90317 0.37198,1.32681 0.38659,0.94142 0.0146,-0.38539 0.55866,-1.76361 1.20899,-3.06272 1.28921,-2.57531 3.56896,-5.07169 4.68872,-5.13425 3.11802,-0.1742 7.34348,1.0668 9.03486,2.65349 1.27027,1.19165 2.44001,3.46013 2.97604,5.77144 0.45272,1.95207 0.34536,3.07446 -0.44163,4.61709 -0.27889,0.54668 -0.50708,1.39466 -0.50708,1.88442 0,1.08902 -0.90848,2.03763 -2.00932,2.0981 -0.42284,0.0232 -1.7213,-0.14856 -2.88547,-0.38173 -4.56575,-0.9145 -6.03768,-1.06712 -7.22031,-0.74868 -0.61945,0.1668 -1.24259,0.23139 -1.38475,0.14353 -0.14217,-0.0879 -0.25848,-0.0301 -0.25848,0.12837 0,0.59165 -1.66281,-0.96178 -2.23891,-2.09164 l -0.59825,-1.17329 -0.30308,0.91835 c -0.1667,0.50509 -0.71386,1.34126 -1.21591,1.85815 -0.90199,0.92864 -0.93091,0.93735 -2.434591,0.73329 -0.83696,-0.11358 -2.44294,-0.14882 -3.56882,-0.0783 -1.84172,0.11532 -2.80044,0.30768 -5.38315,1.08006 -0.43656,0.13056 -1.05927,0.1949 -1.38379,0.14298 z m 1.94139,-4.82147 c 0.32809,0 0.32504,-0.11021 -0.0216,-0.78061 -0.56976,-1.1018 -0.50209,-1.98588 0.21591,-2.82061 0.46179,-0.53686 0.83241,-0.70627 1.45521,-0.66519 1.70967,0.11278 2.04501,0.10256 2.84298,-0.0867 0.65878,-0.15624 0.96437,-0.0667 1.58016,0.46298 0.67169,0.57777 0.75656,0.81473 0.70622,1.97183 -0.0553,1.27058 -0.0349,1.31086 0.60265,1.18899 0.36292,-0.0694 0.65987,-0.17174 0.65987,-0.22747 0,-0.72948 -0.92978,-5.15339 -1.18808,-5.65288 -0.61533,-1.18991 -2.0575,-2.1204 -2.40784,-1.55354 -0.11195,0.18114 -0.764,0.21711 -1.84226,0.10164 -1.0285,-0.11014 -1.87159,-0.0703 -2.19694,0.10382 -0.90813,0.48602 -2.18927,2.68054 -2.48116,4.25009 -0.24269,1.30501 -0.20833,1.63372 0.28814,2.75606 0.41894,0.9471 0.67168,1.23289 0.98422,1.11295 0.23129,-0.0888 0.59244,-0.16137 0.80256,-0.16137 z m 25.452541,-1.21281 c 0.56159,-0.86675 0.5867,-1.05462 0.31554,-2.36078 -0.40411,-1.9466 -1.52788,-3.55351 -2.78809,-3.98674 -1.21305,-0.41703 -4.09052,-0.55303 -4.67488,-0.22096 -0.66626,0.37861 -1.99418,3.02702 -2.19494,4.37759 -0.218,1.46654 0.15143,2.36027 0.89523,2.16576 0.42115,-0.11013 0.48119,-0.30426 0.3641,-1.17727 -0.11358,-0.84674 -0.024,-1.16909 0.47131,-1.69634 0.67102,-0.71426 1.77213,-0.85108 2.7195,-0.3379 0.31786,0.17218 1.01591,0.28275 1.55124,0.24572 1.31642,-0.0911 2.06939,0.66265 2.06939,2.07145 0,0.57349 -0.121,1.1175 -0.2689,1.20891 -0.14789,0.0914 -0.2004,0.27702 -0.11668,0.41249 0.3211,0.51953 1.07178,0.20157 1.65718,-0.70193 z M 48.645982,126.30583 c -0.582083,-0.38954 -1.355989,-0.976 -1.719792,-1.30324 -0.363802,-0.32725 -1.348545,-0.98012 -2.188317,-1.45083 -1.723055,-0.9658 -7.235137,-5.96988 -8.296612,-7.53198 -0.383337,-0.56414 -1.246906,-2.34849 -1.919044,-3.96523 l -1.222069,-2.93953 0.05621,-7.31818 0.05621,-7.318176 -1.379128,-0.32447 c -1.695096,-0.3988 -6.147982,-2.15182 -8.164616,-3.21426 -3.146824,-1.65785 -3.57895,-2.48503 -5.506603,-10.54077 -0.475582,-1.98748 -0.539587,-3.11105 -0.535058,-9.39271 0.0082,-11.36982 0.46598,-13.26364 4.095898,-16.94448 1.29442,-1.31258 2.201179,-1.9095 4.911565,-3.23325 4.904601,-2.3954 8.090783,-3.37147 14.031008,-4.29833 2.796051,-0.43627 6.404843,-1.02358 8.019537,-1.30513 3.300332,-0.57546 6.360875,-0.93279 11.402474,-1.33128 1.891771,-0.14953 5.880365,-0.56659 8.863542,-0.9268 11.754853,-1.41938 13.564378,-1.51533 27.684708,-1.46796 7.295705,0.0245 14.260865,0.15846 15.478135,0.29773 1.21726,0.13928 8.04727,0.36558 15.17779,0.50289 20.73836,0.39935 35.93255,1.05641 40.34896,1.74487 5.70582,0.88946 8.53972,1.20916 12.3601,1.39437 3.5632,0.17274 4.11674,0.26245 4.81793,0.78086 0.43572,0.32214 0.87509,0.58571 0.97639,0.58571 0.10129,0 0.57442,0.29765 1.05139,0.66146 0.47697,0.3638 0.98319,0.66145 1.12493,0.66145 0.14175,0 0.79505,0.59765 1.45179,1.3281 2.31114,2.57053 4.70408,7.81962 5.0636,11.10732 0.10343,0.94589 0.50498,3.08901 0.89232,4.7625 0.5449,2.35422 0.70097,3.70127 0.68975,5.95313 -0.022,4.40207 -0.41731,6.07722 -2.4354,10.31875 -2.00629,4.21673 -3.81335,7.02744 -5.54326,8.62202 -1.499,1.38173 -5.48436,3.27656 -10.44048,4.9639 -5.00708,1.70469 -7.67462,2.30551 -13.06674,2.94311 -2.46562,0.29154 -5.19732,0.66686 -6.07045,0.83403 -0.87312,0.16717 -4.02828,0.33378 -7.01146,0.37025 -2.98317,0.0365 -7.56708,0.15467 -10.18645,0.26266 -3.90441,0.16097 -5.38224,0.11176 -8.20209,-0.27312 -2.96897,-0.40523 -4.45319,-0.44192 -10.84791,-0.26814 -4.07459,0.11072 -14.01631,0.23228 -22.09271,0.27013 -11.765205,0.0551 -15.105165,-0.006 -16.801055,-0.30746 -1.16416,-0.20695 -3.962131,-0.43119 -6.217704,-0.49831 -2.255573,-0.0671 -5.88698,-0.29617 -8.069792,-0.50903 -11.589501,-1.13013 -20.652871,-1.47356 -22.169145,-0.84002 -0.845091,0.3531 -0.965012,0.53665 -1.251134,1.91489 -0.174051,0.8384 -0.303903,2.426486 -0.288561,3.529096 0.03611,2.59496 1.187263,8.30135 2.16948,10.75432 0.423262,1.05704 0.769567,2.12521 0.769567,2.37369 0,0.54852 1.468206,3.98386 2.935433,6.86839 0.896767,1.76303 1.033428,2.229 0.817963,2.789 -0.600069,1.5596 -2.089418,1.93308 -3.621104,0.90806 z m -4.238384,-9.45174 c -0.182851,-0.76399 -0.570281,-1.93262 -0.860956,-2.59697 -0.290676,-0.66434 -0.899346,-2.99085 -1.352601,-5.17 -1.01055,-4.85851 -1.097744,-8.21022 -0.295217,-11.348076 0.894807,-3.49866 1.615883,-4.24101 4.762783,-4.90335 1.701572,-0.35814 8.893069,-0.23805 14.287501,0.23858 1.964531,0.17358 4.941093,0.43608 6.614583,0.58334 1.67349,0.14726 5.492724,0.37421 8.487186,0.50433 2.994463,0.13013 6.506812,0.41217 7.805212,0.62677 1.92177,0.31762 5.06654,0.37641 16.912811,0.31619 8.00365,-0.0407 17.8263,-0.16589 21.82813,-0.27823 6.10223,-0.17131 7.85227,-0.13278 10.84791,0.23881 4.98684,0.61858 20.98811,0.25571 27.38438,-0.62102 10.88276,-1.49168 15.56483,-2.71504 21.72162,-5.67557 2.81281,-1.35256 3.05922,-1.53596 4.25803,-3.16916 0.69984,-0.95344 2.07852,-3.44862 3.06374,-5.54485 1.55016,-3.29826 1.83023,-4.12763 2.08054,-6.16101 0.31763,-2.58025 0.17381,-5.00615 -0.4295,-7.24447 -0.21572,-0.80037 -0.57841,-2.70537 -0.80596,-4.23334 -0.22755,-1.52796 -0.69562,-3.55203 -1.04016,-4.49791 -1.01113,-2.77593 -3.04637,-6.08542 -3.74235,-6.08542 -0.17975,0 -0.66337,-0.26789 -1.07472,-0.59531 -1.50068,-1.19451 -2.37565,-1.52116 -4.09602,-1.52919 -2.29164,-0.0107 -8.12716,-0.63573 -12.13001,-1.29925 -4.8693,-0.80715 -28.19122,-1.85891 -41.93646,-1.89125 -3.92906,-0.009 -8.5725,-0.12843 -10.31875,-0.26488 -1.74625,-0.13644 -9.00906,-0.35287 -16.13959,-0.48096 -10.328151,-0.18553 -14.010091,-0.15762 -18.105851,0.13724 -4.746295,0.34168 -13.909323,1.30394 -14.834771,1.55787 -0.218282,0.0599 -2.778125,0.29794 -5.688542,0.529 -5.964588,0.47352 -10.799117,1.04877 -13.383955,1.5925 -0.96084,0.20212 -3.52174,0.61934 -5.690889,0.92716 -6.216265,0.88212 -9.352207,1.81853 -14.066275,4.20029 -2.881022,1.45562 -4.036925,2.38283 -5.01695,4.02437 -1.172158,1.96335 -1.385645,3.80349 -1.3919,11.99734 -0.0056,7.29356 0.07934,7.99038 1.656972,13.59853 0.636363,2.26214 0.993789,2.56706 4.863891,4.14945 2.772449,1.13358 3.241136,1.28425 6.161437,1.98069 2.847158,0.679 3.563948,1.27632 3.328461,2.77369 -0.284222,1.80727 -0.616198,7.513586 -0.643802,11.066296 -0.02614,3.36432 -0.01708,3.41755 1.057834,6.2177 1.0679,2.78187 1.122283,2.86113 3.61727,5.27173 1.393188,1.34607 2.556543,2.4474 2.585232,2.4474 0.02869,0 -0.09744,-0.62508 -0.280294,-1.38906 z M 170.48661,89.062904 c -1.00555,-0.50602 -1.0231,-1.7391 -0.0397,-2.7918 0.94523,-1.01187 1.1918,-1.03119 2.06147,-0.16151 0.81364,0.81364 0.69609,1.78481 -0.32666,2.69866 -0.77196,0.68977 -0.81698,0.69653 -1.69508,0.25465 z m -57.53102,-0.96474 c -0.48991,-0.54133 -1.17536,-2.23937 -1.19487,-2.95999 -0.0165,-0.60964 -2.65011,-0.96634 -3.04563,-0.41251 -0.1503,0.21046 -0.66295,0.93971 -1.13921,1.62055 -0.76362,1.09162 -0.96613,1.22815 -1.71376,1.15544 -1.24603,-0.12119 -1.68365,-1.11049 -0.97001,-2.19283 0.29013,-0.44003 0.82956,-1.39536 1.19873,-2.12296 1.24205,-2.44801 3.91685,-6.23484 4.50915,-6.38378 1.59544,-0.40122 3.02606,2.09099 3.89233,6.78065 0.2016,1.09141 0.52323,2.36294 0.71472,2.82562 0.49262,1.19025 0.0195,2.20146 -1.03,2.20146 -0.41713,0 -0.96678,-0.23024 -1.22145,-0.51165 z m -2.00023,-6.78 c 0,-0.22687 -0.11906,-0.33891 -0.26458,-0.24897 -0.14552,0.0899 -0.26459,0.27556 -0.26459,0.41249 0,0.13693 0.11907,0.24897 0.26459,0.24897 0.14552,0 0.26458,-0.18562 0.26458,-0.41249 z m -54.768753,6.86623 c -3.299371,-0.58352 -4.811399,-1.42427 -5.57121,-3.0978 -1.182188,-2.60386 -0.08782,-6.01476 2.131627,-6.64378 1.918734,-0.5438 2.457703,-0.60046 3.532189,-0.37129 2.242918,0.47837 4.253053,2.82548 5.05397,5.90121 0.505356,1.9407 0.213263,3.1285 -0.912492,3.71065 -0.80267,0.41508 -3.149674,0.69279 -4.234084,0.50101 z m 2.373797,-3.34489 c -0.01085,-0.86676 -1.100035,-2.86124 -1.855141,-3.39707 -1.194963,-0.84797 -1.802072,-0.88171 -2.149374,-0.11946 -0.171647,0.37672 -0.595789,0.75615 -0.942539,0.84318 -0.516524,0.12964 -0.615906,0.30307 -0.549953,0.95969 0.133811,1.33218 1.874345,2.18659 4.644565,2.27998 0.725975,0.0245 0.858735,-0.0637 0.852442,-0.56632 z m 79.699956,2.82109 c -2.37501,-1.18352 -2.48821,-1.46343 -2.39646,-5.92571 0.0434,-2.11238 -0.0125,-4.07882 -0.12433,-4.36986 -0.12609,-0.3282 -0.0653,-0.71727 0.16015,-1.02446 0.31667,-0.43154 0.7866,-0.50315 3.65069,-0.55627 4.02148,-0.0746 4.72949,0.18985 4.7384,1.76986 0.005,0.88694 -0.68332,1.29821 -2.03951,1.2186 -0.54953,-0.0323 -1.50516,-0.0348 -2.12363,-0.006 -1.0089,0.0476 -1.12448,0.12106 -1.12448,0.71453 0,0.63011 0.0733,0.66146 1.5465,0.66146 1.66834,0 2.42225,0.46723 2.42225,1.50118 0,0.90234 -0.81112,1.37281 -2.51774,1.46033 -1.4986,0.0769 -1.5877,0.11931 -1.66556,0.79367 -0.0653,0.56578 0.0818,0.79731 0.71447,1.12448 1.05518,0.54566 1.01765,0.55314 2.66323,-0.53061 1.61985,-1.0668 2.48095,-1.05768 2.97722,0.0315 0.41657,0.91426 -0.29197,1.81268 -2.31896,2.94038 -1.89913,1.05657 -2.76173,1.09372 -4.56224,0.19649 z m -42.222021,-0.44999 c -0.333,-0.333 -0.93578,-1.16911 -1.33951,-1.85802 -0.66001,-1.12622 -0.72309,-1.44542 -0.62541,-3.16485 0.1404,-2.47154 1.36127,-5.69537 2.29066,-6.04873 0.34793,-0.13228 1.779,-0.29141 3.18017,-0.35363 2.972551,-0.13198 3.738191,0.16446 3.738191,1.44736 0,1.13518 -0.9123,1.65607 -2.55263,1.45746 -1.632281,-0.19764 -2.760101,0.12553 -3.035421,0.86978 -0.20803,0.56238 -0.15616,0.58318 1.45453,0.58318 1.854201,0 2.546021,0.44062 2.546021,1.62156 0,1.06429 -0.47021,1.28885 -2.698751,1.28885 -2.25191,0 -2.4524,0.17339 -1.50985,1.30576 0.5161,0.62003 0.58802,0.63204 1.90943,0.31867 2.544501,-0.6034 2.829581,-0.62986 3.227641,-0.2995 0.55136,0.45759 0.49192,1.67985 -0.10811,2.22287 -0.65356,0.59147 -2.994171,1.20758 -4.602701,1.21156 -0.97201,0.002 -1.41042,-0.13848 -1.87426,-0.60232 z m 54.604521,0.18364 c -1.28401,-0.55617 -2.38125,-1.67274 -2.38125,-2.4232 0,-1.09203 0.47289,-1.6525 1.39837,-1.65735 l 0.85059,-0.004 -0.85083,-0.54495 c -1.01321,-0.64896 -1.92957,-2.04005 -1.92148,-2.91695 0.009,-0.99087 0.94013,-2.79335 1.69994,-3.29119 0.57336,-0.37568 1.03784,-0.4219 2.71376,-0.27003 1.1121,0.10078 2.24961,0.30505 2.52781,0.45393 0.743,0.39764 1.33664,1.96199 0.99019,2.60934 -0.61819,1.15509 -2.09581,1.29236 -2.65544,0.24668 -0.32939,-0.61546 -1.97049,-0.71965 -2.19322,-0.13923 -0.17051,0.44434 0.2595,0.82839 2.23154,1.99305 1.79757,1.06161 2.47303,2.069 2.23566,3.3343 -0.23149,1.23394 -1.30965,2.43308 -2.47983,2.75808 -1.18595,0.32939 -1.0407,0.33932 -2.16581,-0.14802 z m 1.58583,-2.96723 c -9.2e-4,-0.10055 -0.35988,-0.38666 -0.79768,-0.63579 -0.79449,-0.45211 -0.79542,-0.45185 -0.48789,0.13229 0.16947,0.32189 0.43345,0.6667 0.58661,0.76624 0.29675,0.19284 0.70173,0.0406 0.69896,-0.26274 z m -88.021986,2.43737 c -0.615186,-0.61519 -0.667893,-0.82733 -0.544269,-2.19067 0.07646,-0.84319 -0.03244,-2.38067 -0.246706,-3.48306 -0.210971,-1.08545 -0.405783,-2.256 -0.432915,-2.60123 -0.111517,-1.41892 2.224096,-2.15044 6.865948,-2.15044 2.389235,0 2.810093,0.0681 3.271179,0.52917 1.077729,1.07773 0.27801,2.91041 -1.27,2.91041 -0.407458,0 -0.865236,-0.1244 -1.017285,-0.27645 -0.159947,-0.15994 -1.157898,-0.24357 -2.368021,-0.19844 -2.023189,0.0755 -2.091569,0.0992 -2.091569,0.72755 0,0.7957 0.622673,1.00698 3.076457,1.04389 1.961695,0.0295 2.437003,0.34471 2.300474,1.52559 -0.118639,1.02614 -1.056835,1.45503 -2.929535,1.33922 -1.495167,-0.0925 -1.521354,-0.0819 -1.521354,0.61128 0,0.89387 -1.003036,2.38226 -1.80094,2.6724 -0.481292,0.17501 -0.754314,0.0779 -1.291464,-0.45922 z m 21.248105,0.0814 c -0.58576,-0.58576 -0.60161,-0.72483 -0.48262,-4.23333 l 0.12303,-3.62768 h -1.58101 c -1.19563,0 -1.68774,-0.11794 -2.018885,-0.48385 -0.517085,-0.57137 -0.575785,-1.7214 -0.107153,-2.09929 0.181901,-0.14667 2.450058,-0.35289 5.040358,-0.45826 4.29066,-0.17454 4.75552,-0.15005 5.22552,0.27529 0.28374,0.25678 0.51589,0.73758 0.51589,1.06843 0,1.05759 -0.66909,1.4331 -2.55352,1.4331 h -1.72198 l 0.0872,3.72696 0.0872,3.72696 -0.74236,0.63866 c -0.91769,0.78951 -1.1118,0.79294 -1.87173,0.033 z m 40.194371,-0.44224 c -0.35325,-0.39034 -0.42255,-0.73414 -0.27998,-1.38906 0.33569,-1.54203 0.4483,-4.59001 0.20399,-5.52133 -0.22303,-0.8502 -0.29738,-0.89988 -1.2226,-0.81697 -1.71625,0.1538 -2.81425,-1.08818 -2.04125,-2.30892 0.33798,-0.53375 2.3199,-0.78834 6.27671,-0.8063 2.48739,-0.0113 3.68491,-0.12442 4.21209,-0.39792 1.32234,-0.68604 2.56216,0.55124 1.91249,1.90856 -0.4525,0.94536 -1.68774,1.35033 -4.1761,1.36914 l -1.98438,0.015 v 3.51732 c 0,2.92167 -0.0794,3.63857 -0.46912,4.23327 -0.56977,0.86956 -1.73767,0.96427 -2.43185,0.19721 z m 33.77785,-0.0634 c -0.19806,-0.19806 -0.3175,-1.17948 -0.3175,-2.6089 0,-3.5709 -0.22612,-4.74499 -0.96818,-5.02712 -0.85578,-0.32537 -1.29508,-1.33235 -0.90182,-2.06718 0.16562,-0.30945 0.38622,-0.57059 0.49024,-0.58032 1.65975,-0.15518 5.98346,-0.11338 6.73307,0.0651 1.31475,0.31302 1.88352,1.36221 1.26519,2.33385 -0.18386,0.28892 -0.74053,0.39687 -2.04647,0.39687 h -1.79391 v 3.64554 c 0,2.95164 -0.0755,3.6937 -0.39687,3.89855 -0.55461,0.35358 -1.68467,0.32271 -2.06375,-0.0564 z m 10.91992,-2.69933 c -0.34696,-0.52953 -0.39186,-1.22485 -0.26906,-4.16719 0.13217,-3.16687 0.20491,-3.57942 0.70425,-3.99463 0.69995,-0.58201 0.82675,-0.57845 1.59339,0.0447 0.6099,0.49576 0.62309,0.59712 0.55961,4.29948 -0.055,3.20935 -0.13391,3.84255 -0.51359,4.12248 -0.71259,0.52538 -1.61777,0.39237 -2.0746,-0.30485 z m -68.29628,-13.10192 c -1.85151,-0.12088 -2.552991,-0.27634 -2.976561,-0.65966 -0.6791,-0.61458 -0.71396,-1.5158 -0.0808,-2.08881 0.41515,-0.37571 0.84635,-0.3967 3.505731,-0.17067 1.66779,0.14176 6.09843,0.24215 9.84585,0.22311 5.0856,-0.0258 6.91403,0.0488 7.2099,0.29435 0.55727,0.46249 0.49276,1.49073 -0.13277,2.11626 -0.50551,0.50551 -0.8515,0.52726 -7.73907,0.48637 -3.96544,-0.0235 -8.29997,-0.11396 -9.63229,-0.20095 z m -65.530786,-0.76515 c -0.554209,-0.61239 -0.592161,-1.35788 -0.335885,-6.59787 l 0.210277,-4.29948 h -0.669944 c -0.368469,0 -0.991422,0.12223 -1.384339,0.27161 -0.988341,0.37577 -1.965886,-0.26819 -1.965886,-1.29503 0,-1.03574 0.678791,-1.53423 2.38125,-1.74873 2.063648,-0.26001 7.432622,-1.15073 8.108888,-1.34528 0.763009,-0.2195 1.638604,0.28573 1.832235,1.05721 0.152679,0.60833 0.181692,0.61496 0.896174,0.2049 0.680717,-0.39067 0.7916,-0.38891 1.41971,0.0226 0.746493,0.48912 1.232935,1.84734 1.235268,3.44904 l 0.0015,1.01325 1.785938,-0.18012 c 1.996851,-0.20138 2.447396,-0.54661 2.447396,-1.8753 0,-1.21448 0.24202,-1.69538 0.99784,-1.98275 0.487787,-0.18545 0.824918,-0.14399 1.286057,0.15816 l 0.624972,0.40949 -0.05429,5.84522 c -0.05328,5.73562 -0.06542,5.85252 -0.64773,6.23406 -0.73804,0.48358 -1.554033,0.25046 -2.113836,-0.60391 -0.332518,-0.50748 -0.397933,-1.14874 -0.308341,-3.02264 l 0.113718,-2.3785 -1.073673,0.003 c -2.085461,0.006 -3.054274,0.2868 -3.216571,0.93344 -0.08568,0.34138 0.02878,0.87556 0.264804,1.23577 0.793906,1.21166 -0.315842,3.38412 -1.728689,3.38412 -1.419085,0 -1.600041,-0.71411 -1.418106,-5.59633 0.130958,-3.51428 0.08602,-4.52403 -0.239618,-5.38387 -0.220445,-0.58209 -0.406034,-0.92395 -0.412421,-0.75971 -0.01623,0.41722 -1.146151,0.80813 -3.34509,1.15727 l -1.878268,0.29822 -0.17118,3.35628 c -0.09415,1.84595 -0.171663,4.33003 -0.172253,5.52018 -8e-4,1.61333 -0.106862,2.26971 -0.416847,2.57969 -0.556171,0.55617 -1.518966,0.52618 -2.053032,-0.064 z m 134.290276,-2.15118 c -0.97471,-0.89026 -0.99497,-1.08864 -0.44735,-4.38054 0.21787,-1.30969 0.38055,-3.62289 0.3615,-5.14044 -0.0419,-3.33804 0.10765,-3.54373 2.38828,-3.28477 0.81129,0.0921 1.71319,0.25746 2.00423,0.36742 1.20632,0.45578 2.69379,1.83679 3.42305,3.17806 1.89204,3.47989 0.2985,7.57311 -3.70502,9.51683 -1.60465,0.77906 -2.98733,0.69092 -4.02469,-0.25656 z m 4.63892,-3.81821 c 0.98314,-1.11973 1.26377,-2.24436 0.86303,-3.45861 -0.30905,-0.93643 -1.9848,-2.64329 -2.36464,-2.40854 -0.11639,0.0719 -0.2868,1.17588 -0.37868,2.45322 -0.0919,1.27734 -0.24389,2.95897 -0.33781,3.73696 l -0.17075,1.41453 0.79058,-0.40883 c 0.43482,-0.22485 1.15404,-0.82278 1.59827,-1.32873 z m -55.9172,3.97079 c -0.94959,-0.43022 -1.96194,-1.6175 -1.96194,-2.30095 0,-1.21429 2.08423,-1.82633 2.64584,-0.77697 0.31401,0.58675 1.30724,0.7036 1.79916,0.21167 0.17463,-0.17462 0.3175,-0.90174 0.3175,-1.61581 0,-1.13842 -0.057,-1.27298 -0.46302,-1.0927 -0.25466,0.11308 -0.97764,0.25756 -1.60661,0.32105 -1.84874,0.18664 -2.54517,-0.70275 -3.35057,-4.27894 -0.3704,-1.64462 -0.37067,-1.88596 -0.003,-2.4474 0.45838,-0.69957 1.72568,-0.85535 2.2101,-0.27166 0.16031,0.19317 0.45942,1.15238 0.66468,2.13158 0.20526,0.97921 0.4471,1.85428 0.53743,1.94461 0.36762,0.36762 1.75296,-1.40478 2.14081,-2.73895 0.59035,-2.03072 2.10817,-2.86979 3.13627,-1.73376 0.56909,0.62884 0.54593,1.50151 -0.0762,2.87184 -0.43162,0.95066 -0.48271,1.52897 -0.36229,4.10104 0.13263,2.83293 0.10655,3.04291 -0.48391,3.89602 -0.34324,0.49595 -0.9379,1.13412 -1.32146,1.41816 -0.8945,0.66241 -2.76751,0.83937 -3.82298,0.36117 z m -60.06312,-0.72719 c -0.461622,-0.5126 -0.498104,-0.95225 -0.433625,-5.22552 0.07596,-5.03396 0.161942,-5.32729 1.561568,-5.32729 1.20776,0 1.385638,0.79261 1.292126,5.7576 -0.05882,3.12284 -0.189404,4.69155 -0.412974,4.96094 -0.468399,0.56439 -1.42038,0.48578 -2.007095,-0.16573 z m 6.879402,-0.40033 c -1.845364,-1.2523 -2.240909,-2.22218 -1.292897,-3.17019 0.813915,-0.81391 0.977604,-0.79867 2.111231,0.19667 1.387829,1.21853 1.429929,0.72868 0.06407,-0.74551 -1.491165,-1.60943 -1.783543,-2.17769 -1.783543,-3.46651 0,-1.94681 2.157171,-4.01097 4.202104,-4.02092 1.976178,-0.01 3.588227,1.9008 2.871657,3.40315 -0.480704,1.00784 -1.721092,1.09753 -2.454695,0.17751 -0.650601,-0.81593 -1.364238,-0.6879 -1.609358,0.28873 -0.129749,0.51697 0.09655,0.91241 1.174247,2.05191 1.925932,2.03639 2.162934,3.95021 0.661501,5.34169 -0.964559,0.89392 -2.577815,0.8708 -3.944318,-0.0565 z m 13.973561,0.28297 c -0.568381,-0.39811 -0.587198,-0.55919 -0.587198,-5.02649 0,-4.26243 0.04045,-4.65566 0.529167,-5.14438 0.659117,-0.65911 1.372822,-0.67575 1.943367,-0.0453 0.37127,0.41025 0.43788,1.16734 0.43788,4.97652 0,3.19335 -0.0956,4.61433 -0.33073,4.91338 -0.5083,0.64662 -1.340557,0.78291 -1.992486,0.32628 z m 5.275806,-0.27569 c -0.97368,-0.68199 -1.17949,-1.58332 -0.69478,-3.04267 0.25301,-0.76173 0.62103,-1.33455 0.91797,-1.42879 0.47919,-0.15209 0.47761,-0.18787 -0.0478,-1.07844 -0.67648,-1.14655 -0.73463,-3.11124 -0.12652,-4.27465 0.79562,-1.52216 2.79421,-2.09521 4.40399,-1.26276 1.58422,0.81923 2.11825,2.64451 1.00239,3.42609 -0.81628,0.57175 -1.19045,0.51856 -1.92457,-0.27358 -0.3494,-0.377 -0.77008,-0.60214 -0.93485,-0.5003 -0.58667,0.36258 0.0607,1.57953 1.61503,3.03576 1.75954,1.64854 1.96094,2.39683 1.04807,3.89401 -1.00099,1.64169 -3.88542,2.46734 -5.25889,1.50533 z m 2.55256,-3.1553 c -0.0815,-0.0815 -0.2294,0.0654 -0.32876,0.32632 -0.14359,0.37708 -0.1132,0.40747 0.14811,0.14811 0.18082,-0.17948 0.26212,-0.39297 0.18065,-0.47443 z m 56.539651,2.67936 c -0.72761,-0.33245 -2.12228,-1.21856 -3.09926,-1.96914 -0.97699,-0.75057 -1.8402,-1.36468 -1.91823,-1.36468 -0.078,0 -0.14189,0.24404 -0.14189,0.54231 0,1.50158 -1.5832,2.83419 -2.60296,2.19095 -0.90716,-0.57222 -0.96781,-1.06184 -0.36383,-2.93713 0.64593,-2.00555 0.74869,-4.08498 0.27929,-5.65169 -0.26688,-0.89077 -0.24311,-1.09192 0.18492,-1.56489 0.33444,-0.36955 0.74817,-0.51752 1.2966,-0.46374 1.04494,0.10247 1.50645,1.04825 1.6774,3.43751 0.0952,1.33128 0.22819,1.80085 0.50982,1.80085 0.49719,0 3.46218,-2.8318 3.94765,-3.77032 0.68214,-1.31872 2.74403,-0.76811 2.74403,0.73277 0,0.68169 -2.23189,3.54787 -3.3157,4.25801 l -0.64977,0.42575 0.59367,0.4624 c 0.90501,0.70489 2.22709,1.33097 2.81059,1.33097 1.24104,0 1.83463,1.86514 0.8711,2.73712 -0.63539,0.57502 -1.22347,0.53398 -2.82343,-0.19705 z m -45.409801,-0.5975 c -0.23394,-0.28262 -0.36823,-1.15327 -0.37749,-2.44739 -0.008,-1.1048 -0.11327,-3.2012 -0.23415,-4.65867 -0.18814,-2.26855 -0.15981,-2.69971 0.19681,-2.99568 0.81311,-0.67482 1.859061,-0.26468 2.477061,0.97132 0.0242,0.0485 0.53026,-0.39797 1.12447,-0.99218 0.85783,-0.85783 1.27363,-1.08039 2.01845,-1.08039 1.06564,0 2.1093,0.85455 2.38494,1.95279 l 0.16953,0.67544 1.0148,-0.81553 c 1.94023,-1.55921 4.35958,-1.1658 5.45838,0.88758 0.59845,1.11836 0.68171,5.74696 0.12515,6.95702 -0.81448,1.77078 -2.1072,2.2649 -3.08854,1.18053 -0.47487,-0.52473 -0.47242,-0.6021 0.0913,-2.8719 0.68162,-2.74465 0.70501,-3.19624 0.20093,-3.88046 -0.36598,-0.49676 -0.40995,-0.48324 -1.34175,0.41245 -0.54075,0.51981 -1.5012,2.02868 -2.1894,3.43958 -1.48582,3.04615 -1.79388,3.43959 -2.69315,3.43959 -1.39717,0 -1.61219,-0.83824 -0.96294,-3.7539 0.20453,-0.91853 0.45057,-2.26537 0.54674,-2.99298 0.16759,-1.26796 0.15707,-1.29827 -0.25312,-0.72971 -0.52748,0.73112 -1.35414,3.07361 -1.8907,5.35761 -0.22191,0.94462 -0.52785,1.86735 -0.67987,2.05052 -0.39478,0.47568 -1.669381,0.41148 -2.097441,-0.10564 z m 50.658581,0.17446 c -0.80098,-0.323 -0.93253,-0.96512 -0.62857,-3.06803 0.14525,-1.00492 0.26645,-2.51556 0.26934,-3.35698 0.005,-1.54572 0.55084,-3.30794 1.13998,-3.68234 0.55704,-0.354 1.41329,-0.22921 1.86696,0.27209 0.47102,0.52047 0.586,1.51004 0.20296,1.74677 -0.12921,0.0799 -0.32218,1.71402 -0.42883,3.63148 -0.17586,3.16161 -0.25142,3.54379 -0.81139,4.10376 -0.67393,0.67392 -0.76544,0.694 -1.61045,0.35325 z m 7.19289,-0.62452 c -0.55996,-0.40946 -0.61485,-2.24902 -0.10533,-3.53014 0.16197,-0.40727 0.32965,-2.04434 0.37261,-3.63793 0.0651,-2.4127 0.15676,-2.95493 0.54817,-3.24114 0.66064,-0.48307 1.28215,-0.42811 2.00009,0.17687 0.33978,0.28633 1.15357,0.91632 1.80841,1.39998 0.65485,0.48367 1.60728,1.44023 2.11652,2.1257 1.04695,1.40927 0.97044,1.48193 1.58631,-1.50652 0.36819,-1.78665 1.21288,-2.8531 2.08017,-2.6263 1.1251,0.29422 1.21621,0.72872 0.70037,3.34001 -0.26456,1.3393 -0.50677,3.27501 -0.53823,4.30158 -0.0709,2.31218 -0.63502,3.55746 -1.61163,3.55746 -1.33197,0 -2.23076,-0.81796 -3.18382,-2.89752 -0.91232,-1.99064 -2.15028,-3.863 -2.39339,-3.61988 -0.0726,0.0726 -0.35541,1.4194 -0.62856,2.99297 -0.49994,2.88016 -0.83482,3.52443 -1.8319,3.52443 -0.23542,0 -0.64932,-0.16181 -0.91979,-0.35957 z"
       id="path1" /></g></svg>
