<svg xmlns="http://www.w3.org/2000/svg" viewBox="0 0 32 32" width="32" height="32">
  <!-- Background with ARGscape brand colors -->
  <rect width="32" height="32" fill="#03303E" rx="6"/>
  
  <!-- ARG structure with correct brand pale green -->
  <g stroke="#14E2A8" stroke-width="1.2" fill="#14E2A8">
    
    <!-- Root node -->
    <circle cx="16" cy="6" r="1.8" fill="#14E2A8"/>
    
    <!-- First level branches -->
    <line x1="16" y1="6" x2="11" y2="12" stroke-linecap="round"/>
    <line x1="16" y1="6" x2="21" y2="12" stroke-linecap="round"/>
    
    <!-- Second level nodes -->
    <circle cx="11" cy="12" r="1.5" fill="#14E2A8"/>
    <circle cx="21" cy="12" r="1.5" fill="#14E2A8"/>
    
    <!-- Recombination connections (showing ARG nature) -->
    <line x1="11" y1="12" x2="8" y2="18" stroke-linecap="round"/>
    <line x1="11" y1="12" x2="16" y2="18" stroke-linecap="round"/>
    <line x1="21" y1="12" x2="16" y2="18" stroke-linecap="round" stroke-dasharray="2,1" opacity="0.8"/>
    <line x1="21" y1="12" x2="24" y2="18" stroke-linecap="round"/>
    
    <!-- Third level nodes -->
    <circle cx="8" cy="18" r="1.3" fill="#14E2A8"/>
    <circle cx="16" cy="18" r="1.3" fill="#1EEBB1" stroke="#14E2A8" stroke-width="1"/>
    <circle cx="24" cy="18" r="1.3" fill="#14E2A8"/>
    
    <!-- Sample nodes at bottom -->
    <line x1="8" y1="18" x2="6" y2="24" stroke-linecap="round"/>
    <line x1="8" y1="18" x2="10" y2="24" stroke-linecap="round"/>
    <line x1="16" y1="18" x2="14" y2="24" stroke-linecap="round"/>
    <line x1="16" y1="18" x2="18" y2="24" stroke-linecap="round"/>
    <line x1="24" y1="18" x2="22" y2="24" stroke-linecap="round"/>
    <line x1="24" y1="18" x2="26" y2="24" stroke-linecap="round"/>
    
    <!-- Sample nodes -->
    <circle cx="6" cy="24" r="1" fill="#1EEBB1"/>
    <circle cx="10" cy="24" r="1" fill="#1EEBB1"/>
    <circle cx="14" cy="24" r="1" fill="#1EEBB1"/>
    <circle cx="18" cy="24" r="1" fill="#1EEBB1"/>
    <circle cx="22" cy="24" r="1" fill="#1EEBB1"/>
    <circle cx="26" cy="24" r="1" fill="#1EEBB1"/>
    
    <!-- Small accent to show "scape" - subtle landscape elements -->
    <path d="M2 28 Q8 26 14 28 T30 28" stroke="#14E2A8" stroke-width="0.8" fill="none" opacity="0.4"/>
  </g>
</svg> 