<?xml version="1.0" encoding="UTF-8" standalone="no"?>
<!-- Created with Inkscape (http://www.inkscape.org/) -->

<svg
   width="145"
   height="145"
   viewBox="0 0 38.364583 38.364583"
   version="1.1"
   id="svg5"
   xml:space="preserve"
   inkscape:version="1.2.2 (b0a8486541, 2022-12-01)"
   sodipodi:docname="autogluon-logo.svg"
   xmlns:inkscape="http://www.inkscape.org/namespaces/inkscape"
   xmlns:sodipodi="http://sodipodi.sourceforge.net/DTD/sodipodi-0.dtd"
   xmlns="http://www.w3.org/2000/svg"
   xmlns:svg="http://www.w3.org/2000/svg"><sodipodi:namedview
     id="namedview7"
     pagecolor="#ffffff"
     bordercolor="#000000"
     borderopacity="0.25"
     inkscape:showpageshadow="2"
     inkscape:pageopacity="0.0"
     inkscape:pagecheckerboard="0"
     inkscape:deskcolor="#d1d1d1"
     inkscape:document-units="mm"
     showgrid="false"
     inkscape:zoom="3.9791876"
     inkscape:cx="126.91033"
     inkscape:cy="86.072846"
     inkscape:window-width="1920"
     inkscape:window-height="1022"
     inkscape:window-x="0"
     inkscape:window-y="0"
     inkscape:window-maximized="1"
     inkscape:current-layer="layer1" /><defs
     id="defs2" /><g
     inkscape:label="Layer 1"
     inkscape:groupmode="layer"
     id="layer1"><path
       style="fill:#1779be;stroke-width:0.264583;fill-opacity:1"
       d="m 19.93467,38.152102 -3.04271,0.10152 -1.61269,-0.36798 -1.6127,-0.36797 -1.43001,-0.60291 -1.43001,-0.60291 -1.4552103,-0.91254 -1.4552102,-0.91255 -1.24623,-1.03887 -1.24623,-1.03887 -1.24118,-1.63783 -1.24119,-1.63784 -0.8625,-1.85208 -0.86249,-1.85209 -0.39421002,-1.5875 -0.39421001,-1.5875 -0.17138,-1.65155 -0.17139,-1.65155 0.29902,-2.1849 0.29901001,-2.18491 0.64584002,-1.84898 0.64583,-1.84897 0.85392,-1.4583197 0.85392,-1.45832 2.38132,-2.39115 2.38132,-2.3911498 2.2489605,-1.09919 2.24895,-1.09917997 1.7198,-0.46431004 1.71979,-0.46431 3.175,0.004 3.175,0.004 2.39421,0.81924004 2.39421,0.81923997 1.70683,0.99067 1.70683,0.9906698 1.98438,2.01517 1.98437,2.01517 0.99896,1.71338 0.99896,1.7133697 0.68962,2.11667 0.68963,2.11667 0.12966,2.95073 0.12966,2.95074 -0.4509,2.02668 -0.45089,2.02668 -1.21477,2.43092 -1.21476,2.43091 -2.40154,2.38966 -2.40155,2.38965 -1.85208,0.95768 -1.85208,0.95768 -1.85209,0.58211 -1.85208,0.58211 z m -0.87904,-1.77497 0.57617,0.0323 2.06967,-0.2866 2.06966,-0.2866 1.90262,-0.73737 1.90261,-0.73736 1.70053,-1.21348 1.70054,-1.21347 1.23357,-1.37204 1.23358,-1.37203 0.89456,-1.61604 0.89457,-1.61605 0.51787,-1.71979 0.51788,-1.71979 0.1832,-1.25677 0.18319,-1.25677 H 26.0363 15.43676 v -0.14729 -0.14729 l 1.91308,-3.29229 1.91309,-3.2923 0.13744,0.008 0.13743,0.008 1.4648,2.57186 1.4648,2.57185 1.11489,0.0814 1.11488,0.0814 v -0.3181 -0.31811 l -2.57429,-4.45961 -2.5743,-4.4595997 h -0.17892 -0.17891 l -5.31658,9.2172197 -5.3165805,9.21723 v 0.26165 0.26165 l 0.6604102,0.62043 0.6604201,0.62043 0.1888002,-0.1888 0.18879,-0.18879 1.86606,-3.22978 1.86605,-3.22979 h 5.38009 5.38009 l 1.84289,3.175 1.84289,3.175 0.24471,0.24786 0.24471,0.24784 0.66496,-0.6247 0.66496,-0.6247 v -0.23317 -0.23316 l -1.45521,-2.47261 -1.4552,-2.47261 v -0.15852 -0.15852 h 3.41368 3.41369 l -0.35114,1.16678 -0.35115,1.16678 -0.74083,1.5452 -0.74083,1.5452 -1.99098,2.01453 -1.99099,2.01452 -1.60133,0.80715 -1.60133,0.80714 -1.56705,0.45556 -1.56705,0.45555 -2.38787,-0.003 -2.38787,-0.003 -2.07111,-0.69911 -2.07111,-0.69911 -1.4717,-0.94143 -1.4717002,-0.94144 -1.2632203,-1.29691 -1.26323,-1.29691 -0.82282,-1.43812 -0.82281,-1.43813 -0.53805,-1.54401 -0.53804,-1.54402 -0.14512,-2.24895 -0.14512,-2.24896 0.4326,-1.83499 0.43261,-1.83499 0.84173,-1.73688 0.84173,-1.73689 1.9949702,-2.0071497 1.9949803,-2.00715 1.71979,-0.8314 1.71979,-0.8314 1.57694,-0.4026 1.57695,-0.40259 h 2.00549 2.00549 l 1.5678,0.40836 1.56781,0.40836 1.66575,0.82005 1.66575,0.82004 1.65067,1.515 1.65068,1.5149995 1.00068,1.6883702 1.00068,1.68836 0.50195,1.71979 0.50195,1.71979 0.16584,1.00728 0.16583,1.00727 0.97737,-0.0812 0.97737,-0.0812 -0.0885,-1.32291 -0.0885,-1.32292 -0.65859,-1.98183 -0.65859,-1.98184 -0.96587,-1.59004 -0.96587,-1.5900397 -1.61792,-1.5875 -1.61792,-1.5875 -1.69621,-0.99919 -1.69621,-0.9991898 -1.71979,-0.55479 -1.71979,-0.55479 -2.91545,-0.13062 -2.91545,-0.13062 -1.71476,0.42918 -1.71476,0.42918 -2.24,1.0981398 -2.2400003,1.09814 -1.9990802,2.00936 -1.99907,2.00937 -1.12559,2.2489597 -1.12558,2.24895 -0.38543,1.85209 -0.38543,1.85208 -0.005,2.0082 -0.005,2.0082 0.52176,2.04005 0.52176,2.04006 0.98459,1.90487 0.9846,1.90487 2.13167,2.11781 2.1316602,2.11782 1.5875003,0.82641 1.5875,0.82641 1.33237,0.43164 1.33237,0.43165 1.57805,0.22989 1.57804,0.22989 z"
       id="path328" /></g></svg>
