<?xml version="1.0" encoding="UTF-8" standalone="no"?>
<!-- Created with Inkscape (http://www.inkscape.org/) -->

<svg
   width="319.12186mm"
   height="261.13968mm"
   viewBox="0 0 319.12186 261.13968"
   version="1.1"
   id="svg1"
   xml:space="preserve"
   inkscape:version="1.4.2 (ebf0e940d0, 2025-05-08)"
   sodipodi:docname="kruskal_wallis_h.svg"
   xmlns:inkscape="http://www.inkscape.org/namespaces/inkscape"
   xmlns:sodipodi="http://sodipodi.sourceforge.net/DTD/sodipodi-0.dtd"
   xmlns="http://www.w3.org/2000/svg"
   xmlns:svg="http://www.w3.org/2000/svg"><sodipodi:namedview
     id="namedview1"
     pagecolor="#ffffff"
     bordercolor="#000000"
     borderopacity="0.25"
     inkscape:showpageshadow="2"
     inkscape:pageopacity="0.0"
     inkscape:pagecheckerboard="0"
     inkscape:deskcolor="#d1d1d1"
     inkscape:document-units="mm"
     inkscape:zoom="0.26146535"
     inkscape:cx="321.26628"
     inkscape:cy="541.1807"
     inkscape:window-width="1473"
     inkscape:window-height="795"
     inkscape:window-x="0"
     inkscape:window-y="0"
     inkscape:window-maximized="1"
     inkscape:current-layer="layer1" /><defs
     id="defs1" /><g
     inkscape:label="Layer 1"
     inkscape:groupmode="layer"
     id="layer1"
     transform="translate(59.188867,-19.223168)"><path
       style="fill:#000000"
       d="m 89.041908,280.2259 c -2.43264,-0.33607 -7.92308,-1.86057 -9.19839,-2.55406 -0.69349,-0.37711 -1.72737,-1.08493 -2.2975,-1.57295 -1.29678,-1.10999 -1.57879,-2.3005 -1.82301,-7.69579 l -0.17485,-3.8626 -1.19062,-0.43214 c -2.10445,-0.76382 -2.51968,-1.06633 -3.18423,-2.31984 -0.55501,-1.04687 -0.65223,-1.5883 -0.65223,-3.6321 0,-2.64662 0.2446,-3.16502 2.22541,-4.71645 0.78888,-0.61786 1.14362,-0.70686 2.81763,-0.70686 h 1.91513 l 0.16409,-3.37344 c 0.21044,-4.32626 0.57656,-6.70981 1.52972,-9.95879 0.8792,-2.99689 1.47513,-4.27209 2.58964,-5.54145 l 0.78734,-0.89672 -0.55151,-0.49912 c -0.39873,-0.36084 -2.45137,-3.55339 -2.73374,-4.2519 -0.0105,-0.0261 -0.58137,0.0724 -1.26847,0.21899 -0.73935,0.15768 -2.12136,0.8468 -3.38577,1.68825 -1.17506,0.782 -2.36563,1.49454 -2.6457,1.58343 -0.69693,0.2212 -1.87366,-0.38995 -2.33474,-1.21258 -0.62002,-1.10619 -0.21174,-1.96403 1.46813,-3.08468 0.82283,-0.54892 1.91372,-1.2809 2.4242,-1.62664 0.51048,-0.34573 1.65135,-0.8875 2.53527,-1.20392 1.83669,-0.6575 2.10586,-1.25242 0.67209,-1.48548 -0.51427,-0.0836 -1.05577,-0.2266 -1.20333,-0.3178 -0.14757,-0.0912 -1.45321,0.065 -2.90143,0.34723 -1.44822,0.28218 -3.40704,0.58496 -4.35292,0.67286 -1.50939,0.14027 -1.80881,0.0892 -2.4474,-0.41737 -1.57985,-1.25326 -0.57168,-3.71379 1.52169,-3.71379 0.47025,0 2.44104,-0.29886 4.37954,-0.66414 2.07651,-0.39128 3.88461,-0.59659 4.40097,-0.49972 l 0.87645,0.16442 0.007,-1.41851 c 0.0133,-2.91086 1.52538,-7.1622 3.33971,-9.38972 l 1.12819,-1.38511 -0.2579,-1.67184 c -0.45775,-2.96736 -0.52495,-3.18133 -0.90109,-2.86917 -0.18766,0.15574 -0.41135,0.63396 -0.4971,1.06271 -0.53083,2.65416 -3.87322,2.38784 -4.31653,-0.34393 -0.2768,-1.70575 1.42571,-3.84416 3.96327,-4.978 l 0.74523,-0.33298 -0.17289,-2.52919 c -0.0951,-1.39105 -0.19232,-5.92247 -0.21606,-10.06981 -0.0424,-7.41312 -0.0309,-7.58874 0.67957,-10.38592 0.81808,-3.22059 1.30631,-4.29948 2.80182,-6.19145 1.37194,-1.73562 2.59331,-2.32068 4.38248,-2.09928 3.70978,0.45905 3.65348,0.43883 5.14386,1.84798 2.264072,2.14068 3.654054,5.4797 4.141823,9.9495 0.08734,0.80036 0.562936,3.65786 1.056879,6.35 1.270537,6.9248 1.536542,9.33577 1.567187,14.20439 l 0.02696,4.28252 1.273713,0.17641 c 0.70054,0.097 1.31579,0.13433 1.36722,0.0829 0.0514,-0.0514 -0.005,-0.6292 -0.12476,-1.28393 -0.12005,-0.65473 -0.30184,-4.88135 -0.40397,-9.3925 -0.17474,-7.71838 -0.1519,-8.38932 0.38733,-11.37708 1.2365,-6.8513 2.79261,-10.9906 4.99547,-13.28813 1.69041,-1.76308 2.78909,-2.09143 5.27579,-1.57675 2.27249,0.47034 3.79207,1.24813 5.17992,2.65131 0.93212,0.94241 1.2535,1.58648 2.11336,4.23537 0.63193,1.9467 1.11823,4.08847 1.29045,5.68337 0.29725,2.75284 0.4282,13.31898 0.21001,16.94532 -0.13265,2.20458 -0.12952,2.21821 0.66047,2.87889 1.15282,0.96413 2.43173,2.85366 2.62356,3.87622 0.48985,2.61109 -2.47352,4.15096 -3.79775,1.97345 l -0.47423,-0.77982 -0.14524,1.26809 c -0.096,0.83833 -0.0416,1.3052 0.16048,1.37758 0.56009,0.20058 3.53185,3.31792 3.96632,4.16062 0.4186,0.81192 1.80934,5.04254 2.14849,6.53572 0.13122,0.57769 0.27533,0.70877 0.62268,0.56634 0.24856,-0.10192 1.58303,-0.36533 2.96548,-0.58536 1.38245,-0.22003 2.82957,-0.56418 3.21582,-0.76478 0.97362,-0.50566 1.62295,-0.45673 2.43704,0.18364 0.92414,0.72692 0.97323,2.27501 0.0982,3.09704 -0.83047,0.78019 -2.36979,1.38044 -3.55977,1.38814 -1.19759,0.008 -2.96725,0.38692 -4.50641,0.96558 -1.88603,0.70907 -1.54452,1.16892 1.98437,2.67201 1.70987,0.72829 3.40651,1.41063 3.77031,1.5163 1.78437,0.51828 2.44391,2.39349 1.23972,3.52477 -0.98308,0.92355 -2.20339,0.74228 -6.04427,-0.89788 -1.8974,-0.81024 -3.47646,-1.43532 -3.50902,-1.38906 -0.0326,0.0463 -0.27576,0.66793 -0.54043,1.38151 -0.55159,1.48713 -1.84668,3.02404 -3.5161,4.17263 l -1.15558,0.79506 1.28532,1.36537 c 0.70692,0.75095 1.68737,1.96068 2.17877,2.68828 0.4914,0.7276 1.1891,1.6801 1.55043,2.11667 1.35289,1.63454 2.70827,5.66547 3.37317,10.03184 0.42535,2.79335 0.48316,5.92241 0.12671,6.85992 -0.20731,0.54527 -0.0961,0.86788 0.66739,1.93545 1.3523,1.891 1.9518,4.14102 2.24472,8.42487 0.29744,4.34986 0.067,5.93825 -1.05992,7.30538 -1.12721,1.36751 -2.80598,2.42613 -4.20337,2.65064 -0.68007,0.10926 -2.30806,0.52213 -3.61775,0.9175 -1.80421,0.54465 -3.10873,0.74483 -5.38334,0.82609 -3.43209,0.12261 -5.34428,-0.19936 -6.52284,-1.09829 -0.6463,-0.49296 -0.92718,-0.56759 -1.3164,-0.34977 -0.31839,0.17818 -1.81465,0.22044 -4.19707,0.11855 l -3.70228,-0.15834 -1.0807,1.08641 c -1.721396,1.73048 -2.866142,2.10655 -6.601602,2.16874 -1.76569,0.0294 -3.80566,-0.0288 -4.53326,-0.12933 z m 6.945312,-4.16518 c 0.679269,-0.0909 0.285058,-0.56287 -1.248152,-1.49425 -1.34587,-0.81757 -1.66298,-0.91411 -2.14871,-0.65416 -1.56026,0.83503 -3.49736,-0.006 -3.48248,-1.51195 0.008,-0.8301 0.48528,-4.18706 0.73834,-5.19533 0.12615,-0.50264 -0.0903,-0.95255 -0.98272,-2.04266 -1.19304,-1.45731 -1.37033,-1.59116 -2.82256,-2.13087 -1.22865,-0.45662 -1.8347,-1.72787 -1.32786,-2.78535 0.56888,-1.18693 1.43928,-1.47892 3.10149,-1.04043 1.73907,0.45876 2.84812,1.29715 4.42258,3.34328 1.60236,2.08238 2.060998,3.56354 1.70304,5.4999 -0.35575,1.92445 -0.35761,1.91452 0.32724,1.74385 0.429507,-0.10703 1.184844,0.23722 2.71198,1.23602 1.965063,1.28523 2.296695,1.40851 4.630212,1.7213 3.42452,0.45902 5.41271,0.45083 5.80672,-0.0239 0.17339,-0.20893 0.66285,-0.45621 1.08769,-0.54952 0.42484,-0.0933 0.84141,-0.28126 0.92571,-0.41767 0.0843,-0.1364 0.64299,-0.49784 1.24152,-0.80319 0.59854,-0.30534 1.28696,-0.80057 1.52983,-1.1005 0.39193,-0.48403 0.40143,-0.67875 0.0844,-1.73205 -0.77767,-2.584 -0.28058,-4.93907 1.51382,-7.17196 2.03714,-2.53494 5.00819,-2.2808 5.00819,0.42839 0,0.66693 -0.20849,1.01902 -0.94439,1.59477 -1.08261,0.84703 -1.70144,1.87533 -1.70144,2.82728 0,0.3627 0.31506,1.50945 0.70014,2.54833 0.67232,1.81383 0.683,1.9248 0.26886,2.79326 -0.2372,0.49742 -0.54829,0.90439 -0.69132,0.90439 -0.14302,0 -0.65989,0.39985 -1.1486,0.88856 -0.48871,0.48871 -1.05822,0.94866 -1.26559,1.02211 -0.20737,0.0735 -0.27763,0.23915 -0.15613,0.36821 0.33857,0.35967 4.82393,0.12323 5.8579,-0.30879 0.50361,-0.21042 1.18737,-0.38265 1.51947,-0.38272 0.3321,-7e-5 1.23017,-0.2382 1.99571,-0.52917 0.76555,-0.29097 1.6777,-0.52903 2.027,-0.52903 0.38438,0 0.90552,-0.32137 1.32008,-0.81405 0.59987,-0.71291 0.68498,-1.05377 0.68498,-2.74347 0,-3.36283 -0.67572,-6.39517 -1.86417,-8.36563 -0.5761,-0.95518 -1.2692,-1.97472 -1.54023,-2.26563 -1.35511,-1.45454 -1.44265,-2.73527 -0.26233,-3.83786 0.80261,-0.74975 0.8259,-0.83298 0.67751,-2.42125 -0.59542,-6.37281 -2.26751,-10.12781 -6.40349,-14.38028 l -1.85208,-1.90424 -2.78036,0.87222 c -4.12113,1.29282 -8.86405,1.81662 -15.0147,1.6582 -4.558932,-0.11743 -5.186872,-0.19414 -7.781602,-0.95061 -1.55237,-0.45258 -3.22908,-1.06277 -3.72602,-1.35598 l -0.90354,-0.5331 -0.82126,1.02196 c -0.88251,1.09816 -2.19535,4.80174 -2.73279,7.7093 -0.19083,1.03241 -0.33196,4.61367 -0.3531,8.96008 -0.0348,7.15022 -0.0426,7.24624 -0.6254,7.7182 -0.3246,0.26285 -0.73742,0.52682 -0.91737,0.58661 -0.40529,0.13466 -0.59472,5.28394 -0.32666,8.87988 l 0.18371,2.46455 1.02201,0.74034 c 0.73966,0.53581 1.99334,0.96695 4.53808,1.56065 1.93385,0.45118 3.81374,0.85445 4.17754,0.89615 0.67593,0.0775 5.421174,0.0679 6.019271,-0.0122 z m 12.29857,-16.30538 c -2.41808,-0.61208 -2.99088,-1.22287 -4.05941,-4.32861 -1.00083,-2.90894 -0.61905,-3.95451 2.67419,-7.32383 1.42236,-1.45521 2.66414,-2.9039 2.75952,-3.21933 0.25779,-0.85249 1.19585,-1.94778 1.89625,-2.21407 0.38168,-0.14512 0.92529,-0.12698 1.42605,0.0476 2.39353,0.83439 1.40708,3.83042 -2.62675,7.97792 -1.24505,1.28013 -2.30175,2.36987 -2.34822,2.42163 -0.0465,0.0518 0.06,0.57629 0.23655,1.16561 0.24404,0.81454 0.50976,1.13729 1.10803,1.34585 1.55738,0.5429 2.84809,-0.1401 4.62249,-2.44607 1.12767,-1.46549 1.21743,-1.69486 1.18252,-3.02173 -0.0315,-1.19618 0.0693,-1.54294 0.60372,-2.07736 0.7043,-0.70429 1.35379,-0.79878 2.35501,-0.34259 1.46043,0.66541 1.75007,3.51103 0.59682,5.86341 -0.89419,1.82395 -3.85028,5.02943 -5.26264,5.70663 -1.48322,0.71116 -3.44475,0.88018 -5.16413,0.44495 z m -16.550302,-1.97141 c -1.92513,-0.95714 -2.17039,-1.17462 -3.27879,-2.90731 -1.19997,-1.87587 -1.70592,-4.67864 -1.03062,-5.70928 1.24628,-1.90207 4.48568,-0.42914 4.51366,2.05233 0.0167,1.48278 0.42056,2.11252 1.73477,2.70515 1.067575,0.4814 1.127688,0.48121 2.595767,-0.009 0.826585,-0.27575 1.590356,-0.62501 1.697269,-0.77611 0.32347,-0.45719 0.226104,-1.42552 -0.165976,-1.65066 -0.202656,-0.11637 -0.827734,-0.59288 -1.389063,-1.05889 -0.561328,-0.46602 -1.412771,-1.16561 -1.892095,-1.55464 -1.047302,-0.85001 -1.906622,-2.44116 -1.906622,-3.53034 0,-1.63554 2.32789,-2.55427 3.373432,-1.33136 0.437097,0.51125 0.864775,0.92479 2.819525,2.72631 0.450173,0.41489 1.116152,0.9093 1.479955,1.09869 1.28421,0.66856 1.92699,1.9123 2.06008,3.98613 0.21579,3.36236 -1.18803,5.24622 -4.609813,6.18613 -2.631441,0.72282 -4.210329,0.66294 -6.001479,-0.22759 z m -15.52587,2.01951 c 0,-0.62246 0.15512,-1.36661 0.34471,-1.65365 0.18959,-0.28704 0.33842,-0.93861 0.33073,-1.44793 -0.0204,-1.3549 -0.79137,-1.34677 -2.1968,0.0231 -1.27905,1.24675 -1.34117,1.54814 -0.57474,2.78825 1.0824,1.75137 2.0961,1.8917 2.0961,0.29018 z m 30.702292,-26.01107 c 4.49689,-0.62277 7.21234,-1.58755 10.3312,-3.67059 2.87736,-1.92175 3.0584,-2.16382 4.25428,-5.68868 1.07109,-3.15702 1.18499,-4.70675 0.53555,-7.28645 -1.16314,-4.62021 -1.23979,-4.74087 -5.10604,-8.03821 -0.81939,-0.69882 -0.98252,-1.03041 -1.15174,-2.34108 -0.24807,-1.92134 -0.19907,-3.44066 0.13085,-4.05712 0.14063,-0.26276 0.25569,-0.96183 0.25569,-1.55348 v -1.07573 h -1.14962 c -0.79555,0 -1.29047,0.15564 -1.60697,0.50537 -0.65566,0.72449 -1.62221,0.89273 -2.5053,0.43607 -1.87003,-0.96703 -1.28665,-3.46448 1.09283,-4.6784 0.87497,-0.44637 1.44392,-0.5315 3.02042,-0.45189 1.19881,0.0605 1.95072,-0.005 1.96414,-0.17163 0.20468,-2.53818 0.19607,-10.30406 -0.0153,-13.76348 -0.23027,-3.76961 -0.40648,-4.92633 -1.08822,-7.14375 -0.95031,-3.09095 -1.79437,-4.08635 -3.86903,-4.56273 -1.08239,-0.24853 -1.33839,-0.22651 -1.75739,0.15121 -1.40955,1.27068 -2.79537,5.07705 -3.87146,10.63357 -0.55815,2.88205 -0.57939,3.45355 -0.41299,11.10816 0.10985,5.05333 0.3206,8.93244 0.5638,10.3776 0.41972,2.49407 0.32971,3.36451 -0.41788,4.04107 -0.72057,0.65211 -2.77454,0.84994 -5.29598,0.51009 -1.238613,-0.16695 -2.618505,-0.24976 -3.066424,-0.18402 -0.601818,0.0883 -1.015249,-0.0532 -1.58386,-0.54233 l -0.769461,-0.66186 -0.02408,-6.04267 c -0.02511,-6.30069 -0.07199,-6.76161 -1.543057,-15.1708 -0.49641,-2.83765 -1.03286,-6.09948 -1.19212,-7.24849 -0.317,-2.28714 -1.34095,-4.92654 -2.33331,-6.0145 -0.82224,-0.90146 -2.85739,-1.20582 -3.60183,-0.53866 -0.74351,0.66633 -1.39454,2.10053 -2.07185,4.56418 -0.58337,2.12198 -0.60982,2.60315 -0.56597,10.29581 0.0253,4.43838 0.12317,8.69487 0.21748,9.45885 l 0.17147,1.38906 1.10544,0.006 c 1.33575,0.007 3.20496,0.80809 3.59763,1.5418 0.42652,0.79696 0.34665,1.75837 -0.2024,2.43642 -0.51604,0.63728 -1.43367,0.74354 -3.18933,0.36934 l -0.89954,-0.19173 0.18966,1.16033 c 0.10432,0.63818 0.24291,2.32383 0.30799,3.74589 0.13107,2.86423 -0.053,3.47504 -1.44628,4.79962 -0.44582,0.42382 -1.19122,1.67398 -1.65644,2.77812 -1.78797,4.24348 -1.1167,10.17386 1.68738,14.90717 1.73046,2.92106 3.83862,4.37567 7.99342,5.51537 2.415753,0.66267 3.088325,0.73163 7.301683,0.74859 2.891949,0.0117 5.783469,-0.13955 7.672919,-0.40122 z m -6.07501,-3.43945 c -1.022792,-0.86063 -1.815266,-3.28167 -1.384003,-4.22819 0.517531,-1.13585 1.442363,-1.50763 3.465943,-1.39329 1.48999,0.0842 1.96828,0.22448 2.51435,0.73748 1.0248,0.96275 0.92056,2.25508 -0.30924,3.83357 -1.47981,1.8994 -2.87255,2.24065 -4.28705,1.05043 z m -9.884112,-4.06264 c -2.65045,-0.86508 -3.38976,-1.28289 -4.689,-2.64994 -2.22298,-2.339 -3.04418,-5.42175 -2.25843,-8.47806 0.43477,-1.69111 2.11399,-4.84594 2.99834,-5.63313 1.66516,-1.48221 6.42592,-2.40463 9.099906,-1.76315 2.555951,0.61316 4.857096,3.45571 5.622026,6.94477 0.19801,0.90317 0.37197,1.32681 0.38659,0.94142 0.0146,-0.38539 0.55866,-1.76361 1.20899,-3.06272 1.2892,-2.57531 3.56896,-5.07169 4.68871,-5.13425 3.11803,-0.1742 7.34349,1.0668 9.03486,2.65349 1.88552,1.76881 3.61643,6.32991 3.21473,8.47111 -0.56223,2.99696 -3.26892,5.713 -6.36996,6.39196 -2.48851,0.54485 -2.98579,0.55933 -4.82696,0.14057 -3.48376,-0.79237 -5.04456,-1.72305 -5.98154,-3.56672 l -0.60443,-1.18931 -0.30308,0.91835 c -0.58168,1.76252 -4.053744,4.69192 -6.366634,5.37157 -1.882658,0.55322 -2.122378,0.53564 -4.854118,-0.35596 z m 3.777661,-3.72818 c 0.509323,-0.14858 1.515115,-0.7906 2.235093,-1.42672 l 1.309051,-1.15659 -0.459342,-2.83797 c -0.252638,-1.56088 -0.621161,-3.15089 -0.818942,-3.53336 -0.628483,-1.21535 -2.067675,-2.1549 -2.422191,-1.58128 -0.111948,0.18113 -0.764,0.2171 -1.84226,0.10163 -2.01617,-0.21591 -2.45216,-0.0177 -3.55456,1.61571 -2.38569,3.53492 -1.24518,7.08429 2.72347,8.4757 1.99726,0.70025 1.71987,0.66663 2.829681,0.34288 z m -3.271611,-3.97944 c -1.5416,-1.21263 -0.47499,-3.94955 1.53919,-3.94955 1.997909,0 2.727461,2.22067 1.22361,3.72452 -0.91294,0.91294 -1.79675,0.98492 -2.7628,0.22503 z m 20.928752,2.36509 c 1.88603,-0.44877 2.36735,-0.73795 3.1192,-1.87407 0.64467,-0.97416 0.66779,-1.11967 0.39031,-2.45625 -0.40443,-1.94814 -1.52787,-3.55504 -2.78843,-3.9884 -1.21305,-0.41703 -4.09052,-0.55303 -4.67488,-0.22096 -0.66477,0.37776 -1.994,3.02576 -2.19388,4.37049 -0.22752,1.53066 0.52117,3.18676 1.63962,3.62682 2.11822,0.83344 2.89303,0.92666 4.50806,0.54237 z m -2.98479,-2.99532 c -1.2869,-1.2869 -0.43778,-3.5839 1.32483,-3.5839 1.34214,0 2.11475,0.77331 2.11475,2.11666 0,0.84934 -0.14732,1.23412 -0.61861,1.61575 -0.86401,0.69964 -2.03444,0.63802 -2.82097,-0.14851 z m 39.36512,-18.76846 c -0.44897,-0.49339 -1.03852,-1.05893 -1.31011,-1.25677 -0.82081,-0.59792 -1.61336,-1.91352 -1.94415,-3.22721 -0.17209,-0.68339 -0.4173,-1.30707 -0.54492,-1.38595 -0.4548,-0.28108 -0.24543,-2.54159 0.32015,-3.45673 0.63821,-1.03264 2.45277,-2.17836 4.03763,-2.54938 1.87712,-0.43944 5.70205,-0.23255 6.98385,0.37775 1.90096,0.9051 2.77199,2.7868 2.34459,5.06505 -0.25553,1.36208 -4.79105,6.28756 -6.41431,6.9658 -1.51879,0.63459 -2.5553,0.47563 -3.47273,-0.53256 z m 4.14361,-5.68679 c 0.88812,-1.00174 1.61475,-1.90096 1.61475,-1.99827 0,-0.23689 -4.83664,0.10885 -5.10691,0.36507 -0.35557,0.33707 0.37349,2.65116 0.966,3.06617 0.30497,0.21361 0.6348,0.38838 0.73295,0.38838 0.0982,0 0.9051,-0.81961 1.79321,-1.82135 z m -103.954002,4.38025 c -3.66964,-1.83081 -5.17217,-2.8348 -8.94115,-5.97449 -4.78747,-3.98813 -6.56962,-6.70896 -8.67914,-13.25052 -1.66777,-5.17171 -2.90466,-9.46527 -3.2016,-11.11363 l -0.21421,-1.18911 -1.58664,-0.22238 c -1.02217,-0.14327 -2.10434,-0.11595 -3.04184,0.0768 -0.80036,0.16454 -4.01505,0.46755 -7.14375,0.67334 -6.9093899,0.45448 -16.46466993,1.12615 -20.7697899,1.45998 -4.24488,0.32916 -14.8870701,0.30873 -17.1979201,-0.033 -1.01864,-0.15064 -4.88817,-0.37279 -8.59896,-0.49366 -5.54635,-0.18066 -7.37794,-0.34224 -10.29346,-0.90808 -2.16105,-0.41941 -4.45301,-0.68831 -5.86679,-0.68831 -2.81019,0 -4.47583,-0.35876 -6.66,-1.43449 -1.36253,-0.67106 -1.84431,-1.09878 -2.73624,-2.4292 -1.94368,-2.89922 -1.95165,-2.97919 -2.23662,-22.43235 -0.1388,-9.47535 -0.2942,-21.09744 -0.34533,-25.82687 -0.0511,-4.72943 -0.24402,-11.63505 -0.42866,-15.345834 -0.26655,-5.35694 -0.27089,-8.89992 -0.0211,-17.19792 0.17305,-5.74807 0.41791,-11.46307 0.54413,-12.7 0.12622,-1.23693 0.23943,-3.55865 0.25158,-5.15937 0.0208,-2.74302 0.41162,-7.85483 1.08217,-14.15521 0.16289,-1.53045 0.21985,-3.96639 0.12685,-5.42396 -0.2411,-3.77837 0.2746,-6.22559 1.84176,-8.74001 2.62537,-4.21222 5.02881,-6.01706 10.59744,-7.95805 4.31929,-1.50552 6.9063,-2.1525 11.0228,-2.75668 9.01795,-1.32355 27.1564801,-1.39822 38.8401901,-0.15988 3.56526,0.37787 7.6729199,0.69963 9.1281199,0.71502 1.45521,0.0154 3.7174,0.13182 5.02709,0.25876 1.30968,0.12694 8.03672,0.35907 14.94896,0.51586 10.9379,0.24809 12.84688,0.35242 14.72053,0.80449 1.18405,0.28569 3.02952,0.51988 4.10104,0.52043 2.07286,0.001 3.66801,0.63177 3.66801,1.45033 0,0.25383 0.24888,0.40076 0.67885,0.40076 1.01222,0 1.54662,0.37835 2.64193,1.87047 1.0649,1.45068 1.32754,2.58506 1.98665,8.58057 0.15998,1.45521 0.45153,3.30068 0.6479,4.10104 0.94749,3.86178 1.21141,11.71365 1.23735,36.8116 0.0162,15.63117 -0.0788,24.273204 -0.30043,27.349864 -0.17822,2.47385 -0.36642,9.55807 -0.41821,15.74271 -0.13715,16.37813 -0.97083,30.89295 -1.97548,34.39408 -0.14588,0.50837 -0.26523,1.89416 -0.26523,3.07955 0,1.66922 -0.10442,2.27778 -0.46302,2.69862 -0.56048,0.65775 -4.62079,2.25234 -6.81302,2.67565 -0.87313,0.16859 -2.30803,0.47861 -3.18867,0.68892 -1.40815,0.33629 -1.7856,0.33435 -3.13105,-0.0161 -1.03724,-0.27017 -2.26822,-0.35866 -3.82279,-0.27481 l -2.29291,0.12367 -0.15358,1.53239 c -0.16491,1.64534 0.33284,6.68857 0.8283,8.39249 0.54883,1.88748 2.79904,7.20109 3.83084,9.04614 0.55788,0.99758 1.50713,2.35115 2.10945,3.00794 0.60232,0.65678 1.38061,1.60619 1.72953,2.10978 0.67215,0.97011 1.96558,2.45344 3.32751,3.81607 1.59088,1.59169 1.76494,2.75412 0.57798,3.85994 -0.85837,0.7997 -1.65034,0.65283 -4.70941,-0.87336 z m -7.24894,-10.82713 c -0.83634,-1.43217 -3.40756,-7.85388 -3.83925,-9.58869 -1.35781,-5.45656 -1.05152,-12.62534 0.61044,-14.2873 0.56745,-0.56744 0.7995,-0.59798 4.54568,-0.59821 2.41617,-1.5e-4 4.37852,0.12931 5.05819,0.3337 0.61077,0.18366 1.14688,0.29754 1.19137,0.25306 0.0445,-0.0445 1.09257,-0.27624 2.32909,-0.515 1.23652,-0.23877 2.93283,-0.67959 3.76957,-0.97961 l 1.52136,-0.54549 v -1.22626 c 0,-0.67444 0.11579,-1.63 0.25731,-2.12347 1.03942,-3.62422 1.85223,-17.31503 1.98073,-33.36283 0.0472,-5.8936 0.23514,-13.09688 0.41767,-16.00729 0.22553,-3.59624 0.32531,-12.539634 0.31141,-27.913544 -0.0207,-22.92627 -0.26892,-31.46814 -1.01861,-35.05729 -0.21277,-1.01865 -0.55379,-3.22131 -0.75783,-4.8948 -0.48388,-3.96874 -0.89689,-6.61784 -1.07725,-6.90968 -0.0796,-0.12874 -0.44669,-0.23407 -0.81583,-0.23407 -0.36914,0 -0.98719,-0.17777 -1.37345,-0.39506 -0.38625,-0.21728 -0.99994,-0.51465 -1.36374,-0.66082 -0.3638,-0.14617 -0.84005,-0.3754 -1.05833,-0.5094 -1.5761,-0.96752 -8.79066,-1.53061 -20.37292,-1.59008 -3.56526,-0.0183 -7.67292,-0.15069 -9.12812,-0.29419 -1.45521,-0.14349 -5.14615,-0.37545 -8.20209,-0.51545 -3.05593,-0.14001 -7.8184299,-0.50845 -10.5833299,-0.81876 -3.92072003,-0.44004 -7.25928,-0.59334 -15.1696901,-0.69659 -16.76862,-0.21886 -24.1662,0.58455 -32.21736,3.49895 -4.75573,1.7215 -6.35569,2.92814 -8.3842,6.32309 l -1.09233,1.82814 -0.0411,5.4479 c -0.0226,2.99634 -0.11679,5.74556 -0.20927,6.10936 -0.29578,1.16349 -0.70635,6.31514 -0.96997,12.17083 -0.14086,3.1287 -0.37233,7.17682 -0.51438,8.99583 -0.4121,5.27698 -0.59026,21.36598 -0.29445,26.59063 0.1483,2.619374 0.39361,14.763754 0.54514,26.987504 0.15152,12.22375 0.37082,24.48862 0.48734,27.25526 0.20192,4.79419 0.24618,5.09334 0.94318,6.37396 0.66406,1.22009 0.88168,1.39648 2.36589,1.91772 1.2169,0.42736 2.24559,0.57335 4.02589,0.57136 1.52579,-0.002 3.96419,0.28462 6.73679,0.79107 3.72114,0.67971 4.99313,0.79408 8.85346,0.79605 2.4794,0.001 5.99628,0.17882 7.81529,0.39457 4.27632,0.50722 13.7887401,0.51277 20.2789601,0.0118 5.79742,-0.44746 15.6720999,-1.12046 19.6731299,-1.3408 1.52797,-0.0841 3.93479,-0.33554 5.34849,-0.55864 1.93772,-0.3058 2.97967,-0.34249 4.23333,-0.14909 0.91463,0.14111 2.28258,0.19598 3.03989,0.12194 1.26684,-0.12385 1.44134,-0.0702 2.18281,0.67128 0.82062,0.82062 0.9989,1.57908 0.56274,2.39406 -0.40233,0.75177 0.32434,3.73895 2.90903,11.9583 1.13184,3.59928 1.51124,4.44205 3.0373,6.74688 1.42585,2.15348 3.44419,4.35361 3.99388,4.35361 0.0632,0 -0.18067,-0.50602 -0.54183,-1.12448 z m -81.75096,-33.84751 c -0.69202,-0.69201 -0.96477,-1.25822 -1.19255,-2.47563 -0.16244,-0.86813 -0.5334,-2.43911 -0.82436,-3.49107 -0.73973,-2.67448 -0.70203,-3.65033 0.16293,-4.21707 1.02106,-0.66903 2.02256,-0.0584 2.25857,1.37703 0.0948,0.57668 0.38504,2.00751 0.64493,3.17961 l 0.47254,2.13109 2.13319,-3.18942 c 1.94112,-2.90225 2.21218,-3.19701 3.01038,-3.27362 0.48244,-0.0463 1.04438,0.0546 1.24874,0.22417 0.20435,0.1696 0.69621,1.30527 1.09302,2.52372 0.3968,1.21844 0.75942,2.17738 0.80582,2.13098 0.0464,-0.0464 0.26058,-0.76086 0.47594,-1.58769 0.99865,-3.8341 2.87686,-5.84579 4.21165,-4.511 0.58415,0.58415 0.51837,1.29014 -0.22681,2.43417 -0.76081,1.16802 -1.36757,3.19374 -1.72199,5.74901 -0.20821,1.50113 -0.39159,1.96856 -0.96777,2.46674 -0.51387,0.44431 -0.9022,0.57081 -1.40125,0.45647 -1.01017,-0.23144 -2.57608,-2.08915 -3.09093,-3.6669 -0.24641,-0.75514 -0.5019,-1.46741 -0.56775,-1.58283 -0.15679,-0.2748 -1.93439,2.22394 -2.79625,3.93064 -0.77364,1.532 -1.09461,1.85305 -2.10649,2.10701 -0.59853,0.15023 -0.88019,0.026 -1.62156,-0.71541 z m 17.04951,-1.25966 c -0.29999,-0.29999 -0.54544,-0.65561 -0.54544,-0.79026 0,-0.13466 0.66466,-1.79157 1.47703,-3.68203 2.31709,-5.39213 3.88049,-6.71656 5.66872,-4.80226 1.06552,1.14065 1.5883,2.91533 1.77003,6.00871 0.1772,3.01618 -10e-4,3.51416 -1.26026,3.51416 -0.88528,0 -1.5701,-0.83486 -1.5701,-1.91408 0,-0.71777 -0.0308,-0.73348 -1.12448,-0.57285 -0.61846,0.0908 -1.24354,0.34473 -1.38906,0.5642 -0.14552,0.21947 -0.5068,0.77163 -0.80285,1.22703 -0.65563,1.00855 -1.49379,1.17719 -2.22359,0.44738 z m 5.27539,-5.70481 c 0,-0.21828 -0.10632,-0.39687 -0.23627,-0.39687 -0.12995,0 -0.30481,0.17859 -0.38857,0.39687 -0.0928,0.24175 -4.2e-4,0.39688 0.23627,0.39688 0.21372,0 0.38857,-0.1786 0.38857,-0.39688 z m 6.98166,4.51346 c -0.51303,-0.35933 -0.54275,-0.62447 -0.51531,-4.59747 0.0311,-4.4992 0.18209,-5.07536 1.3302501,-5.07536 1.23064,0 1.52784,0.78162 1.56336,4.11149 l 0.0327,3.06997 0.79375,-0.1637 c 2.43831,-0.50288 2.48123,-0.49901 2.82469,0.2548 0.4421,0.9703 -0.14739,2.01206 -1.37841,2.43594 -1.30472,0.44926 -3.9881301,0.42869 -4.6510801,-0.0357 z m 14.3583101,-0.10252 c -0.24084,-0.26612 -0.43788,-0.71901 -0.43788,-1.00643 0,-0.28742 -0.38696,-0.88745 -0.8599,-1.3334 -0.77658,-0.73226 -0.97525,-0.79496 -2.05052003,-0.64721 -1.07553,0.14779 -1.19575,0.23618 -1.24361,0.91438 -0.0715,1.0125 -0.52602997,1.49818 -1.40221997,1.49818 -1.1798,0 -1.42605,-0.56494 -1.36344,-3.12802 0.0964,-3.94719 0.74528,-6.39698 1.69433,-6.39698 0.13688,0 0.56491,-0.22461 0.95118,-0.49914 1.85373997,-1.31749 4.21297,-1.20491 5.44549,0.25985 0.87205,1.03638 0.8908,2.38058 0.0562,4.02913 -0.51176,1.01085 -0.56094,1.28649 -0.2723,1.52604 0.75587,0.62731 1.9552,2.75015 1.9552,3.46073 0,0.85019 -0.81876,1.80672 -1.54649,1.80672 -0.26849,0 -0.68521,-0.21773 -0.92604,-0.48385 z m -2.09284,-7.15068 c 0.62057,-0.73115 0.79606,-1.62588 0.3189,-1.62588 -0.96888003,0 -2.36811003,1.41732 -2.36811003,2.39874 0,0.47964 1.45043,-0.0674 2.04921003,-0.77286 z m 8.30381,5.89821 c -0.63814,-0.81126 -0.81928,-1.38461 -1.77832,-5.62901 -0.81758,-3.61832 -0.74861,-4.08771 0.62084,-4.22505 1.13522,-0.11386 1.5013199,0.53157 2.3349999,4.11657 0.38623,1.66088 0.7989,2.92062 0.91704,2.79941 0.49721,-0.51013 1.62117,-3.08908 1.7427,-3.99867 0.31028,-2.32227 0.70294,-2.96859 1.80352,-2.96859 1.15883,0 1.30901,0.55786 1.39356,5.17633 0.0743,4.05795 0.0472,4.34501 -0.43459,4.60285 -0.79089,0.42327 -1.56952,0.32772 -1.92144,-0.23579 -0.30715,-0.49184 -0.35174,-0.48202 -1.20207,0.26458 -1.18377,1.03936 -2.70182,1.08188 -3.4762399,0.0974 z m 20.7544199,-0.002 c -0.98177,-0.98177 0.0165,-3.55297 1.37951,-3.55297 0.40959,0 0.88759,0.14287 1.06222,0.3175 0.45201,0.45201 0.393,2.36738 -0.0944,3.06321 -0.48912,0.69832 -1.73022,0.7894 -2.34735,0.17226 z m 9.1681,0.004 c -1.13678,-0.79623 -0.47104,-2.76312 0.93525,-2.76312 1.2973,0 1.8376,1.6662 0.85796,2.64583 -0.63683,0.63683 -1.01605,0.66164 -1.79321,0.11729 z m 7.22682,-0.10663 c -0.99949,-1.10442 0.48117,-3.06029 1.84597,-2.43844 0.95247,0.43397 1.12957,1.51181 0.37958,2.31014 -0.7334,0.78067 -1.59045,0.83008 -2.22555,0.1283 z m -26.4323,-0.29445 c -1.3064,-1.02761 -0.68397,-3.42038 0.88975,-3.42038 0.41972,0 0.83671,0.11907 0.92665,0.26459 0.0899,0.14552 0.29631,0.26458 0.45861,0.26458 0.1623,0 0.0419,-0.26952 -0.26757,-0.59892 -1.30396,-1.38801 -1.89915,-4.41886 -1.14493,-5.83029 0.85524,-1.60046 3.28441,-1.88374 4.6284,-0.53974 0.74628,0.74627 0.93744,2.11888 0.37361,2.6827 -0.52658,0.52659 -1.72604,0.37578 -2.20959,-0.27781 -0.44023,-0.59504 -0.44035,-0.59495 -0.2612,0.19844 0.0986,0.43656 0.40647,1.15093 0.6842,1.5875 1.56328,2.45731 1.61075,3.1244 0.33059,4.64579 -1.29648,1.54078 -3.1916,1.98078 -4.40852,1.02354 z m 18.89548,-4.12482 c -0.30477,-0.38745 -0.62712,-0.99533 -0.71635,-1.35084 -0.17442,-0.69495 0.51205,-2.44263 0.95944,-2.44263 0.35831,0 1.71772,-2.08268 1.50092,-2.29948 -0.0946,-0.0946 -0.43947,0.0687 -0.76632,0.36289 -0.92585,0.83343 -1.16752,0.9071 -1.89227,0.57688 -1.26295,-0.57544 -1.13035,-1.85609 0.33597,-3.24489 1.15507,-1.094 2.75739,-0.99792 4.44606,0.26659 1.2359,0.92548 1.33581,1.86103 0.39716,3.71893 -0.42934,0.84982 -1.02612,1.76682 -1.32617,2.03779 -0.40677,0.36734 -0.50631,0.68889 -0.3913,1.26395 0.32539,1.62694 -1.51115,2.42785 -2.54714,1.11081 z m -7.32596,0.10913 c -0.57323,-0.81173 -1.15416,-2.03656 -1.15416,-2.43341 0,-0.23844 0.55207,-1.02374 1.22683,-1.74511 0.67476,-0.72137 1.10605,-1.31158 0.95844,-1.31158 -0.14762,0 -0.41661,0.17859 -0.59777,0.39687 -0.72476,0.87328 -2.38125,0.11758 -2.38125,-1.08634 0,-0.28354 0.35047,-0.89924 0.77883,-1.36823 0.60109,-0.65811 0.99599,-0.85272 1.73034,-0.85272 1.37169,0 2.98445,0.90905 3.48869,1.96645 0.55236,1.15831 0.30556,2.1018 -0.8528,3.26016 -0.70489,0.70488 -0.87318,1.05257 -0.74899,1.54737 0.23569,0.93909 -0.52347,1.95727 -1.45936,1.95727 -0.41539,0 -0.86035,-0.14883 -0.9888,-0.33073 z m 14.72084,-0.46349 c -0.36412,-0.36412 -0.52917,-0.88194 -0.52917,-1.66022 0,-1.00658 0.13799,-1.26089 1.25396,-2.31107 l 1.25396,-1.18002 -1.01693,-0.1653 c -1.70308,-0.27683 -2.01413,-1.60928 -0.68578,-2.93764 0.74451,-0.74451 0.91523,-0.79608 2.26468,-0.68418 1.91214,0.15857 2.57744,0.78454 2.55299,2.40207 -0.0184,1.21423 -0.7994,3.07272 -1.70896,4.06646 -0.32796,0.3583 -0.46366,0.76382 -0.36238,1.0829 0.10015,0.31555 -0.049,0.77824 -0.39111,1.21314 -0.67555,0.85882 -1.86754,0.93758 -2.63126,0.17386 z m -89.29688,-7.92534 c -0.7242,-0.29954 -1.62668,-1.31466 -1.96675,-2.2122 -0.69045,-1.8223 0.004,-4.90965 1.46934,-6.53152 2.02986,-2.24681 5.65679,-2.42177 5.65679,-0.27288 0,1.01852 -0.82133,1.69021 -1.80309,1.47458 -0.59847,-0.13145 -0.9402,-0.0294 -1.4665,0.43809 -0.8005,0.71101 -1.39318,2.69477 -1.1247,3.76449 0.16843,0.67108 0.26786,0.72635 1.03355,0.57451 0.47783,-0.0948 1.21622,-0.56948 1.6936,-1.08886 0.94402,-1.02706 1.63427,-1.15892 2.28759,-0.43701 0.71597,0.79114 0.53396,1.69638 -0.55431,2.75682 -1.58945,1.54881 -3.69519,2.16697 -5.22552,1.53398 z m 9.64461,-0.55401 c -0.51527,-0.51527 -0.53326,-0.73923 -0.36668,-4.56407 0.10768,-2.47246 0.30317,-4.22771 0.50737,-4.55558 0.4727,-0.75897 3.48288,-2.24475 4.54787,-2.24475 3.39798,0 4.73664,3.17374 2.41531,5.72635 -0.51528,0.56662 -0.51501,0.56742 0.41292,1.27519 0.79112,0.60342 1.01429,0.66231 1.50817,0.39799 0.78136,-0.41817 1.76738,0.0416 1.9898,0.92778 0.34438,1.3721 -1.27444,2.72338 -2.84843,2.37768 -0.41264,-0.0906 -1.43375,-0.67367 -2.26914,-1.29565 -0.88039,-0.65548 -1.93596,-1.19553 -2.51107,-1.28471 l -0.99219,-0.15386 v 1.52986 c 0,1.14608 -0.12137,1.6397 -0.48385,1.96774 -0.64646,0.58504 -1.25415,0.55196 -1.91008,-0.10397 z m 4.43186,-6.91838 c 1.03068,-0.99898 1.11467,-1.5356 0.24034,-1.5356 -0.82902,0 -1.68347,0.74413 -1.89879,1.65364 -0.24334,1.02787 0.5332,0.97259 1.65845,-0.11804 z m 20.4800001,4.91035 c -0.98023,-0.88336 -1.33191,-2.33149 -0.75419,-3.10559 0.51283,-0.68715 1.75547,-0.64037 2.30393,0.0867 0.39125,0.5187 0.47711,0.53766 0.78029,0.17235 0.28761,-0.34655 0.19231,-0.58378 -0.61198,-1.52341 -0.81571,-0.95298 -0.95264,-1.30127 -0.95264,-2.42315 0,-1.15666 0.10941,-1.41338 0.93369,-2.19077 0.52076,-0.49115 1.35286,-0.95923 1.88152,-1.0584 1.90585,-0.35754 3.69938997,1.25325 3.03037,2.72159 -0.36814,0.80797 -1.48979,1.06754 -2.12581,0.49195 -0.94179,-0.85232 -0.86489,0.10145 0.099,1.22752 1.06262,1.24143 1.24726,2.56333 0.54716,3.91719 -0.56273,1.08819 -2.05341,2.14129 -3.26014,2.30315 -0.86945,0.11662 -1.1622,0.0197 -1.87117,-0.61916 z m 23.4286399,0.39815 c -0.2683,-0.15596 -0.66156,-0.69939 -0.87391,-1.20763 -0.34306,-0.82105 -0.33962,-0.99502 0.0309,-1.56048 0.48816,-0.74503 1.5831,-0.84929 2.28149,-0.21726 0.42639,0.38588 0.49488,0.37013 0.86281,-0.19843 0.21981,-0.33968 0.48221,-0.95322 0.58312,-1.36343 0.18008,-0.73204 0.16633,-0.74261 -0.74369,-0.57189 -1.08856,0.20421 -2.28985,-0.31831 -2.9109,-1.26617 -0.2258,-0.34461 -0.67081,-1.50047 -0.9889,-2.56856 -0.66015,-2.21665 -0.49218,-3.04882 0.67447,-3.34164 0.94759,-0.23783 1.50086,0.41394 2.10084,2.47483 0.26478,0.9095 0.55781,1.65364 0.65119,1.65364 0.48089,0 0.80477,-0.77151 0.80477,-1.91702 0,-1.56319 0.92387,-2.73485 1.92264,-2.43832 1.01626,0.30173 1.17607,0.82081 1.36179,4.42337 0.19741,3.82923 -0.0446,5.2338 -1.17543,6.82191 -0.9702,1.36252 -3.31142,2.01517 -4.58118,1.27708 z m -29.17206,-0.42556 c -0.16012,-0.11046 -0.43276,-0.46979 -0.60588,-0.7985 l -0.31477,-0.59767 -0.97689,0.66381 c -1.07686,0.73175 -1.57486,0.80626 -2.51766,0.37669 -0.94215,-0.42927 -1.42699,-1.46042 -1.92266,-4.08905 -0.24586,-1.30388 -0.55157,-2.57744 -0.67934,-2.83013 -0.32934,-0.65134 -0.28776,-1.62824 0.0852,-2.00119 0.49497,-0.49497 1.72616,-0.37374 2.28386,0.22488 0.31549,0.33864 0.62786,1.30211 0.83156,2.56485 0.17945,1.11236 0.41232,2.2551 0.51749,2.53942 0.17569,0.47491 0.23868,0.45029 0.77498,-0.30286 0.32106,-0.45089 0.75014,-1.3727 0.95352,-2.04848 0.20338,-0.67578 0.57509,-1.45555 0.82603,-1.73283 0.67427,-0.74506 1.85284,-0.65172 2.40465,0.19045 0.425,0.64864 0.4265,0.77416 0.0227,1.8971 -0.41252,1.14717 -0.40661,1.28113 0.12855,2.91133 0.50549,1.53984 0.52265,1.77742 0.17349,2.40238 -0.389,0.69627 -1.41606,1.02216 -1.98482,0.6298 z m 17.2499701,-0.67862 c -0.53035,-0.38781 -0.5304,-0.49008 -0.002,-4.97131 l 0.1745,-1.48034 -0.82896,0.12167 c -1.03336,0.15166 -1.61786,-0.30947 -1.61786,-1.27641 0,-1.39083 2.01494,-2.31131 5.58562,-2.55165 2.08671,-0.14046 2.32592,-0.10576 2.84427,0.41259 0.7069999,0.70699 0.7216099,1.46862 0.0412,2.14899 -0.42742,0.42742 -0.74292,0.49481 -1.70153,0.36342 -1.34438,-0.18427 -1.15967,-0.59338 -1.74927,3.87437 -0.16323,1.23693 -0.4406,2.54661 -0.61638,2.91041 -0.37345,0.77293 -1.39217,0.98737 -2.12946,0.44826 z M -30.009562,112.04333 c -1.73641,-0.4309 -2.38518,-1.69389 -2.19994,-4.28278 0.32319,-4.517 3.553,-8.109794 6.43533,-7.15853 0.9924,0.32752 1.97129,1.38478 1.97129,2.12913 0,1.16875 -1.73484,1.7337 -2.68455,0.87422 -0.44626,-0.40386 -0.52768,-0.37794 -1.25346,0.39901 -0.90953,0.97365 -1.61824,2.87337 -1.61824,4.33772 v 1.03556 l 0.83772,-0.48926 c 0.46075,-0.26909 1.30475,-1.17302 1.87554,-2.00873 0.85537,-1.25235 1.17059,-1.51947 1.79311,-1.51947 0.98546,0 1.57904,0.85611 1.57904,2.2774 0,0.88278 0.13126,1.18733 0.66146,1.53473 1.0527,0.68975 0.79961,2.05172 -0.50911,2.73973 -0.69857,0.36724 -1.84306,-0.0674 -2.26794,-0.86132 l -0.33939,-0.63415 -0.82303,0.6161 c -1.09438,0.81922 -2.53384,1.23994 -3.45783,1.01064 z m 9.80397,-0.64172 c -0.23226,-0.3316 -0.42229,-0.73504 -0.42229,-0.89654 0,-0.1615 0.72993,-1.65306 1.62207,-3.31457 3.06312,-5.70469 3.84482,-6.60723 5.38731,-6.22009 0.76003,0.19076 1.25143,1.09998 1.71679,3.17649 0.1499,0.66891 0.51003,1.45366 0.80027,1.74391 0.60022,0.60021 0.66289,1.11222 0.22247,1.81744 -0.23096,0.36983 -0.22961,0.78924 0.006,1.72319 0.21526,0.85487 0.22785,1.38944 0.041,1.73866 -0.70154,1.31084 -2.49642,0.71074 -2.80574,-0.93807 -0.16805,-0.89576 -0.22839,-0.94431 -1.00455,-0.80831 -2.26982,0.39774 -2.4321,0.47736 -2.95198,1.44831 -0.6592,1.23114 -1.93782,1.49049 -2.61087,0.52958 z m 5.66312,-5.51224 c 0,-0.29105 -0.0553,-0.52917 -0.12298,-0.52917 -0.0676,0 -0.25042,0.23812 -0.40618,0.52917 -0.22604,0.42235 -0.20122,0.52916 0.12298,0.52916 0.2298,0 0.40618,-0.22979 0.40618,-0.52916 z m -29.79216,5.35376 c -0.16011,-0.10692 -0.4381,-0.47332 -0.61774,-0.81423 -0.40157,-0.76205 0.005,-2.13946 1.70188,-5.77157 1.92004,-4.10877 2.97845,-4.64543 5.39482,-2.73539 0.73731,0.58281 1.52238,1.41123 1.74459,1.84094 0.52794,1.02093 1.30276,5.63264 1.08927,6.48327 -0.3348,1.33394 -2.37906,1.0838 -2.69316,-0.32953 -0.37252,-1.67617 -0.34326,-1.64745 -1.65001,-1.61963 -2.08797,0.0445 -2.53642,0.26921 -2.71374,1.36013 -0.0865,0.53186 -0.31059,1.15185 -0.49807,1.37776 -0.35785,0.43118 -1.26331,0.53845 -1.75784,0.20825 z m 5.71508,-6.13821 c 0,-0.23245 -0.82701,-0.80305 -1.16392,-0.80305 -0.0772,0 -0.26782,0.23812 -0.42358,0.52916 -0.25838,0.48278 -0.20121,0.52917 0.65215,0.52917 0.51444,0 0.93535,-0.11487 0.93535,-0.25528 z m 30.2793701,5.62601 c -0.37454,-0.37454 -0.42211,-0.76318 -0.28337,-2.3151 0.33153,-3.70853 0.68693,-6.69375 0.84638,-7.10927 0.34389,-0.89616 1.99249,-0.85429 2.48345,0.0631 0.16092,0.30069 0.15497,1.37264 -0.0164,2.95865 -0.14783,1.36791 -0.26443,3.15938 -0.25911,3.98103 0.0154,2.3715 -1.49824,3.6943 -2.77092,2.42162 z m 7.45248997,-0.93896 c -0.31112997,-0.48698 -0.34384997,-1.29343 -0.17979997,-4.43177 0.11029997,-2.11005 0.33650997,-4.16708 0.50268997,-4.57117 0.32489,-0.790024 1.18496,-1.248034 1.96201003,-1.044834 0.56433,0.14757 2.56004,2.353164 3.58489,3.961884 0.39383,0.6182 0.80536,1.12422 0.9145,1.12448 0.10914,2.6e-4 0.19843,-1.05264 0.19843,-2.33977 0,-2.508194 0.3304,-3.216014 1.50119,-3.216014 0.99748,0 1.40929,0.818364 1.40849,2.798964 -9.1e-4,2.22418 -0.49224,6.42342 -0.82459,7.04744 -0.1329,0.24954 -0.71217,0.59467 -1.28726,0.76697 -1.24039,0.37163 -1.72003,0.0949 -2.31901,-1.33813 -0.20949,-0.50117 -0.87529,-1.63227 -1.47956,-2.51354 -0.81792,-1.19287 -1.11224,-1.4671 -1.15176,-1.07316 -0.0292,0.29105 -0.12919,1.45373 -0.2222,2.58375 -0.10429,1.26694 -0.31971,2.20516 -0.56194,2.44739 -0.58488003,0.58489 -1.60770003,0.48366 -2.04608003,-0.20249 z M 13.348008,108.40483 c -1.11911,-1.70797 1.2821,-4.04786 2.62789,-2.56078 0.53983,0.5965 0.55345,1.17104 0.0508,2.14306 -0.65041,1.25776 -1.99127,1.46686 -2.67868,0.41772 z m 12.7,-0.52916 c -0.75692,-1.1552 -0.0596,-2.78005 1.19317,-2.78005 0.96729,0 1.34344,0.454 1.34344,1.62151 0,1.74769 -1.65524,2.50368 -2.53661,1.15854 z m -6.55051,-0.0889 c -1.35713,-1.49961 0.77419,-3.33116 2.20795,-1.8974 0.63683,0.63683 0.66164,1.01605 0.11729,1.79321 -0.50853,0.72603 -1.71361,0.78003 -2.32524,0.10419 z m -62.62505,-15.192714 c -2.44662,-1.23376 -3.07258,-4.56968 -1.42536,-7.59617 0.87173,-1.60165 1.67731,-2.24526 3.33169,-2.66184 1.41464,-0.35621 3.12163,-0.004 3.93854,0.81312 0.65622,0.65621 0.64917,1.06729 -0.0332,1.93473 -0.64239,0.81667 -1.07105,0.8645 -2.13187,0.23785 -0.70301,-0.41527 -0.84638,-0.4211 -1.49604,-0.0608 -1.48715,0.82482 -2.17904,3.65852 -1.12596,4.61154 0.39926,0.36134 0.74647,0.42656 1.50904,0.2835 1.17145,-0.21976 2.76249,-0.99251 3.24799,-1.5775 0.40824,-0.49191 1.62868,-0.54983 2.0798,-0.0987 1.15816,1.15816 -0.63131,3.26927 -3.53011,4.16462 -2.24082,0.69212 -2.90745,0.68443 -4.36456,-0.0504 z m 12.26046,0.30838 c -0.98258,-0.36348 -0.95061,-1.12671 0.20085,-4.79608 1.65201,-5.26444 1.97401,-5.7649 3.70924,-5.7649 1.00602,0 2.6562,1.48171 3.48139,3.12596 0.34217,0.68182 0.8337,1.5591 1.09228,1.94953 0.35646,0.53822 0.40395,0.83354 0.19638,1.22138 -0.1911,0.35709 -0.18459,0.74778 0.0216,1.294 0.37093,0.98271 0.10577,2.09672 -0.58737,2.46767 -0.81133,0.43422 -1.91192,-0.20925 -2.2755,-1.33039 -0.31979,-0.98612 -0.40548,-1.0126 -2.17375,-0.67186 -1.02231,0.197 -1.20326,0.34556 -1.62815,1.33681 -0.50216,1.17149 -1.10024,1.51439 -2.03696,1.16788 z m 4.62826,-5.75908 c 0.269,-0.17065 0.23538,-0.34898 -0.15719,-0.83377 l -0.49937,-0.6167 -0.29206,0.83783 c -0.25337,0.7268 -0.23254,0.83729 0.15719,0.83377 0.24709,-0.002 0.60323,-0.10174 0.79143,-0.22113 z m 24.9557901,4.48877 c -0.67111,-0.67111 -0.70285,-1.52921 -0.16126,-4.35953 l 0.39808,-2.08032 -0.795,-0.90545 c -1.78563,-2.03372 -0.64297,-3.45325 3.38851,-4.20952 1.11881,-0.20988 2.3658,-0.45583 2.77108,-0.54655 1.42163,-0.31823 2.36837,1.39945 1.30284,2.36374 -0.26061,0.23585 -1.12381,0.55745 -1.91823,0.71468 -2.83585003,0.56125 -2.62068,0.44852 -2.27992,1.19447 0.26675,0.58392 0.42604,0.65093 1.23239,0.51844 1.15539,-0.18984 1.91823,0.31933 1.91823,1.28033 0,1.0044 -0.43971,1.41143 -1.90429,1.76278 -1.03185,0.24754 -1.30677,0.43323 -1.40542,0.94929 -0.0674,0.35285 -0.0153,0.64155 0.1158,0.64155 0.25628,0 1.93139,-0.87123 2.62379,-1.36465 0.66074,-0.47085 1.79191,-0.0575 1.98873,0.72673 0.28408,1.13185 -0.25727,1.81236 -2.18564,2.74748 -2.34963,1.13941 -4.29975003,1.35648 -5.08969,0.56653 z m -16.8685801,-0.65666 c -0.82617,-0.71065 -0.85029,-0.9727 -0.50253,-5.45901 0.26143,-3.37258 0.40449,-3.70417 1.59814,-3.70417 1.35122,0 1.5632,0.60764 1.36158,3.90288 -0.13139,2.14736 -0.0964,2.7 0.1614,2.55195 0.18101,-0.10394 0.91028,-0.60838 1.6206,-1.12097 1.21902,-0.87969 1.33039,-0.91027 1.98438,-0.54498 0.4725,0.26392 0.71845,0.64721 0.77328,1.20512 0.067,0.68169 -0.0933,0.95572 -0.96158,1.64338 -1.32452,1.04904 -3.66951,2.14627 -4.59417,2.14962 -0.39207,10e-4 -1.04056,-0.2793 -1.4411,-0.62382 z m 8.3418701,-0.19713 c -0.4543401,-0.45434 -0.5241301,-0.73907 -0.3728801,-1.52135 0.10233,-0.52932 0.2645601,-2.66361 0.3605101,-4.74286 0.13538,-2.93387 0.26332,-3.83653 0.57132,-4.03085 0.56437,-0.35605 1.14215,-0.31683 1.73537,0.11781 0.4649,0.34063 0.51359,0.71841 0.51359,3.98473 v 3.60842 l 1.83876,-0.0821 c 1.71314,-0.0765 1.8607,-0.0389 2.15991,0.551 0.37366,0.73662 0.0245,1.7872 -0.66539,2.0018 -0.62798,0.19536 -4.01707,0.6611 -4.85463,0.66713 -0.40019,0.003 -0.97914,-0.24629 -1.28656,-0.55371 z m 20.9318699,-1.02855 c -0.21828,-0.14106 -0.82878,-0.2583 -1.3566699,-0.26053 -1.48896,-0.006 -1.65873,-0.40962 -1.45849,-3.46516 0.0974,-1.48648 0.0667,-2.85091 -0.07,-3.10627 -0.24479,-0.45738 0.28287,-3.10983 0.70068,-3.52221 0.11005,-0.10863 0.53659,-0.25792 0.94786,-0.33176 0.4112699,-0.0738 1.1631799,-0.27135 1.6708899,-0.43891 1.85337,-0.61167 4.03892,0.37654 4.86696,2.20062 0.58098,1.27984 0.68119,3.69328 0.21759,5.24062 -0.74955,2.50177 -3.9953,4.66818 -5.51883,3.6836 z m 1.75497,-3.11473 c 0.81462,-0.65987 1.20191,-1.54905 1.21969,-2.80031 0.022,-1.54509 -0.26653,-2.26132 -0.98328,-2.44122 -1.13686,-0.28533 -1.72653,0.28924 -1.7291,1.68484 -10e-4,0.68611 -0.0774,1.87254 -0.16914,2.63653 -0.16044,1.33573 -0.14258,1.38883 0.46532,1.38318 0.34769,-0.003 0.88612,-0.2116 1.19651,-0.46302 z m -56.37253,-16.88021 c -0.32548,-0.32548 -0.41666,-1.02935 -0.41983,-3.24114 -0.005,-3.28455 -0.16707,-3.73491 -1.18007,-3.27335 -1.45567,0.66325 -2.52004,0.0414 -2.52004,-1.47219 0,-1.14129 0.60904,-1.65171 1.97087,-1.65171 0.68996,0 1.26925,-0.15653 1.46871,-0.39687 0.39388,-0.4746 1.35867,-0.51987 1.79435,-0.0842 0.24051,0.24051 0.77558,0.1675 2.3184,-0.31635 1.68783,-0.52933 2.13452,-0.58042 2.81833,-0.32231 0.57071,0.21542 0.96487,0.22523 1.32413,0.033 1.05296,-0.56353 2.251,0.81831 2.88197,3.32412 0.31663,1.25744 0.31816,1.25876 1.27064,1.10121 0.5245,-0.0868 1.162,-0.15905 1.41666,-0.16065 0.39559,-0.002 0.46302,-0.26666 0.46302,-1.81399 0,-2.00902 0.41208,-2.68684 1.63347,-2.68684 1.45373,0 2.15082,1.95231 1.72189,4.82242 -0.25167,1.68402 -0.23499,1.79539 0.33852,2.25979 0.51838,0.41976 0.57759,0.64026 0.42094,1.56747 -0.21568,1.27662 -0.98507,2.19823 -1.83516,2.19823 -0.87404,0 -1.45753,-0.77742 -1.65281,-2.20215 -0.16083,-1.17336 -0.21227,-1.23724 -0.99354,-1.23382 -1.70215,0.007 -1.94109,0.19704 -2.08079,1.65093 -0.1842,1.91697 -1.42197,2.67809 -2.53888,1.56118 -0.38491,-0.38491 -0.51915,-1.0455 -0.63326,-3.11631 -0.1775,-3.22137 -0.63613,-4.96324 -1.23857,-4.70416 -0.22982,0.0988 -0.77504,0.22082 -1.2116,0.27108 -0.43656,0.0503 -1.32629,0.25441 -1.97717,0.45367 l -1.18341,0.36228 0.0834,3.23229 c 0.0718,2.78087 0.0189,3.30365 -0.37895,3.74324 -0.55927,0.61799 -1.51476,0.66168 -2.08127,0.0952 z m 27.40662,-0.78264 c -0.28954,-0.36808 -0.60705,-1.14645 -0.7056,-1.72971 -0.14853,-0.87914 -0.26537,-1.03614 -0.68339,-0.91825 -0.27733,0.0782 -0.73627,0.20783 -1.01987,0.28804 -0.2836,0.0802 -0.58616,0.36804 -0.67236,0.63964 -0.55132,1.73703 -2.33463,2.45446 -3.16263,1.27233 -0.55574,-0.79344 -0.51815,-1.42236 0.12335,-2.06386 0.29438,-0.29438 1.13363,-1.99102 1.86502,-3.77032 1.65539,-4.0272 1.91128,-4.42682 2.83137,-4.42165 1.26769,0.007 1.61116,0.47789 2.30653,3.1614 0.24198,0.93383 0.6062,1.9352 0.80937,2.22526 0.20317,0.29007 0.303,0.79195 0.22184,1.1153 -0.0849,0.33836 0.0457,0.8829 0.30783,1.2829 0.53231,0.81239 0.6013,2.60974 0.12233,3.18686 -0.52721,0.63524 -1.74265,0.49629 -2.34379,-0.26794 z m 28.8649,-0.79565 c -1.21961,-0.85424 -1.2814,-3.23841 -0.19862,-7.66322 0.21366,-0.87313 0.39034,-1.92409 0.39261,-2.33546 0.007,-1.34973 1.1633,-2.16534 3.57975,-2.52602 2.45745,-0.3668 3.44162,-0.17117 4.19148,0.83318 0.43887,0.58782 0.47652,0.81627 0.22535,1.36752 -0.34872,0.76536 -1.47276,1.14661 -2.02624,0.68726 -0.5218,-0.43306 -2.73863,-0.0793 -3.02833,0.48331 -0.12231,0.23753 -0.30493,0.88871 -0.40582,1.44706 -0.20605,1.14043 -0.42124,1.11305 2.3047,0.29327 1.9154,-0.57602 2.83616,-0.28584 2.83616,0.89382 0,1.08861 -0.65231,1.53839 -3.18509,2.19624 -2.02802,0.52674 -2.90033,1.00952 -2.90033,1.60518 0,0.57792 3.19404,-0.30986 4.1181,-1.14463 0.76449,-0.69062 1.56905,-0.61457 2.21733,0.20959 1.08553,1.38002 0.20022,2.40414 -2.93426,3.39432 -2.39707,0.75723 -4.3368,0.85394 -5.18679,0.25858 z m -22.2532799,-0.54897 c -0.6037501,-0.42288 -0.6071701,-0.45782 -0.41811,-4.27464 l 0.19061,-3.84828 -1.3317001,0.15772 c -1.44335,0.17095 -2.01558,-0.086 -2.29485,-1.03041 -0.10327,-0.34923 0.0135,-0.77902 0.31166,-1.14724 0.41421,-0.51153 0.92724,-0.63681 3.9087301,-0.9545 5.51863,-0.58803 6.27621,-0.46165 6.27621,1.04701 0,1.05542 -0.42343,1.33262 -2.26198,1.48088 l -1.64063,0.13229 -0.16827,3.43958 c -0.0925,1.89177 -0.18185,3.64794 -0.19844,3.90261 -0.0358,0.54978 -0.94681,1.52135 -1.4265,1.52135 -0.1859,0 -0.61193,-0.19187 -0.94673,-0.42637 z m 35.0191099,-0.51888 c -1.27699,-0.66415 -1.98438,-1.46871 -1.98438,-2.25697 0,-1.53515 1.66054,-2.0889 2.6953,-0.89882 0.31632,0.3638 0.72523,0.66146 0.90868,0.66146 0.74554,0 0.58103,-0.56592 -0.52726,-1.8138 -1.95649,-2.2029 -2.22022,-4.14112 -0.76951,-5.65533 1.05125,-1.09727 2.50056,-1.41418 3.72022,-0.81348 1.86807,0.92005 2.40514,3.08905 0.93118,3.76063 -0.54274,0.24729 -0.7958,0.22685 -1.30256,-0.1052 -0.34593,-0.22666 -0.62896,-0.58795 -0.62896,-0.80288 0,-0.51874 -0.50345,-0.50106 -0.70523,0.0248 -0.10021,0.26112 0.18317,0.77731 0.76255,1.38906 1.44321,1.52384 1.79476,2.19508 1.79476,3.42678 0,1.31157 -0.52641,2.48886 -1.38028,3.08693 -0.75512,0.52891 -2.4945,0.52736 -3.51451,-0.003 z M 3.8538781,66.647796 c -0.35155,-0.53655 -0.3555,-0.79059 -0.0318,-2.05053 0.30495,-1.18704 0.95006,-4.84789 0.95006,-5.39139 0,-0.0813 -0.40897,-0.14775 -0.90882,-0.14775 -1.95852,0 -3.11727003,-1.01155 -2.50047,-2.18282 0.46016,-0.8738 0.66032,-0.93921 2.44583,-0.79937 1.0327,0.0809 2.21741,-0.0275 3.25061,-0.29736 2.1499,-0.56154 3.3442199,-0.54335 3.8895499,0.0592 0.88768,0.98088 0.15668,2.42424 -1.2307699,2.43018 -1.79233,0.008 -1.97393,0.17013 -2.16779,1.93943 -0.2544,2.32172 -1.12795,6.26157 -1.48326,6.68969 -0.48902,0.58923 -1.7573,0.44635 -2.21312,-0.24932 z m 31.2942499,-0.37978 c -0.68772,-0.80074 -0.72763,-1.28997 -0.36186,-4.43484 0.42545,-3.65785 0.35485,-4.09797 -0.65736,-4.09797 -1.46074,0 -2.05072,-1.37691 -1.02813,-2.39949 0.49973,-0.49973 0.80509,-0.54011 3.50573,-0.46361 1.62707,0.0461 3.56234,-0.0178 4.3006,-0.14193 1.1077,-0.18628 1.41982,-0.1482 1.78594,0.21792 1.2076,1.20761 0.15359,2.36013 -2.55852,2.79764 l -1.98971,0.32098 -0.15759,0.95872 c -0.13562,0.82496 -0.39364,4.77937 -0.40352,6.18425 -0.004,0.60968 -0.93298,1.52135 -1.54975,1.52135 -0.26849,0 -0.66711,-0.20836 -0.88583,-0.46302 z m -78.372,-16.08534 c -0.64369,-0.64369 -0.96016,-2.2429 -1.21737,-6.15161 -0.13123,-1.99434 -0.31362,-4.0452 -0.40531,-4.55747 -0.34374,-1.92058 1.77376,-2.49277 2.6873,-0.72617 0.27535,0.53247 0.49879,1.83285 0.60013,3.49268 l 0.16145,2.64437 0.49727,-0.78453 c 1.84395,-2.90914 3.47229,-3.00355 5.25703,-0.30482 l 0.6672,1.00888 0.327,-1.40575 c 0.40918,-1.75899 1.51717,-3.86209 2.30753,-4.37995 0.5367,-0.35166 0.67228,-0.34742 1.26272,0.0395 0.80813,0.5295 0.86351,1.48626 0.15276,2.63893 -0.27978,0.45374 -0.81704,2.04301 -1.19391,3.53172 -0.83826,3.3113 -1.0917,3.88858 -1.89624,4.31915 -1.0092,0.54011 -1.74656,-0.002 -2.84565,-2.09409 -0.54025,-1.02809 -1.08965,-1.93562 -1.22091,-2.01674 -0.13125,-0.0811 -0.79908,0.89669 -1.48407,2.17289 -0.68499,1.27621 -1.42965,2.46921 -1.6548,2.65111 -0.55999,0.45242 -1.50864,0.41544 -2.00213,-0.078 z m 15.95403,-1.67685 c -0.5886,-0.47662 -0.62438,-0.7124 -0.82881,-5.46291 -0.19202,-4.46198 -0.16872,-5.01443 0.22998,-5.455 1.07511,-1.18798 2.47829,-0.13601 2.47829,1.85797 0,2.29857 0.23188,2.94349 1.05833,2.94349 1.72032,0 2.25401,-0.2674 2.55134,-1.27831 0.15702,-0.53386 0.22985,-1.47825 0.16186,-2.09865 -0.16094,-1.46857 0.43522,-2.44388 1.49384,-2.44388 1.18585,0 1.39598,0.51493 1.53303,3.75671 0.0814,1.925 0.2678,3.24585 0.52953,3.75197 0.55092,1.06537 0.32202,2.91565 -0.46424,3.75259 -0.70321,0.74853 -1.22192,0.80774 -2.04232,0.23311 -0.46811,-0.32788 -0.58804,-0.66964 -0.58804,-1.6757 0,-0.6951 -0.0534,-1.31722 -0.11867,-1.38249 -0.0653,-0.0653 -0.90523,-1.2e-4 -1.86657,0.14478 -1.5871,0.23923 -1.73508,0.3145 -1.60863,0.81831 0.20646,0.82259 -0.32542,2.46188 -0.89823,2.76844 -0.69456,0.37172 -0.91594,0.34025 -1.62069,-0.23043 z m 11.93362,-0.82479 c -0.72487,-0.72487 -0.66462,-1.24865 0.24093,-2.09456 0.46362,-0.43309 1.25503,-1.87046 1.98868,-3.61188 1.64975,-3.91593 2.26958,-4.95036 3.1522501,-5.26078 1.09447,-0.3849 2.01671,0.25252 2.95252,2.04067 0.43656,0.83419 0.93983,1.51705 1.11838,1.51747 0.17855,4.1e-4 0.52012,0.29911 0.75906,0.66377 0.35731,0.54532 0.37945,0.79575 0.12471,1.41072 -0.25828,0.62356 -0.21929,0.97711 0.23486,2.12928 0.59187,1.50159 0.46393,2.15105 -0.52834,2.6821 -0.68882,0.36864 -1.93344,-0.19814 -2.051,-0.93401 -0.0463,-0.28993 -0.21483,-0.86369 -0.37446,-1.27502 -0.22932,-0.5909 -0.4067,-0.71296 -0.84506,-0.58153 -0.30515,0.0915 -1.00729,0.23616 -1.5603101,0.32148 -0.84959,0.13107 -1.09011,0.32379 -1.55121,1.24298 -1.12879,2.25017 -2.50335,2.90697 -3.66101,1.74931 z m 6.1846401,-6.29648 c 0.0718,-0.11609 0.0358,-0.36428 -0.08,-0.55154 -0.15342,-0.24824 -0.24948,-0.19107 -0.35465,0.21107 -0.13916,0.53216 0.16762,0.77248 0.43462,0.34047 z m 39.6443499,6.23034 c -0.15031,-0.1819 -0.35517,-0.76886 -0.45523,-1.30435 -0.15994,-0.85594 -0.081,-1.07981 0.65318,-1.85209 0.45931,-0.48315 1.52872,-1.95002 2.37648,-3.25971 1.76051,-2.71981 4.13861,-5.31984 5.08239,-5.55672 1.02641,-0.25761 2.05888,0.29008 2.48944,1.32055 0.21293,0.50962 0.49785,2.50467 0.63317,4.43346 0.13531,1.92878 0.32418,3.82265 0.4197,4.20859 0.1904,0.76928 -0.58373,1.81183 -1.34535,1.81183 -0.69575,0 -1.61447,-1.16242 -1.79094,-2.26601 l -0.16826,-1.05223 -2.10345,0.24914 -2.10346,0.24915 -0.47312,1.0492 c -0.74135,1.64402 -1.3685,2.29992 -2.19909,2.29992 -0.40818,0 -0.86514,-0.14883 -1.01546,-0.33073 z m 7.6063,-6.66802 c 0.36202,-0.43621 0.27837,-1.31088 -0.12174,-1.27284 -0.14552,0.0138 -0.54774,0.39232 -0.89381,0.84108 l -0.62922,0.81592 h 0.66297 c 0.36463,0 0.80644,-0.17287 0.9818,-0.38416 z m 7.88526,6.60137 c -1.4093,-0.79733 -1.21097,-3.04221 0.26878,-3.04221 0.41058,0 0.87762,0.13111 1.03786,0.29135 0.29779,0.29779 1.93202,0.0893 1.93017,-0.24622 -5.4e-4,-0.0976 -0.78832,-0.58456 -1.75063,-1.08217 -3.12534,-1.61614 -4.16548,-4.04393 -2.52106,-5.88437 0.65663,-0.73489 0.95673,-0.85735 2.31511,-0.94473 2.43662,-0.15674 4.08597,0.90833 3.71228,2.39721 -0.20466,0.81545 -1.30462,1.21417 -2.05565,0.74514 -0.2671,-0.16681 -0.80337,-0.30329 -1.1917,-0.30329 -0.70119,0 -0.70258,0.004 -0.20202,0.55836 0.27721,0.30709 1.30461,0.96188 2.2831,1.45508 2.43517,1.22742 3.10652,2.56357 2.18422,4.3471 -0.81376,1.57365 -4.43138,2.60212 -6.01046,1.70875 z m -29.69749,-0.46252 c -0.59703,-0.51838 -0.77013,-1.07398 -1.33957,-4.29948 -0.35967,-2.03729 -0.83926,-4.03301 -1.06575,-4.43493 -0.75353,-1.33718 0.42702,-2.86087 1.80939,-2.33529 0.91803,0.34903 0.96847,0.46593 1.64167,3.8042 l 0.5924,2.93763 0.74214,-1.6537 c 0.76346,-1.70121 1.68961,-2.68353 2.53009,-2.68353 0.81205,0 1.81575,1.1176 2.47866,2.75994 l 0.63344,1.56932 0.17556,-1.04015 c 0.26415,-1.56502 0.6691,-2.80053 1.21492,-3.7067 1.20242,-1.99627 4.20774,-1.86266 4.20774,0.18707 0,0.80736 -0.45256,1.28885 -1.21144,1.28885 -0.68839,0 -1.02389,0.7338 -1.44506,3.16061 -0.87035,5.01501 -3.69594,5.76248 -5.55541,1.4696 l -0.57303,-1.32292 -0.88907,1.85209 c -0.93617,1.9502 -1.92767,3.0427 -2.7614,3.0427 -0.27481,0 -0.80819,-0.26789 -1.18528,-0.59531 z M 0.76961807,46.973696 c -0.26961,-0.32874 -0.36313,-1.40189 -0.36313,-4.16719 v -3.72442 l -1.09142,0.0803 c -1.24768997,0.0918 -1.95128997,-0.41418 -1.95128997,-1.40322 0,-0.48234 0.55753,-1.41045 0.8788,-1.46293 0.026,-0.004 1.56457997,-0.11873 3.4191,-0.25443 1.85453,-0.13569 3.61868,-0.3788 3.92035,-0.54025 0.81476,-0.43605 1.83592,0.30459 1.83592,1.33157 0,0.98064 -0.82098,1.5598 -2.5631,1.80813 l -1.27336,0.1815 -0.16792,3.77928 c -0.1371,3.08537 -0.25393,3.87432 -0.63632,4.29685 -0.57412,0.6344 -1.51979,0.66964 -2.00763003,0.0748 z M 164.05128,182.6799 c -0.50932,-0.27652 -1.32222,-1.08557 -1.80645,-1.79788 -0.76337,-1.12296 -0.86888,-1.47461 -0.79375,-2.64544 0.0774,-1.20618 -0.005,-1.45441 -0.76941,-2.32549 -1.11485,-1.26995 -1.28999,-2.05326 -0.76591,-3.42555 0.50136,-1.3128 2.54654,-3.73874 3.61983,-4.29376 0.47898,-0.24769 1.5067,-0.38779 2.81766,-0.3841 2.45471,0.007 3.79125,0.52116 5.03441,1.93703 0.46724,0.53217 1.02263,0.96758 1.2342,0.96758 1.15277,0 3.07109,2.78161 3.07109,4.45315 0,1.87863 -0.85635,4.03936 -2.17095,5.47775 -1.59169,1.74156 -2.59916,2.14482 -5.90709,2.36439 -2.30029,0.1527 -2.75601,0.11079 -3.56363,-0.32768 z m 6.08542,-4.53879 c 0.70692,-0.49643 1.47467,-2.41838 1.22547,-3.06779 -0.0921,-0.24011 -0.49913,-0.39228 -1.04919,-0.39228 -1.12916,0 -2.23294,-0.84443 -2.34208,-1.79176 -0.0772,-0.66979 -0.18149,-0.72748 -1.44812,-0.80092 -1.1691,-0.0678 -1.42537,0.007 -1.78596,0.52193 -0.40499,0.5782 -0.38001,0.63658 0.65637,1.53435 1.28788,1.11563 1.67826,2.7038 0.94114,3.8288 -0.23703,0.36175 -0.43096,0.73093 -0.43096,0.82039 0,0.34673 3.60068,-0.20844 4.23333,-0.65272 z m 45.24375,-7.99699 c -3.88084,-0.35765 -6.40929,-0.90072 -10.71963,-2.30239 -6.63985,-2.15919 -13.32219,-5.4566 -18.33602,-9.04791 l -2.19242,-1.57039 -1.24315,0.62687 c -2.16587,1.09216 -8.05461,3.52795 -9.88233,4.08768 -4.53378,1.38844 -12.58097,2.4245 -18.8249,2.42367 -9.21931,-0.001 -14.0763,-0.64174 -19.12136,-2.52159 -7.28281,-2.71367 -10.79925,-4.74441 -14.41678,-8.32569 -4.36654,-4.32278 -6.65827,-7.77471 -7.82449,-11.78573 l -0.465,-1.59927 -4.51248,-0.47442 c -7.72528,-0.81219 -9.290276,-1.3819 -13.244715,-4.82157 -5.517987,-4.79967 -6.624737,-6.27066 -9.094827,-12.08798 -1.66855,-3.92965 -2.7104,-7.69222 -3.22206,-11.63637 -0.56347,-4.34358 0.52135,-11.315984 2.54925,-16.384554 1.08242,-2.70542 2.52474,-5.35092 3.44585,-6.32037 l 0.6501,-0.68422 -1.17128,-0.74035 c -1.39576,-0.88226 -2.83168,-2.69093 -3.70029,-4.66084 -1.5812,-3.586 -1.65722,-7.50735 -0.2791,-14.39703 1.07147,-5.35668 1.92741,-7.84036 3.69471,-10.72093 2.2438,-3.65724 4.7774,-5.7437 8.812581,-7.25729 l 2.681674,-1.0059 0.0017,-2.41419 c 0.0013,-1.81946 0.193041,-3.14185 0.778452,-5.36799 1.248555,-4.74787 2.421685,-6.63781 8.122385,-13.08532 2.61729,-2.96017 4.3121,-4.45317 6.04643,-5.32646 1.68737,-0.84964 7.27158,-2.54593 9.92188,-3.01392 4.07849,-0.72018 10.99037,-0.66358 13.90069,0.11383 1.16971,0.31245 3.31283,0.74825 4.7625,0.96844 1.44967,0.22018 2.99295,0.50538 3.42951,0.63378 1.38869,0.4084 5.0113,1.95842 5.4448,2.32967 0.22974,0.19676 0.62452,0.35774 0.87729,0.35774 0.25277,0 0.71964,0.14529 1.0375,0.32286 1.58439,0.88516 2.34157,0.98902 3.3324,0.45711 5.05286,-2.71251 13.06316,-4.80295 20.31281,-5.30101 3.54028,-0.24323 5.39619,-0.21772 10.71563,0.14725 6.74929,0.46308 7.665,0.60512 13.76992,2.13584 7.21207,1.80833 11.40724,3.3373 16.05335,5.85078 5.11491,2.7671 8.0289,5.31017 10.04996,8.77069 2.35148,4.02629 3.01887,7.88813 2.25452,13.0456 l -0.14155,0.95517 3.12585,0.13612 c 2.93961,0.12802 3.34066,0.21566 6.73081,1.47102 4.30397,1.59373 5.43923,2.15327 8.56588,4.22194 3.85332,2.54944 6.15184,5.24679 8.56585,10.0522 1.3935,2.77396 2.23554,5.35894 2.82798,8.68169 0.8487,4.75997 0.52324,19.29767 -0.54757,24.45899 -0.19624,0.945884 -0.78152,4.279634 -1.30063,7.408334 -1.03546,6.24079 -1.91939,9.86912 -2.9802,12.23291 l -0.69209,1.54218 1.08413,2.30673 c 2.05626,4.37513 2.66673,10.17351 1.66352,15.80047 -0.75004,4.20694 -1.12292,5.45015 -2.85689,9.525 -2.79312,6.56386 -4.36295,9.19467 -6.90339,11.56905 -4.58761,4.28774 -15.88353,9.11397 -23.96098,10.23744 -2.31583,0.3221 -3.93245,0.3184 -7.57577,-0.0174 z m 8.79189,-4.47127 c 5.61727,-1.14473 13.9763,-4.50149 17.85494,-7.17006 3.01891,-2.07707 4.89437,-4.70763 7.23485,-10.14779 1.9624,-4.56135 2.51208,-6.23078 3.17979,-9.65729 1.23476,-6.33647 0.27282,-12.10635 -2.75205,-16.50724 -0.9175,-1.33488 -0.90337,-2.2993 0.0497,-3.39345 0.41639,-0.47801 0.9516,-1.24905 1.18937,-1.71343 0.68559,-1.33899 1.66235,-5.58161 2.66858,-11.59109 0.51168,-3.05594 1.1075,-6.508754 1.32403,-7.672924 0.21653,-1.16416 0.53006,-5.01792 0.69673,-8.5639 0.47528,-10.11166 -0.0985,-15.02462 -2.34881,-20.1128 -2.90374,-6.56556 -6.65392,-9.82042 -14.94947,-12.97497 -3.65417,-1.38957 -6.46654,-1.75897 -9.04895,-1.18855 -3.47376,0.7673 -3.79077,0.77434 -4.50842,0.10014 -0.83988,-0.78902 -0.84052,-1.86912 -0.002,-3.30005 0.78992,-1.34789 1.32252,-5.07628 1.05581,-7.39099 -0.51164,-4.44045 -2.89968,-8.23232 -6.83257,-10.84918 -2.59496,-1.72662 -8.46719,-4.59226 -11.40871,-5.56743 -3.24072,-1.07436 -12.10833,-3.26053 -14.37929,-3.54498 -5.00717,-0.62719 -12.56994,-0.90102 -16.44467,-0.59542 -4.80256,0.37877 -11.03421,1.75439 -14.37394,3.17301 -1.3349,0.56703 -2.6919,1.11249 -3.01554,1.21213 -0.32364,0.0996 -0.84735,0.54478 -1.16381,0.9892 -0.65657,0.92207 -2.09048,1.62029 -2.79702,1.36197 -0.2628,-0.0961 -0.81437,-0.45209 -1.22572,-0.79112 -0.42199,-0.34781 -1.10016,-0.61643 -1.55627,-0.61643 -0.80134,0 -2.23323,-0.7101 -3.25207,-1.61276 -0.95961,-0.85018 -4.70238,-2.15574 -7.27604,-2.53805 -1.38245,-0.20535 -3.46605,-0.63076 -4.63021,-0.94534 -3.05474,-0.82544 -10.17546,-0.81307 -14.07909,0.0245 -2.72762,0.58522 -6.09012,1.70913 -7.94612,2.656 -1.64373,0.83856 -7.75404,7.5648 -9.76621,10.75066 -0.45935,0.72727 -1.16777,2.33434 -1.57427,3.57127 -0.65723,1.99983 -0.73676,2.61532 -0.71795,5.55625 0.0116,1.81901 0.0625,3.8038 0.11305,4.41064 0.14291,1.7158 -1.11816,2.72778 -2.67946,2.15022 -0.952796,-0.35246 -5.172502,1.37622 -6.777722,2.77661 -2.01953,1.76185 -2.40283,2.27339 -3.80819,5.08232 -1.15933,2.31718 -1.43826,3.21834 -2.24547,7.2547 -1.37647,6.88293 -1.22744,10.7379 0.5215,13.48954 0.73653,1.15879 1.16023,1.5207 3.1471,2.68812 0.85117,0.50012 1.89297,1.3004 2.3151,1.77841 1.27613,1.44503 0.997826,2.42484 -1.06467,3.74834 -1.53514,0.9851 -2.56684,2.4333 -3.7385,5.24775 -1.31645,3.16226 -2.07906,6.009164 -2.53123,9.449394 -0.78258,5.954 0.24285,11.15982 3.60575,18.30541 1.62066,3.44364 2.11695,4.07582 5.914104,7.53354 4.346008,3.9575 4.513438,4.02517 12.316328,4.97793 1.22368,0.14941 2.89056,0.27232 3.70416,0.27314 3.19681,0.003 4.28966,0.75215 4.41582,3.02628 0.0876,1.57858 1.28642,4.75478 2.44263,6.47147 1.13056,1.67861 4.98557,5.7547 6.89094,7.28614 2.03825,1.63824 4.24736,2.79106 8.92273,4.65632 5.88403,2.34746 9.50418,2.8948 19.15613,2.89628 5.8199,8.9e-4 10.09914,-0.4662 15.66199,-1.70954 3.57519,-0.79908 10.91975,-3.8412 13.25559,-5.49048 1.20747,-0.85256 2.49528,-0.69246 3.56695,0.44346 3.88734,4.12038 16.69156,10.31982 24.64138,11.93066 4.80463,0.97354 9.45207,1.10656 13.04931,0.37349 z m -60.91481,-19.19083 c -0.80036,-0.20502 -2.5569,-0.60899 -3.90342,-0.89771 -4.44967,-0.95411 -8.22315,-2.97539 -11.72917,-6.28279 -1.02538,-0.96729 -1.99738,-1.66215 -2.3251,-1.66215 -0.38438,0 -0.56314,-0.16588 -0.56314,-0.52255 0,-0.42717 -0.1328,-0.49732 -0.72761,-0.38433 -0.79126,0.15031 -2.07635,-0.45771 -7.81314,-3.69672 -4.74316,-2.67801 -6.04553,-3.6353 -7.90723,-5.8121 -1.66173,-1.94301 -1.68529,-1.95852 -2.7716,-1.82539 -0.71557,0.0877 -1.35802,-0.008 -1.85208,-0.27691 -0.41606,-0.22615 -1.41924,-0.70022 -2.22929,-1.05349 -0.81005,-0.35326 -1.89267,-1.0746 -2.40582,-1.60297 -0.99918,-1.02883 -2.8626,-4.3485 -2.87687,-5.12513 -0.005,-0.25861 -0.23899,-1.12504 -0.52053,-1.9254 -0.35672,-1.01411 -0.51451,-2.17849 -0.52053,-3.84131 l -0.009,-2.3861 -1.09495,-1.31807 c -1.09608,-1.31941 -2.32217,-3.71279 -3.04722,-5.94827 -0.22765,-0.70188 -0.449,-2.822554 -0.53924,-5.166124 -0.14539,-3.77613 -0.11701,-4.10121 0.56589,-6.48229 1.64325,-5.72956 3.15523,-9.46222 4.87369,-12.0318 0.66394,-0.99278 0.96867,-1.68159 0.81341,-1.83866 -0.38406,-0.38853 -3.83993,0.20872 -5.82567,1.00682 -2.25674,0.90701 -3.21676,0.9076 -3.92879,0.002 -1.19163,-1.51492 -0.37926,-2.89224 2.29735,-3.89499 2.26557,-0.84876 3.49653,-1.1559 5.51707,-1.3766 l 1.61592,-0.1765 0.3121,-1.22687 c 0.51709,-2.03262 0.53113,-1.99238 -0.76581,-2.19429 -1.75037,-0.2725 -5.47942,-0.0159 -7.11334,0.48939 -1.26177,0.39024 -1.50356,0.39646 -2.11317,0.0543 -0.37861,-0.2125 -0.79635,-0.69339 -0.92831,-1.06863 -0.58295,-1.65762 0.5663,-2.86741 3.25394,-3.42537 1.49588,-0.31054 7.76331,-0.39393 8.22367,-0.10942 0.16586,0.10251 0.21514,-0.54061 0.13575,-1.77158 -0.46585,-7.22331 -0.45711,-7.35975 0.74277,-11.59776 0.91145,-3.21924 1.4758,-4.16506 3.88028,-6.50321 2.36882,-2.30348 4.36701,-3.6678 6.75071,-4.60925 0.87312,-0.34484 1.68775,-0.7094 1.81028,-0.81012 0.12253,-0.10073 -0.009,-0.64248 -0.29319,-1.2039 -1.2495,-2.47191 -1.3848,-2.83263 -1.3848,-3.69192 0,-0.74103 0.1585,-1.00513 0.85989,-1.43278 0.47295,-0.28836 1.05912,-0.52473 1.30262,-0.52528 0.82507,-0.002 1.98498,1.28139 2.5618,2.83418 0.31269,0.84175 0.78285,1.80593 1.04481,2.14262 0.46134,0.59295 0.53216,0.60244 2.25651,0.30215 2.65645,-0.4626 13.0465,-0.18848 15.12541,0.39905 2.35657,0.66601 4.50428,1.80252 7.0162,3.71282 1.23432,0.93868 2.35204,1.70985 2.48383,1.71369 0.13178,0.004 0.63093,0.30548 1.10922,0.67029 0.7414,0.5655 1.21316,0.67857 3.19997,0.76702 3.2577,0.14502 5.06816,0.88075 7.01345,2.85013 2.18014,2.20714 2.37561,4.19326 0.48957,4.97448 -1.02354,0.42396 -1.91698,-0.008 -2.9286,-1.41697 -0.758,-1.0555 -2.26611,-2.01711 -3.16346,-2.01711 -0.13598,0 0.33435,1.16175 1.04519,2.58166 0.71083,1.41992 1.53505,3.47374 1.83159,4.56406 0.29654,1.09032 0.66456,2.39912 0.81781,2.90844 0.43728,1.45324 0.82523,4.41776 0.90758,6.93531 l 0.0754,2.3051 1.79489,2.09471 c 0.98718,1.15208 2.28637,2.91276 2.88708,3.9126 l 1.09221,1.81791 1.84841,0.17588 c 1.08059,0.10281 3.31912,0.0199 5.38889,-0.1995 1.97512,-0.2094 6.06944,-0.37012 9.26042,-0.36351 3.14597,0.007 7.20823,-0.10936 9.02724,-0.25752 7.59806,-0.61888 10.48843,-0.34944 18.38854,1.71417 2.03729,0.53217 4.41854,1.14876 5.29166,1.37021 2.10606,0.53416 4.96646,1.86091 7.04371,3.2671 2.17849,1.47473 7.14853,6.3124 7.79888,7.59115 0.27679,0.54423 0.84501,1.50806 1.26271,2.14183 1.39882,2.12238 2.86236,5.86032 3.12282,7.97581 0.5316,4.317744 0.54115,4.978314 0.10321,7.139654 -0.24179,1.19327 -0.54812,2.36695 -0.68074,2.60819 -0.13262,0.24124 -0.48541,1.45065 -0.78397,2.68758 -0.3175,1.31537 -1.18817,3.56696 -2.09739,5.42396 -0.85499,1.74625 -1.98687,4.36562 -2.51527,5.82083 -1.73438,4.7764 -2.28564,6.0519 -3.83082,8.86354 -0.83972,1.52797 -1.72903,3.32615 -1.97624,3.99596 -1.4448,3.91468 -5.78713,8.96862 -7.70581,8.96862 -0.22676,0 -1.01742,0.31642 -1.75703,0.70315 -1.05418,0.55121 -1.49034,0.65126 -2.01862,0.46302 -0.98273,-0.35018 -1.61938,-1.37171 -1.84888,-2.96664 l -0.20197,-1.40359 -1.45521,1.10285 c -2.5765,1.95264 -4.68173,2.56838 -6.16896,1.8043 -0.8389,-0.431 -2.03312,-1.59963 -2.03312,-1.98956 0,-0.18446 -0.41881,-0.41395 -0.93069,-0.50998 -2.60839,-0.48934 -2.59911,-3.33365 0.0234,-7.17111 0.8263,-1.20911 2.55538,-4.82168 3.01743,-6.30431 0.1814,-0.58208 0.62344,-1.57145 0.98232,-2.1986 l 0.6525,-1.14027 -1.06836,0.54504 c -0.5876,0.29977 -3.42452,1.30028 -6.30426,2.22335 -2.87974,0.92307 -6.08658,2.05294 -7.1263,2.51081 -1.03972,0.45788 -2.70562,1.02156 -3.702,1.25264 -0.99637,0.23107 -2.64601,0.71373 -3.66584,1.07257 -1.77527,0.62464 -9.96083,2.84269 -12.17301,3.29854 -0.58208,0.11994 -1.85497,0.22326 -2.82865,0.2296 -0.97368,0.006 -1.82815,0.1051 -1.89884,0.21946 -0.0707,0.11436 0.35178,0.96334 0.9388,1.88662 0.58703,0.92327 1.17195,2.04352 1.29984,2.48945 0.35784,1.2477 -0.14464,2.63208 -1.35089,3.72186 -0.99486,0.8988 -1.16145,0.95455 -2.8523,0.95455 -0.98766,0 -2.4814,0.17859 -3.31944,0.39688 -1.87762,0.48905 -5.63295,0.47871 -7.58331,-0.0209 z m 8.50993,-4.39727 2.02763,-0.34433 -0.84715,-1.45521 c -2.99387,-5.14277 -3.85031,-9.09697 -2.97005,-13.71273 0.57297,-3.00441 1.81631,-3.90196 3.76183,-2.71562 1.04634,0.63803 1.31877,1.64293 0.74696,2.75528 -0.50153,0.97564 -0.79229,3.68121 -0.54008,5.0256 l 0.17412,0.92813 3.23351,-0.0549 c 3.45781,-0.0587 5.9402,-0.60725 13.94914,-3.08266 1.81901,-0.56223 3.9026,-1.16575 4.6302,-1.34117 0.72761,-0.17542 1.97776,-0.60804 2.77813,-0.96137 2.04661,-0.9035 3.57959,-1.44429 7.67292,-2.70677 4.56418,-1.4077 5.56724,-1.79259 6.2177,-2.38588 0.71049,-0.64803 2.40748,-1.32712 3.31635,-1.32712 0.65411,0 0.7584,-0.11965 0.91567,-1.05054 0.0976,-0.5778 0.41925,-1.3579 0.71473,-1.73354 0.74389,-0.9457 2.42964,-0.85083 3.19608,0.17986 0.51205,0.68858 0.51331,0.75093 0.0616,3.02749 -0.52679,2.65474 -1.42557,5.19903 -2.51424,7.11736 -0.41292,0.7276 -0.98343,1.98907 -1.2678,2.80326 -0.28436,0.81418 -1.10307,2.61693 -1.81935,4.00609 l -1.30233,2.52574 0.60643,0.70502 c 0.37835,0.43985 0.60644,1.04777 0.60644,1.61631 0,0.5012 0.11681,0.91128 0.25958,0.91128 0.14278,0 1.54176,-1.0363 3.10886,-2.30289 3.58528,-2.89777 4.33642,-3.30693 5.39407,-2.93823 1.3303,0.46375 1.65119,1.25487 1.48607,3.66382 -0.0978,1.42727 -0.0518,2.10647 0.14284,2.10647 0.41951,0 2.50915,-2.29733 3.53398,-3.88521 0.4869,-0.75443 1.13314,-2.00458 1.43608,-2.77813 0.30294,-0.77355 1.06817,-2.35895 1.70053,-3.52312 2.01866,-3.71637 2.49793,-4.77991 3.59594,-7.97962 0.59129,-1.72308 1.842,-4.6997 2.77937,-6.61471 1.02408,-2.09217 1.91663,-4.36257 2.23631,-5.68854 0.29262,-1.21369 0.7819,-3.00881 1.08729,-3.98915 0.42265,-1.35673 0.51596,-2.14662 0.3907,-3.30729 -0.55653,-5.156764 -0.82057,-6.013694 -3.07454,-9.978154 -2.07031,-3.64141 -7.64571,-8.64231 -11.09732,-9.95382 -1.60709,-0.61064 -7.27657,-2.12526 -11.92143,-3.18483 -4.06808,-0.928 -5.84048,-0.98058 -14.41979,-0.4278 -2.7649,0.17815 -6.3963,0.2631 -8.06979,0.18878 -1.67866,-0.0745 -4.76261,0.0246 -6.87917,0.22108 -2.11005,0.19592 -4.5806,0.36835 -5.49011,0.38318 -0.9095,0.0148 -1.65364,0.0792 -1.65364,0.14299 0,0.0638 0.42997,1.19069 0.95548,2.50417 0.75205,1.8797 0.92453,2.61891 0.81011,3.47198 -0.16455,1.22683 -1.15137,2.27528 -2.14154,2.27528 -0.97011,0 -1.96586,-0.9581 -2.14301,-2.06199 -0.26146,-1.62917 -1.19315,-4.31889 -2.12688,-6.1401 -0.48495,-0.94588 -1.16848,-2.37996 -1.51895,-3.18683 -0.64271,-1.47969 -2.46051,-4.2215 -2.79882,-4.2215 -0.26339,0 -1.09056,1.4651 -1.09056,1.93164 0,0.51597 -1.73987,2.03815 -2.32431,2.0335 -1.00288,-0.008 -1.68481,-0.36532 -2.05191,-1.07522 -0.55133,-1.06615 -0.49393,-1.42658 0.49628,-3.11612 0.59584,-1.01664 0.94274,-2.0179 1.0678,-3.08197 0.10189,-0.86686 0.35496,-1.83513 0.56239,-2.15171 0.64697,-0.9874 0.24226,-5.00768 -0.93731,-9.31093 -0.69122,-2.52168 -2.34856,-6.324 -3.69693,-8.48159 -0.54576,-0.87329 -0.5936,-0.89157 -1.9641,-0.75012 -1.08445,0.11193 -1.58745,0.0339 -2.20619,-0.34242 -0.89867,-0.54652 -1.31379,-1.77963 -0.87507,-2.5994 0.23935,-0.44723 0.0887,-0.65902 -1.11618,-1.56868 -4.05029,-3.058 -6.32945,-3.65092 -13.62685,-3.545 -1.91705,0.0278 -2.93343,0.1385 -2.82866,0.30802 0.0899,0.14552 0.62611,0.26458 1.19149,0.26458 1.20254,0 2.27037,0.8069 2.52973,1.91157 0.13549,0.5771 0.01,0.88065 -0.63115,1.52136 -0.69112,0.69112 -0.99285,0.80018 -2.20982,0.79878 -0.77518,-9e-4 -1.73128,-0.16955 -2.12468,-0.37479 -0.3934,-0.20523 -1.46496,-0.76382 -2.38125,-1.24131 -0.91629,-0.47749 -1.98864,-1.08746 -2.38299,-1.35548 -0.68091,-0.46278 -0.79414,-0.46544 -2.24896,-0.0527 -2.38275,0.67595 -4.51588,2.00333 -6.84719,4.26079 -1.81754,1.75996 -2.19063,2.2719 -2.47446,3.39535 -0.18382,0.72761 -0.56665,2.0574 -0.85075,2.9551 -0.44032,1.39135 -0.49441,2.11356 -0.36663,4.89479 0.1912,4.16156 0.3647,5.53647 0.76741,6.08148 0.29758,0.40273 0.55451,0.37653 3.22318,-0.32876 1.5949,-0.4215 3.91185,-0.8446 5.14878,-0.94022 1.81262,-0.14012 2.39407,-0.2945 2.99686,-0.79572 0.44435,-0.36947 1.09405,-0.62187 1.60073,-0.62187 0.46905,0 0.98812,-0.1353 1.15349,-0.30067 0.38305,-0.38305 2.07669,-0.38714 3.25848,-0.008 0.50177,0.16104 1.37917,0.36508 1.94977,0.45344 1.20876,0.18718 2.53442,1.43111 2.53442,2.37816 0,0.55572 0.0755,0.59335 0.78333,0.39035 1.00195,-0.28735 2.94188,0.42316 5.00071,1.83155 1.92328,1.31567 5.45769,5.35188 6.67647,7.62436 0.84399,1.57367 1.09818,1.83376 2.25639,2.30884 2.53422,1.03948 3.56504,1.93412 5.95191,5.1656 1.6281,2.2042 1.98613,3.90834 1.06111,5.05068 -0.91282,1.12729 -3.47367,0.53352 -3.47367,-0.80542 0,-0.93058 -3.70083,-5.3036 -4.48837,-5.3036 -0.13014,0 -0.37745,0.68461 -0.54958,1.52136 -0.17213,0.83674 -0.42485,1.73337 -0.56159,1.9925 -0.19311,0.36596 -0.0371,0.7182 0.69858,1.57773 1.17039,1.36734 2.26037,3.63896 3.15778,6.58108 0.89016,2.91838 0.88751,3.92751 -0.0127,4.82771 -0.9123,0.9123 -2.40349,0.95974 -3.2092,0.10209 -0.78268,-0.83313 -1.08325,-1.78635 -0.83558,-2.64994 0.3596,-1.25385 -1.39291,-5.48847 -2.83025,-6.83878 l -0.62403,-0.58625 -1.39181,0.74553 c -0.76549,0.41005 -1.43258,0.778 -1.48242,0.81767 -0.0498,0.0397 -0.18739,2.84917 -0.30565,6.24332 -0.19681,5.648194 -0.27452,6.349664 -0.91696,8.277054 -0.78296,2.34892 -2.39172,5.58083 -3.6673,7.3674 -0.82644,1.1575 -3.43262,3.59606 -5.34347,4.99978 -2.46836,1.81327 -6.53976,2.29926 -7.99828,0.95472 -1.63294,-1.50533 -1.57095,-3.32554 0.19282,-5.66164 1.39123,-1.84267 2.79705,-4.8184 4.23881,-8.97237 1.6116,-4.643304 1.84953,-5.772734 1.89509,-8.995834 0.0692,-4.89477 0.0847,-4.80938 -0.96281,-5.30645 -1.27735,-0.60615 -2.72009,-2.28411 -2.93113,-3.40902 -0.20175,-1.07542 -0.41892,-1.12567 -2.34266,-0.54209 -1.47935,0.44878 -3.33278,0.50844 -4.5904,0.14776 -1.06819,-0.30635 -0.97826,-0.46298 -2.74783,4.78591 l -1.36851,4.0593 -0.0243,5.42396 c -0.0234,5.217394 -6.8e-4,5.466654 0.59591,6.544964 0.55675,1.00629 0.6109,1.38999 0.52917,3.74959 -0.0814,2.3504 -0.15893,2.70079 -0.73248,3.31077 -0.51977,0.55279 -0.88692,0.68218 -1.93563,0.68218 -0.7118,0 -1.52448,-0.12325 -1.80596,-0.27389 -0.42924,-0.22972 -0.51177,-0.18571 -0.51177,0.27293 0,0.62166 0.87462,3.37801 1.5115,4.76346 0.64039,1.39309 1.4451,2.38811 2.2834,2.82342 0.91396,0.4746 1.21552,0.27032 0.60189,-0.40773 -1.13802,-1.25749 -0.51282,-3.72533 1.04267,-4.11573 1.43564,-0.36032 2.05271,0.199 3.27685,2.97023 2.22411,5.03497 4.01884,7.01557 8.81896,9.73227 1.77821,1.00641 3.41774,1.90639 3.64339,1.99997 0.22565,0.0936 0.86766,0.48053 1.42669,0.8599 1.45601,0.98808 1.73632,0.91 1.73632,-0.48365 0,-1.39695 0.36136,-2.44629 1.12207,-3.25837 1.28979,-1.37686 3.89058,-0.19343 3.5233,1.6032 -0.43821,2.14365 -0.4412,2.60424 -0.025,3.85714 0.35281,1.06222 0.88032,1.74334 2.64065,3.40964 2.62319,2.48307 6.00105,4.31197 9.14319,4.95047 1.09141,0.22178 2.63922,0.57349 3.43959,0.78159 1.66974,0.43413 5.11028,0.36376 8.24534,-0.16864 z M 152.56778,67.927386 c -1.51872,-0.54122 -3.69115,-2.82958 -4.78191,-5.03712 -0.78669,-1.59214 -0.9325,-2.16474 -0.9325,-3.66194 0,-2.11504 0.39601,-3.16802 1.75875,-4.67641 2.57616,-2.8515 4.93499,-3.45662 9.15618,-2.34887 1.44932,0.38035 1.6349,0.54918 3.22265,2.93174 1.97597,2.96512 2.26658,3.70001 2.26658,5.73161 0,3.81951 -1.60311,6.01505 -4.7625,6.52246 -0.65484,0.10517 -1.84072,0.35737 -2.63527,0.56045 -1.75046,0.44739 -1.97929,0.44587 -3.29198,-0.0219 z m 3.26451,-4.25235 c 0.95519,-0.2256 1.99925,-0.46465 2.32015,-0.53123 1.28142,-0.26588 1.275,-3.05179 -0.0108,-4.68758 -2.05916,-2.61966 -3.03406,-3.11773 -4.8213,-2.4632 -0.57366,0.21009 -0.84379,0.39037 -0.6003,0.40062 0.79953,0.0337 2.04367,1.32464 2.22909,2.31299 0.33949,1.80962 -1.17718,3.70883 -2.77456,3.47438 -0.65098,-0.0955 -0.72533,-0.0485 -0.49807,0.31547 0.21642,0.34653 1.83701,1.44397 2.30371,1.56003 0.0635,0.0158 0.8969,-0.15589 1.85208,-0.38148 z m -26.57371,-2.21848 c -1.99009,-0.48449 -3.5708,-1.88703 -4.72692,-4.19414 -1.44492,-2.88342 -1.06728,-5.11198 1.32057,-7.79289 1.79497,-2.01528 2.61566,-2.56016 4.52438,-3.00386 1.71677,-0.39907 2.77658,-0.23227 5.49632,0.86508 3.03715,1.2254 5.2037,3.9333 5.2037,6.50393 0,2.24118 -1.92325,5.87172 -3.55843,6.71731 -0.46396,0.23992 -2.09545,0.59339 -3.62555,0.78549 -3.08781,0.38766 -3.48852,0.39796 -4.63407,0.11908 z m 2.87374,-4.14076 c 0.36019,-0.13822 0.35876,-0.24863 -0.0133,-1.0289 -0.55504,-1.16395 -0.28486,-2.51221 0.71873,-3.58655 0.69541,-0.74444 0.91902,-0.82871 1.97594,-0.74465 0.65548,0.0521 1.19179,0.0696 1.19179,0.0388 0,-0.0308 -0.5529,-0.47811 -1.22867,-0.9941 -1.11189,-0.84899 -1.38978,-0.93816 -2.92356,-0.93816 -2.17266,0 -3.03855,0.45489 -3.751,1.97056 -0.92136,1.96013 -0.60138,3.77364 0.8315,4.7125 0.88382,0.5791 2.44874,0.85819 3.1986,0.57044 z m 6.26617,54.495904 c 2.25659,-1.71514 3.55942,-3.28668 4.83882,-5.83686 2.00661,-3.9997 2.08669,-4.36762 2.2935,-10.536514 0.10245,-3.05593 0.17404,-5.57262 0.1591,-5.59264 -0.0149,-0.02 -0.74154,-0.11755 -1.61467,-0.21674 l -1.5875,-0.18034 -0.0836,3.64889 c -0.0872,3.80908 -0.44863,5.91984 -1.48141,8.652394 -0.33799,0.89427 -1.00336,2.69751 -1.47859,4.00719 -0.47524,1.30969 -1.41245,3.45282 -2.0827,4.7625 -0.67025,1.30969 -1.25949,2.47063 -1.30944,2.57987 -0.18393,0.40233 0.9198,-0.20341 2.34646,-1.28775 z m -18.25156,-4.66555 c -0.12925,-0.32743 -0.41378,-1.0136 -0.63228,-1.52484 -0.54162,-1.26727 -0.83582,-8.128204 -0.48771,-11.373604 0.27129,-2.52914 1.02476,-5.32632 2.42321,-8.99583 0.67597,-1.77374 0.71148,-2.01246 0.33454,-2.24896 -0.23194,-0.14552 -0.87313,-0.66134 -1.42487,-1.14626 -0.57015,-0.5011 -1.13588,-0.79965 -1.31062,-0.69166 -0.92491,0.57163 -4.12659,9.7322 -4.46993,12.78926 -0.6704,5.96925 2.02262,12.424214 5.74307,13.765714 0.0328,0.0118 -0.0461,-0.2464 -0.17541,-0.57382 z m 27.75539,-21.828134 c -0.005,-0.10914 -0.17953,-0.49609 -0.3875,-0.85989 -0.57001,-0.99714 -0.47787,-1.54721 0.40748,-2.43256 0.915,-0.915 1.59894,-0.89864 3.63488,0.0869 0.62955,0.30476 1.20165,0.4971 1.27134,0.42741 0.0697,-0.0697 0.19696,-0.72001 0.28285,-1.44517 l 0.15615,-1.31847 -1.50778,-0.15561 c -1.71916,-0.17744 -2.70041,-0.71407 -3.06653,-1.67703 -0.5889,-1.54893 0.59102,-2.93592 2.26632,-2.66406 0.50651,0.0822 0.92092,0.0811 0.92092,-0.002 0,-0.32909 -3.62705,-4.18065 -4.60211,-4.88698 -0.56963,-0.41264 -1.48824,-0.87211 -2.04134,-1.02105 -0.55311,-0.14893 -1.17413,-0.43927 -1.38005,-0.64518 -0.32279,-0.3228 -0.55907,-0.19638 -1.71459,0.91739 -0.73711,0.71048 -1.73486,1.49802 -2.2172,1.75007 -1.17573,0.61439 -3.03575,0.5585 -4.38898,-0.13186 -1.03598,-0.52852 -2.44115,-2.16431 -2.44115,-2.8418 0,-0.75355 -2.34418,-0.84295 -4.94866,-0.18873 l -1.75012,0.43962 0.96814,0.77667 c 0.81079,0.65044 0.96814,0.94139 0.96814,1.79014 0,0.77973 -0.16078,1.13994 -0.69714,1.56184 -1.18935,0.93554 -1.73669,0.77762 -4.4139,-1.27355 -1.48016,-1.13404 -1.52679,-1.14947 -2.04806,-0.67774 -0.83013,0.75127 -0.52383,1.21331 1.07369,1.61959 0.80036,0.20355 1.74294,0.65621 2.09461,1.00592 1.65946,1.65015 -0.32139,4.40433 -2.37659,3.30442 -0.95551,-0.51137 -0.56,0.30274 0.69489,1.43036 1.0314,0.9268 1.50218,1.1407 3.24115,1.47265 3.47716,0.66375 6.21999,0.39717 8.14323,-0.79146 2.00333,-1.23812 3.10639,-0.46605 3.80072,2.66026 0.50415,2.27001 0.54366,2.36375 1.12819,2.67658 1.53003,0.81885 8.95901,1.72883 8.929,1.09373 z m -8.51762,-18.80286 c 0.0811,-0.24314 -1.13957,-0.57787 -2.10724,-0.57787 -0.41064,0 -0.47724,0.11964 -0.33142,0.59532 0.35861,1.16976 0.64632,1.30911 1.53766,0.74475 0.451,-0.28555 0.85645,-0.62854 0.901,-0.7622 z"
       id="path1" /></g></svg>
