<?xml version="1.0" encoding="utf-8"?>
<!-- Generator: Adobe Illustrator 25.0.1, SVG Export Plug-In . SVG Version: 6.00 Build 0)  -->
<svg version="1.1" id="Layer_1" xmlns="http://www.w3.org/2000/svg" xmlns:xlink="http://www.w3.org/1999/xlink" x="0px" y="0px"
	 viewBox="0 0 48 48" style="enable-background:new 0 0 48 48;" xml:space="preserve">
<style type="text/css">
	.st0{fill:url(#SVGID_1_);}
</style>
<linearGradient id="SVGID_1_" gradientUnits="userSpaceOnUse" x1="8.3758" y1="24" x2="39.6242" y2="24">
	<stop  offset="0" style="stop-color:#3E3E3E"/>
	<stop  offset="3.312606e-02" style="stop-color:#3B3B3B"/>
	<stop  offset="0.4343" style="stop-color:#1B1B1B"/>
	<stop  offset="0.7709" style="stop-color:#070707"/>
	<stop  offset="1" style="stop-color:#000000"/>
</linearGradient>
<path class="st0" d="M29.9,31.7c-0.6,0.1-1.3,0.2-2,0.2c-0.7,0-1.3-0.1-2-0.2v-6.9l-4.9,4.8c-1-0.8-2-1.7-2.7-2.7l4.8-4.9h-6.9
	c-0.1-0.6-0.2-1.3-0.2-2c0-0.7,0.1-1.3,0.2-2h6.9l-4.8-4.9c0.4-0.5,0.8-1,1.3-1.4c0.5-0.5,1-0.9,1.4-1.3l4.9,4.8V8.5
	c0.6-0.1,1.3-0.2,2-0.2c0.7,0,1.3,0.1,2,0.2v6.9l4.9-4.8c1,0.8,2,1.7,2.7,2.7l-4.8,4.9h6.9c0.1,0.6,0.2,1.3,0.2,2s-0.1,1.3-0.2,2
	h-6.9l4.8,4.9c-0.4,0.5-0.8,1-1.3,1.4c-0.5,0.5-1,0.9-1.4,1.3l-4.9-4.8V31.7 M8.4,35.7c0-2.2,1.7-3.9,3.9-3.9s3.9,1.7,3.9,3.9
	c0,2.2-1.7,3.9-3.9,3.9S8.4,37.9,8.4,35.7L8.4,35.7z"/>
</svg>
