<svg xmlns="http://www.w3.org/2000/svg" xmlns:xlink="http://www.w3.org/1999/xlink" version="1.1" class="marks" width="638" height="473" viewBox="0 0 638 473"><rect width="638" height="473" fill="white"/><g fill="none" stroke-miterlimit="10" transform="translate(33,36)"><g class="mark-group role-frame root" role="graphics-object" aria-roledescription="group mark container"><g transform="translate(0,0)"><path class="background" aria-hidden="true" d="M0.5,0.5h600v400h-600Z" stroke="#ddd"/><g><g class="mark-group role-axis" role="graphics-symbol" aria-roledescription="axis" aria-label="X-axis titled 'Parser' for a discrete scale with 6 values: yaml_rs (parse_dt=False), yaml_rs, ruamel.yaml, PyYAML, oyaml, strictyaml"><g transform="translate(0.5,400.5)"><path class="background" aria-hidden="true" d="M0,0h0v0h0Z" pointer-events="none"/><g><g class="mark-rule role-axis-tick" pointer-events="none"><line transform="translate(50,0)" x2="0" y2="5" stroke="#888" stroke-width="1" opacity="1"/><line transform="translate(150,0)" x2="0" y2="5" stroke="#888" stroke-width="1" opacity="1"/><line transform="translate(250,0)" x2="0" y2="5" stroke="#888" stroke-width="1" opacity="1"/><line transform="translate(350,0)" x2="0" y2="5" stroke="#888" stroke-width="1" opacity="1"/><line transform="translate(450,0)" x2="0" y2="5" stroke="#888" stroke-width="1" opacity="1"/><line transform="translate(550,0)" x2="0" y2="5" stroke="#888" stroke-width="1" opacity="1"/></g><g class="mark-text role-axis-label" pointer-events="none"><text text-anchor="middle" transform="translate(49.5,15)" font-family="sans-serif" font-size="10px" fill="#000" opacity="1">yaml_rs (parse_dt=False)</text><text text-anchor="middle" transform="translate(149.5,15)" font-family="sans-serif" font-size="10px" fill="#000" opacity="1">yaml_rs</text><text text-anchor="middle" transform="translate(249.5,15)" font-family="sans-serif" font-size="10px" fill="#000" opacity="1">ruamel.yaml</text><text text-anchor="middle" transform="translate(349.5,15)" font-family="sans-serif" font-size="10px" fill="#000" opacity="1">PyYAML</text><text text-anchor="middle" transform="translate(449.5,15)" font-family="sans-serif" font-size="10px" fill="#000" opacity="1">oyaml</text><text text-anchor="middle" transform="translate(549.5,15)" font-family="sans-serif" font-size="10px" fill="#000" opacity="1">strictyaml</text></g><g class="mark-rule role-axis-domain" pointer-events="none"><line transform="translate(0,0)" x2="600" y2="0" stroke="#888" stroke-width="1" opacity="1"/></g><g class="mark-text role-axis-title" pointer-events="none"><text text-anchor="middle" transform="translate(300,30)" font-family="sans-serif" font-size="11px" font-weight="bold" fill="#000" opacity="1">Parser</text></g></g><path class="foreground" aria-hidden="true" d="" pointer-events="none" display="none"/></g></g><g class="mark-group role-axis" role="graphics-symbol" aria-roledescription="axis" aria-label="Y-axis titled 'Execution Time (seconds, lower=better)' for a linear scale with values from 0 to 9"><g transform="translate(0.5,0.5)"><path class="background" aria-hidden="true" d="M0,0h0v0h0Z" pointer-events="none"/><g><g class="mark-rule role-axis-tick" pointer-events="none"><line transform="translate(0,400)" x2="-5" y2="0" stroke="#888" stroke-width="1" opacity="1"/><line transform="translate(0,357)" x2="-5" y2="0" stroke="#888" stroke-width="1" opacity="1"/><line transform="translate(0,314)" x2="-5" y2="0" stroke="#888" stroke-width="1" opacity="1"/><line transform="translate(0,270)" x2="-5" y2="0" stroke="#888" stroke-width="1" opacity="1"/><line transform="translate(0,227)" x2="-5" y2="0" stroke="#888" stroke-width="1" opacity="1"/><line transform="translate(0,184)" x2="-5" y2="0" stroke="#888" stroke-width="1" opacity="1"/><line transform="translate(0,141)" x2="-5" y2="0" stroke="#888" stroke-width="1" opacity="1"/><line transform="translate(0,98)" x2="-5" y2="0" stroke="#888" stroke-width="1" opacity="1"/><line transform="translate(0,55)" x2="-5" y2="0" stroke="#888" stroke-width="1" opacity="1"/><line transform="translate(0,11)" x2="-5" y2="0" stroke="#888" stroke-width="1" opacity="1"/></g><g class="mark-text role-axis-label" pointer-events="none"><text text-anchor="end" transform="translate(-7,403)" font-family="sans-serif" font-size="10px" fill="#000" opacity="1">0</text><text text-anchor="end" transform="translate(-7,359.8213600683008)" font-family="sans-serif" font-size="10px" fill="#000" opacity="1">1</text><text text-anchor="end" transform="translate(-7,316.6427201366017)" font-family="sans-serif" font-size="10px" fill="#000" opacity="1">2</text><text text-anchor="end" transform="translate(-7,273.46408020490253)" font-family="sans-serif" font-size="10px" fill="#000" opacity="1">3</text><text text-anchor="end" transform="translate(-7,230.28544027320342)" font-family="sans-serif" font-size="10px" fill="#000" opacity="1">4</text><text text-anchor="end" transform="translate(-7,187.10680034150425)" font-family="sans-serif" font-size="10px" fill="#000" opacity="1">5</text><text text-anchor="end" transform="translate(-7,143.92816040980506)" font-family="sans-serif" font-size="10px" fill="#000" opacity="1">6</text><text text-anchor="end" transform="translate(-7,100.7495204781059)" font-family="sans-serif" font-size="10px" fill="#000" opacity="1">7</text><text text-anchor="end" transform="translate(-7,57.57088054640678)" font-family="sans-serif" font-size="10px" fill="#000" opacity="1">8</text><text text-anchor="end" transform="translate(-7,14.392240614707605)" font-family="sans-serif" font-size="10px" fill="#000" opacity="1">9</text></g><g class="mark-rule role-axis-domain" pointer-events="none"><line transform="translate(0,400)" x2="0" y2="-400" stroke="#888" stroke-width="1" opacity="1"/></g><g class="mark-text role-axis-title" pointer-events="none"><text text-anchor="middle" transform="translate(-16.5615234375,200) rotate(-90) translate(0,-2)" font-family="sans-serif" font-size="11px" font-weight="bold" fill="#000" opacity="1">Execution Time (seconds, lower=better)</text></g></g><path class="foreground" aria-hidden="true" d="" pointer-events="none" display="none"/></g></g><g class="mark-group role-scope" role="graphics-object" aria-roledescription="group mark container"><g transform="translate(5,398.379829483368)"><path class="background" aria-hidden="true" d="M0.8100852583160076,0L89.18991474168399,0C89.6370129668697,0,90,0.36298703313029995,90,0.8100852583160076L90,1.6201705166320153C90,1.6201705166320153,90,1.6201705166320153,90,1.6201705166320153L0,1.6201705166320153C0,1.6201705166320153,0,1.6201705166320153,0,1.6201705166320153L0,0.8100852583160076C0,0.36298703313029995,0.36298703313029995,0,0.8100852583160076,0Z"/><g clip-path="url(#clip1)"><g class="mark-group role-scope" role="graphics-object" aria-roledescription="group mark container"><g transform="translate(0,-398.379829483368)"><path class="background" aria-hidden="true" d="M0,0h90v0h-90Z"/><g><g class="mark-rect role-mark layer_0_marks" role="graphics-object" aria-roledescription="rect mark container"><path aria-label="Parser: yaml_rs (parse_dt=False); Execution Time (seconds, lower=better): 0.0375224999952; parser: yaml_rs (parse_dt=False); Execution Time (s): 0.0375; Slowdown: 1.00" role="graphics-symbol" aria-roledescription="bar" d="M0,398.379829483368h90v1.6201705166320153h-90Z" fill="#e6ab02"/></g></g><path class="foreground" aria-hidden="true" d="" display="none"/></g></g></g><path class="foreground" aria-hidden="true" d="" display="none"/></g><g transform="translate(105,398.37459191404776)"><path class="background" aria-hidden="true" d="M0.8127040429761223,0L89.18729595702388,0C89.63583952880941,0,90,0.3641604711905829,90,0.8127040429761223L90,1.6254080859522446C90,1.6254080859522446,90,1.6254080859522446,90,1.6254080859522446L0,1.6254080859522446C0,1.6254080859522446,0,1.6254080859522446,0,1.6254080859522446L0,0.8127040429761223C0,0.3641604711905829,0.3641604711905829,0,0.8127040429761223,0Z"/><g clip-path="url(#clip2)"><g class="mark-group role-scope" role="graphics-object" aria-roledescription="group mark container"><g transform="translate(0,-398.37459191404776)"><path class="background" aria-hidden="true" d="M0,0h90v0h-90Z"/><g><g class="mark-rect role-mark layer_0_marks" role="graphics-object" aria-roledescription="rect mark container"><path aria-label="Parser: yaml_rs; Execution Time (seconds, lower=better): 0.0376438000021; parser: yaml_rs; Execution Time (s): 0.0376; Slowdown: 1.00" role="graphics-symbol" aria-roledescription="bar" d="M0,398.37459191404776h90v1.6254080859522446h-90Z" fill="#66a61e"/></g></g><path class="foreground" aria-hidden="true" d="" display="none"/></g></g></g><path class="foreground" aria-hidden="true" d="" display="none"/></g><g transform="translate(205,364.33930533118206)"><path class="background" aria-hidden="true" d="M6,0L84,0C87.311490146964,0,90,2.688509853036,90,6L90,35.66069466881794C90,35.66069466881794,90,35.66069466881794,90,35.66069466881794L0,35.66069466881794C0,35.66069466881794,0,35.66069466881794,0,35.66069466881794L0,6C0,2.688509853036,2.688509853036,0,6,0Z"/><g clip-path="url(#clip3)"><g class="mark-group role-scope" role="graphics-object" aria-roledescription="group mark container"><g transform="translate(0,-364.33930533118206)"><path class="background" aria-hidden="true" d="M0,0h90v0h-90Z"/><g><g class="mark-rect role-mark layer_0_marks" role="graphics-object" aria-roledescription="rect mark container"><path aria-label="Parser: ruamel.yaml; Execution Time (seconds, lower=better): 0.825887400002; parser: ruamel.yaml; Execution Time (s): 0.8259; Slowdown: 22.01" role="graphics-symbol" aria-roledescription="bar" d="M0,364.33930533118206h90v35.66069466881794h-90Z" fill="#7570b3"/></g></g><path class="foreground" aria-hidden="true" d="" display="none"/></g></g></g><path class="foreground" aria-hidden="true" d="" display="none"/></g><g transform="translate(305,172.11686924799386)"><path class="background" aria-hidden="true" d="M6,0L84,0C87.311490146964,0,90,2.688509853036,90,6L90,227.88313075200614C90,227.88313075200614,90,227.88313075200614,90,227.88313075200614L0,227.88313075200614C0,227.88313075200614,0,227.88313075200614,0,227.88313075200614L0,6C0,2.688509853036,2.688509853036,0,6,0Z"/><g clip-path="url(#clip4)"><g class="mark-group role-scope" role="graphics-object" aria-roledescription="group mark container"><g transform="translate(0,-172.11686924799386)"><path class="background" aria-hidden="true" d="M0,0h90v0h-90Z"/><g><g class="mark-rect role-mark layer_0_marks" role="graphics-object" aria-roledescription="rect mark container"><path aria-label="Parser: PyYAML; Execution Time (seconds, lower=better): 5.277682; parser: PyYAML; Execution Time (s): 5.2777; Slowdown: 140.65" role="graphics-symbol" aria-roledescription="bar" d="M0,172.11686924799386h90v227.88313075200614h-90Z" fill="#1b9e77"/></g></g><path class="foreground" aria-hidden="true" d="" display="none"/></g></g></g><path class="foreground" aria-hidden="true" d="" display="none"/></g><g transform="translate(405,165.27300732236614)"><path class="background" aria-hidden="true" d="M6,0L84,0C87.311490146964,0,90,2.688509853036,90,6L90,234.72699267763386C90,234.72699267763386,90,234.72699267763386,90,234.72699267763386L0,234.72699267763386C0,234.72699267763386,0,234.72699267763386,0,234.72699267763386L0,6C0,2.688509853036,2.688509853036,0,6,0Z"/><g clip-path="url(#clip5)"><g class="mark-group role-scope" role="graphics-object" aria-roledescription="group mark container"><g transform="translate(0,-165.27300732236614)"><path class="background" aria-hidden="true" d="M0,0h90v0h-90Z"/><g><g class="mark-rect role-mark layer_0_marks" role="graphics-object" aria-roledescription="rect mark container"><path aria-label="Parser: oyaml; Execution Time (seconds, lower=better): 5.4361831; parser: oyaml; Execution Time (s): 5.4362; Slowdown: 144.88" role="graphics-symbol" aria-roledescription="bar" d="M0,165.27300732236614h90v234.72699267763386h-90Z" fill="#d95f02"/></g></g><path class="foreground" aria-hidden="true" d="" display="none"/></g></g></g><path class="foreground" aria-hidden="true" d="" display="none"/></g><g transform="translate(505,15.384615384615374)"><path class="background" aria-hidden="true" d="M6,0L84,0C87.311490146964,0,90,2.688509853036,90,6L90,384.61538461538464C90,384.61538461538464,90,384.61538461538464,90,384.61538461538464L0,384.61538461538464C0,384.61538461538464,0,384.61538461538464,0,384.61538461538464L0,6C0,2.688509853036,2.688509853036,0,6,0Z"/><g clip-path="url(#clip6)"><g class="mark-group role-scope" role="graphics-object" aria-roledescription="group mark container"><g transform="translate(0,-15.384615384615374)"><path class="background" aria-hidden="true" d="M0,0h90v0h-90Z"/><g><g class="mark-rect role-mark layer_0_marks" role="graphics-object" aria-roledescription="rect mark container"><path aria-label="Parser: strictyaml; Execution Time (seconds, lower=better): 8.90753819999; parser: strictyaml; Execution Time (s): 8.9075; Slowdown: 237.39" role="graphics-symbol" aria-roledescription="bar" d="M0,15.384615384615374h90v384.61538461538464h-90Z" fill="#e7298a"/></g></g><path class="foreground" aria-hidden="true" d="" display="none"/></g></g></g><path class="foreground" aria-hidden="true" d="" display="none"/></g></g><g class="mark-text role-mark layer_1_marks" role="graphics-object" aria-roledescription="text mark container"><text aria-label="Parser: yaml_rs (parse_dt=False); Execution Time (seconds, lower=better): 0.0375224999952; parser: yaml_rs (parse_dt=False); label: 0.0375s (x1.00); Execution Time (s): 0.0375; Slowdown: 1.00" role="graphics-symbol" aria-roledescription="text mark" text-anchor="middle" transform="translate(50,394.379829483368)" font-family="sans-serif" font-size="9px" font-weight="bold" fill="#e6ab02">0.0375s (x1.00)</text><text aria-label="Parser: yaml_rs; Execution Time (seconds, lower=better): 0.0376438000021; parser: yaml_rs; label: 0.0376s (x1.00); Execution Time (s): 0.0376; Slowdown: 1.00" role="graphics-symbol" aria-roledescription="text mark" text-anchor="middle" transform="translate(150,394.37459191404776)" font-family="sans-serif" font-size="9px" font-weight="bold" fill="#66a61e">0.0376s (x1.00)</text><text aria-label="Parser: ruamel.yaml; Execution Time (seconds, lower=better): 0.825887400002; parser: ruamel.yaml; label: 0.8259s (x22.01); Execution Time (s): 0.8259; Slowdown: 22.01" role="graphics-symbol" aria-roledescription="text mark" text-anchor="middle" transform="translate(250,360.33930533118206)" font-family="sans-serif" font-size="9px" font-weight="bold" fill="#7570b3">0.8259s (x22.01)</text><text aria-label="Parser: PyYAML; Execution Time (seconds, lower=better): 5.277682; parser: PyYAML; label: 5.2777s (x140.65); Execution Time (s): 5.2777; Slowdown: 140.65" role="graphics-symbol" aria-roledescription="text mark" text-anchor="middle" transform="translate(350,168.11686924799386)" font-family="sans-serif" font-size="9px" font-weight="bold" fill="#1b9e77">5.2777s (x140.65)</text><text aria-label="Parser: oyaml; Execution Time (seconds, lower=better): 5.4361831; parser: oyaml; label: 5.4362s (x144.88); Execution Time (s): 5.4362; Slowdown: 144.88" role="graphics-symbol" aria-roledescription="text mark" text-anchor="middle" transform="translate(450,161.27300732236614)" font-family="sans-serif" font-size="9px" font-weight="bold" fill="#d95f02">5.4362s (x144.88)</text><text aria-label="Parser: strictyaml; Execution Time (seconds, lower=better): 8.90753819999; parser: strictyaml; label: 8.9075s (x237.39); Execution Time (s): 8.9075; Slowdown: 237.39" role="graphics-symbol" aria-roledescription="text mark" text-anchor="middle" transform="translate(550,11.384615384615374)" font-family="sans-serif" font-size="9px" font-weight="bold" fill="#e7298a">8.9075s (x237.39)</text></g><g class="mark-group role-title"><g transform="translate(300,-31)"><path class="background" aria-hidden="true" d="M0,0h0v0h0Z" pointer-events="none"/><g><g class="mark-text role-title-text" role="graphics-symbol" aria-roledescription="title" aria-label="Title text 'YAML parsers benchmark (loads)'" pointer-events="none"><text text-anchor="middle" transform="translate(0,10)" font-family="sans-serif" font-size="13px" font-weight="bold" fill="#000" opacity="1">YAML parsers benchmark (loads)</text></g><g class="mark-text role-title-subtitle" role="graphics-symbol" aria-roledescription="subtitle" aria-label="Subtitle text 'Python: 3.13.8 (Windows 10) | CPU: 11th Gen Intel(R) Core(TM) i5-11300H @ 3.10GHz'" pointer-events="none"><text text-anchor="middle" transform="translate(0,25)" font-family="sans-serif" font-size="12px" fill="#000" opacity="1">Python: 3.13.8 (Windows 10) | CPU: 11th Gen Intel(R) Core(TM) i5-11300H @ 3.10GHz</text></g></g><path class="foreground" aria-hidden="true" d="" pointer-events="none" display="none"/></g></g></g><path class="foreground" aria-hidden="true" d="" display="none"/></g></g></g><defs><clipPath id="clip1"><path d="M0.8100852583160076,0L89.18991474168399,0C89.6370129668697,0,90,0.36298703313029995,90,0.8100852583160076L90,1.6201705166320153C90,1.6201705166320153,90,1.6201705166320153,90,1.6201705166320153L0,1.6201705166320153C0,1.6201705166320153,0,1.6201705166320153,0,1.6201705166320153L0,0.8100852583160076C0,0.36298703313029995,0.36298703313029995,0,0.8100852583160076,0Z"/></clipPath><clipPath id="clip2"><path d="M0.8127040429761223,0L89.18729595702388,0C89.63583952880941,0,90,0.3641604711905829,90,0.8127040429761223L90,1.6254080859522446C90,1.6254080859522446,90,1.6254080859522446,90,1.6254080859522446L0,1.6254080859522446C0,1.6254080859522446,0,1.6254080859522446,0,1.6254080859522446L0,0.8127040429761223C0,0.3641604711905829,0.3641604711905829,0,0.8127040429761223,0Z"/></clipPath><clipPath id="clip3"><path d="M6,0L84,0C87.311490146964,0,90,2.688509853036,90,6L90,35.66069466881794C90,35.66069466881794,90,35.66069466881794,90,35.66069466881794L0,35.66069466881794C0,35.66069466881794,0,35.66069466881794,0,35.66069466881794L0,6C0,2.688509853036,2.688509853036,0,6,0Z"/></clipPath><clipPath id="clip4"><path d="M6,0L84,0C87.311490146964,0,90,2.688509853036,90,6L90,227.88313075200614C90,227.88313075200614,90,227.88313075200614,90,227.88313075200614L0,227.88313075200614C0,227.88313075200614,0,227.88313075200614,0,227.88313075200614L0,6C0,2.688509853036,2.688509853036,0,6,0Z"/></clipPath><clipPath id="clip5"><path d="M6,0L84,0C87.311490146964,0,90,2.688509853036,90,6L90,234.72699267763386C90,234.72699267763386,90,234.72699267763386,90,234.72699267763386L0,234.72699267763386C0,234.72699267763386,0,234.72699267763386,0,234.72699267763386L0,6C0,2.688509853036,2.688509853036,0,6,0Z"/></clipPath><clipPath id="clip6"><path d="M6,0L84,0C87.311490146964,0,90,2.688509853036,90,6L90,384.61538461538464C90,384.61538461538464,90,384.61538461538464,90,384.61538461538464L0,384.61538461538464C0,384.61538461538464,0,384.61538461538464,0,384.61538461538464L0,6C0,2.688509853036,2.688509853036,0,6,0Z"/></clipPath></defs></svg>