<?xml version="1.0" encoding="UTF-8" standalone="no"?>
<!-- Created with Inkscape (http://www.inkscape.org/) -->

<svg
   width="800"
   height="800"
   viewBox="0 0 211.66666 211.66667"
   version="1.1"
   id="svg5"
   inkscape:version="1.2.2 (b0a8486541, 2022-12-01)"
   sodipodi:docname="automl.svg"
   xmlns:inkscape="http://www.inkscape.org/namespaces/inkscape"
   xmlns:sodipodi="http://sodipodi.sourceforge.net/DTD/sodipodi-0.dtd"
   xmlns="http://www.w3.org/2000/svg"
   xmlns:svg="http://www.w3.org/2000/svg">
  <sodipodi:namedview
     id="namedview7"
     pagecolor="#ffffff"
     bordercolor="#000000"
     borderopacity="0.25"
     inkscape:showpageshadow="2"
     inkscape:pageopacity="0.0"
     inkscape:pagecheckerboard="0"
     inkscape:deskcolor="#d1d1d1"
     inkscape:document-units="mm"
     showgrid="false"
     inkscape:zoom="0.75187991"
     inkscape:cx="397.00489"
     inkscape:cy="500.74486"
     inkscape:window-width="1542"
     inkscape:window-height="1022"
     inkscape:window-x="282"
     inkscape:window-y="0"
     inkscape:window-maximized="0"
     inkscape:current-layer="layer1" />
  <defs
     id="defs2" />
  <g
     inkscape:label="Layer 1"
     inkscape:groupmode="layer"
     id="layer1">
    <path
       sodipodi:type="star"
       style="opacity:0.984793;fill:#c5c5ff;fill-opacity:1;stroke:#0000d4;stroke-width:1.37;stroke-linecap:round;stroke-linejoin:round;stroke-miterlimit:3.8;stroke-dasharray:none"
       id="path1082"
       inkscape:flatsided="true"
       sodipodi:sides="6"
       sodipodi:cx="33.719898"
       sodipodi:cy="52.360115"
       sodipodi:r1="44.249165"
       sodipodi:r2="38.320896"
       sodipodi:arg1="0.21607402"
       sodipodi:arg2="0.73967279"
       inkscape:rounded="0"
       inkscape:randomized="0"
       d="M 76.940123,61.846985 47.11414,94.533363 3.893915,85.046493 -9.5003269,42.873245 20.325656,10.186867 l 43.220225,9.48687 z"
       transform="matrix(1.4694165,0,0,1.5377668,55.791836,21.344519)" />
    <path
       style="opacity:0.984793;fill:#4646ff;fill-opacity:1;stroke:#00007f;stroke-width:16.0542;stroke-linecap:round;stroke-linejoin:round;stroke-miterlimit:3.8"
       id="path234"
       sodipodi:type="arc"
       sodipodi:cx="150.6828"
       sodipodi:cy="51.860626"
       sodipodi:rx="22.108164"
       sodipodi:ry="23.246941"
       sodipodi:start="0"
       sodipodi:end="6.2672787"
       sodipodi:arc-type="slice"
       d="M 172.79096,51.860626 A 22.108164,23.246941 0 0 1 150.77072,75.107383 22.108164,23.246941 0 0 1 128.57534,52.045514 22.108164,23.246941 0 0 1 150.41906,28.61534 22.108164,23.246941 0 0 1 172.78817,51.490862 l -22.10537,0.369764 z" />
    <path
       style="opacity:0.984793;fill:#5858ff;fill-opacity:1;stroke:#0000d4;stroke-width:16.0542;stroke-linecap:round;stroke-linejoin:round;stroke-miterlimit:3.8"
       id="path234-5"
       sodipodi:type="arc"
       sodipodi:cx="85.026505"
       sodipodi:cy="37.717739"
       sodipodi:rx="22.108164"
       sodipodi:ry="23.246941"
       sodipodi:start="0"
       sodipodi:end="6.2672787"
       sodipodi:arc-type="slice"
       d="M 107.13467,37.717739 A 22.108164,23.246941 0 0 1 85.114421,60.964496 22.108164,23.246941 0 0 1 62.91904,37.902627 22.108164,23.246941 0 0 1 84.762761,14.472453 22.108164,23.246941 0 0 1 107.13187,37.347975 l -22.105365,0.369764 z" />
    <path
       style="opacity:0.984793;fill:#ff8080;stroke:#ff0000;stroke-width:16.0542;stroke-linecap:round;stroke-linejoin:round;stroke-miterlimit:3.8"
       id="path234-3"
       sodipodi:type="arc"
       sodipodi:cx="171.90666"
       sodipodi:cy="120.02014"
       sodipodi:rx="22.108164"
       sodipodi:ry="23.246941"
       sodipodi:start="0"
       sodipodi:end="6.2672787"
       sodipodi:arc-type="slice"
       d="m 194.01483,120.02014 a 22.108164,23.246941 0 0 1 -22.02025,23.24676 22.108164,23.246941 0 0 1 -22.19538,-23.06187 22.108164,23.246941 0 0 1 21.84372,-23.430175 22.108164,23.246941 0 0 1 22.36911,22.875525 l -22.10537,0.36976 z" />
    <path
       style="opacity:0.984793;fill:#ff8e63;fill-opacity:1;stroke:#ff4600;stroke-width:16.0542;stroke-linecap:round;stroke-linejoin:round;stroke-miterlimit:3.8"
       id="path234-3-6"
       sodipodi:type="arc"
       sodipodi:cx="122.85376"
       sodipodi:cy="171.62764"
       sodipodi:rx="22.108164"
       sodipodi:ry="23.246941"
       sodipodi:start="0"
       sodipodi:end="6.2672787"
       sodipodi:arc-type="slice"
       d="m 144.96192,171.62764 a 22.108164,23.246941 0 0 1 -22.02024,23.24676 22.108164,23.246941 0 0 1 -22.19538,-23.06187 22.108164,23.246941 0 0 1 21.84372,-23.43018 22.108164,23.246941 0 0 1 22.36911,22.87553 l -22.10537,0.36976 z" />
    <path
       style="opacity:0.984793;fill:#7e8900;fill-opacity:1;stroke:#f0ff0e;stroke-width:16.0542;stroke-linecap:round;stroke-linejoin:round;stroke-miterlimit:3.8"
       id="path234-3-6-7"
       sodipodi:type="arc"
       sodipodi:cx="35.417355"
       sodipodi:cy="93.850548"
       sodipodi:rx="22.108164"
       sodipodi:ry="23.246941"
       sodipodi:start="0"
       sodipodi:end="6.2672787"
       sodipodi:arc-type="slice"
       d="M 57.525518,93.850548 A 22.108164,23.246941 0 0 1 35.505271,117.0973 22.108164,23.246941 0 0 1 13.30989,94.035436 22.108164,23.246941 0 0 1 35.153611,70.605261 22.108164,23.246941 0 0 1 57.522722,93.480783 l -22.105367,0.369765 z" />
    <path
       style="opacity:0.984793;fill:#b4ffe9;fill-opacity:1;stroke:#38ffc6;stroke-width:16.0542;stroke-linecap:round;stroke-linejoin:round;stroke-miterlimit:3.8"
       id="path234-3-6-7-5"
       sodipodi:type="arc"
       sodipodi:cx="57.033188"
       sodipodi:cy="159.20625"
       sodipodi:rx="22.108164"
       sodipodi:ry="23.246941"
       sodipodi:start="0"
       sodipodi:end="6.2672787"
       sodipodi:arc-type="slice"
       d="m 79.141352,159.20625 a 22.108164,23.246941 0 0 1 -22.020248,23.24676 22.108164,23.246941 0 0 1 -22.195381,-23.06187 22.108164,23.246941 0 0 1 21.843722,-23.43017 22.108164,23.246941 0 0 1 22.36911,22.87552 l -22.105367,0.36976 z" />
    <text
       xml:space="preserve"
       style="font-weight:bold;font-size:50.8px;font-family:'Nimbus Mono PS';-inkscape-font-specification:'Nimbus Mono PS, Bold';opacity:0.984793;fill:#54ffa9;fill-opacity:1;stroke:#008e48;stroke-width:1.37;stroke-linecap:round;stroke-linejoin:round;stroke-miterlimit:3.8;stroke-dasharray:none;stroke-opacity:1"
       x="111.12562"
       y="104.73174"
       id="text1140"><tspan
         sodipodi:role="line"
         style="text-align:center;text-anchor:middle;fill:#54ffa9;stroke:#008e48;stroke-width:1.37;stroke-opacity:1"
         x="111.12562"
         y="104.73174"
         id="tspan1142"><tspan
           dy="0"
           id="tspan1194"
           style="text-align:center;text-anchor:middle;fill:#54ffa9;stroke:#008e48;stroke-width:1.37;stroke-opacity:1">Auto</tspan></tspan></text>
    <text
       xml:space="preserve"
       style="font-weight:bold;font-size:50.8px;font-family:'Nimbus Mono PS';-inkscape-font-specification:'Nimbus Mono PS, Bold';opacity:0.984793;fill:#54ffa9;fill-opacity:1;stroke:#008e48;stroke-width:1.37;stroke-linecap:round;stroke-linejoin:round;stroke-miterlimit:3.8;stroke-dasharray:none;stroke-opacity:1"
       x="110.03769"
       y="138.25061"
       id="text1140-6"><tspan
         sodipodi:role="line"
         style="text-align:center;text-anchor:middle;fill:#54ffa9;stroke:#008e48;stroke-width:1.37;stroke-opacity:1"
         x="110.03769"
         y="138.25061"
         id="tspan1142-2">ML<tspan
   id="tspan1194-9"
   style="text-align:center;text-anchor:middle;fill:#54ffa9;stroke:#008e48;stroke-width:1.37;stroke-opacity:1" /></tspan></text>
  </g>
</svg>
