<?xml version="1.0" encoding="UTF-8" standalone="no"?>
<svg
   version="1.1"
   id="mdi-adjust"
   width="100"
   height="100"
   viewBox="0 0 100 100"
   sodipodi:docname="push.svg"
   inkscape:version="1.4 (e7c3feb100, 2024-10-09)"
   xmlns:inkscape="http://www.inkscape.org/namespaces/inkscape"
   xmlns:sodipodi="http://sodipodi.sourceforge.net/DTD/sodipodi-0.dtd"
   xmlns="http://www.w3.org/2000/svg"
   xmlns:svg="http://www.w3.org/2000/svg">
  <defs
     id="defs1" />
  <sodipodi:namedview
     id="namedview1"
     pagecolor="#ffffff"
     bordercolor="#000000"
     borderopacity="0.25"
     inkscape:showpageshadow="2"
     inkscape:pageopacity="0.0"
     inkscape:pagecheckerboard="0"
     inkscape:deskcolor="#d1d1d1"
     inkscape:zoom="4.7447917"
     inkscape:cx="25.923161"
     inkscape:cy="73.870472"
     inkscape:window-width="1920"
     inkscape:window-height="1134"
     inkscape:window-x="954"
     inkscape:window-y="1109"
     inkscape:window-maximized="1"
     inkscape:current-layer="mdi-adjust" />
  <path
     d="M 50,2 A 48,48 0 0 0 2,50 48,48 0 0 0 50,98 48,48 0 0 0 98,50 48,48 0 0 0 50,2 m 0,86.4 C 28.832,88.4 11.6,71.168 11.6,50 11.6,28.832 28.832,11.6 50,11.6 71.168,11.6 88.4,28.832 88.4,50 88.4,71.168 71.168,88.4 50,88.4 M 64.4,50 A 14.4,14.4 0 0 1 50,64.4 14.4,14.4 0 0 1 35.6,50 14.4,14.4 0 0 1 50,35.6 14.4,14.4 0 0 1 64.4,50 Z"
     id="path1"
     style="stroke-width:4.8" />
</svg>
