<?xml version="1.0" encoding="UTF-8" standalone="no"?>
<svg
   version="1.1"
   id="mdi-robot-love"
   width="400"
   height="400"
   viewBox="0 0 400 400"
   sodipodi:docname="robot-love.svg"
   inkscape:version="1.4 (e7c3feb100, 2024-10-09)"
   xmlns:inkscape="http://www.inkscape.org/namespaces/inkscape"
   xmlns:sodipodi="http://sodipodi.sourceforge.net/DTD/sodipodi-0.dtd"
   xmlns="http://www.w3.org/2000/svg"
   xmlns:svg="http://www.w3.org/2000/svg">
  <defs
     id="defs1" />
  <sodipodi:namedview
     id="namedview1"
     pagecolor="#ffffff"
     bordercolor="#000000"
     borderopacity="0.25"
     inkscape:showpageshadow="2"
     inkscape:pageopacity="0.0"
     inkscape:pagecheckerboard="0"
     inkscape:deskcolor="#d1d1d1"
     inkscape:zoom="1.1861979"
     inkscape:cx="188.83864"
     inkscape:cy="241.9495"
     inkscape:window-width="1920"
     inkscape:window-height="1043"
     inkscape:window-x="0"
     inkscape:window-y="0"
     inkscape:window-maximized="1"
     inkscape:current-layer="mdi-robot-love" />
  <path
     d="m 380.51552,228.29526 h -18.02455 c 0,-69.75522 -56.41684,-126.17224 -126.17184,-126.17224 H 218.29458 V 79.231777 C 229.10931,73.103408 236.31913,61.387417 236.31913,48.049209 236.31913,28.222144 220.27728,12 200.27003,12 c -20.00725,0 -36.0491,16.222144 -36.0491,36.049209 0,13.338208 7.20983,25.054199 18.02455,31.182568 v 22.891243 h -18.02455 c -69.754995,0 -126.171832,56.41702 -126.171832,126.17224 H 20.024548 C 10.111047,228.29526 2,236.40633 2,246.31986 v 54.07381 c 0,9.91354 8.111047,18.02461 18.024548,18.02461 h 18.02455 v 18.02461 c 0,20.00731 16.22209,36.0492 36.049094,36.0492 H 326.44187 c 20.00725,0 36.0491,-16.04189 36.0491,-36.0492 v -18.02461 h 18.02455 c 9.9135,0 18.02454,-8.11107 18.02454,-18.02461 v -54.07381 c 0,-9.91353 -8.11104,-18.0246 -18.02454,-18.0246 m -221.70195,26.13567 -13.15792,13.15797 -26.49609,26.49617 -39.654004,-39.65414 c -7.209817,-7.20984 -7.209817,-19.10608 0,-26.13567 7.390066,-7.57034 19.106024,-7.57034 26.496084,0 l 13.15792,12.97772 13.15792,-12.97772 c 7.39007,-7.57034 19.10602,-7.57034 26.49609,0 7.20982,7.02959 7.20982,18.92583 0,26.13567 m 162.22094,0 -13.15792,13.15797 -26.49609,26.49617 -39.65401,-39.65414 c -7.20982,-7.20984 -7.20982,-19.10608 0,-26.13567 7.39007,-7.57034 19.10602,-7.57034 26.49609,0 l 13.15792,12.97772 13.15792,-12.97772 c 7.39006,-7.57034 19.10602,-7.57034 26.49609,0 7.20981,7.02959 7.20981,18.92583 0,26.13567 z"
     id="path1"
     style="fill:#ffa77c;fill-opacity:1;stroke-width:18.0246" />
</svg>
