<?xml version="1.0" encoding="utf-8"?>
<!-- Generator: Adobe Illustrator 25.0.1, SVG Export Plug-In . SVG Version: 6.00 Build 0)  -->
<svg version="1.1" id="Layer_1" xmlns="http://www.w3.org/2000/svg" xmlns:xlink="http://www.w3.org/1999/xlink" x="0px" y="0px"
	 viewBox="0 0 48 48" style="enable-background:new 0 0 48 48;" xml:space="preserve">
<style type="text/css">
	.st0{fill:url(#SVGID_1_);}
	.st1{fill:url(#SVGID_2_);}
	.st2{fill:url(#SVGID_3_);}
</style>
<g>
	<linearGradient id="SVGID_1_" gradientUnits="userSpaceOnUse" x1="8.4832" y1="17.0191" x2="39.5146" y2="17.0191">
		<stop  offset="0" style="stop-color:#3E3E3E"/>
		<stop  offset="3.312606e-02" style="stop-color:#3B3B3B"/>
		<stop  offset="0.4343" style="stop-color:#1B1B1B"/>
		<stop  offset="0.7709" style="stop-color:#070707"/>
		<stop  offset="1" style="stop-color:#000000"/>
	</linearGradient>
	<path class="st0" d="M26.2,8.2c4.1,2.4,8.2,4.8,12.4,7.2c0.5,0.3,0.8,0.6,1,1.2c0.2,0.8-0.1,1.5-0.9,1.9c-1.1,0.7-2.2,1.3-3.4,2
		c-3.4,2-6.7,3.9-10.1,5.9c-0.8,0.5-1.5,0.5-2.3,0c-4.5-2.6-8.9-5.2-13.4-7.8c-0.5-0.3-0.8-0.6-0.9-1.2c-0.2-0.8,0.1-1.4,0.9-1.9
		c1.4-0.8,2.9-1.7,4.3-2.5c2.7-1.5,5.3-3.1,8-4.6c0.4-0.2,1.5-1,2.2-1C24.7,7.2,26,8.2,26.2,8.2z M13.5,17c0.2,0.1,0.3,0.2,0.4,0.2
		c3.2,1.9,6.5,3.8,9.7,5.7c0.2,0.1,0.4,0.2,0.7,0c3.3-1.9,6.5-3.8,9.8-5.7c0.1-0.1,0.2-0.1,0.3-0.2c-0.2-0.1-0.2-0.2-0.3-0.2
		c-3.2-1.9-6.5-3.8-9.7-5.7c-0.3-0.2-0.5-0.2-0.8,0c-3.2,1.9-6.5,3.8-9.7,5.7C13.8,16.8,13.7,16.9,13.5,17z"/>
	<linearGradient id="SVGID_2_" gradientUnits="userSpaceOnUse" x1="8.4629" y1="34.8931" x2="39.5394" y2="34.8931">
		<stop  offset="0" style="stop-color:#3E3E3E"/>
		<stop  offset="3.312606e-02" style="stop-color:#3B3B3B"/>
		<stop  offset="0.4343" style="stop-color:#1B1B1B"/>
		<stop  offset="0.7709" style="stop-color:#070707"/>
		<stop  offset="1" style="stop-color:#000000"/>
	</linearGradient>
	<path class="st1" d="M24,40.7c-0.3-0.1-0.7-0.2-0.9-0.3c-4.6-2.7-9.2-5.3-13.7-8c-0.7-0.4-1-1.1-0.8-1.8c0.2-0.8,0.7-1.3,1.5-1.3
		c0.4,0,0.8,0.1,1.1,0.3c3.7,2.1,7.4,4.3,11.1,6.5c0.4,0.2,0.9,0.5,1.3,0.7c0.3,0.2,0.5,0.2,0.8,0c4.1-2.4,8.3-4.8,12.4-7.2
		c0.4-0.2,0.8-0.4,1.3-0.3c0.8,0.2,1.2,0.6,1.4,1.4c0.1,0.6-0.2,1.3-0.8,1.7c-1,0.6-2,1.2-3,1.8c-3.6,2.1-7.1,4.2-10.7,6.2
		C24.7,40.4,24.4,40.5,24,40.7z"/>
	<linearGradient id="SVGID_3_" gradientUnits="userSpaceOnUse" x1="8.4568" y1="27.9279" x2="39.5432" y2="27.9279">
		<stop  offset="0" style="stop-color:#3E3E3E"/>
		<stop  offset="3.312606e-02" style="stop-color:#3B3B3B"/>
		<stop  offset="0.4343" style="stop-color:#1B1B1B"/>
		<stop  offset="0.7709" style="stop-color:#070707"/>
		<stop  offset="1" style="stop-color:#000000"/>
	</linearGradient>
	<path class="st2" d="M39.5,23.8c0,0.8-0.4,1.3-1,1.7c-1.7,1-3.3,1.9-5,2.9c-2.8,1.6-5.6,3.3-8.4,4.9c-0.8,0.4-1.4,0.4-2.2,0
		c-4.5-2.6-9-5.3-13.5-7.9c-1-0.6-1.3-1.7-0.6-2.5c0.5-0.7,1.4-0.9,2.3-0.4c1.6,0.9,3.2,1.9,4.9,2.8c2.6,1.5,5.1,3,7.7,4.5
		c0.3,0.2,0.5,0.2,0.7,0c4.2-2.4,8.3-4.8,12.5-7.3c1.1-0.6,2.2-0.1,2.5,0.6C39.4,23.4,39.5,23.6,39.5,23.8z"/>
</g>
</svg>
