<?xml version="1.0" encoding="us-ascii" standalone="no"?><svg xmlns="http://www.w3.org/2000/svg" xmlns:xlink="http://www.w3.org/1999/xlink" contentStyleType="text/css" height="960px" preserveAspectRatio="none" style="width:1528px;height:960px;background:#FFFFFF;" version="1.1" viewBox="0 0 1528 960" width="1528px" zoomAndPan="magnify"><defs/><g><text fill="#000000" font-family="Verdana" font-size="22" font-weight="bold" lengthAdjust="spacing" textLength="704" x="407.7987" y="35.4209">Semantic Scholar MCP Server - Component Architecture</text><!--cluster External Systems--><g id="cluster_External Systems"><path d="M1186.272,481.7444 C1192.5993,470.4867 1204.1753,469.4771 1210.2821,481.9674 C1214.352,473.195 1222.3013,469.7371 1229.3822,478.7301 C1237.5777,467.6163 1247.5566,466.2692 1254.3171,480.1611 C1258.158,468.8035 1267.2035,467.7768 1274.1303,477.2219 C1279.0121,463.9248 1290.9138,463.0604 1298.0944,475.0427 C1305.2645,465.2295 1311.5569,466.9699 1318.269,475.5452 C1325.7869,461.4209 1333.6802,461.0343 1343.1248,473.7616 C1350.2418,464.5904 1357.1147,467.1954 1362.1452,475.9727 C1370.2941,462.8363 1377.979,465.6929 1386.5442,475.5306 C1395.4098,467.2655 1401.781,469.1224 1407.696,478.9752 C1414.2928,468.6229 1423.5766,466.5787 1431.5887,477.3764 C1438.9167,468.2564 1445.0408,469.382 1450.1106,479.5455 C1457.5191,468.5827 1467.9586,466.6487 1475.9384,478.9102 C1483.8646,469.767 1489.8891,471.0228 1495.1177,481.5416 C1513.9073,488.1629 1519.3823,501.3306 1503.4097,516.2555 C1521.5975,531.2521 1515.8238,545.3968 1496.9333,554.0376 C1490.4536,564.857 1483.0066,563.2949 1475.8351,554.793 C1469.6413,566.89 1460.6843,565.7377 1453.2211,556.1148 C1447.7678,566.0885 1439.3935,568.6752 1431.4551,558.8463 C1423.6778,571.4398 1414.1932,569.7801 1406.1408,559.1461 C1401.7443,571.1113 1392.3823,571.1679 1385.4007,561.6407 C1379.0611,573.622 1371.9524,574.9085 1362.4984,564.8816 C1354.5481,575.7413 1348.152,573.0759 1341.5955,563.4588 C1333.6957,575.3974 1325.6034,575.3489 1318.7055,562.5324 C1311.2176,570.4587 1304.1907,570.3514 1298.8186,560.2043 C1291.0923,570.8775 1280.8239,571.3088 1274.2182,559.0045 C1267.0177,567.4214 1259.2509,568.3929 1253.7735,557.2074 C1245.705,567.2747 1237.9119,567.0819 1232.5031,554.6886 C1224.7438,564.3767 1215.3589,564.5552 1209.6411,552.5384 C1202.7654,562.2955 1195.8004,563.2487 1188.5626,552.9184 C1167.0179,544.8948 1167.9926,532.0656 1180.0582,516.2474 C1166.3258,502.633 1167.4753,489.5005 1186.272,481.7444 " fill="#FFFFFF" style="stroke:#000000;stroke-width:1.0;"/><text fill="#000000" font-family="Verdana" font-size="14" font-weight="bold" lengthAdjust="spacing" textLength="136" x="1271.5" y="497.6045">External Systems</text></g><!--cluster Semantic Scholar MCP Server--><g id="cluster_Semantic Scholar MCP Server"><path d="M13.5,57.6094 L247.5,57.6094 A3.75,3.75 0 0 1 250,60.1094 L257,79.9063 L1150.5,79.9063 A2.5,2.5 0 0 1 1153,82.4063 L1153,951.1094 A2.5,2.5 0 0 1 1150.5,953.6094 L13.5,953.6094 A2.5,2.5 0 0 1 11,951.1094 L11,60.1094 A2.5,2.5 0 0 1 13.5,57.6094 " fill="#FFFFFF" style="stroke:#000000;stroke-width:1.0;"/><line style="stroke:#000000;stroke-width:1.0;" x1="11" x2="257" y1="79.9063" y2="79.9063"/><text fill="#000000" font-family="Verdana" font-size="14" font-weight="bold" lengthAdjust="spacing" textLength="233" x="15" y="72.6045">Semantic Scholar MCP Server</text></g><!--cluster MCP Layer--><g id="cluster_MCP Layer"><path d="M625.5,100.6094 L709.5,100.6094 A3.75,3.75 0 0 1 712,103.1094 L719,122.9063 L1126.5,122.9063 A2.5,2.5 0 0 1 1129,125.4063 L1129,284.1094 A2.5,2.5 0 0 1 1126.5,286.6094 L625.5,286.6094 A2.5,2.5 0 0 1 623,284.1094 L623,103.1094 A2.5,2.5 0 0 1 625.5,100.6094 " fill="#FFFFFF" style="stroke:#000000;stroke-width:1.0;"/><line style="stroke:#000000;stroke-width:1.0;" x1="623" x2="719" y1="122.9063" y2="122.9063"/><text fill="#000000" font-family="Verdana" font-size="14" font-weight="bold" lengthAdjust="spacing" textLength="83" x="627" y="115.6045">MCP Layer</text></g><!--cluster Business Logic Layer--><g id="cluster_Business Logic Layer"><path d="M771.5,335.6094 L939.5,335.6094 A3.75,3.75 0 0 1 942,338.1094 L949,357.9063 L1126.5,357.9063 A2.5,2.5 0 0 1 1129,360.4063 L1129,556.1094 A2.5,2.5 0 0 1 1126.5,558.6094 L771.5,558.6094 A2.5,2.5 0 0 1 769,556.1094 L769,338.1094 A2.5,2.5 0 0 1 771.5,335.6094 " fill="#FFFFFF" style="stroke:#000000;stroke-width:1.0;"/><line style="stroke:#000000;stroke-width:1.0;" x1="769" x2="949" y1="357.9063" y2="357.9063"/><text fill="#000000" font-family="Verdana" font-size="14" font-weight="bold" lengthAdjust="spacing" textLength="167" x="773" y="350.6045">Business Logic Layer</text></g><!--cluster Resilience Patterns--><g id="cluster_Resilience Patterns"><path d="M126.5,471.6094 L279.5,471.6094 A3.75,3.75 0 0 1 282,474.1094 L289,493.9063 L726.5,493.9063 A2.5,2.5 0 0 1 729,496.4063 L729,556.1094 A2.5,2.5 0 0 1 726.5,558.6094 L126.5,558.6094 A2.5,2.5 0 0 1 124,556.1094 L124,474.1094 A2.5,2.5 0 0 1 126.5,471.6094 " fill="#FFFFFF" style="stroke:#000000;stroke-width:1.0;"/><line style="stroke:#000000;stroke-width:1.0;" x1="124" x2="289" y1="493.9063" y2="493.9063"/><text fill="#000000" font-family="Verdana" font-size="14" font-weight="bold" lengthAdjust="spacing" textLength="152" x="128" y="486.6045">Resilience Patterns</text></g><!--cluster Infrastructure--><g id="cluster_Infrastructure"><path d="M37.5,607.6094 L148.5,607.6094 A3.75,3.75 0 0 1 151,610.1094 L158,629.9063 L576.5,629.9063 A2.5,2.5 0 0 1 579,632.4063 L579,826.1094 A2.5,2.5 0 0 1 576.5,828.6094 L37.5,828.6094 A2.5,2.5 0 0 1 35,826.1094 L35,610.1094 A2.5,2.5 0 0 1 37.5,607.6094 " fill="#FFFFFF" style="stroke:#000000;stroke-width:1.0;"/><line style="stroke:#000000;stroke-width:1.0;" x1="35" x2="158" y1="629.9063" y2="629.9063"/><text fill="#000000" font-family="Verdana" font-size="14" font-weight="bold" lengthAdjust="spacing" textLength="110" x="39" y="622.6045">Infrastructure</text></g><!--cluster Core--><g id="cluster_Core"><path d="M605.5,741.6094 L644.5,741.6094 A3.75,3.75 0 0 1 647,744.1094 L654,763.9063 L1126.5,763.9063 A2.5,2.5 0 0 1 1129,766.4063 L1129,927.1094 A2.5,2.5 0 0 1 1126.5,929.6094 L605.5,929.6094 A2.5,2.5 0 0 1 603,927.1094 L603,744.1094 A2.5,2.5 0 0 1 605.5,741.6094 " fill="#FFFFFF" style="stroke:#000000;stroke-width:1.0;"/><line style="stroke:#000000;stroke-width:1.0;" x1="603" x2="654" y1="763.9063" y2="763.9063"/><text fill="#000000" font-family="Verdana" font-size="14" font-weight="bold" lengthAdjust="spacing" textLength="38" x="607" y="756.6045">Core</text></g><!--entity SSAPI--><g id="elem_SSAPI"><rect fill="#FFFFFF" height="36.2969" rx="2.5" ry="2.5" style="stroke:#000000;stroke-width:1.0;" width="164" x="1193" y="506.6094"/><text fill="#000000" font-family="Verdana" font-size="14" lengthAdjust="spacing" textLength="144" x="1203" y="529.6045">Semantic Scholar API</text></g><!--entity MCPClient--><g id="elem_MCPClient"><rect fill="#FFFFFF" height="36.2969" rx="2.5" ry="2.5" style="stroke:#000000;stroke-width:1.0;" width="94" x="1392" y="506.6094"/><text fill="#000000" font-family="Verdana" font-size="14" lengthAdjust="spacing" textLength="74" x="1402" y="529.6045">MCP Client</text></g><!--entity MCPServer--><g id="elem_MCPServer"><rect fill="#FFFFFF" height="36.2969" rx="2.5" ry="2.5" style="stroke:#000000;stroke-width:1.0;" width="128" x="981" y="135.6094"/><text fill="#000000" font-family="Verdana" font-size="14" lengthAdjust="spacing" textLength="108" x="991" y="158.6045">FastMCP Server</text></g><!--entity Tools--><g id="elem_Tools"><rect fill="#FFFFFF" height="36.2969" rx="2.5" ry="2.5" style="stroke:#000000;stroke-width:1.0;" width="115" x="639.5" y="234.6094"/><text fill="#000000" font-family="Verdana" font-size="14" lengthAdjust="spacing" textLength="95" x="649.5" y="257.6045">Tool Handlers</text></g><!--entity Resources--><g id="elem_Resources"><rect fill="#FFFFFF" height="36.2969" rx="2.5" ry="2.5" style="stroke:#000000;stroke-width:1.0;" width="152" x="790" y="234.6094"/><text fill="#000000" font-family="Verdana" font-size="14" lengthAdjust="spacing" textLength="132" x="800" y="257.6045">Resource Handlers</text></g><!--entity Prompts--><g id="elem_Prompts"><rect fill="#FFFFFF" height="36.2969" rx="2.5" ry="2.5" style="stroke:#000000;stroke-width:1.0;" width="135" x="977.5" y="234.6094"/><text fill="#000000" font-family="Verdana" font-size="14" lengthAdjust="spacing" textLength="115" x="987.5" y="257.6045">Prompt Handlers</text></g><!--entity Client--><g id="elem_Client"><rect fill="#FFFFFF" height="36.2969" rx="2.5" ry="2.5" style="stroke:#000000;stroke-width:1.0;" width="174" x="785" y="370.6094"/><text fill="#000000" font-family="Verdana" font-size="14" lengthAdjust="spacing" textLength="154" x="795" y="393.6045">SemanticScholarClient</text></g><!--entity Models--><g id="elem_Models"><rect fill="#FFFFFF" height="36.2969" rx="2.5" ry="2.5" style="stroke:#000000;stroke-width:1.0;" width="127" x="785.5" y="506.6094"/><text fill="#000000" font-family="Verdana" font-size="14" lengthAdjust="spacing" textLength="107" x="795.5" y="529.6045">Domain Models</text></g><!--entity QueryBuilder--><g id="elem_QueryBuilder"><rect fill="#FFFFFF" height="36.2969" rx="2.5" ry="2.5" style="stroke:#000000;stroke-width:1.0;" width="165" x="947.5" y="506.6094"/><text fill="#000000" font-family="Verdana" font-size="14" lengthAdjust="spacing" textLength="145" x="957.5" y="529.6045">Search Query Builder</text></g><!--entity CB--><g id="elem_CB"><rect fill="#FFFFFF" height="36.2969" rx="2.5" ry="2.5" style="stroke:#000000;stroke-width:1.0;" width="121" x="276.5" y="506.6094"/><text fill="#000000" font-family="Verdana" font-size="14" lengthAdjust="spacing" textLength="101" x="286.5" y="529.6045">Circuit Breaker</text></g><!--entity RL--><g id="elem_RL"><rect fill="#FFFFFF" height="36.2969" rx="2.5" ry="2.5" style="stroke:#000000;stroke-width:1.0;" width="101" x="140.5" y="506.6094"/><text fill="#000000" font-family="Verdana" font-size="14" lengthAdjust="spacing" textLength="81" x="150.5" y="529.6045">Rate Limiter</text></g><!--entity Retry--><g id="elem_Retry"><rect fill="#FFFFFF" height="36.2969" rx="2.5" ry="2.5" style="stroke:#000000;stroke-width:1.0;" width="117" x="432.5" y="506.6094"/><text fill="#000000" font-family="Verdana" font-size="14" lengthAdjust="spacing" textLength="97" x="442.5" y="529.6045">Retry Strategy</text></g><!--entity Cache--><g id="elem_Cache"><rect fill="#FFFFFF" height="36.2969" rx="2.5" ry="2.5" style="stroke:#000000;stroke-width:1.0;" width="128" x="585" y="506.6094"/><text fill="#000000" font-family="Verdana" font-size="14" lengthAdjust="spacing" textLength="108" x="595" y="529.6045">Cache Manager</text></g><!--entity Config--><g id="elem_Config"><rect fill="#FFFFFF" height="36.2969" rx="2.5" ry="2.5" style="stroke:#000000;stroke-width:1.0;" width="176" x="51" y="642.6094"/><text fill="#000000" font-family="Verdana" font-size="14" lengthAdjust="spacing" textLength="156" x="61" y="665.6045">Configuration Manager</text></g><!--entity Logging--><g id="elem_Logging"><rect fill="#FFFFFF" height="36.2969" rx="2.5" ry="2.5" style="stroke:#000000;stroke-width:1.0;" width="130" x="433" y="642.6094"/><text fill="#000000" font-family="Verdana" font-size="14" lengthAdjust="spacing" textLength="110" x="443" y="665.6045">Logging System</text></g><!--entity Metrics--><g id="elem_Metrics"><rect fill="#FFFFFF" height="36.2969" rx="2.5" ry="2.5" style="stroke:#000000;stroke-width:1.0;" width="135" x="262.5" y="642.6094"/><text fill="#000000" font-family="Verdana" font-size="14" lengthAdjust="spacing" textLength="115" x="272.5" y="665.6045">Metrics Collector</text></g><!--entity DIContainer--><g id="elem_DIContainer"><rect fill="#FFFFFF" height="36.2969" rx="2.5" ry="2.5" style="stroke:#000000;stroke-width:1.0;" width="105" x="277.5" y="776.6094"/><text fill="#000000" font-family="Verdana" font-size="14" lengthAdjust="spacing" textLength="85" x="287.5" y="799.6045">DI Container</text></g><!--entity Protocols--><g id="elem_Protocols"><rect fill="#FFFFFF" height="36.2969" rx="2.5" ry="2.5" style="stroke:#000000;stroke-width:1.0;" width="158" x="619" y="776.6094"/><text fill="#000000" font-family="Verdana" font-size="14" lengthAdjust="spacing" textLength="138" x="629" y="799.6045">Protocols/Interfaces</text></g><!--entity Exceptions--><g id="elem_Exceptions"><rect fill="#FFFFFF" height="36.2969" rx="2.5" ry="2.5" style="stroke:#000000;stroke-width:1.0;" width="156" x="812" y="776.6094"/><text fill="#000000" font-family="Verdana" font-size="14" lengthAdjust="spacing" textLength="136" x="822" y="799.6045">Exception Hierarchy</text></g><!--entity Types--><g id="elem_Types"><rect fill="#FFFFFF" height="36.2969" rx="2.5" ry="2.5" style="stroke:#000000;stroke-width:1.0;" width="131" x="810.5" y="877.6094"/><text fill="#000000" font-family="Verdana" font-size="14" lengthAdjust="spacing" textLength="111" x="820.5" y="900.6045">Type Definitions</text></g><!--entity BaseModels--><g id="elem_BaseModels"><rect fill="#FFFFFF" height="36.2969" rx="2.5" ry="2.5" style="stroke:#000000;stroke-width:1.0;" width="109" x="1003.5" y="776.6094"/><text fill="#000000" font-family="Verdana" font-size="14" lengthAdjust="spacing" textLength="89" x="1013.5" y="799.6045">Base Models</text></g><g id="elem_GMN56"><path d="M1169,133.6094 L1169,149.6094 L1109.06,153.6094 L1169,157.6094 L1169,173.875 A0,0 0 0 0 1169,173.875 L1321,173.875 A0,0 0 0 0 1321,173.875 L1321,143.6094 L1311,133.6094 L1169,133.6094 A0,0 0 0 0 1169,133.6094 " fill="#FFFFFF" style="stroke:#000000;stroke-width:1.0;"/><path d="M1311,133.6094 L1311,143.6094 L1321,143.6094 L1311,133.6094 " fill="#FFFFFF" style="stroke:#000000;stroke-width:1.0;"/><text fill="#000000" font-family="Verdana" font-size="13" lengthAdjust="spacing" textLength="108" x="1175" y="150.6763">Entry point for all</text><text fill="#000000" font-family="Verdana" font-size="13" lengthAdjust="spacing" textLength="131" x="1175" y="165.8091">MCP communication</text></g><g id="elem_GMN59"><path d="M1169,368.6094 L1169,408.875 L1337,408.875 L1337,378.6094 L1327,368.6094 L1169,368.6094 " fill="#FFFFFF" style="stroke:#000000;stroke-width:1.0;"/><path d="M1327,368.6094 L1327,378.6094 L1337,378.6094 L1327,368.6094 " fill="#FFFFFF" style="stroke:#000000;stroke-width:1.0;"/><text fill="#000000" font-family="Verdana" font-size="13" lengthAdjust="spacing" textLength="123" x="1175" y="385.6763">Core business logic</text><text fill="#000000" font-family="Verdana" font-size="13" lengthAdjust="spacing" textLength="147" x="1175" y="400.8091">with resilience patterns</text></g><g id="elem_GMN62"><path d="M1169.5,875.6094 L1169.5,915.875 L1362.5,915.875 L1362.5,885.6094 L1352.5,875.6094 L1169.5,875.6094 " fill="#FFFFFF" style="stroke:#000000;stroke-width:1.0;"/><path d="M1352.5,875.6094 L1352.5,885.6094 L1362.5,885.6094 L1352.5,875.6094 " fill="#FFFFFF" style="stroke:#000000;stroke-width:1.0;"/><text fill="#000000" font-family="Verdana" font-size="13" lengthAdjust="spacing" textLength="121" x="1175.5" y="892.6763">Clean architecture:</text><text fill="#000000" font-family="Verdana" font-size="13" lengthAdjust="spacing" textLength="172" x="1175.5" y="907.8091">Dependencies point inward</text></g><!--link MCPServer to Tools--><g id="link_MCPServer_Tools"><path d="M983.98,171.6194 C919.37,189.6294 823.8997,216.2384 760.5397,233.8984 " fill="none" id="MCPServer-to-Tools" style="stroke:#000000;stroke-width:1.0;"/><polygon fill="#000000" points="754.76,235.5094,764.5035,236.9461,759.5764,234.1669,762.3556,229.2398,754.76,235.5094" style="stroke:#000000;stroke-width:1.0;"/></g><!--link MCPServer to Resources--><g id="link_MCPServer_Resources"><path d="M1013.41,171.7294 C980.79,189.3994 935.4657,213.9716 902.8457,231.6416 " fill="none" id="MCPServer-to-Resources" style="stroke:#000000;stroke-width:1.0;"/><polygon fill="#000000" points="897.57,234.4994,907.3887,233.7298,901.9664,232.1179,903.5783,226.6955,897.57,234.4994" style="stroke:#000000;stroke-width:1.0;"/></g><!--link MCPServer to Prompts--><g id="link_MCPServer_Prompts"><path d="M1045,171.9494 C1045,189.6094 1045,210.8194 1045,228.4194 " fill="none" id="MCPServer-to-Prompts" style="stroke:#000000;stroke-width:1.0;"/><polygon fill="#000000" points="1045,234.4194,1049,225.4194,1045,229.4194,1041,225.4194,1045,234.4194" style="stroke:#000000;stroke-width:1.0;"/></g><!--link Client to Models--><g id="link_Client_Models"><path d="M869.04,406.8494 C864.62,432.5794 857.3751,474.8259 852.9651,500.5159 " fill="none" id="Client-to-Models" style="stroke:#000000;stroke-width:1.0;"/><polygon fill="#000000" points="851.95,506.4294,857.415,498.2359,852.7959,501.5015,849.5304,496.8824,851.95,506.4294" style="stroke:#000000;stroke-width:1.0;"/></g><!--link Client to QueryBuilder--><g id="link_Client_QueryBuilder"><path d="M892.33,406.8494 C922.67,432.5794 974.8735,476.8592 1005.1735,502.5492 " fill="none" id="Client-to-QueryBuilder" style="stroke:#000000;stroke-width:1.0;"/><polygon fill="#000000" points="1009.75,506.4294,1005.4721,497.5581,1005.9363,503.1959,1000.2985,503.6601,1009.75,506.4294" style="stroke:#000000;stroke-width:1.0;"/></g><!--link Client to CB--><g id="link_Client_CB"><path d="M784.67,391.1194 C689.98,395.5894 536.17,411.2194 415,463.6094 C391.48,473.7794 373.1166,488.525 358.3266,502.395 " fill="none" id="Client-to-CB" style="stroke:#000000;stroke-width:1.0;"/><polygon fill="#000000" points="353.95,506.4994,363.2511,503.2606,357.5971,503.0791,357.7786,497.4252,353.95,506.4994" style="stroke:#000000;stroke-width:1.0;"/></g><!--link Client to RL--><g id="link_Client_RL"><path d="M784.87,393.5094 C638.54,401.1594 350.48,421.1994 259,463.6094 C237.57,473.5394 221.9335,487.9783 209.3235,501.9283 " fill="none" id="Client-to-RL" style="stroke:#000000;stroke-width:1.0;"/><polygon fill="#000000" points="205.3,506.3794,214.3026,502.3851,208.6529,502.6702,208.3679,497.0205,205.3,506.3794" style="stroke:#000000;stroke-width:1.0;"/></g><!--link Client to Retry--><g id="link_Client_Retry"><path d="M784.82,400.8094 C722.17,411.2094 636.95,430.2694 568,463.6094 C545.42,474.5294 527.6274,488.8191 512.9074,502.3491 " fill="none" id="Client-to-Retry" style="stroke:#000000;stroke-width:1.0;"/><polygon fill="#000000" points="508.49,506.4094,517.823,503.2638,512.1712,503.0258,512.4093,497.3739,508.49,506.4094" style="stroke:#000000;stroke-width:1.0;"/></g><!--link Client to Cache--><g id="link_Client_Cache"><path d="M810.86,406.6794 C787.72,414.5494 761.73,425.1794 740,438.6094 C709.47,457.4694 684.2556,483.1244 667.4956,501.9844 " fill="none" id="Client-to-Cache" style="stroke:#000000;stroke-width:1.0;"/><polygon fill="#000000" points="663.51,506.4694,672.4784,502.399,666.8313,502.7319,666.4984,497.0848,663.51,506.4694" style="stroke:#000000;stroke-width:1.0;"/></g><!--link Config to DIContainer--><g id="link_Config_DIContainer"><path d="M163.97,678.8694 C200.68,704.2294 263.8539,747.8984 300.3939,773.1484 " fill="none" id="Config-to-DIContainer" style="stroke:#000000;stroke-width:1.0;"/><polygon fill="#000000" points="305.33,776.5594,300.1998,768.1522,301.2166,773.7169,295.6518,774.7337,305.33,776.5594" style="stroke:#000000;stroke-width:1.0;"/></g><!--link Logging to DIContainer--><g id="link_Logging_DIContainer"><path d="M476.04,678.8694 C443.75,704.2294 388.5581,747.6027 356.4181,772.8527 " fill="none" id="Logging-to-DIContainer" style="stroke:#000000;stroke-width:1.0;"/><polygon fill="#000000" points="351.7,776.5594,361.2483,774.1448,355.6318,773.4705,356.3061,767.854,351.7,776.5594" style="stroke:#000000;stroke-width:1.0;"/></g><!--link Metrics to DIContainer--><g id="link_Metrics_DIContainer"><path d="M330,678.8694 C330,704.1594 330,745.0494 330,770.3494 " fill="none" id="Metrics-to-DIContainer" style="stroke:#000000;stroke-width:1.0;"/><polygon fill="#000000" points="330,776.3494,334,767.3494,330,771.3494,326,767.3494,330,776.3494" style="stroke:#000000;stroke-width:1.0;"/></g><!--link Protocols to Types--><g id="link_Protocols_Types"><path d="M728.6,812.6294 C761.2,830.7594 807.2864,856.3931 839.9564,874.5631 " fill="none" id="Protocols-to-Types" style="stroke:#000000;stroke-width:1.0;"/><polygon fill="#000000" points="845.2,877.4794,839.2788,869.6092,840.8303,875.0491,835.3904,876.6006,845.2,877.4794" style="stroke:#000000;stroke-width:1.0;"/></g><!--link BaseModels to Types--><g id="link_BaseModels_Types"><path d="M1028.35,812.7794 C1015.4,820.2094 1000,828.9294 986,836.6094 C960.44,850.6194 936.5716,863.208 914.6816,874.608 " fill="none" id="BaseModels-to-Types" style="stroke:#000000;stroke-width:1.0;"/><polygon fill="#000000" points="909.36,877.3794,919.19,876.77,913.7947,875.0699,915.4948,869.6745,909.36,877.3794" style="stroke:#000000;stroke-width:1.0;"/></g><!--link Tools to Client--><g id="link_Tools_Client"><path d="M719.52,270.8494 C753.12,296.5794 811.2457,341.0923 844.8057,366.7823 " fill="none" id="Tools-to-Client" style="stroke:#000000;stroke-width:1.0;"/><polygon fill="#000000" points="849.57,370.4294,844.8549,361.7825,845.5997,367.3901,839.9921,368.135,849.57,370.4294" style="stroke:#000000;stroke-width:1.0;"/><text fill="#000000" font-family="Verdana" font-size="13" lengthAdjust="spacing" textLength="30" x="780" y="315.6763">uses</text></g><!--link Resources to Client--><g id="link_Resources_Client"><path d="M866.77,270.8494 C867.92,296.5794 869.8117,338.7454 870.9617,364.4354 " fill="none" id="Resources-to-Client" style="stroke:#000000;stroke-width:1.0;"/><polygon fill="#000000" points="871.23,370.4294,874.8235,361.2595,871.0064,365.4344,866.8315,361.6173,871.23,370.4294" style="stroke:#000000;stroke-width:1.0;"/><text fill="#000000" font-family="Verdana" font-size="13" lengthAdjust="spacing" textLength="30" x="869" y="315.6763">uses</text></g><!--link Prompts to QueryBuilder--><g id="link_Prompts_QueryBuilder"><path d="M1044.04,270.9094 C1041.33,319.6794 1033.9829,451.8686 1031.2829,500.4586 " fill="none" id="Prompts-to-QueryBuilder" style="stroke:#000000;stroke-width:1.0;"/><polygon fill="#000000" points="1030.95,506.4494,1035.4432,497.6852,1031.2274,501.4571,1027.4555,497.2413,1030.95,506.4494" style="stroke:#000000;stroke-width:1.0;"/><text fill="#000000" font-family="Verdana" font-size="13" lengthAdjust="spacing" textLength="30" x="1041" y="393.1763">uses</text></g><!--link Client to SSAPI--><g id="link_Client_SSAPI"><path d="M938.65,406.6494 C990.9,420.5194 1065.2,441.3894 1129,463.6094 C1166.14,476.5394 1202.0182,491.4356 1231.2082,504.1356 " fill="none" id="Client-to-SSAPI" style="stroke:#000000;stroke-width:1.0;"/><polygon fill="#000000" points="1236.71,506.5294,1230.0531,499.2709,1232.1251,504.5346,1226.8614,506.6067,1236.71,506.5294" style="stroke:#000000;stroke-width:1.0;"/><text fill="#000000" font-family="Verdana" font-size="13" lengthAdjust="spacing" textLength="68" x="1102" y="451.6763">HTTP/REST</text></g><!--link MCPClient to MCPServer--><g id="link_MCPClient_MCPServer"><path d="M1435.57,506.3694 C1427.48,469.5394 1404.06,382.0694 1355,327.6094 C1282.91,247.5894 1170.4305,198.255 1102.7105,173.695 " fill="none" id="MCPClient-to-MCPServer" style="stroke:#000000;stroke-width:1.0;"/><polygon fill="#000000" points="1097.07,171.6494,1104.167,178.4782,1101.7704,173.3541,1106.8945,170.9575,1097.07,171.6494" style="stroke:#000000;stroke-width:1.0;"/><text fill="#000000" font-family="Verdana" font-size="13" lengthAdjust="spacing" textLength="61" x="1348" y="315.6763">stdio/SSE</text></g><!--link CB to Logging--><g id="link_CB_Logging"><path d="M362.81,542.7694 C376.03,551.8494 392.2,563.4094 406,574.6094 C433.19,596.6694 458.2849,620.3997 476.3449,638.0997 " fill="none" id="CB-to-Logging" style="stroke:#000000;stroke-width:1.0;"/><polygon fill="#000000" points="480.63,642.2994,477.0021,633.143,477.0591,638.7996,471.4025,638.8566,480.63,642.2994" style="stroke:#000000;stroke-width:1.0;"/><text fill="#000000" font-family="Verdana" font-size="13" lengthAdjust="spacing" textLength="26" x="425" y="587.6763">logs</text></g><!--link RL to Metrics--><g id="link_RL_Metrics"><path d="M208.58,542.7394 C222.29,556.0794 241.83,575.0494 259,591.6094 C277.06,609.0194 293.4519,624.7144 307.8319,638.4544 " fill="none" id="RL-to-Metrics" style="stroke:#000000;stroke-width:1.0;"/><polygon fill="#000000" points="312.17,642.5994,308.4262,633.4898,308.5549,639.1452,302.8995,639.2739,312.17,642.5994" style="stroke:#000000;stroke-width:1.0;"/><text fill="#000000" font-family="Verdana" font-size="13" lengthAdjust="spacing" textLength="46" x="260" y="587.6763">reports</text></g><!--link Cache to Metrics--><g id="link_Cache_Metrics"><path d="M622.07,542.7494 C606.6,551.6294 586.43,561.6394 567,566.6094 C543.62,572.5894 368.63,559.2794 350,574.6094 C330.21,590.8794 327.6267,616.7128 328.2967,636.4728 " fill="none" id="Cache-to-Metrics" style="stroke:#000000;stroke-width:1.0;"/><polygon fill="#000000" points="328.5,642.4694,332.1927,633.339,328.3306,637.4722,324.1973,633.6101,328.5,642.4694" style="stroke:#000000;stroke-width:1.0;"/><text fill="#000000" font-family="Verdana" font-size="13" lengthAdjust="spacing" textLength="46" x="351" y="587.6763">reports</text></g><!--link Models to BaseModels--><g id="link_Models_BaseModels"><path d="M862.39,542.7794 C900.14,591.1894 1003.4204,723.6179 1041.0304,771.8479 " fill="none" id="Models-to-BaseModels" style="stroke:#000000;stroke-width:1.0;"/><polygon fill="#000000" points="1044.72,776.5794,1042.3399,767.0224,1041.6453,772.6365,1036.0313,771.9419,1044.72,776.5794" style="stroke:#000000;stroke-width:1.0;"/><text fill="#000000" font-family="Verdana" font-size="13" lengthAdjust="spacing" textLength="51" x="968" y="665.1763">extends</text></g><!--link Client to Protocols--><g id="link_Client_Protocols"><path d="M833.65,406.7094 C810.64,419.0794 783,438.1094 768,463.6094 C719.25,546.4794 767.4,585.3494 744,678.6094 C734.95,714.6894 719.7215,749.1227 709.1215,771.1527 " fill="none" id="Client-to-Protocols" style="stroke:#000000;stroke-width:1.0;"/><polygon fill="#000000" points="706.52,776.5594,714.0267,770.1837,708.6879,772.0538,706.8178,766.715,706.52,776.5594" style="stroke:#000000;stroke-width:1.0;"/><text fill="#000000" font-family="Verdana" font-size="13" lengthAdjust="spacing" textLength="76" x="749" y="587.6763">implements</text></g><!--link Cache to Protocols--><g id="link_Cache_Protocols"><path d="M649.24,542.7594 C649.91,571.2394 652.44,629.9594 662,678.6094 C668.98,714.1194 680.8638,748.5412 689.1938,770.7612 " fill="none" id="Cache-to-Protocols" style="stroke:#000000;stroke-width:1.0;"/><polygon fill="#000000" points="691.3,776.3794,691.8862,766.548,689.5448,771.6976,684.3953,769.3562,691.3,776.3794" style="stroke:#000000;stroke-width:1.0;"/><text fill="#000000" font-family="Verdana" font-size="13" lengthAdjust="spacing" textLength="76" x="663" y="665.1763">implements</text></g><!--link Logging to Protocols--><g id="link_Logging_Protocols"><path d="M507.01,678.6094 C515.62,693.2394 529.96,713.7894 548,725.6094 C559.9,733.4094 565.68,728.5994 579,733.6094 C610.62,745.4994 639.6368,760.4323 663.2368,773.5623 " fill="none" id="Logging-to-Protocols" style="stroke:#000000;stroke-width:1.0;"/><polygon fill="#000000" points="668.48,776.4794,662.56,768.6083,664.1107,774.0485,658.6705,775.5992,668.48,776.4794" style="stroke:#000000;stroke-width:1.0;"/><text fill="#000000" font-family="Verdana" font-size="13" lengthAdjust="spacing" textLength="76" x="549" y="721.6763">implements</text></g><!--link Client to GMN59--><g id="link_Client_GMN59"><path d="M895.57,370.5394 C922.09,351.4594 967.25,322.5794 1011.5,311.1094 C1054.52,299.9594 1068.44,300.0894 1111.5,311.1094 C1154.78,322.1894 1199.06,349.5394 1226.29,368.5994 " fill="none" id="Client-GMN59" style="stroke:#000000;stroke-width:1.0;stroke-dasharray:7.0,7.0;"/></g><!--link Protocols to GMN62--><g id="link_Protocols_GMN62"><path d="M731.73,812.6594 C750.02,821.1794 773.26,830.8694 795,836.6094 C939.5,874.7494 980.75,856.6794 1129,875.6094 C1142.1,877.2794 1155.9,879.1094 1169.48,880.9594 " fill="none" id="Protocols-GMN62" style="stroke:#000000;stroke-width:1.0;stroke-dasharray:7.0,7.0;"/></g><!--SRC=[VLOxRzim4DxrAwvPCWNPDHI8PHSnO1TkvAtem4XdcGX52YJLr2ZottjyYAPifq3WcD-zFzuT_SKUiKSO1EEoC6zS3aop7XhL3qgYjBKz2GIDZMMo4rWKbbi2QkoPjBo1kZagmJHigns1-ZTgU81gieOdtHov9UjHa-qzhFvOr989g4_6Oc-AHgYnXRjB_0x-5W0_hy8yxTQ_W1ceQ_hcD5pSId2AvN4wXbFnuS9jgIfu6WR16sQvah1ZpHlhi1Z2VxZxJo4X1_gxz-26dL3JAPacC2XICj-OiMVxAQ5m2XfxfGGyCzaArCOhECG4uGiQDUe6vmeJ6fLsciYrSvM01GN_aQB2myFNBCGSdtkUoyukFoOI5gFX4es1ZUg8i2i-RiaJDHFFaURiok9zUQsbwjsDRLMB8fGMlau-6BKJ_1XHdoWRBjf8iaSYS2OXEFRLP5uozC8i5KgySAT5Dt5LP2RRCUkQrgGQAwwRaLjOQ6HlCRLg4U-MMVB6Ung687ZPJ9TkgPhQQbBeJl762OekMND4QcD9mQD3XzmiCeRAa1WZHvBht32wJ0IivK5JA-lHp-qr2NFvkNub3xmRTHYrMT9U4hIeEpekkpZfNXoX8DzIYhnnDaBGub1nZW8QssJjF5fgbUX_kKxdZ1eVr5TuAPzok2MRub_B4Z-LkiMAGnCND3zMDJHtZsj9LtvWD6RJh0P1q5lzQN3mV3rprAw_GmyaFEhjJmF24WzSSe-6tK5Wb2-OmNnkt3dhUl-HGeUja8pFkZF1HzYXInnGjjJn70syedr7b21SyQRmcoNqK6Yd4aP3nccpt935pN8rWPEyo3hJhtaIFE_tkyUNLRqlqe8FSvrsLWd6jbmzrlMAF2oyTBhb4eJgAAbDi8dtMzAhDYXDEouCsMrPaH6JyLG2qeibMvDdU-Qt1DuFWXvMENF_YKBUZP-eq3ryLvROaVG9cdT72-emUrrMqYsIGN7Avg0qC24AlzNTOzwFCZw11MKDpajnuIljOT_ThzCo5swP4_hExP5OITjlYDllqj-hibRrpc7UwPL09e5blmPAGcUj5JBdyftfzkpq7m00]--></g></svg>