<?xml version="1.0" encoding="us-ascii" standalone="no"?><svg xmlns="http://www.w3.org/2000/svg" xmlns:xlink="http://www.w3.org/1999/xlink" contentStyleType="text/css" height="926px" preserveAspectRatio="none" style="width:2375px;height:926px;background:#FFFFFF;" version="1.1" viewBox="0 0 2375 926" width="2375px" zoomAndPan="magnify"><defs/><g><text fill="#000000" font-family="Verdana" font-size="22" font-weight="bold" lengthAdjust="spacing" textLength="712" x="827" y="35.4209">Semantic Scholar MCP Server - Deployment Architecture</text><!--cluster Client Environment--><g id="cluster_Client Environment"><polygon fill="#FFFFFF" points="199,67.6094,209,57.6094,853,57.6094,853,216.6094,843,226.6094,199,226.6094,199,67.6094" style="stroke:#000000;stroke-width:1.0;"/><line style="stroke:#000000;stroke-width:1.0;" x1="843" x2="853" y1="67.6094" y2="57.6094"/><line style="stroke:#000000;stroke-width:1.0;" x1="199" x2="843" y1="67.6094" y2="67.6094"/><line style="stroke:#000000;stroke-width:1.0;" x1="843" x2="843" y1="67.6094" y2="226.6094"/><text fill="#000000" font-family="Verdana" font-size="14" font-weight="bold" lengthAdjust="spacing" textLength="149" x="447.5" y="83.6045">Client Environment</text></g><!--cluster Claude--><g id="cluster_Claude"><rect fill="#FFFFFF" height="97" rx="2.5" ry="2.5" style="stroke:#000000;stroke-width:1.0;" width="208" x="223" y="105.6094"/><rect fill="#FFFFFF" height="10" style="stroke:#000000;stroke-width:1.0;" width="15" x="411" y="110.6094"/><rect fill="#FFFFFF" height="2" style="stroke:#000000;stroke-width:1.0;" width="4" x="409" y="112.6094"/><rect fill="#FFFFFF" height="2" style="stroke:#000000;stroke-width:1.0;" width="4" x="409" y="116.6094"/><text fill="#000000" font-family="Verdana" font-size="14" font-weight="bold" lengthAdjust="spacing" textLength="160" x="247" y="131.6045">Claude Desktop App</text></g><!--cluster VSCode--><g id="cluster_VSCode"><rect fill="#FFFFFF" height="97" rx="2.5" ry="2.5" style="stroke:#000000;stroke-width:1.0;" width="208" x="455" y="105.6094"/><rect fill="#FFFFFF" height="10" style="stroke:#000000;stroke-width:1.0;" width="15" x="643" y="110.6094"/><rect fill="#FFFFFF" height="2" style="stroke:#000000;stroke-width:1.0;" width="4" x="641" y="112.6094"/><rect fill="#FFFFFF" height="2" style="stroke:#000000;stroke-width:1.0;" width="4" x="641" y="116.6094"/><text fill="#000000" font-family="Verdana" font-size="14" font-weight="bold" lengthAdjust="spacing" textLength="67" x="525.5" y="131.6045">VS Code</text></g><!--cluster Terminal--><g id="cluster_Terminal"><rect fill="#FFFFFF" height="97" rx="2.5" ry="2.5" style="stroke:#000000;stroke-width:1.0;" width="142" x="687" y="105.6094"/><rect fill="#FFFFFF" height="10" style="stroke:#000000;stroke-width:1.0;" width="15" x="809" y="110.6094"/><rect fill="#FFFFFF" height="2" style="stroke:#000000;stroke-width:1.0;" width="4" x="807" y="112.6094"/><rect fill="#FFFFFF" height="2" style="stroke:#000000;stroke-width:1.0;" width="4" x="807" y="116.6094"/><text fill="#000000" font-family="Verdana" font-size="14" font-weight="bold" lengthAdjust="spacing" textLength="68" x="724" y="131.6045">Terminal</text></g><!--cluster MCP Server Host--><g id="cluster_MCP Server Host"><polygon fill="#FFFFFF" points="50,285.6094,60,275.6094,1044,275.6094,1044,864.6094,1034,874.6094,50,874.6094,50,285.6094" style="stroke:#000000;stroke-width:1.0;"/><line style="stroke:#000000;stroke-width:1.0;" x1="1034" x2="1044" y1="285.6094" y2="275.6094"/><line style="stroke:#000000;stroke-width:1.0;" x1="50" x2="1034" y1="285.6094" y2="285.6094"/><line style="stroke:#000000;stroke-width:1.0;" x1="1034" x2="1034" y1="285.6094" y2="874.6094"/><text fill="#000000" font-family="Verdana" font-size="14" font-weight="bold" lengthAdjust="spacing" textLength="133" x="476.5" y="301.6045">MCP Server Host</text></g><!--cluster Python--><g id="cluster_Python"><rect fill="#FFFFFF" height="113" rx="2.5" ry="2.5" style="stroke:#000000;stroke-width:1.0;" width="733" x="279" y="331.6094"/><rect fill="#FFFFFF" height="10" style="stroke:#000000;stroke-width:1.0;" width="15" x="992" y="336.6094"/><rect fill="#FFFFFF" height="2" style="stroke:#000000;stroke-width:1.0;" width="4" x="990" y="338.6094"/><rect fill="#FFFFFF" height="2" style="stroke:#000000;stroke-width:1.0;" width="4" x="990" y="342.6094"/><text fill="#000000" font-family="Verdana" font-size="14" font-weight="bold" lengthAdjust="spacing" textLength="124" x="583.5" y="357.6045">Python Runtime</text></g><!--cluster Cache--><g id="cluster_Cache"><path d="M82,519.6094 C82,509.6094 264,509.6094 264,509.6094 C264,509.6094 446,509.6094 446,519.6094 L446,832.6094 C446,842.6094 264,842.6094 264,842.6094 C264,842.6094 82,842.6094 82,832.6094 L82,519.6094 " fill="#FFFFFF" style="stroke:#000000;stroke-width:1.0;"/><path d="M82,519.6094 C82,529.6094 264,529.6094 264,529.6094 C264,529.6094 446,529.6094 446,519.6094 " fill="none" style="stroke:#000000;stroke-width:1.0;"/><text fill="#000000" font-family="Verdana" font-size="14" font-weight="bold" lengthAdjust="spacing" textLength="137" x="195.5" y="544.6045">In-Memory Cache</text></g><!--cluster Monitor--><g id="cluster_Monitor"><rect fill="#FFFFFF" height="97" rx="2.5" ry="2.5" style="stroke:#000000;stroke-width:1.0;" width="542" x="478" y="532.6094"/><rect fill="#FFFFFF" height="10" style="stroke:#000000;stroke-width:1.0;" width="15" x="1000" y="537.6094"/><rect fill="#FFFFFF" height="2" style="stroke:#000000;stroke-width:1.0;" width="4" x="998" y="539.6094"/><rect fill="#FFFFFF" height="2" style="stroke:#000000;stroke-width:1.0;" width="4" x="998" y="543.6094"/><text fill="#000000" font-family="Verdana" font-size="14" font-weight="bold" lengthAdjust="spacing" textLength="84" x="707" y="558.6045">Monitoring</text></g><!--cluster External Services--><g id="cluster_External Services"><path d="M1209.0653,687.4758 C1224.2903,661.6244 1254.9363,656.5272 1270.4849,687.1237 C1294.947,653.1405 1332.2985,652.26 1346.9836,696.665 C1359.7859,660.816 1392.3596,661.5062 1414.1068,686.8538 C1437.3591,653.0405 1467.3864,660.9749 1486.2428,691.7624 C1502.6258,659.0725 1530.2411,656.2025 1554.3542,682.8962 C1582.7178,648.3977 1607.2462,652.4593 1624.7406,693.0806 C1645.3317,659.6794 1671.5213,661.6065 1692.7741,692.3791 C1713.1538,654.1519 1734.2851,657.1147 1760.9344,686.0128 C1779.2254,657.2224 1812.2376,656.5727 1831.0804,685.3403 C1857.4088,646.9518 1884.9083,648.7295 1906.9263,689.4719 C1926.7268,660.5244 1958.3432,656.8535 1973.5693,694.0788 C1989.592,659.6329 2021.178,653.6956 2043.1166,688.1034 C2070.551,655.5735 2097.1179,655.7339 2117.6496,695.2449 C2139.3293,666.5177 2158.7851,661.9342 2182,693.6094 C2188.6879,696.9812 2188.4716,702.1635 2182.2133,705.7625 C2223.0127,719.8652 2221.6943,753.5113 2194.1676,778.7976 C2234.8872,819.8253 2225.8276,845.5646 2175,866.6094 C2179.2444,862.342 2184.3232,864.0832 2186.1315,869.43 C2168.3596,906.0074 2137.3785,912.0706 2110.619,879.2028 C2088.2881,908.7335 2063.1057,905.9412 2043.1328,876.5041 C2025.6654,909.126 1996.1028,906.2173 1978.2877,876.8679 C1957.6425,907.8408 1924.935,911.2381 1908.3852,872.7466 C1888.2987,905.9187 1859.1634,905.9934 1835.1391,877.4176 C1814.3665,911.2197 1784.7353,908.6912 1763.926,877.4579 C1742.2132,912.2613 1710.6173,913.2944 1693.136,873.4453 C1669.44,903.6218 1645.478,912.1455 1620.5488,874.7705 C1602.6302,907.2138 1578.1142,908.4881 1555.0984,880.2702 C1533.9743,919.2491 1497.9947,917.5771 1478.9232,878.2729 C1465.218,910.916 1437.0748,909.3731 1420.2397,881.2979 C1391.9219,909.6455 1363.0297,908.42 1346.8902,868.2591 C1327.2999,896.0498 1300.1613,895.7878 1280.0862,868.8508 C1251.291,903.2957 1212.8532,900.8646 1192,859.6094 C1193.8318,859.405 1194.4557,860.4951 1193.8036,862.0938 C1160.2764,838.5208 1156.6048,815.2567 1187.9415,786.644 C1139.6312,752.4508 1152.8303,710.3581 1199,686.6094 C1202.4538,681.8205 1206.5014,681.9256 1209.0653,687.4758 " fill="#FFFFFF" style="stroke:#000000;stroke-width:1.0;"/><text fill="#000000" font-family="Verdana" font-size="14" font-weight="bold" lengthAdjust="spacing" textLength="137" x="1618.5" y="704.6045">External Services</text></g><!--cluster SSAPI--><g id="cluster_SSAPI"><rect fill="#FFFFFF" height="113" rx="2.5" ry="2.5" style="stroke:#000000;stroke-width:1.0;" width="523" x="1635" y="729.6094"/><rect fill="#FFFFFF" height="10" style="stroke:#000000;stroke-width:1.0;" width="15" x="2138" y="734.6094"/><rect fill="#FFFFFF" height="2" style="stroke:#000000;stroke-width:1.0;" width="4" x="2136" y="736.6094"/><rect fill="#FFFFFF" height="2" style="stroke:#000000;stroke-width:1.0;" width="4" x="2136" y="740.6094"/><text fill="#000000" font-family="Verdana" font-size="14" font-weight="bold" lengthAdjust="spacing" textLength="166" x="1813.5" y="755.6045">Semantic Scholar API</text></g><!--cluster ExtMonitor--><g id="cluster_ExtMonitor"><rect fill="#FFFFFF" height="97" rx="2.5" ry="2.5" style="stroke:#000000;stroke-width:1.0;" width="395" x="1208" y="737.6094"/><rect fill="#FFFFFF" height="10" style="stroke:#000000;stroke-width:1.0;" width="15" x="1583" y="742.6094"/><rect fill="#FFFFFF" height="2" style="stroke:#000000;stroke-width:1.0;" width="4" x="1581" y="744.6094"/><rect fill="#FFFFFF" height="2" style="stroke:#000000;stroke-width:1.0;" width="4" x="1581" y="748.6094"/><text fill="#000000" font-family="Verdana" font-size="14" font-weight="bold" lengthAdjust="spacing" textLength="157" x="1327" y="763.6045">Monitoring Services</text></g><!--entity MCP Client Runtime--><g id="elem_MCP Client Runtime"><rect fill="#FFFFFF" height="46.2969" rx="2.5" ry="2.5" style="stroke:#000000;stroke-width:1.0;" width="176" x="239" y="140.6094"/><rect fill="#FFFFFF" height="10" style="stroke:#000000;stroke-width:1.0;" width="15" x="395" y="145.6094"/><rect fill="#FFFFFF" height="2" style="stroke:#000000;stroke-width:1.0;" width="4" x="393" y="147.6094"/><rect fill="#FFFFFF" height="2" style="stroke:#000000;stroke-width:1.0;" width="4" x="393" y="151.6094"/><text fill="#000000" font-family="Verdana" font-size="14" lengthAdjust="spacing" textLength="136" x="254" y="173.6045">MCP Client Runtime</text></g><!--entity Continue Extension--><g id="elem_Continue Extension"><rect fill="#FFFFFF" height="46.2969" rx="2.5" ry="2.5" style="stroke:#000000;stroke-width:1.0;" width="175" x="471.5" y="140.6094"/><rect fill="#FFFFFF" height="10" style="stroke:#000000;stroke-width:1.0;" width="15" x="626.5" y="145.6094"/><rect fill="#FFFFFF" height="2" style="stroke:#000000;stroke-width:1.0;" width="4" x="624.5" y="147.6094"/><rect fill="#FFFFFF" height="2" style="stroke:#000000;stroke-width:1.0;" width="4" x="624.5" y="151.6094"/><text fill="#000000" font-family="Verdana" font-size="14" lengthAdjust="spacing" textLength="135" x="486.5" y="173.6045">Continue Extension</text></g><!--entity claude CLI--><g id="elem_claude CLI"><rect fill="#FFFFFF" height="46.2969" rx="2.5" ry="2.5" style="stroke:#000000;stroke-width:1.0;" width="110" x="703" y="140.6094"/><rect fill="#FFFFFF" height="10" style="stroke:#000000;stroke-width:1.0;" width="15" x="793" y="145.6094"/><rect fill="#FFFFFF" height="2" style="stroke:#000000;stroke-width:1.0;" width="4" x="791" y="147.6094"/><rect fill="#FFFFFF" height="2" style="stroke:#000000;stroke-width:1.0;" width="4" x="791" y="151.6094"/><text fill="#000000" font-family="Verdana" font-size="14" lengthAdjust="spacing" textLength="70" x="718" y="173.6045">claude CLI</text></g><!--entity uvicorn ASGI Server--><g id="elem_uvicorn ASGI Server"><rect fill="#FFFFFF" height="46.2969" rx="2.5" ry="2.5" style="stroke:#000000;stroke-width:1.0;" width="174" x="814" y="374.6094"/><rect fill="#FFFFFF" height="10" style="stroke:#000000;stroke-width:1.0;" width="15" x="968" y="379.6094"/><rect fill="#FFFFFF" height="2" style="stroke:#000000;stroke-width:1.0;" width="4" x="966" y="381.6094"/><rect fill="#FFFFFF" height="2" style="stroke:#000000;stroke-width:1.0;" width="4" x="966" y="385.6094"/><text fill="#000000" font-family="Verdana" font-size="14" lengthAdjust="spacing" textLength="134" x="829" y="407.6045">uvicorn ASGI Server</text></g><!--entity FastMCP Framework--><g id="elem_FastMCP Framework"><rect fill="#FFFFFF" height="46.2969" rx="2.5" ry="2.5" style="stroke:#000000;stroke-width:1.0;" width="180" x="599" y="374.6094"/><rect fill="#FFFFFF" height="10" style="stroke:#000000;stroke-width:1.0;" width="15" x="759" y="379.6094"/><rect fill="#FFFFFF" height="2" style="stroke:#000000;stroke-width:1.0;" width="4" x="757" y="381.6094"/><rect fill="#FFFFFF" height="2" style="stroke:#000000;stroke-width:1.0;" width="4" x="757" y="385.6094"/><text fill="#000000" font-family="Verdana" font-size="14" lengthAdjust="spacing" textLength="140" x="614" y="407.6045">FastMCP Framework</text></g><!--entity Semantic Scholar MCP Server--><g id="elem_Semantic Scholar MCP Server"><rect fill="#FFFFFF" height="46.2969" rx="2.5" ry="2.5" style="stroke:#000000;stroke-width:1.0;" width="242" x="322" y="374.6094"/><rect fill="#FFFFFF" height="10" style="stroke:#000000;stroke-width:1.0;" width="15" x="544" y="379.6094"/><rect fill="#FFFFFF" height="2" style="stroke:#000000;stroke-width:1.0;" width="4" x="542" y="381.6094"/><rect fill="#FFFFFF" height="2" style="stroke:#000000;stroke-width:1.0;" width="4" x="542" y="385.6094"/><text fill="#000000" font-family="Verdana" font-size="14" lengthAdjust="spacing" textLength="202" x="337" y="407.6045">Semantic Scholar MCP Server</text></g><!--entity Paper Cache--><g id="elem_Paper Cache"><rect fill="#FFFFFF" height="46.2969" rx="2.5" ry="2.5" style="stroke:#000000;stroke-width:1.0;" width="128" x="106" y="567.6094"/><rect fill="#FFFFFF" height="10" style="stroke:#000000;stroke-width:1.0;" width="15" x="214" y="572.6094"/><rect fill="#FFFFFF" height="2" style="stroke:#000000;stroke-width:1.0;" width="4" x="212" y="574.6094"/><rect fill="#FFFFFF" height="2" style="stroke:#000000;stroke-width:1.0;" width="4" x="212" y="578.6094"/><text fill="#000000" font-family="Verdana" font-size="14" lengthAdjust="spacing" textLength="88" x="121" y="600.6045">Paper Cache</text></g><!--entity Author Cache--><g id="elem_Author Cache"><rect fill="#FFFFFF" height="46.2969" rx="2.5" ry="2.5" style="stroke:#000000;stroke-width:1.0;" width="134" x="269" y="567.6094"/><rect fill="#FFFFFF" height="10" style="stroke:#000000;stroke-width:1.0;" width="15" x="383" y="572.6094"/><rect fill="#FFFFFF" height="2" style="stroke:#000000;stroke-width:1.0;" width="4" x="381" y="574.6094"/><rect fill="#FFFFFF" height="2" style="stroke:#000000;stroke-width:1.0;" width="4" x="381" y="578.6094"/><text fill="#000000" font-family="Verdana" font-size="14" lengthAdjust="spacing" textLength="94" x="284" y="600.6045">Author Cache</text></g><!--entity Search Results Cache--><g id="elem_Search Results Cache"><rect fill="#FFFFFF" height="46.2969" rx="2.5" ry="2.5" style="stroke:#000000;stroke-width:1.0;" width="192" x="106" y="772.6094"/><rect fill="#FFFFFF" height="10" style="stroke:#000000;stroke-width:1.0;" width="15" x="278" y="777.6094"/><rect fill="#FFFFFF" height="2" style="stroke:#000000;stroke-width:1.0;" width="4" x="276" y="779.6094"/><rect fill="#FFFFFF" height="2" style="stroke:#000000;stroke-width:1.0;" width="4" x="276" y="783.6094"/><text fill="#000000" font-family="Verdana" font-size="14" lengthAdjust="spacing" textLength="152" x="121" y="805.6045">Search Results Cache</text></g><!--entity Prometheus Metrics--><g id="elem_Prometheus Metrics"><rect fill="#FFFFFF" height="46.2969" rx="2.5" ry="2.5" style="stroke:#000000;stroke-width:1.0;" width="179" x="679.5" y="567.6094"/><rect fill="#FFFFFF" height="10" style="stroke:#000000;stroke-width:1.0;" width="15" x="838.5" y="572.6094"/><rect fill="#FFFFFF" height="2" style="stroke:#000000;stroke-width:1.0;" width="4" x="836.5" y="574.6094"/><rect fill="#FFFFFF" height="2" style="stroke:#000000;stroke-width:1.0;" width="4" x="836.5" y="578.6094"/><text fill="#000000" font-family="Verdana" font-size="14" lengthAdjust="spacing" textLength="139" x="694.5" y="600.6045">Prometheus Metrics</text></g><!--entity JSON Logs--><g id="elem_JSON Logs"><rect fill="#FFFFFF" height="46.2969" rx="2.5" ry="2.5" style="stroke:#000000;stroke-width:1.0;" width="110" x="894" y="567.6094"/><rect fill="#FFFFFF" height="10" style="stroke:#000000;stroke-width:1.0;" width="15" x="984" y="572.6094"/><rect fill="#FFFFFF" height="2" style="stroke:#000000;stroke-width:1.0;" width="4" x="982" y="574.6094"/><rect fill="#FFFFFF" height="2" style="stroke:#000000;stroke-width:1.0;" width="4" x="982" y="578.6094"/><text fill="#000000" font-family="Verdana" font-size="14" lengthAdjust="spacing" textLength="70" x="909" y="600.6045">JSON Logs</text></g><!--entity Health Endpoint--><g id="elem_Health Endpoint"><rect fill="#FFFFFF" height="46.2969" rx="2.5" ry="2.5" style="stroke:#000000;stroke-width:1.0;" width="150" x="494" y="567.6094"/><rect fill="#FFFFFF" height="10" style="stroke:#000000;stroke-width:1.0;" width="15" x="624" y="572.6094"/><rect fill="#FFFFFF" height="2" style="stroke:#000000;stroke-width:1.0;" width="4" x="622" y="574.6094"/><rect fill="#FFFFFF" height="2" style="stroke:#000000;stroke-width:1.0;" width="4" x="622" y="578.6094"/><text fill="#000000" font-family="Verdana" font-size="14" lengthAdjust="spacing" textLength="110" x="509" y="600.6045">Health Endpoint</text></g><!--entity RESTful API--><g id="elem_RESTful API"><rect fill="#FFFFFF" height="46.2969" rx="2.5" ry="2.5" style="stroke:#000000;stroke-width:1.0;" width="118" x="2016" y="772.6094"/><rect fill="#FFFFFF" height="10" style="stroke:#000000;stroke-width:1.0;" width="15" x="2114" y="777.6094"/><rect fill="#FFFFFF" height="2" style="stroke:#000000;stroke-width:1.0;" width="4" x="2112" y="779.6094"/><rect fill="#FFFFFF" height="2" style="stroke:#000000;stroke-width:1.0;" width="4" x="2112" y="783.6094"/><text fill="#000000" font-family="Verdana" font-size="14" lengthAdjust="spacing" textLength="78" x="2031" y="805.6045">RESTful API</text></g><!--entity Rate Limiting--><g id="elem_Rate Limiting"><rect fill="#FFFFFF" height="46.2969" rx="2.5" ry="2.5" style="stroke:#000000;stroke-width:1.0;" width="128" x="1853" y="772.6094"/><rect fill="#FFFFFF" height="10" style="stroke:#000000;stroke-width:1.0;" width="15" x="1961" y="777.6094"/><rect fill="#FFFFFF" height="2" style="stroke:#000000;stroke-width:1.0;" width="4" x="1959" y="779.6094"/><rect fill="#FFFFFF" height="2" style="stroke:#000000;stroke-width:1.0;" width="4" x="1959" y="783.6094"/><text fill="#000000" font-family="Verdana" font-size="14" lengthAdjust="spacing" textLength="88" x="1868" y="805.6045">Rate Limiting</text></g><!--entity Authentication--><g id="elem_Authentication"><rect fill="#FFFFFF" height="46.2969" rx="2.5" ry="2.5" style="stroke:#000000;stroke-width:1.0;" width="140" x="1678" y="772.6094"/><rect fill="#FFFFFF" height="10" style="stroke:#000000;stroke-width:1.0;" width="15" x="1798" y="777.6094"/><rect fill="#FFFFFF" height="2" style="stroke:#000000;stroke-width:1.0;" width="4" x="1796" y="779.6094"/><rect fill="#FFFFFF" height="2" style="stroke:#000000;stroke-width:1.0;" width="4" x="1796" y="783.6094"/><text fill="#000000" font-family="Verdana" font-size="14" lengthAdjust="spacing" textLength="100" x="1693" y="805.6045">Authentication</text></g><!--entity Grafana--><g id="elem_Grafana"><rect fill="#FFFFFF" height="46.2969" rx="2.5" ry="2.5" style="stroke:#000000;stroke-width:1.0;" width="93" x="1391.5" y="772.6094"/><rect fill="#FFFFFF" height="10" style="stroke:#000000;stroke-width:1.0;" width="15" x="1464.5" y="777.6094"/><rect fill="#FFFFFF" height="2" style="stroke:#000000;stroke-width:1.0;" width="4" x="1462.5" y="779.6094"/><rect fill="#FFFFFF" height="2" style="stroke:#000000;stroke-width:1.0;" width="4" x="1462.5" y="783.6094"/><text fill="#000000" font-family="Verdana" font-size="14" lengthAdjust="spacing" textLength="53" x="1406.5" y="805.6045">Grafana</text></g><!--entity Loki--><g id="elem_Loki"><rect fill="#FFFFFF" height="46.2969" rx="2.5" ry="2.5" style="stroke:#000000;stroke-width:1.0;" width="67" x="1519.5" y="772.6094"/><rect fill="#FFFFFF" height="10" style="stroke:#000000;stroke-width:1.0;" width="15" x="1566.5" y="777.6094"/><rect fill="#FFFFFF" height="2" style="stroke:#000000;stroke-width:1.0;" width="4" x="1564.5" y="779.6094"/><rect fill="#FFFFFF" height="2" style="stroke:#000000;stroke-width:1.0;" width="4" x="1564.5" y="783.6094"/><text fill="#000000" font-family="Verdana" font-size="14" lengthAdjust="spacing" textLength="27" x="1534.5" y="805.6045">Loki</text></g><!--entity Alertmanager--><g id="elem_Alertmanager"><rect fill="#FFFFFF" height="46.2969" rx="2.5" ry="2.5" style="stroke:#000000;stroke-width:1.0;" width="132" x="1224" y="772.6094"/><rect fill="#FFFFFF" height="10" style="stroke:#000000;stroke-width:1.0;" width="15" x="1336" y="777.6094"/><rect fill="#FFFFFF" height="2" style="stroke:#000000;stroke-width:1.0;" width="4" x="1334" y="779.6094"/><rect fill="#FFFFFF" height="2" style="stroke:#000000;stroke-width:1.0;" width="4" x="1334" y="783.6094"/><text fill="#000000" font-family="Verdana" font-size="14" lengthAdjust="spacing" textLength="92" x="1239" y="805.6045">Alertmanager</text></g><g id="elem_GMN40"><path d="M11,128.1094 L11,198.6406 L183,198.6406 L183,138.1094 L173,128.1094 L11,128.1094 " fill="#FFFFFF" style="stroke:#000000;stroke-width:1.0;"/><path d="M173,128.1094 L173,138.1094 L183,138.1094 L173,128.1094 " fill="#FFFFFF" style="stroke:#000000;stroke-width:1.0;"/><text fill="#000000" font-family="Verdana" font-size="13" lengthAdjust="spacing" textLength="93" x="17" y="145.1763">Requirements:</text><text fill="#000000" font-family="Verdana" font-size="13" lengthAdjust="spacing" textLength="111" x="17" y="160.3091">- Python &gt;= 3.10</text><text fill="#000000" font-family="Verdana" font-size="13" lengthAdjust="spacing" textLength="144" x="17" y="175.4419">- uv package manager</text><text fill="#000000" font-family="Verdana" font-size="13" lengthAdjust="spacing" textLength="151" x="17" y="190.5747">- Environment variables</text></g><g id="elem_GMN43"><path d="M2206,768.1094 L2206,823.5078 L2368,823.5078 L2368,778.1094 L2358,768.1094 L2206,768.1094 " fill="#FFFFFF" style="stroke:#000000;stroke-width:1.0;"/><path d="M2358,768.1094 L2358,778.1094 L2368,778.1094 L2358,768.1094 " fill="#FFFFFF" style="stroke:#000000;stroke-width:1.0;"/><text fill="#000000" font-family="Verdana" font-size="13" lengthAdjust="spacing" textLength="75" x="2212" y="785.1763">Rate Limits:</text><text fill="#000000" font-family="Verdana" font-size="13" lengthAdjust="spacing" textLength="124" x="2212" y="800.3091">- 1 req/sec (no key)</text><text fill="#000000" font-family="Verdana" font-size="13" lengthAdjust="spacing" textLength="141" x="2212" y="815.4419">- 10 req/sec (with key)</text></g><g id="elem_GMN46"><path d="M1060,760.1094 L1060,830.6406 L1168,830.6406 L1168,770.1094 L1158,760.1094 L1060,760.1094 " fill="#FFFFFF" style="stroke:#000000;stroke-width:1.0;"/><path d="M1158,760.1094 L1158,770.1094 L1168,770.1094 L1158,760.1094 " fill="#FFFFFF" style="stroke:#000000;stroke-width:1.0;"/><text fill="#000000" font-family="Verdana" font-size="13" lengthAdjust="spacing" textLength="84" x="1066" y="777.1763">Configurable:</text><text fill="#000000" font-family="Verdana" font-size="13" lengthAdjust="spacing" textLength="64" x="1066" y="792.3091">- Max size</text><text fill="#000000" font-family="Verdana" font-size="13" lengthAdjust="spacing" textLength="87" x="1066" y="807.4419">- TTL per type</text><text fill="#000000" font-family="Verdana" font-size="13" lengthAdjust="spacing" textLength="87" x="1066" y="822.5747">- LRU eviction</text></g><!--link MCP Client Runtime to Semantic Scholar MCP Server--><g id="link_MCP Client Runtime_Semantic Scholar MCP Server"><path d="M338.12,186.8594 C360.29,231.1994 407.0872,324.7726 429.2272,369.0626 " fill="none" id="MCP Client Runtime-to-Semantic Scholar MCP Server" style="stroke:#000000;stroke-width:1.0;stroke-dasharray:7.0,7.0;"/><polygon fill="#000000" points="431.91,374.4294,431.4637,364.5906,429.6743,369.957,424.3079,368.1677,431.91,374.4294" style="stroke:#000000;stroke-width:1.0;"/><text fill="#000000" font-family="Verdana" font-size="13" lengthAdjust="spacing" textLength="97" x="372" y="255.6763">stdio/JSON-RPC</text></g><!--link Continue Extension to Semantic Scholar MCP Server--><g id="link_Continue Extension_Semantic Scholar MCP Server"><path d="M547.88,186.8594 C525.71,231.1994 478.9128,324.7726 456.7728,369.0626 " fill="none" id="Continue Extension-to-Semantic Scholar MCP Server" style="stroke:#000000;stroke-width:1.0;stroke-dasharray:7.0,7.0;"/><polygon fill="#000000" points="454.09,374.4294,461.6921,368.1677,456.3257,369.957,454.5363,364.5906,454.09,374.4294" style="stroke:#000000;stroke-width:1.0;"/><text fill="#000000" font-family="Verdana" font-size="13" lengthAdjust="spacing" textLength="97" x="519" y="255.6763">stdio/JSON-RPC</text></g><!--link claude CLI to Semantic Scholar MCP Server--><g id="link_claude CLI_Semantic Scholar MCP Server"><path d="M728.77,186.7694 C710.13,200.7494 685.36,219.0394 663,234.6094 C646.41,246.1694 643.75,252.0594 625,259.6094 C606.97,266.8694 599.37,258.8794 582,267.6094 C530.23,293.6494 487.7282,340.1983 463.8482,369.6583 " fill="none" id="claude CLI-to-Semantic Scholar MCP Server" style="stroke:#000000;stroke-width:1.0;stroke-dasharray:7.0,7.0;"/><polygon fill="#000000" points="460.07,374.3194,468.8446,369.8466,463.2185,370.4352,462.6299,364.809,460.07,374.3194" style="stroke:#000000;stroke-width:1.0;"/><text fill="#000000" font-family="Verdana" font-size="13" lengthAdjust="spacing" textLength="97" x="652" y="255.6763">stdio/JSON-RPC</text></g><!--link Semantic Scholar MCP Server to Cache--><g id="link_Semantic Scholar MCP Server_Cache"><path d="M442.42,420.8894 C442.095,433.2894 441.6625,449.8044 441.195,467.658 C440.9613,476.5848 440.7188,485.8462 440.4766,495.0953 C440.3555,499.7198 440.3915,498.3433 440.2717,502.9182 " fill="none" id="Semantic Scholar MCP Server-to-Cache" style="stroke:#000000;stroke-width:1.0;"/><polygon fill="#000000" points="440.1146,508.9161,444.3489,500.0239,440.2455,503.9178,436.3516,499.8145,440.1146,508.9161" style="stroke:#000000;stroke-width:1.0;"/><text fill="#000000" font-family="Verdana" font-size="13" lengthAdjust="spacing" textLength="68" x="442" y="481.6763">Read/Write</text></g><!--link Semantic Scholar MCP Server to Prometheus Metrics--><g id="link_Semantic Scholar MCP Server_Prometheus Metrics"><path d="M491.42,420.6094 C518.07,432.6194 551.77,447.6394 582,460.6094 C617.34,475.7794 629.44,473.1394 662,493.6094 C695.38,514.5994 724.1631,541.9227 744.4831,563.0727 " fill="none" id="Semantic Scholar MCP Server-to-Prometheus Metrics" style="stroke:#000000;stroke-width:1.0;"/><polygon fill="#000000" points="748.64,567.3994,745.2891,558.1381,745.1759,563.7938,739.5202,563.6806,748.64,567.3994" style="stroke:#000000;stroke-width:1.0;"/><text fill="#000000" font-family="Verdana" font-size="13" lengthAdjust="spacing" textLength="41" x="648" y="481.6763">Export</text></g><!--link Semantic Scholar MCP Server to JSON Logs--><g id="link_Semantic Scholar MCP Server_JSON Logs"><path d="M482.41,420.6694 C509.53,434.7194 546.87,451.8594 582,460.6094 C632.14,473.1094 646.6,463.2394 698,468.6094 C777.45,476.9194 807.08,453.2194 876,493.6094 C905.26,510.7594 923.9364,539.3342 935.7564,561.9042 " fill="none" id="Semantic Scholar MCP Server-to-JSON Logs" style="stroke:#000000;stroke-width:1.0;"/><polygon fill="#000000" points="938.54,567.2194,937.9081,557.3908,936.2203,562.79,930.8211,561.1023,938.54,567.2194" style="stroke:#000000;stroke-width:1.0;"/><text fill="#000000" font-family="Verdana" font-size="13" lengthAdjust="spacing" textLength="32" x="861" y="481.6763">Write</text></g><!--link Semantic Scholar MCP Server to RESTful API--><g id="link_Semantic Scholar MCP Server_RESTful API"><path d="M481.41,420.7094 C508.55,435.0594 546.3,452.5394 582,460.6094 C651.38,476.2894 831.25,461.2594 902,468.6094 C1395.1,519.8494 1590.26,390.0694 1999,670.6094 C2035.22,695.4694 2055.2535,738.1865 2065.6835,766.6165 " fill="none" id="Semantic Scholar MCP Server-to-RESTful API" style="stroke:#000000;stroke-width:1.0;stroke-dasharray:7.0,7.0;"/><polygon fill="#000000" points="2067.75,772.2494,2068.4055,762.4224,2066.0279,767.5553,2060.895,765.1777,2067.75,772.2494" style="stroke:#000000;stroke-width:1.0;"/><text fill="#000000" font-family="Verdana" font-size="13" lengthAdjust="spacing" textLength="77" x="1946" y="595.1763">HTTPS/REST</text></g><!--link Prometheus Metrics to Grafana--><g id="link_Prometheus Metrics_Grafana"><path d="M810.62,613.6394 C830.2,622.8694 854.21,632.5994 877,637.6094 C985.1,661.3894 1282.67,608.0794 1374,670.6094 C1408.98,694.5594 1424.5614,737.8944 1431.8614,766.6044 " fill="none" id="Prometheus Metrics-to-Grafana" style="stroke:#000000;stroke-width:1.0;stroke-dasharray:7.0,7.0;"/><polygon fill="#000000" points="1433.34,772.4194,1434.9988,762.7112,1432.1079,767.5736,1427.2455,764.6826,1433.34,772.4194" style="stroke:#000000;stroke-width:1.0;"/><text fill="#000000" font-family="Verdana" font-size="13" lengthAdjust="spacing" textLength="22" x="1356" y="658.6763">Pull</text></g><!--link JSON Logs to Loki--><g id="link_JSON Logs_Loki"><path d="M1004.46,592.6594 C1128.89,596.0894 1425.43,610.5094 1502,670.6094 C1533.86,695.6194 1545.0321,737.9931 1549.5221,766.3631 " fill="none" id="JSON Logs-to-Loki" style="stroke:#000000;stroke-width:1.0;stroke-dasharray:7.0,7.0;"/><polygon fill="#000000" points="1550.46,772.2894,1553.0039,762.7747,1549.6784,767.3508,1545.1023,764.0253,1550.46,772.2894" style="stroke:#000000;stroke-width:1.0;"/><text fill="#000000" font-family="Verdana" font-size="13" lengthAdjust="spacing" textLength="28" x="1489" y="658.6763">Ship</text></g><!--link GMN40 to Python--><g id="link_GMN40_Python"><path d="M125.44,199.3394 C151.53,231.1944 191.075,279.4794 224.51,320.3044 C241.2275,340.7169 256.4175,359.2644 267.6344,372.9606 C270.4386,376.3847 272.9945,379.5055 275.2639,382.2765 C276.3985,383.662 277.4616,384.9601 278.4482,386.1648 C278.5716,386.3154 278.6937,386.4645 278.8146,386.6122 " fill="none" id="GMN40-Python" style="stroke:#000000;stroke-width:1.0;stroke-dasharray:7.0,7.0;"/></g><!--link SSAPI to GMN43--><g id="link_SSAPI_GMN43"><path d="M1638.8888,729.2806 C1641.0975,698.2069 1650.735,665.5344 1679.5,654.1094 C1726.28,635.5294 2085.59,635.8694 2132.5,654.1094 C2191.15,676.9094 2241.09,733.5094 2267.3,767.8194 " fill="none" id="SSAPI-GMN43" style="stroke:#000000;stroke-width:1.0;stroke-dasharray:7.0,7.0;"/></g><!--link Cache to GMN46--><g id="link_Cache_GMN46"><path d="M446.0419,604.6475 C446.1345,604.7834 446.2278,604.92 446.3218,605.0572 C446.6978,605.6059 447.0851,606.1645 447.4835,606.7316 C448.2802,607.8659 449.1211,609.0342 450.0038,610.2256 C457.065,619.7569 466.8,630.7644 478,637.6094 C669.67,754.7294 944.14,784.5794 1059.57,792.1094 " fill="none" id="Cache-GMN46" style="stroke:#000000;stroke-width:1.0;stroke-dasharray:7.0,7.0;"/></g><!--SRC=[dLHDRzim3BtxLt2vR3ka7zYjm0e4QTfcIBeWphh3q8FgCB4GMtJraJOR-jz7oNBZDbbNz6308iNtIEgH7soE9K9L2AcIn4fR8AHO2cLb1ccMKo4qZFiJDkerQkZ26LO5RKfK5dewowN5p3gDIQ9eZj3f5zAx1cejDIb_hGD_4e2CoegKT_4LuVZg6PgLfGfwLTK1OI2Q_MM0NvupOaqTPrFY3JiU-NiETfr2dua3mdNgVnk4Fd6OSWY31ulAI5Bx4MQeIwb44I2QGmEIrKdrHyCw-B6fizMJIpAxHKusDYVLv1wmeoaYkxNCI2lefHV3Y7HJUyw5iHx-N8iIxqclelsLTsbLDXTMt0h3AGvLTumbwGtqHPRNEOI_9eM9g3ZzO8eKFSSfFZUbAFYPOOh65TPiNRkD79EIbhHKoq0LZqzacafajJdseDKoCv7WM_hz2aQqRCwNA0gRiuBc5Kbbd_gU5UJcqF6lgVqB-SfbXcQdzJjzwas68QCqvRycd-aWdIrSuPsHU2eimaYMacMpR3K4FPYm_nJGjkvMJap7cRxemOKM2w54n1xHIZOq1MhBMOjbyvPSy4TMTbaw5ScXqcGfey8a-wO33WvENzS8d82nSqc7lkFTwQIVx9kHT-6qnkGzySdhzxlTqoZS4zQXc1_-rBnstX2qJtICCNYeIDktn6-roM4rwt_2GlLjRN7WvMmsIG-zCTcRKOXfjC7t9wueaZPtk13amjuqbvKNnnLPDBoDMBH-ZT8YBXYMpnJldDJejwyvuNEtsJsdN-7BmV5HCBarL29RiUGWAY-OMviRra9BSLim3QevUAga9jHocLjF6KRACpxDJYGy1ertXmOp-AG8LhZvN9kFjlPxoMCUF2_GRybQAZryU7KEP9qkvD9fdqoDFnOFOEHl38VPR0H-bTbDLHj6qn-0F8b-RhReVm40]--></g></svg>