<?xml version="1.0" encoding="us-ascii" standalone="no"?><svg xmlns="http://www.w3.org/2000/svg" xmlns:xlink="http://www.w3.org/1999/xlink" contentStyleType="text/css" height="1839px" preserveAspectRatio="none" style="width:1915px;height:1839px;background:#FFFFFF;" version="1.1" viewBox="0 0 1915 1839" width="1915px" zoomAndPan="magnify"><defs/><g><text fill="#000000" font-family="Verdana" font-size="22" font-weight="bold" lengthAdjust="spacing" textLength="424" x="749" y="35.4209">Search Papers Sequence Diagram</text><rect fill="#FFFFFF" height="1580.25" style="stroke:#000000;stroke-width:1.0;" width="10" x="263" y="160.0391"/><rect fill="#FFFFFF" height="1506.8516" style="stroke:#000000;stroke-width:1.0;" width="10" x="398" y="204.3047"/><rect fill="#FFFFFF" height="1418.3203" style="stroke:#000000;stroke-width:1.0;" width="10" x="606" y="263.7031"/><rect fill="#FFFFFF" height="1243.5586" style="stroke:#000000;stroke-width:1.0;" width="10" x="762.5" y="303.4023"/><rect fill="#FFFFFF" height="1082.3281" style="stroke:#000000;stroke-width:1.0;" width="10" x="940" y="385.2344"/><rect fill="#FFFFFF" height="39.6992" style="stroke:#000000;stroke-width:1.0;" width="10" x="1151" y="483.1992"/><rect fill="#FFFFFF" height="894.3984" style="stroke:#000000;stroke-width:1.0;" width="10" x="1328.5" y="552.0313"/><rect fill="#FFFFFF" height="29.1328" style="stroke:#000000;stroke-width:1.0;" width="10" x="1476.5" y="414.3672"/><rect fill="#FFFFFF" height="29.1328" style="stroke:#000000;stroke-width:1.0;" width="10" x="1476.5" y="935.0234"/><rect fill="#FFFFFF" height="68.3984" style="stroke:#000000;stroke-width:1.0;" width="10" x="1648" y="722.9609"/><rect fill="#FFFFFF" height="29.1328" style="stroke:#000000;stroke-width:1.0;" width="10" x="1815" y="634.4297"/><rect fill="#FFFFFF" height="29.1328" style="stroke:#000000;stroke-width:1.0;" width="10" x="1815" y="993.2891"/><rect fill="#FFFFFF" height="872.3984" style="stroke:#000000;stroke-width:1.0;" width="1077" x="831" y="567.0313"/><rect fill="#FFFFFF" height="629.3984" style="stroke:#000000;stroke-width:1.0;" width="1057" x="841" y="737.9609"/><rect fill="#FFFFFF" height="200.6016" style="stroke:none;stroke-width:1.0;" width="1057" x="841" y="1030.4219"/><rect fill="#FFFFFF" height="136.3359" style="stroke:none;stroke-width:1.0;" width="1057" x="841" y="1231.0234"/><rect fill="#FFFFFF" height="65.0703" style="stroke:none;stroke-width:1.0;" width="1077" x="831" y="1374.3594"/><line style="stroke:#000000;stroke-width:1.0;" x1="29" x2="29" y1="128.9063" y2="1758.2891"/><line style="stroke:#000000;stroke-width:1.0;" x1="268" x2="268" y1="128.9063" y2="1758.2891"/><line style="stroke:#000000;stroke-width:1.0;" x1="403" x2="403" y1="128.9063" y2="1758.2891"/><line style="stroke:#000000;stroke-width:1.0;" x1="611" x2="611" y1="128.9063" y2="1758.2891"/><line style="stroke:#000000;stroke-width:1.0;" x1="767" x2="767" y1="128.9063" y2="1758.2891"/><line style="stroke:#000000;stroke-width:1.0;" x1="945" x2="945" y1="128.9063" y2="1758.2891"/><line style="stroke:#000000;stroke-width:1.0;" x1="1156" x2="1156" y1="128.9063" y2="1758.2891"/><line style="stroke:#000000;stroke-width:1.0;" x1="1333" x2="1333" y1="128.9063" y2="1758.2891"/><line style="stroke:#000000;stroke-width:1.0;" x1="1481" x2="1481" y1="128.9063" y2="1758.2891"/><line style="stroke:#000000;stroke-width:1.0;" x1="1653" x2="1653" y1="128.9063" y2="1758.2891"/><line style="stroke:#000000;stroke-width:1.0;" x1="1820" x2="1820" y1="128.9063" y2="1758.2891"/><text fill="#000000" font-family="Verdana" font-size="14" lengthAdjust="spacing" textLength="32" x="10" y="125.6045">User</text><ellipse cx="29" cy="60.6094" fill="#FFFFFF" rx="8" ry="8" style="stroke:#000000;stroke-width:1.0;"/><path d="M29,68.6094 L29,95.6094 M16,76.6094 L42,76.6094 M29,95.6094 L16,110.6094 M29,95.6094 L42,110.6094 " fill="none" style="stroke:#000000;stroke-width:1.0;"/><text fill="#000000" font-family="Verdana" font-size="14" lengthAdjust="spacing" textLength="32" x="10" y="1770.2842">User</text><ellipse cx="29" cy="1782.5859" fill="#FFFFFF" rx="8" ry="8" style="stroke:#000000;stroke-width:1.0;"/><path d="M29,1790.5859 L29,1817.5859 M16,1798.5859 L42,1798.5859 M29,1817.5859 L16,1832.5859 M29,1817.5859 L42,1832.5859 " fill="none" style="stroke:#000000;stroke-width:1.0;"/><rect fill="#FFFFFF" height="30.2969" rx="2.5" ry="2.5" style="stroke:#000000;stroke-width:1.0;" width="88" x="224" y="97.6094"/><text fill="#000000" font-family="Verdana" font-size="14" lengthAdjust="spacing" textLength="74" x="231" y="117.6045">MCP Client</text><rect fill="#FFFFFF" height="30.2969" rx="2.5" ry="2.5" style="stroke:#000000;stroke-width:1.0;" width="88" x="224" y="1757.2891"/><text fill="#000000" font-family="Verdana" font-size="14" lengthAdjust="spacing" textLength="74" x="231" y="1777.2842">MCP Client</text><rect fill="#FFFFFF" height="30.2969" rx="2.5" ry="2.5" style="stroke:#000000;stroke-width:1.0;" width="122" x="342" y="97.6094"/><text fill="#000000" font-family="Verdana" font-size="14" lengthAdjust="spacing" textLength="108" x="349" y="117.6045">FastMCP Server</text><rect fill="#FFFFFF" height="30.2969" rx="2.5" ry="2.5" style="stroke:#000000;stroke-width:1.0;" width="122" x="342" y="1757.2891"/><text fill="#000000" font-family="Verdana" font-size="14" lengthAdjust="spacing" textLength="108" x="349" y="1777.2842">FastMCP Server</text><rect fill="#FFFFFF" height="30.2969" rx="2.5" ry="2.5" style="stroke:#000000;stroke-width:1.0;" width="126" x="548" y="97.6094"/><text fill="#000000" font-family="Verdana" font-size="14" lengthAdjust="spacing" textLength="112" x="555" y="117.6045">search_papers()</text><rect fill="#FFFFFF" height="30.2969" rx="2.5" ry="2.5" style="stroke:#000000;stroke-width:1.0;" width="126" x="548" y="1757.2891"/><text fill="#000000" font-family="Verdana" font-size="14" lengthAdjust="spacing" textLength="112" x="555" y="1777.2842">search_papers()</text><rect fill="#FFFFFF" height="30.2969" rx="2.5" ry="2.5" style="stroke:#000000;stroke-width:1.0;" width="127" x="704" y="97.6094"/><text fill="#000000" font-family="Verdana" font-size="14" lengthAdjust="spacing" textLength="113" x="711" y="117.6045">RequestContext</text><rect fill="#FFFFFF" height="30.2969" rx="2.5" ry="2.5" style="stroke:#000000;stroke-width:1.0;" width="127" x="704" y="1757.2891"/><text fill="#000000" font-family="Verdana" font-size="14" lengthAdjust="spacing" textLength="113" x="711" y="1777.2842">RequestContext</text><rect fill="#FFFFFF" height="30.2969" rx="2.5" ry="2.5" style="stroke:#000000;stroke-width:1.0;" width="168" x="861" y="97.6094"/><text fill="#000000" font-family="Verdana" font-size="14" lengthAdjust="spacing" textLength="154" x="868" y="117.6045">SemanticScholarClient</text><rect fill="#FFFFFF" height="30.2969" rx="2.5" ry="2.5" style="stroke:#000000;stroke-width:1.0;" width="168" x="861" y="1757.2891"/><text fill="#000000" font-family="Verdana" font-size="14" lengthAdjust="spacing" textLength="154" x="868" y="1777.2842">SemanticScholarClient</text><rect fill="#FFFFFF" height="30.2969" rx="2.5" ry="2.5" style="stroke:#000000;stroke-width:1.0;" width="184" x="1064" y="97.6094"/><text fill="#000000" font-family="Verdana" font-size="14" lengthAdjust="spacing" textLength="170" x="1071" y="117.6045">TokenBucketRateLimiter</text><rect fill="#FFFFFF" height="30.2969" rx="2.5" ry="2.5" style="stroke:#000000;stroke-width:1.0;" width="184" x="1064" y="1757.2891"/><text fill="#000000" font-family="Verdana" font-size="14" lengthAdjust="spacing" textLength="170" x="1071" y="1777.2842">TokenBucketRateLimiter</text><rect fill="#FFFFFF" height="30.2969" rx="2.5" ry="2.5" style="stroke:#000000;stroke-width:1.0;" width="111" x="1278" y="97.6094"/><text fill="#000000" font-family="Verdana" font-size="14" lengthAdjust="spacing" textLength="97" x="1285" y="117.6045">CircuitBreaker</text><rect fill="#FFFFFF" height="30.2969" rx="2.5" ry="2.5" style="stroke:#000000;stroke-width:1.0;" width="111" x="1278" y="1757.2891"/><text fill="#000000" font-family="Verdana" font-size="14" lengthAdjust="spacing" textLength="97" x="1285" y="1777.2842">CircuitBreaker</text><rect fill="#FFFFFF" height="30.2969" rx="2.5" ry="2.5" style="stroke:#000000;stroke-width:1.0;" width="125" x="1419" y="97.6094"/><text fill="#000000" font-family="Verdana" font-size="14" lengthAdjust="spacing" textLength="111" x="1426" y="117.6045">InMemoryCache</text><rect fill="#FFFFFF" height="30.2969" rx="2.5" ry="2.5" style="stroke:#000000;stroke-width:1.0;" width="125" x="1419" y="1757.2891"/><text fill="#000000" font-family="Verdana" font-size="14" lengthAdjust="spacing" textLength="111" x="1426" y="1777.2842">InMemoryCache</text><rect fill="#FFFFFF" height="30.2969" rx="2.5" ry="2.5" style="stroke:#000000;stroke-width:1.0;" width="158" x="1574" y="97.6094"/><text fill="#000000" font-family="Verdana" font-size="14" lengthAdjust="spacing" textLength="144" x="1581" y="117.6045">Semantic Scholar API</text><rect fill="#FFFFFF" height="30.2969" rx="2.5" ry="2.5" style="stroke:#000000;stroke-width:1.0;" width="158" x="1574" y="1757.2891"/><text fill="#000000" font-family="Verdana" font-size="14" lengthAdjust="spacing" textLength="144" x="1581" y="1777.2842">Semantic Scholar API</text><rect fill="#FFFFFF" height="30.2969" rx="2.5" ry="2.5" style="stroke:#000000;stroke-width:1.0;" width="116" x="1762" y="97.6094"/><text fill="#000000" font-family="Verdana" font-size="14" lengthAdjust="spacing" textLength="102" x="1769" y="117.6045">ContextLogger</text><rect fill="#FFFFFF" height="30.2969" rx="2.5" ry="2.5" style="stroke:#000000;stroke-width:1.0;" width="116" x="1762" y="1757.2891"/><text fill="#000000" font-family="Verdana" font-size="14" lengthAdjust="spacing" textLength="102" x="1769" y="1777.2842">ContextLogger</text><rect fill="#FFFFFF" height="1580.25" style="stroke:#000000;stroke-width:1.0;" width="10" x="263" y="160.0391"/><rect fill="#FFFFFF" height="1506.8516" style="stroke:#000000;stroke-width:1.0;" width="10" x="398" y="204.3047"/><rect fill="#FFFFFF" height="1418.3203" style="stroke:#000000;stroke-width:1.0;" width="10" x="606" y="263.7031"/><rect fill="#FFFFFF" height="1243.5586" style="stroke:#000000;stroke-width:1.0;" width="10" x="762.5" y="303.4023"/><rect fill="#FFFFFF" height="1082.3281" style="stroke:#000000;stroke-width:1.0;" width="10" x="940" y="385.2344"/><rect fill="#FFFFFF" height="39.6992" style="stroke:#000000;stroke-width:1.0;" width="10" x="1151" y="483.1992"/><rect fill="#FFFFFF" height="894.3984" style="stroke:#000000;stroke-width:1.0;" width="10" x="1328.5" y="552.0313"/><rect fill="#FFFFFF" height="29.1328" style="stroke:#000000;stroke-width:1.0;" width="10" x="1476.5" y="414.3672"/><rect fill="#FFFFFF" height="29.1328" style="stroke:#000000;stroke-width:1.0;" width="10" x="1476.5" y="935.0234"/><rect fill="#FFFFFF" height="68.3984" style="stroke:#000000;stroke-width:1.0;" width="10" x="1648" y="722.9609"/><rect fill="#FFFFFF" height="29.1328" style="stroke:#000000;stroke-width:1.0;" width="10" x="1815" y="634.4297"/><rect fill="#FFFFFF" height="29.1328" style="stroke:#000000;stroke-width:1.0;" width="10" x="1815" y="993.2891"/><polygon fill="#000000" points="251,156.0391,261,160.0391,251,164.0391,255,160.0391" style="stroke:#000000;stroke-width:1.0;"/><line style="stroke:#000000;stroke-width:1.0;" x1="29" x2="257" y1="160.0391" y2="160.0391"/><text fill="#000000" font-family="Verdana" font-size="13" lengthAdjust="spacing" textLength="215" x="36" y="154.9731">search papers "machine learning"</text><polygon fill="#000000" points="386,200.3047,396,204.3047,386,208.3047,390,204.3047" style="stroke:#000000;stroke-width:1.0;"/><line style="stroke:#000000;stroke-width:1.0;" x1="273" x2="392" y1="204.3047" y2="204.3047"/><text fill="#000000" font-family="Verdana" font-size="13" lengthAdjust="spacing" textLength="69" x="280" y="184.106">invoke tool</text><text fill="#000000" font-family="Verdana" font-size="13" lengthAdjust="spacing" textLength="104" x="280" y="199.2388">"search_papers"</text><polygon fill="#000000" points="594,259.7031,604,263.7031,594,267.7031,598,263.7031" style="stroke:#000000;stroke-width:1.0;"/><line style="stroke:#000000;stroke-width:1.0;" x1="408" x2="600" y1="263.7031" y2="263.7031"/><text fill="#000000" font-family="Verdana" font-size="13" lengthAdjust="spacing" textLength="99" x="415" y="228.3716">search_papers(</text><text fill="#000000" font-family="Verdana" font-size="13" lengthAdjust="spacing" textLength="171" x="423" y="243.5044">query="machine learning",</text><text fill="#000000" font-family="Verdana" font-size="13" lengthAdjust="spacing" textLength="59" x="423" y="258.6372">limit=10)</text><polygon fill="#000000" points="750.5,299.4023,760.5,303.4023,750.5,307.4023,754.5,303.4023" style="stroke:#000000;stroke-width:1.0;"/><line style="stroke:#000000;stroke-width:1.0;" x1="616" x2="756.5" y1="303.4023" y2="303.4023"/><text fill="#000000" font-family="Verdana" font-size="13" lengthAdjust="spacing" text-decoration="underline" textLength="34" x="623" y="298.3364">enter</text><text fill="#000000" font-family="Verdana" font-size="13" lengthAdjust="spacing" textLength="10" x="657" y="298.3364">()</text><path d="M777,276.7031 L777,316.7031 L953,316.7031 L953,286.7031 L943,276.7031 L777,276.7031 " fill="#FFFFFF" style="stroke:#000000;stroke-width:1.0;"/><path d="M943,276.7031 L943,286.7031 L953,286.7031 L943,276.7031 " fill="#FFFFFF" style="stroke:#000000;stroke-width:1.0;"/><text fill="#000000" font-family="Verdana" font-size="13" lengthAdjust="spacing" textLength="155" x="783" y="293.77">Creates request context</text><text fill="#000000" font-family="Verdana" font-size="13" lengthAdjust="spacing" textLength="114" x="783" y="308.9028">with correlation ID</text><line style="stroke:#000000;stroke-width:1.0;" x1="616" x2="658" y1="343.1016" y2="343.1016"/><line style="stroke:#000000;stroke-width:1.0;" x1="658" x2="658" y1="343.1016" y2="356.1016"/><line style="stroke:#000000;stroke-width:1.0;" x1="617" x2="658" y1="356.1016" y2="356.1016"/><polygon fill="#000000" points="627,352.1016,617,356.1016,627,360.1016,623,356.1016" style="stroke:#000000;stroke-width:1.0;"/><text fill="#000000" font-family="Verdana" font-size="13" lengthAdjust="spacing" textLength="118" x="623" y="338.0356">Build SearchQuery</text><path d="M753,330.4688 L753,355.4688 L952,355.4688 L952,340.4688 L942,330.4688 L753,330.4688 " fill="#FFFFFF" style="stroke:#000000;stroke-width:1.0;"/><path d="M942,330.4688 L942,340.4688 L952,340.4688 L942,330.4688 " fill="#FFFFFF" style="stroke:#000000;stroke-width:1.0;"/><text fill="#000000" font-family="Verdana" font-size="13" lengthAdjust="spacing" textLength="178" x="759" y="347.5356">Validates query parameters</text><polygon fill="#000000" points="928,381.2344,938,385.2344,928,389.2344,932,385.2344" style="stroke:#000000;stroke-width:1.0;"/><line style="stroke:#000000;stroke-width:1.0;" x1="616" x2="934" y1="385.2344" y2="385.2344"/><text fill="#000000" font-family="Verdana" font-size="13" lengthAdjust="spacing" textLength="190" x="623" y="380.1685">search_papers(search_query)</text><polygon fill="#000000" points="1464.5,410.3672,1474.5,414.3672,1464.5,418.3672,1468.5,414.3672" style="stroke:#000000;stroke-width:1.0;"/><line style="stroke:#000000;stroke-width:1.0;" x1="950" x2="1470.5" y1="414.3672" y2="414.3672"/><text fill="#000000" font-family="Verdana" font-size="13" lengthAdjust="spacing" textLength="230" x="957" y="409.3013">get("search:machine learning:0:10")</text><polygon fill="#000000" points="961,439.5,951,443.5,961,447.5,957,443.5" style="stroke:#000000;stroke-width:1.0;"/><line style="stroke:#000000;stroke-width:1.0;stroke-dasharray:2.0,2.0;" x1="955" x2="1480.5" y1="443.5" y2="443.5"/><text fill="#000000" font-family="Verdana" font-size="13" lengthAdjust="spacing" textLength="120" x="967" y="438.4341">None (cache miss)</text><polygon fill="#000000" points="1139,479.1992,1149,483.1992,1139,487.1992,1143,483.1992" style="stroke:#000000;stroke-width:1.0;"/><line style="stroke:#000000;stroke-width:1.0;" x1="950" x2="1145" y1="483.1992" y2="483.1992"/><text fill="#000000" font-family="Verdana" font-size="13" lengthAdjust="spacing" textLength="112" x="957" y="478.1333">wait_if_needed(1)</text><path d="M1166,456.5 L1166,496.5 L1301,496.5 L1301,466.5 L1291,456.5 L1166,456.5 " fill="#FFFFFF" style="stroke:#000000;stroke-width:1.0;"/><path d="M1291,456.5 L1291,466.5 L1301,466.5 L1291,456.5 " fill="#FFFFFF" style="stroke:#000000;stroke-width:1.0;"/><text fill="#000000" font-family="Verdana" font-size="13" lengthAdjust="spacing" textLength="107" x="1172" y="473.5669">Checks rate limit</text><text fill="#000000" font-family="Verdana" font-size="13" lengthAdjust="spacing" textLength="114" x="1172" y="488.6997">Waits if necessary</text><polygon fill="#000000" points="961,518.8984,951,522.8984,961,526.8984,957,522.8984" style="stroke:#000000;stroke-width:1.0;"/><line style="stroke:#000000;stroke-width:1.0;stroke-dasharray:2.0,2.0;" x1="955" x2="1155" y1="522.8984" y2="522.8984"/><text fill="#000000" font-family="Verdana" font-size="13" lengthAdjust="spacing" textLength="18" x="967" y="517.8325">OK</text><polygon fill="#000000" points="1316.5,548.0313,1326.5,552.0313,1316.5,556.0313,1320.5,552.0313" style="stroke:#000000;stroke-width:1.0;"/><line style="stroke:#000000;stroke-width:1.0;" x1="950" x2="1322.5" y1="552.0313" y2="552.0313"/><text fill="#000000" font-family="Verdana" font-size="13" lengthAdjust="spacing" textLength="145" x="957" y="546.9653">call(_execute_request)</text><path d="M831,567.0313 L895,567.0313 L895,574.1641 L885,584.1641 L831,584.1641 L831,567.0313 " fill="#FFFFFF" style="stroke:#000000;stroke-width:1.0;"/><rect fill="none" height="872.3984" style="stroke:#000000;stroke-width:1.0;" width="1077" x="831" y="567.0313"/><text fill="#000000" font-family="Verdana" font-size="13" font-weight="bold" lengthAdjust="spacing" textLength="19" x="846" y="580.0981">alt</text><text fill="#000000" font-family="Verdana" font-size="11" font-weight="bold" lengthAdjust="spacing" textLength="161" x="910" y="579.2417">[Circuit Breaker CLOSED]</text><polygon fill="#000000" points="961,601.2969,951,605.2969,961,609.2969,957,605.2969" style="stroke:#000000;stroke-width:1.0;"/><line style="stroke:#000000;stroke-width:1.0;" x1="955" x2="1327.5" y1="605.2969" y2="605.2969"/><text fill="#000000" font-family="Verdana" font-size="13" lengthAdjust="spacing" textLength="124" x="967" y="600.231">_execute_request()</text><polygon fill="#000000" points="1803,630.4297,1813,634.4297,1803,638.4297,1807,634.4297" style="stroke:#000000;stroke-width:1.0;"/><line style="stroke:#000000;stroke-width:1.0;" x1="950" x2="1809" y1="634.4297" y2="634.4297"/><text fill="#000000" font-family="Verdana" font-size="13" lengthAdjust="spacing" textLength="267" x="957" y="629.3638">debug("Making request to /paper/search")</text><polygon fill="#000000" points="961,659.5625,951,663.5625,961,667.5625,957,663.5625" style="stroke:#000000;stroke-width:1.0;"/><line style="stroke:#000000;stroke-width:1.0;stroke-dasharray:2.0,2.0;" x1="955" x2="1819" y1="663.5625" y2="663.5625"/><text fill="#000000" font-family="Verdana" font-size="13" lengthAdjust="spacing" textLength="43" x="967" y="658.4966">logged</text><polygon fill="#000000" points="1636,718.9609,1646,722.9609,1636,726.9609,1640,722.9609" style="stroke:#000000;stroke-width:1.0;"/><line style="stroke:#000000;stroke-width:1.0;" x1="950" x2="1642" y1="722.9609" y2="722.9609"/><text fill="#000000" font-family="Verdana" font-size="13" lengthAdjust="spacing" textLength="117" x="957" y="687.6294">GET /paper/search</text><text fill="#000000" font-family="Verdana" font-size="13" lengthAdjust="spacing" textLength="164" x="957" y="702.7622">?query=machine learning</text><text fill="#000000" font-family="Verdana" font-size="13" lengthAdjust="spacing" textLength="65" x="957" y="717.895">&amp;limit=10</text><path d="M841,737.9609 L905,737.9609 L905,745.0938 L895,755.0938 L841,755.0938 L841,737.9609 " fill="#FFFFFF" style="stroke:#000000;stroke-width:1.0;"/><rect fill="none" height="629.3984" style="stroke:#000000;stroke-width:1.0;" width="1057" x="841" y="737.9609"/><text fill="#000000" font-family="Verdana" font-size="13" font-weight="bold" lengthAdjust="spacing" textLength="19" x="856" y="751.0278">alt</text><text fill="#000000" font-family="Verdana" font-size="11" font-weight="bold" lengthAdjust="spacing" textLength="128" x="920" y="750.1714">[Success Response]</text><polygon fill="#000000" points="961,787.3594,951,791.3594,961,795.3594,957,791.3594" style="stroke:#000000;stroke-width:1.0;"/><line style="stroke:#000000;stroke-width:1.0;stroke-dasharray:2.0,2.0;" x1="955" x2="1652" y1="791.3594" y2="791.3594"/><text fill="#000000" font-family="Verdana" font-size="13" lengthAdjust="spacing" textLength="46" x="967" y="771.1606">200 OK</text><text fill="#000000" font-family="Verdana" font-size="13" lengthAdjust="spacing" textLength="152" x="967" y="786.2935">{data: [...], total: 1000}</text><line style="stroke:#000000;stroke-width:1.0;" x1="1338.5" x2="1380.5" y1="820.4922" y2="820.4922"/><line style="stroke:#000000;stroke-width:1.0;" x1="1380.5" x2="1380.5" y1="820.4922" y2="833.4922"/><line style="stroke:#000000;stroke-width:1.0;" x1="1339.5" x2="1380.5" y1="833.4922" y2="833.4922"/><polygon fill="#000000" points="1349.5,829.4922,1339.5,833.4922,1349.5,837.4922,1345.5,833.4922" style="stroke:#000000;stroke-width:1.0;"/><text fill="#000000" font-family="Verdana" font-size="13" lengthAdjust="spacing" textLength="91" x="1345.5" y="815.4263">_on_success()</text><path d="M1448,807.8594 L1448,832.8594 L1588,832.8594 L1588,817.8594 L1578,807.8594 L1448,807.8594 " fill="#FFFFFF" style="stroke:#000000;stroke-width:1.0;"/><path d="M1578,807.8594 L1578,817.8594 L1588,817.8594 L1578,807.8594 " fill="#FFFFFF" style="stroke:#000000;stroke-width:1.0;"/><text fill="#000000" font-family="Verdana" font-size="13" lengthAdjust="spacing" textLength="119" x="1454" y="824.9263">Reset failure count</text><line style="stroke:#000000;stroke-width:1.0;" x1="950" x2="992" y1="877.7578" y2="877.7578"/><line style="stroke:#000000;stroke-width:1.0;" x1="992" x2="992" y1="877.7578" y2="890.7578"/><line style="stroke:#000000;stroke-width:1.0;" x1="951" x2="992" y1="890.7578" y2="890.7578"/><polygon fill="#000000" points="961,886.7578,951,890.7578,961,894.7578,957,890.7578" style="stroke:#000000;stroke-width:1.0;"/><text fill="#000000" font-family="Verdana" font-size="13" lengthAdjust="spacing" textLength="99" x="957" y="857.5591">Parse response</text><text fill="#000000" font-family="Verdana" font-size="13" lengthAdjust="spacing" textLength="134" x="957" y="872.6919">Create Paper objects</text><polygon fill="#000000" points="1464.5,931.0234,1474.5,935.0234,1464.5,939.0234,1468.5,935.0234" style="stroke:#000000;stroke-width:1.0;"/><line style="stroke:#000000;stroke-width:1.0;" x1="950" x2="1470.5" y1="935.0234" y2="935.0234"/><text fill="#000000" font-family="Verdana" font-size="13" lengthAdjust="spacing" textLength="228" x="957" y="914.8247">set("search:machine learning:0:10",</text><text fill="#000000" font-family="Verdana" font-size="13" lengthAdjust="spacing" textLength="120" x="977" y="929.9575">response, ttl=300)</text><polygon fill="#000000" points="961,960.1563,951,964.1563,961,968.1563,957,964.1563" style="stroke:#000000;stroke-width:1.0;"/><line style="stroke:#000000;stroke-width:1.0;stroke-dasharray:2.0,2.0;" x1="955" x2="1480.5" y1="964.1563" y2="964.1563"/><text fill="#000000" font-family="Verdana" font-size="13" lengthAdjust="spacing" textLength="41" x="967" y="959.0903">stored</text><polygon fill="#000000" points="1803,989.2891,1813,993.2891,1803,997.2891,1807,993.2891" style="stroke:#000000;stroke-width:1.0;"/><line style="stroke:#000000;stroke-width:1.0;" x1="950" x2="1809" y1="993.2891" y2="993.2891"/><text fill="#000000" font-family="Verdana" font-size="13" lengthAdjust="spacing" textLength="211" x="957" y="988.2231">info("Completed search_papers")</text><polygon fill="#000000" points="961,1018.4219,951,1022.4219,961,1026.4219,957,1022.4219" style="stroke:#000000;stroke-width:1.0;"/><line style="stroke:#000000;stroke-width:1.0;stroke-dasharray:2.0,2.0;" x1="955" x2="1819" y1="1022.4219" y2="1022.4219"/><text fill="#000000" font-family="Verdana" font-size="13" lengthAdjust="spacing" textLength="43" x="967" y="1017.356">logged</text><line style="stroke:#000000;stroke-width:1.0;stroke-dasharray:2.0,2.0;" x1="841" x2="1898" y1="1031.4219" y2="1031.4219"/><text fill="#000000" font-family="Verdana" font-size="11" font-weight="bold" lengthAdjust="spacing" textLength="90" x="846" y="1041.6323">[Rate Limited]</text><polygon fill="#000000" points="961,1077.4922,951,1081.4922,961,1085.4922,957,1081.4922" style="stroke:#000000;stroke-width:1.0;"/><line style="stroke:#000000;stroke-width:1.0;stroke-dasharray:2.0,2.0;" x1="955" x2="1652" y1="1081.4922" y2="1081.4922"/><text fill="#000000" font-family="Verdana" font-size="13" lengthAdjust="spacing" textLength="152" x="967" y="1061.2935">429 Too Many Requests</text><text fill="#000000" font-family="Verdana" font-size="13" lengthAdjust="spacing" textLength="93" x="967" y="1076.4263">Retry-After: 60</text><line style="stroke:#000000;stroke-width:1.0;" x1="950" x2="992" y1="1110.625" y2="1110.625"/><line style="stroke:#000000;stroke-width:1.0;" x1="992" x2="992" y1="1110.625" y2="1123.625"/><line style="stroke:#000000;stroke-width:1.0;" x1="951" x2="992" y1="1123.625" y2="1123.625"/><polygon fill="#000000" points="961,1119.625,951,1123.625,961,1127.625,957,1123.625" style="stroke:#000000;stroke-width:1.0;"/><text fill="#000000" font-family="Verdana" font-size="13" lengthAdjust="spacing" textLength="126" x="957" y="1105.5591">raise RateLimitError</text><line style="stroke:#000000;stroke-width:1.0;" x1="1338.5" x2="1380.5" y1="1152.7578" y2="1152.7578"/><line style="stroke:#000000;stroke-width:1.0;" x1="1380.5" x2="1380.5" y1="1152.7578" y2="1165.7578"/><line style="stroke:#000000;stroke-width:1.0;" x1="1339.5" x2="1380.5" y1="1165.7578" y2="1165.7578"/><polygon fill="#000000" points="1349.5,1161.7578,1339.5,1165.7578,1349.5,1169.7578,1345.5,1165.7578" style="stroke:#000000;stroke-width:1.0;"/><text fill="#000000" font-family="Verdana" font-size="13" lengthAdjust="spacing" textLength="79" x="1345.5" y="1147.6919">_on_failure()</text><path d="M1436,1140.125 L1436,1165.125 L1605,1165.125 L1605,1150.125 L1595,1140.125 L1436,1140.125 " fill="#FFFFFF" style="stroke:#000000;stroke-width:1.0;"/><path d="M1595,1140.125 L1595,1150.125 L1605,1150.125 L1595,1140.125 " fill="#FFFFFF" style="stroke:#000000;stroke-width:1.0;"/><text fill="#000000" font-family="Verdana" font-size="13" lengthAdjust="spacing" textLength="148" x="1442" y="1157.1919">Increment failure count</text><line style="stroke:#000000;stroke-width:1.0;" x1="950" x2="992" y1="1210.0234" y2="1210.0234"/><line style="stroke:#000000;stroke-width:1.0;" x1="992" x2="992" y1="1210.0234" y2="1223.0234"/><line style="stroke:#000000;stroke-width:1.0;" x1="951" x2="992" y1="1223.0234" y2="1223.0234"/><polygon fill="#000000" points="961,1219.0234,951,1223.0234,961,1227.0234,957,1223.0234" style="stroke:#000000;stroke-width:1.0;"/><text fill="#000000" font-family="Verdana" font-size="13" lengthAdjust="spacing" textLength="62" x="957" y="1189.8247">Retry with</text><text fill="#000000" font-family="Verdana" font-size="13" lengthAdjust="spacing" textLength="124" x="957" y="1204.9575">exponential backoff</text><line style="stroke:#000000;stroke-width:1.0;stroke-dasharray:2.0,2.0;" x1="841" x2="1898" y1="1232.0234" y2="1232.0234"/><text fill="#000000" font-family="Verdana" font-size="11" font-weight="bold" lengthAdjust="spacing" textLength="86" x="846" y="1242.2339">[Server Error]</text><polygon fill="#000000" points="961,1262.9609,951,1266.9609,961,1270.9609,957,1266.9609" style="stroke:#000000;stroke-width:1.0;"/><line style="stroke:#000000;stroke-width:1.0;stroke-dasharray:2.0,2.0;" x1="955" x2="1652" y1="1266.9609" y2="1266.9609"/><text fill="#000000" font-family="Verdana" font-size="13" lengthAdjust="spacing" textLength="153" x="967" y="1261.895">503 Service Unavailable</text><line style="stroke:#000000;stroke-width:1.0;" x1="950" x2="992" y1="1296.0938" y2="1296.0938"/><line style="stroke:#000000;stroke-width:1.0;" x1="992" x2="992" y1="1296.0938" y2="1309.0938"/><line style="stroke:#000000;stroke-width:1.0;" x1="951" x2="992" y1="1309.0938" y2="1309.0938"/><polygon fill="#000000" points="961,1305.0938,951,1309.0938,961,1313.0938,957,1309.0938" style="stroke:#000000;stroke-width:1.0;"/><text fill="#000000" font-family="Verdana" font-size="13" lengthAdjust="spacing" textLength="187" x="957" y="1291.0278">raise ServiceUnavailableError</text><line style="stroke:#000000;stroke-width:1.0;" x1="1338.5" x2="1380.5" y1="1342.293" y2="1342.293"/><line style="stroke:#000000;stroke-width:1.0;" x1="1380.5" x2="1380.5" y1="1342.293" y2="1355.293"/><line style="stroke:#000000;stroke-width:1.0;" x1="1339.5" x2="1380.5" y1="1355.293" y2="1355.293"/><polygon fill="#000000" points="1349.5,1351.293,1339.5,1355.293,1349.5,1359.293,1345.5,1355.293" style="stroke:#000000;stroke-width:1.0;"/><text fill="#000000" font-family="Verdana" font-size="13" lengthAdjust="spacing" textLength="79" x="1345.5" y="1337.2271">_on_failure()</text><path d="M1436,1322.0938 L1436,1362.0938 L1627,1362.0938 L1627,1332.0938 L1617,1322.0938 L1436,1322.0938 " fill="#FFFFFF" style="stroke:#000000;stroke-width:1.0;"/><path d="M1617,1322.0938 L1617,1332.0938 L1627,1332.0938 L1617,1322.0938 " fill="#FFFFFF" style="stroke:#000000;stroke-width:1.0;"/><text fill="#000000" font-family="Verdana" font-size="13" lengthAdjust="spacing" textLength="170" x="1442" y="1339.1606">Check if threshold reached</text><text fill="#000000" font-family="Verdana" font-size="13" lengthAdjust="spacing" textLength="104" x="1442" y="1354.2935">May open circuit</text><line style="stroke:#000000;stroke-width:1.0;stroke-dasharray:2.0,2.0;" x1="831" x2="1908" y1="1375.3594" y2="1375.3594"/><text fill="#000000" font-family="Verdana" font-size="11" font-weight="bold" lengthAdjust="spacing" textLength="145" x="836" y="1385.5698">[Circuit Breaker OPEN]</text><polygon fill="#000000" points="961,1416.8633,951,1420.8633,961,1424.8633,957,1420.8633" style="stroke:#000000;stroke-width:1.0;"/><line style="stroke:#000000;stroke-width:1.0;" x1="955" x2="1327.5" y1="1420.8633" y2="1420.8633"/><text fill="#000000" font-family="Verdana" font-size="13" lengthAdjust="spacing" textLength="187" x="967" y="1415.7974">raise ServiceUnavailableError</text><path d="M1343,1394.1641 L1343,1434.1641 L1463,1434.1641 L1463,1404.1641 L1453,1394.1641 L1343,1394.1641 " fill="#FFFFFF" style="stroke:#000000;stroke-width:1.0;"/><path d="M1453,1394.1641 L1453,1404.1641 L1463,1404.1641 L1453,1394.1641 " fill="#FFFFFF" style="stroke:#000000;stroke-width:1.0;"/><text fill="#000000" font-family="Verdana" font-size="13" lengthAdjust="spacing" textLength="99" x="1349" y="1411.231">Fast fail without</text><text fill="#000000" font-family="Verdana" font-size="13" lengthAdjust="spacing" textLength="64" x="1349" y="1426.3638">calling API</text><polygon fill="#000000" points="627,1463.5625,617,1467.5625,627,1471.5625,623,1467.5625" style="stroke:#000000;stroke-width:1.0;"/><line style="stroke:#000000;stroke-width:1.0;stroke-dasharray:2.0,2.0;" x1="621" x2="944" y1="1467.5625" y2="1467.5625"/><text fill="#000000" font-family="Verdana" font-size="13" lengthAdjust="spacing" textLength="173" x="633" y="1462.4966">PaginatedResponse[Paper]</text><line style="stroke:#000000;stroke-width:1.0;" x1="616" x2="658" y1="1500.7617" y2="1500.7617"/><line style="stroke:#000000;stroke-width:1.0;" x1="658" x2="658" y1="1500.7617" y2="1513.7617"/><line style="stroke:#000000;stroke-width:1.0;" x1="617" x2="658" y1="1513.7617" y2="1513.7617"/><polygon fill="#000000" points="627,1509.7617,617,1513.7617,627,1517.7617,623,1513.7617" style="stroke:#000000;stroke-width:1.0;"/><text fill="#000000" font-family="Verdana" font-size="13" lengthAdjust="spacing" textLength="109" x="623" y="1495.6958">Format response</text><path d="M744,1480.5625 L744,1520.5625 L872,1520.5625 L872,1490.5625 L862,1480.5625 L744,1480.5625 " fill="#FFFFFF" style="stroke:#000000;stroke-width:1.0;"/><path d="M862,1480.5625 L862,1490.5625 L872,1490.5625 L862,1480.5625 " fill="#FFFFFF" style="stroke:#000000;stroke-width:1.0;"/><text fill="#000000" font-family="Verdana" font-size="13" lengthAdjust="spacing" textLength="94" x="750" y="1497.6294">Convert to dict</text><text fill="#000000" font-family="Verdana" font-size="13" lengthAdjust="spacing" textLength="107" x="750" y="1512.7622">with success flag</text><polygon fill="#000000" points="755.5,1542.9609,765.5,1546.9609,755.5,1550.9609,759.5,1546.9609" style="stroke:#000000;stroke-width:1.0;"/><line style="stroke:#000000;stroke-width:1.0;" x1="616" x2="761.5" y1="1546.9609" y2="1546.9609"/><text fill="#000000" font-family="Verdana" font-size="13" lengthAdjust="spacing" text-decoration="underline" textLength="23" x="623" y="1541.895">exit</text><text fill="#000000" font-family="Verdana" font-size="13" lengthAdjust="spacing" textLength="10" x="646" y="1541.895">()</text><polygon fill="#000000" points="419,1678.0234,409,1682.0234,419,1686.0234,415,1682.0234" style="stroke:#000000;stroke-width:1.0;"/><line style="stroke:#000000;stroke-width:1.0;stroke-dasharray:2.0,2.0;" x1="413" x2="610" y1="1682.0234" y2="1682.0234"/><text fill="#000000" font-family="Verdana" font-size="13" lengthAdjust="spacing" textLength="8" x="425" y="1571.0278">{</text><text fill="#000000" font-family="Verdana" font-size="13" lengthAdjust="spacing" textLength="99" x="433" y="1586.1606">"success": true,</text><text fill="#000000" font-family="Verdana" font-size="13" lengthAdjust="spacing" textLength="55" x="433" y="1601.2935">"data": {</text><text fill="#000000" font-family="Verdana" font-size="13" lengthAdjust="spacing" textLength="88" x="441" y="1616.4263">"papers": [...],</text><text fill="#000000" font-family="Verdana" font-size="13" lengthAdjust="spacing" textLength="83" x="441" y="1631.5591">"total": 1000,</text><text fill="#000000" font-family="Verdana" font-size="13" lengthAdjust="spacing" textLength="108" x="441" y="1646.6919">"has_more": true</text><text fill="#000000" font-family="Verdana" font-size="13" lengthAdjust="spacing" textLength="8" x="433" y="1661.8247">}</text><text fill="#000000" font-family="Verdana" font-size="13" lengthAdjust="spacing" textLength="8" x="425" y="1676.9575">}</text><polygon fill="#000000" points="284,1707.1563,274,1711.1563,284,1715.1563,280,1711.1563" style="stroke:#000000;stroke-width:1.0;"/><line style="stroke:#000000;stroke-width:1.0;stroke-dasharray:2.0,2.0;" x1="278" x2="402" y1="1711.1563" y2="1711.1563"/><text fill="#000000" font-family="Verdana" font-size="13" lengthAdjust="spacing" textLength="66" x="290" y="1706.0903">Tool result</text><polygon fill="#000000" points="40,1736.2891,30,1740.2891,40,1744.2891,36,1740.2891" style="stroke:#000000;stroke-width:1.0;"/><line style="stroke:#000000;stroke-width:1.0;stroke-dasharray:2.0,2.0;" x1="34" x2="267" y1="1740.2891" y2="1740.2891"/><text fill="#000000" font-family="Verdana" font-size="13" lengthAdjust="spacing" textLength="93" x="46" y="1735.2231">Display results</text><!--SRC=[dLTjRzis4FwkNt7JXy41cbHfjm4La0sramx1aiQDq-r3LGYCTBOvovH7KccC8lzznnSvfEeisu8W9kaxtdFtt1qlt-abhX4s3UCYIJJN3S8CcQoMC6KRb8fsVtKeAeHJpXQIhPE4LRgLy56XJ3PCQbxn3HCQqil952ODHw5JOCelOv5tJ6aZDaDvXzAAkMKifYo2ScCHZ0wyd3cxQTicbhqs-9IUj4BZlRVirh7S3DVqoQjPjMmR9WEWRwVd-x3Uj2iKuwvQeRvc6Y_ucckFETZ7EXCkguxhiKIsyhAJSInoBYvntShjX5LBT19cjHyiUBG6OuzrOD7vUj4k5jwWMoQ98GWEV_OyvE222YweaAx9AXS83HqBBXQfuPNVaMSzSudxD7SuadBWuewY0ffOA4HCKw3lAKtSfzFloUjnzEGM0e08bDkJRn6zC5ys9iudnzb1UFyk5PB7jVNLHIE7iYJaACjo5EZrUI5QsaY-M9BWXAZIg42wD8BAoHJY2zTBsac93TEy5N1-EhGMUZNkU5Fxam_6dyZAxwpXjRLZVIKIg9AG0AhXdRja70RAxwn-uDDZyYQxfOs4IQeS5gX7dgTy6Dyyou-pD8oFJKJx5mvZBEzRKXnLzgirL-eWgN6W5ziFIYI7BuphaizBWLXZFJeER8Qb5F6on6f5j1WPcmA5-8DkKS3d8B12fHZ5ED0U8hxwBOGOcXa4Qfn3nPfcLE8zLft6qgT269WnTRr6WozlyFKDaukhsTbf0YGmu6vu6QKX0Fr6fbsbvb3ZRRSOfPTiHQpiCb6tyD9o_zBnbvehTf1ybODV3Brlp6bDNmSnsAaCST0cXr_FRc9xXVZ55UOmRmhnVL-K8IBJckpT9bAphZ8SmJMgJIiKqh4rEiJvAik8gK9yfUfWENmwEZhw_89SrungwZZBiWUh6NZXp5X3VTmDXMKhIkMCsbW3XDb4C533dF6caqXLtL6zx2uPngB7DcLIqGtUWqAuLk7UHMXl_yHAgoTkyTMddgq-s-BefxT2lklcv7MMEHy69MPTtbUUYbvaItSKgaUbRn7skSV5l1tHAxBUDDIFwhZff0CKkmnwDkts9vu5WerozGYk8EkdSkE7Ls-0sY9SCh45_yohGboZbjl3jtFRMNxAdkTHCgw23d0cPIkVIY6V8djIw5nKaaObyP_JoE85yvmK0k-9PJhbh85RLgtQ-JmAYtyn7o7k2SkFsMihnsac-oZO7Q5Xjmt-spXurK3pVmR4TcZJZlMIifV6b9gos6HSNOXBjeLsWm8grp5tJWh3Tc9z7JRJg-dP-tsjz3dO8IOpNrf-RBpRZbuDqzjDMpLzmvYF7gvnz1WCdlGfMt11OdNVn3xPql-SnDseVtwVdWtUjNBDzAx6utUk5SIuxVOrh_gvmtSoc3TiyKyppZszgsR42NtoGqwa5OnmNqt7IRs1D0SjExHTA3KjEFK2jFKje6_A_jIsvjJrvlvioLH98otwsypfGo4UGbJnoER6mc0sjIWfFbsZOoqtI0O4cQasf_z55FtBilKgAlBVqV4t]--></g></svg>