<?xml version="1.0" encoding="us-ascii" standalone="no"?><svg xmlns="http://www.w3.org/2000/svg" xmlns:xlink="http://www.w3.org/1999/xlink" contentStyleType="text/css" height="2393px" preserveAspectRatio="none" style="width:1144px;height:2393px;background:#FFFFFF;" version="1.1" viewBox="0 0 1144 2393" width="1144px" zoomAndPan="magnify"><defs/><g><text fill="#000000" font-family="Verdana" font-size="22" font-weight="bold" lengthAdjust="spacing" textLength="747" x="197.25" y="35.4209">Get Paper with Citations and References - Activity Diagram</text><ellipse cx="572.25" cy="61.6094" fill="#FFFFFF" rx="10" ry="10" style="stroke:#000000;stroke-width:1.0;"/><path d="M686.75,88.4609 L686.75,104.5938 L666.75,108.5938 L686.75,112.5938 L686.75,128.7266 A0,0 0 0 0 686.75,128.7266 L880.75,128.7266 A0,0 0 0 0 880.75,128.7266 L880.75,98.4609 L870.75,88.4609 L686.75,88.4609 A0,0 0 0 0 686.75,88.4609 " fill="#FFFFFF" style="stroke:#000000;stroke-width:1.0;"/><path d="M870.75,88.4609 L870.75,98.4609 L880.75,98.4609 L870.75,88.4609 " fill="#FFFFFF" style="stroke:#000000;stroke-width:1.0;"/><text fill="#000000" font-family="Verdana" font-size="13" lengthAdjust="spacing" textLength="173" x="692.75" y="105.5278">paper_id, include_citations,</text><text fill="#000000" font-family="Verdana" font-size="13" lengthAdjust="spacing" textLength="120" x="692.75" y="120.6606">include_references</text><rect fill="#FFFFFF" height="33.9688" rx="12.5" ry="12.5" style="stroke:#000000;stroke-width:1.0;" width="189" x="477.75" y="91.6094"/><text fill="#000000" font-family="Verdana" font-size="12" lengthAdjust="spacing" textLength="169" x="487.75" y="112.748">Receive get_paper request</text><path d="M675.25,145.5781 L675.25,161.7109 L655.25,165.7109 L675.25,169.7109 L675.25,185.8438 A0,0 0 0 0 675.25,185.8438 L845.25,185.8438 A0,0 0 0 0 845.25,185.8438 L845.25,155.5781 L835.25,145.5781 L675.25,145.5781 A0,0 0 0 0 675.25,145.5781 " fill="#FFFFFF" style="stroke:#000000;stroke-width:1.0;"/><path d="M835.25,145.5781 L835.25,155.5781 L845.25,155.5781 L835.25,145.5781 " fill="#FFFFFF" style="stroke:#000000;stroke-width:1.0;"/><text fill="#000000" font-family="Verdana" font-size="13" lengthAdjust="spacing" textLength="149" x="681.25" y="162.645">Generate correlation ID</text><text fill="#000000" font-family="Verdana" font-size="13" lengthAdjust="spacing" textLength="125" x="681.25" y="177.7778">for request tracking</text><rect fill="#FFFFFF" height="33.9688" rx="12.5" ry="12.5" style="stroke:#000000;stroke-width:1.0;" width="166" x="489.25" y="148.7266"/><text fill="#000000" font-family="Verdana" font-size="12" lengthAdjust="spacing" textLength="146" x="499.25" y="169.8652">Create RequestContext</text><rect fill="#FFFFFF" height="33.9688" rx="12.5" ry="12.5" style="stroke:#000000;stroke-width:1.0;" width="129" x="507.75" y="205.8438"/><text fill="#000000" font-family="Verdana" font-size="12" lengthAdjust="spacing" textLength="109" x="517.75" y="226.9824">Validate paper_id</text><rect fill="#FFFFFF" height="33.9688" rx="12.5" ry="12.5" style="stroke:#000000;stroke-width:1.0;" width="161" x="491.75" y="308.2148"/><text fill="#000000" font-family="Verdana" font-size="12" lengthAdjust="spacing" textLength="141" x="501.75" y="329.3535">Return validation error</text><ellipse cx="572.25" cy="381.6992" fill="none" rx="11" ry="11" style="stroke:#000000;stroke-width:1.0;"/><ellipse cx="572.25" cy="381.6992" fill="#FFFFFF" rx="6" ry="6" style="stroke:#000000;stroke-width:1.0;"/><polygon fill="#FFFFFF" points="518.25,259.8125,626.25,259.8125,638.25,271.8125,626.25,283.8125,518.25,283.8125,506.25,271.8125,518.25,259.8125" style="stroke:#000000;stroke-width:1.0;"/><text fill="#000000" font-family="Verdana" font-size="11" lengthAdjust="spacing" textLength="20" x="576.25" y="294.0229">yes</text><text fill="#000000" font-family="Verdana" font-size="11" lengthAdjust="spacing" textLength="108" x="518.25" y="275.6206">paper_id is empty?</text><text fill="#000000" font-family="Verdana" font-size="11" lengthAdjust="spacing" textLength="14" x="638.25" y="269.2183">no</text><rect fill="#FFFFFF" height="333.9336" style="stroke:#000000;stroke-width:1.0;" width="544" x="317.25" y="424.6992"/><path d="M419.25,424.6992 L419.25,433.9961 L409.25,443.9961 L317.25,443.9961 " fill="none" style="stroke:#000000;stroke-width:1.0;"/><text fill="#000000" font-family="Verdana" font-size="14" lengthAdjust="spacing" textLength="92" x="320.25" y="438.6943">Check Cache</text><polygon fill="#FFFFFF" points="473.25,460.9961,671.25,460.9961,683.25,472.9961,671.25,484.9961,473.25,484.9961,461.25,472.9961,473.25,460.9961" style="stroke:#000000;stroke-width:1.0;"/><text fill="#000000" font-family="Verdana" font-size="11" lengthAdjust="spacing" textLength="198" x="473.25" y="476.8042">citations or references requested?</text><text fill="#000000" font-family="Verdana" font-size="11" lengthAdjust="spacing" textLength="20" x="441.25" y="470.4019">yes</text><text fill="#000000" font-family="Verdana" font-size="11" lengthAdjust="spacing" textLength="14" x="683.25" y="470.4019">no</text><path d="M486.25,494.9961 L486.25,511.1289 L466.25,515.1289 L486.25,519.1289 L486.25,535.2617 A0,0 0 0 0 486.25,535.2617 L633.25,535.2617 A0,0 0 0 0 633.25,535.2617 L633.25,504.9961 L623.25,494.9961 L486.25,494.9961 A0,0 0 0 0 486.25,494.9961 " fill="#FFFFFF" style="stroke:#000000;stroke-width:1.0;"/><path d="M623.25,494.9961 L623.25,504.9961 L633.25,504.9961 L623.25,494.9961 " fill="#FFFFFF" style="stroke:#000000;stroke-width:1.0;"/><text fill="#000000" font-family="Verdana" font-size="13" lengthAdjust="spacing" textLength="126" x="492.25" y="512.063">Cache only used for</text><text fill="#000000" font-family="Verdana" font-size="13" lengthAdjust="spacing" textLength="107" x="492.25" y="527.1958">basic paper data</text><rect fill="#FFFFFF" height="33.9688" rx="12.5" ry="12.5" style="stroke:#000000;stroke-width:1.0;" width="129" x="337.25" y="498.1445"/><text fill="#000000" font-family="Verdana" font-size="12" lengthAdjust="spacing" textLength="109" x="347.25" y="519.2832">Skip cache check</text><rect fill="#FFFFFF" height="33.9688" rx="12.5" ry="12.5" style="stroke:#000000;stroke-width:1.0;" width="179" x="653.25" y="494.9961"/><text fill="#000000" font-family="Verdana" font-size="12" lengthAdjust="spacing" textLength="159" x="663.25" y="516.1348">Check cache for paper_id</text><rect fill="#FFFFFF" height="33.9688" rx="12.5" ry="12.5" style="stroke:#000000;stroke-width:1.0;" width="153" x="666.25" y="603.6641"/><text fill="#000000" font-family="Verdana" font-size="12" lengthAdjust="spacing" textLength="133" x="676.25" y="624.8027">Return cached paper</text><ellipse cx="742.75" cy="683.6328" fill="none" rx="11" ry="11" style="stroke:#000000;stroke-width:1.0;"/><ellipse cx="742.75" cy="683.6328" fill="#FFFFFF" rx="6" ry="6" style="stroke:#000000;stroke-width:1.0;"/><polygon fill="#FFFFFF" points="714.25,555.2617,771.25,555.2617,783.25,567.2617,771.25,579.2617,714.25,579.2617,702.25,567.2617,714.25,555.2617" style="stroke:#000000;stroke-width:1.0;"/><text fill="#000000" font-family="Verdana" font-size="11" lengthAdjust="spacing" textLength="20" x="746.75" y="589.4722">yes</text><text fill="#000000" font-family="Verdana" font-size="11" lengthAdjust="spacing" textLength="57" x="714.25" y="571.0698">cache hit?</text><text fill="#000000" font-family="Verdana" font-size="11" lengthAdjust="spacing" textLength="14" x="783.25" y="564.6675">no</text><polygon fill="#FFFFFF" points="572.25,722.6328,584.25,734.6328,572.25,746.6328,560.25,734.6328,572.25,722.6328" style="stroke:#000000;stroke-width:1.0;"/><rect fill="#FFFFFF" height="882.2339" style="stroke:#000000;stroke-width:1.0;" width="1132.5" x="6" y="768.6328"/><path d="M207,768.6328 L207,777.9297 L197,787.9297 L6,787.9297 " fill="none" style="stroke:#000000;stroke-width:1.0;"/><text fill="#000000" font-family="Verdana" font-size="14" lengthAdjust="spacing" textLength="191" x="9" y="782.6279">API Request with Resilience</text><rect fill="#FFFFFF" height="33.9688" rx="12.5" ry="12.5" style="stroke:#000000;stroke-width:1.0;" width="166" x="489.25" y="804.9297"/><text fill="#000000" font-family="Verdana" font-size="12" lengthAdjust="spacing" textLength="146" x="499.25" y="826.0684">Acquire rate limit token</text><rect fill="#FFFFFF" height="33.9688" rx="12.5" ry="12.5" style="stroke:#000000;stroke-width:1.0;" width="190" x="477.25" y="914.6089"/><text fill="#000000" font-family="Verdana" font-size="12" lengthAdjust="spacing" textLength="170" x="487.25" y="935.7476">Check circuit breaker state</text><polygon fill="#FFFFFF" points="511.75,968.5776,632.75,968.5776,644.75,980.5776,632.75,992.5776,511.75,992.5776,499.75,980.5776,511.75,968.5776" style="stroke:#000000;stroke-width:1.0;"/><text fill="#000000" font-family="Verdana" font-size="11" lengthAdjust="spacing" textLength="121" x="511.75" y="984.3857">circuit breaker state?</text><rect fill="#FFFFFF" height="33.9688" rx="12.5" ry="12.5" style="stroke:#000000;stroke-width:1.0;" width="209" x="34" y="1028.187"/><text fill="#000000" font-family="Verdana" font-size="12" lengthAdjust="spacing" textLength="189" x="44" y="1049.3257">Throw ServiceUnavailableError</text><rect fill="#FFFFFF" height="33.9688" rx="12.5" ry="12.5" style="stroke:#000000;stroke-width:1.0;" width="148" x="64.5" y="1082.1558"/><text fill="#000000" font-family="Verdana" font-size="12" lengthAdjust="spacing" textLength="128" x="74.5" y="1103.2944">Calculate retry delay</text><rect fill="#FFFFFF" height="33.9688" rx="12.5" ry="12.5" style="stroke:#000000;stroke-width:1.0;" width="203" x="37" y="1151.1245"/><text fill="#000000" font-family="Verdana" font-size="12" lengthAdjust="spacing" textLength="183" x="47" y="1172.2632">Wait with exponential backoff</text><rect fill="#FFFFFF" height="33.9688" rx="12.5" ry="12.5" style="stroke:#000000;stroke-width:1.0;" width="181" x="596.25" y="1028.187"/><text fill="#000000" font-family="Verdana" font-size="12" lengthAdjust="spacing" textLength="161" x="606.25" y="1049.3257">Make HTTP request to API</text><polygon fill="#FFFFFF" points="636.75,1082.1558,736.75,1082.1558,748.75,1094.1558,736.75,1106.1558,636.75,1106.1558,624.75,1094.1558,636.75,1082.1558" style="stroke:#000000;stroke-width:1.0;"/><text fill="#000000" font-family="Verdana" font-size="11" lengthAdjust="spacing" textLength="100" x="636.75" y="1097.9639">response status?</text><rect fill="#FFFFFF" height="33.9688" rx="12.5" ry="12.5" style="stroke:#000000;stroke-width:1.0;" width="119" x="311.5" y="1141.7651"/><text fill="#000000" font-family="Verdana" font-size="12" lengthAdjust="spacing" textLength="99" x="321.5" y="1162.9038">Parse response</text><rect fill="#FFFFFF" height="33.9688" rx="12.5" ry="12.5" style="stroke:#000000;stroke-width:1.0;" width="146" x="298" y="1205.0933"/><text fill="#000000" font-family="Verdana" font-size="12" lengthAdjust="spacing" textLength="126" x="308" y="1226.2319">Create Paper object</text><rect fill="#FFFFFF" height="33.9688" rx="12.5" ry="12.5" style="stroke:#000000;stroke-width:1.0;" width="216" x="263" y="1266.0425"/><text fill="#000000" font-family="Verdana" font-size="12" lengthAdjust="spacing" textLength="196" x="273" y="1287.1812">Update circuit breaker success</text><rect fill="#FFFFFF" height="33.9688" rx="12.5" ry="12.5" style="stroke:#000000;stroke-width:1.0;" width="153" x="499" y="1141.7651"/><text fill="#000000" font-family="Verdana" font-size="12" lengthAdjust="spacing" textLength="133" x="509" y="1162.9038">Throw NotFoundError</text><ellipse cx="575.5" cy="1216.0933" fill="none" rx="11" ry="11" style="stroke:#000000;stroke-width:1.0;"/><ellipse cx="575.5" cy="1216.0933" fill="#FFFFFF" rx="6" ry="6" style="stroke:#000000;stroke-width:1.0;"/><rect fill="#FFFFFF" height="33.9688" rx="12.5" ry="12.5" style="stroke:#000000;stroke-width:1.0;" width="183" x="688" y="1141.7651"/><text fill="#000000" font-family="Verdana" font-size="12" lengthAdjust="spacing" textLength="163" x="698" y="1162.9038">Extract Retry-After header</text><rect fill="#FFFFFF" height="33.9688" rx="12.5" ry="12.5" style="stroke:#000000;stroke-width:1.0;" width="149" x="705" y="1205.0933"/><text fill="#000000" font-family="Verdana" font-size="12" lengthAdjust="spacing" textLength="129" x="715" y="1226.2319">Throw RateLimitError</text><rect fill="#FFFFFF" height="33.9688" rx="12.5" ry="12.5" style="stroke:#000000;stroke-width:1.0;" width="204" x="677.5" y="1266.0425"/><text fill="#000000" font-family="Verdana" font-size="12" lengthAdjust="spacing" textLength="184" x="687.5" y="1287.1812">Update circuit breaker failure</text><rect fill="#FFFFFF" height="33.9688" rx="12.5" ry="12.5" style="stroke:#000000;stroke-width:1.0;" width="209" x="901.5" y="1141.7651"/><text fill="#000000" font-family="Verdana" font-size="12" lengthAdjust="spacing" textLength="189" x="911.5" y="1162.9038">Throw ServiceUnavailableError</text><rect fill="#FFFFFF" height="33.9688" rx="12.5" ry="12.5" style="stroke:#000000;stroke-width:1.0;" width="204" x="904" y="1205.0933"/><text fill="#000000" font-family="Verdana" font-size="12" lengthAdjust="spacing" textLength="184" x="914" y="1226.2319">Update circuit breaker failure</text><polygon fill="#FFFFFF" points="686.75,1330.0112,686.75,1330.0112,698.75,1342.0112,686.75,1354.0112,686.75,1354.0112,674.75,1342.0112,686.75,1330.0112" style="stroke:#000000;stroke-width:1.0;"/><polygon fill="#FFFFFF" points="572.25,1364.0112,572.25,1364.0112,584.25,1376.0112,572.25,1388.0112,572.25,1388.0112,560.25,1376.0112,572.25,1364.0112" style="stroke:#000000;stroke-width:1.0;"/><rect fill="#FFFFFF" height="33.9688" rx="12.5" ry="12.5" style="stroke:#000000;stroke-width:1.0;" width="158" x="493.25" y="1408.0112"/><text fill="#000000" font-family="Verdana" font-size="12" lengthAdjust="spacing" textLength="138" x="503.25" y="1429.1499">Increment retry_count</text><polygon fill="#FFFFFF" points="494.75,858.8984,649.75,858.8984,661.75,870.8984,649.75,882.8984,494.75,882.8984,482.75,870.8984,494.75,858.8984" style="stroke:#000000;stroke-width:1.0;"/><text fill="#000000" font-family="Verdana" font-size="11" lengthAdjust="spacing" textLength="20" x="576.25" y="893.1089">yes</text><text fill="#000000" font-family="Verdana" font-size="11" lengthAdjust="spacing" textLength="155" x="494.75" y="874.7065">retry_count &lt; max_retries?</text><text fill="#000000" font-family="Verdana" font-size="11" lengthAdjust="spacing" textLength="14" x="468.75" y="868.3042">no</text><rect fill="#FFFFFF" height="33.9688" rx="12.5" ry="12.5" style="stroke:#000000;stroke-width:1.0;" width="160" x="492.25" y="1532.3823"/><text fill="#000000" font-family="Verdana" font-size="12" lengthAdjust="spacing" textLength="140" x="502.25" y="1553.521">Return error response</text><ellipse cx="572.25" cy="1605.8667" fill="none" rx="11" ry="11" style="stroke:#000000;stroke-width:1.0;"/><ellipse cx="572.25" cy="1605.8667" fill="#FFFFFF" rx="6" ry="6" style="stroke:#000000;stroke-width:1.0;"/><polygon fill="#FFFFFF" points="510.25,1483.98,634.25,1483.98,646.25,1495.98,634.25,1507.98,510.25,1507.98,498.25,1495.98,510.25,1483.98" style="stroke:#000000;stroke-width:1.0;"/><text fill="#000000" font-family="Verdana" font-size="11" lengthAdjust="spacing" textLength="20" x="576.25" y="1518.1904">yes</text><text fill="#000000" font-family="Verdana" font-size="11" lengthAdjust="spacing" textLength="124" x="510.25" y="1499.7881">all retries exhausted?</text><text fill="#000000" font-family="Verdana" font-size="11" lengthAdjust="spacing" textLength="14" x="646.25" y="1493.3857">no</text><rect fill="#FFFFFF" height="398.6055" style="stroke:#000000;stroke-width:1.0;" width="712" x="147.25" y="1660.8667"/><path d="M303.25,1660.8667 L303.25,1670.1636 L293.25,1680.1636 L147.25,1680.1636 " fill="none" style="stroke:#000000;stroke-width:1.0;"/><text fill="#000000" font-family="Verdana" font-size="14" lengthAdjust="spacing" textLength="146" x="150.25" y="1674.8618">Fetch Additional Data</text><polygon fill="#FFFFFF" points="458.25,1697.1636,686.25,1697.1636,698.25,1709.1636,686.25,1721.1636,458.25,1721.1636,446.25,1709.1636,458.25,1697.1636" style="stroke:#000000;stroke-width:1.0;"/><text fill="#000000" font-family="Verdana" font-size="11" lengthAdjust="spacing" textLength="228" x="458.25" y="1712.9717">include_citations or include_references?</text><text fill="#000000" font-family="Verdana" font-size="11" lengthAdjust="spacing" textLength="20" x="426.25" y="1706.5693">yes</text><text fill="#000000" font-family="Verdana" font-size="11" lengthAdjust="spacing" textLength="14" x="698.25" y="1706.5693">no</text><rect fill="#000000" height="6" rx="2.5" ry="2.5" style="stroke:#000000;stroke-width:1.0;" width="464" x="167.25" y="1731.1636"/><rect fill="#FFFFFF" height="33.9688" rx="12.5" ry="12.5" style="stroke:#000000;stroke-width:1.0;" width="113" x="216.75" y="1805.5659"/><text fill="#000000" font-family="Verdana" font-size="12" lengthAdjust="spacing" textLength="93" x="226.75" y="1826.7046">Fetch citations</text><rect fill="#FFFFFF" height="33.9688" rx="12.5" ry="12.5" style="stroke:#000000;stroke-width:1.0;" width="164" x="191.25" y="1859.5347"/><text fill="#000000" font-family="Verdana" font-size="12" lengthAdjust="spacing" textLength="144" x="201.25" y="1880.6733">Create Citation objects</text><rect fill="#FFFFFF" height="33.9688" rx="12.5" ry="12.5" style="stroke:#000000;stroke-width:1.0;" width="160" x="193.25" y="1913.5034"/><text fill="#000000" font-family="Verdana" font-size="12" lengthAdjust="spacing" textLength="140" x="203.25" y="1934.6421">Add to Paper.citations</text><polygon fill="#FFFFFF" points="223.25,1757.1636,323.25,1757.1636,335.25,1769.1636,323.25,1781.1636,223.25,1781.1636,211.25,1769.1636,223.25,1757.1636" style="stroke:#000000;stroke-width:1.0;"/><text fill="#000000" font-family="Verdana" font-size="11" lengthAdjust="spacing" textLength="20" x="277.25" y="1791.374">yes</text><text fill="#000000" font-family="Verdana" font-size="11" lengthAdjust="spacing" textLength="100" x="223.25" y="1772.9717">include_citations?</text><polygon fill="#FFFFFF" points="273.25,1967.4722,285.25,1979.4722,273.25,1991.4722,261.25,1979.4722,273.25,1967.4722" style="stroke:#000000;stroke-width:1.0;"/><rect fill="#FFFFFF" height="33.9688" rx="12.5" ry="12.5" style="stroke:#000000;stroke-width:1.0;" width="127" x="441.75" y="1805.5659"/><text fill="#000000" font-family="Verdana" font-size="12" lengthAdjust="spacing" textLength="107" x="451.75" y="1826.7046">Fetch references</text><rect fill="#FFFFFF" height="33.9688" rx="12.5" ry="12.5" style="stroke:#000000;stroke-width:1.0;" width="180" x="415.25" y="1859.5347"/><text fill="#000000" font-family="Verdana" font-size="12" lengthAdjust="spacing" textLength="160" x="425.25" y="1880.6733">Create Reference objects</text><rect fill="#FFFFFF" height="33.9688" rx="12.5" ry="12.5" style="stroke:#000000;stroke-width:1.0;" width="174" x="418.25" y="1913.5034"/><text fill="#000000" font-family="Verdana" font-size="12" lengthAdjust="spacing" textLength="154" x="428.25" y="1934.6421">Add to Paper.references</text><polygon fill="#FFFFFF" points="448.25,1757.1636,562.25,1757.1636,574.25,1769.1636,562.25,1781.1636,448.25,1781.1636,436.25,1769.1636,448.25,1757.1636" style="stroke:#000000;stroke-width:1.0;"/><text fill="#000000" font-family="Verdana" font-size="11" lengthAdjust="spacing" textLength="20" x="509.25" y="1791.374">yes</text><text fill="#000000" font-family="Verdana" font-size="11" lengthAdjust="spacing" textLength="114" x="448.25" y="1772.9717">include_references?</text><polygon fill="#FFFFFF" points="505.25,1967.4722,517.25,1979.4722,505.25,1991.4722,493.25,1979.4722,505.25,1967.4722" style="stroke:#000000;stroke-width:1.0;"/><rect fill="#000000" height="6" rx="2.5" ry="2.5" style="stroke:#000000;stroke-width:1.0;" width="464" x="167.25" y="2011.4722"/><rect fill="#FFFFFF" height="33.9688" rx="12.5" ry="12.5" style="stroke:#000000;stroke-width:1.0;" width="188" x="651.25" y="1731.1636"/><text fill="#000000" font-family="Verdana" font-size="12" lengthAdjust="spacing" textLength="168" x="661.25" y="1752.3022">No additional data needed</text><polygon fill="#FFFFFF" points="572.25,2023.4722,584.25,2035.4722,572.25,2047.4722,560.25,2035.4722,572.25,2023.4722" style="stroke:#000000;stroke-width:1.0;"/><rect fill="#FFFFFF" height="275.6328" style="stroke:#000000;stroke-width:1.0;" width="656.5" x="324.75" y="2069.4722"/><path d="M459.75,2069.4722 L459.75,2078.769 L449.75,2088.769 L324.75,2088.769 " fill="none" style="stroke:#000000;stroke-width:1.0;"/><text fill="#000000" font-family="Verdana" font-size="14" lengthAdjust="spacing" textLength="125" x="327.75" y="2083.4673">Cache and Return</text><polygon fill="#FFFFFF" points="448.75,2105.769,695.75,2105.769,707.75,2117.769,695.75,2129.769,448.75,2129.769,436.75,2117.769,448.75,2105.769" style="stroke:#000000;stroke-width:1.0;"/><text fill="#000000" font-family="Verdana" font-size="11" lengthAdjust="spacing" textLength="247" x="448.75" y="2121.5771">basic request without citations/references?</text><text fill="#000000" font-family="Verdana" font-size="11" lengthAdjust="spacing" textLength="20" x="416.75" y="2115.1748">yes</text><text fill="#000000" font-family="Verdana" font-size="11" lengthAdjust="spacing" textLength="14" x="707.75" y="2115.1748">no</text><rect fill="#FFFFFF" height="33.9688" rx="12.5" ry="12.5" style="stroke:#000000;stroke-width:1.0;" width="164" x="344.75" y="2139.769"/><text fill="#000000" font-family="Verdana" font-size="12" lengthAdjust="spacing" textLength="144" x="354.75" y="2160.9077">Store in cache with TTL</text><path d="M787.25,2139.769 L787.25,2163.4683 L767.25,2167.4683 L787.25,2171.4683 L787.25,2195.1675 A0,0 0 0 0 787.25,2195.1675 L961.25,2195.1675 A0,0 0 0 0 961.25,2195.1675 L961.25,2149.769 L951.25,2139.769 L787.25,2139.769 A0,0 0 0 0 787.25,2139.769 " fill="#FFFFFF" style="stroke:#000000;stroke-width:1.0;"/><path d="M951.25,2139.769 L951.25,2149.769 L961.25,2149.769 L951.25,2139.769 " fill="#FFFFFF" style="stroke:#000000;stroke-width:1.0;"/><text fill="#000000" font-family="Verdana" font-size="13" lengthAdjust="spacing" textLength="153" x="793.25" y="2156.8359">Don't cache papers with</text><text fill="#000000" font-family="Verdana" font-size="13" lengthAdjust="spacing" textLength="150" x="793.25" y="2171.9688">additional data to avoid</text><text fill="#000000" font-family="Verdana" font-size="13" lengthAdjust="spacing" textLength="90" x="793.25" y="2187.1016">memory bloat</text><rect fill="#FFFFFF" height="33.9688" rx="12.5" ry="12.5" style="stroke:#000000;stroke-width:1.0;" width="99" x="668.25" y="2150.4839"/><text fill="#000000" font-family="Verdana" font-size="12" lengthAdjust="spacing" textLength="79" x="678.25" y="2171.6226">Skip caching</text><polygon fill="#FFFFFF" points="572.25,2201.1675,584.25,2213.1675,572.25,2225.1675,560.25,2213.1675,572.25,2201.1675" style="stroke:#000000;stroke-width:1.0;"/><rect fill="#FFFFFF" height="33.9688" rx="12.5" ry="12.5" style="stroke:#000000;stroke-width:1.0;" width="185" x="479.75" y="2245.1675"/><text fill="#000000" font-family="Verdana" font-size="12" lengthAdjust="spacing" textLength="165" x="489.75" y="2266.3062">Log successful completion</text><rect fill="#FFFFFF" height="33.9688" rx="12.5" ry="12.5" style="stroke:#000000;stroke-width:1.0;" width="192" x="476.25" y="2299.1362"/><text fill="#000000" font-family="Verdana" font-size="12" lengthAdjust="spacing" textLength="172" x="486.25" y="2320.2749">Return Paper object as dict</text><ellipse cx="572.25" cy="2376.105" fill="none" rx="11" ry="11" style="stroke:#000000;stroke-width:1.0;"/><ellipse cx="572.25" cy="2376.105" fill="#FFFFFF" rx="6" ry="6" style="stroke:#000000;stroke-width:1.0;"/><line style="stroke:#000000;stroke-width:1.0;" x1="572.25" x2="572.25" y1="71.6094" y2="91.6094"/><polygon fill="#000000" points="568.25,81.6094,572.25,91.6094,576.25,81.6094,572.25,85.6094" style="stroke:#000000;stroke-width:1.0;"/><line style="stroke:#000000;stroke-width:1.0;" x1="572.25" x2="572.25" y1="125.5781" y2="148.7266"/><polygon fill="#000000" points="568.25,138.7266,572.25,148.7266,576.25,138.7266,572.25,142.7266" style="stroke:#000000;stroke-width:1.0;"/><line style="stroke:#000000;stroke-width:1.0;" x1="572.25" x2="572.25" y1="182.6953" y2="205.8438"/><polygon fill="#000000" points="568.25,195.8438,572.25,205.8438,576.25,195.8438,572.25,199.8438" style="stroke:#000000;stroke-width:1.0;"/><line style="stroke:#000000;stroke-width:1.0;" x1="572.25" x2="572.25" y1="342.1836" y2="370.6992"/><polygon fill="#000000" points="568.25,360.6992,572.25,370.6992,576.25,360.6992,572.25,364.6992" style="stroke:#000000;stroke-width:1.0;"/><line style="stroke:#000000;stroke-width:1.0;" x1="572.25" x2="572.25" y1="283.8125" y2="308.2148"/><polygon fill="#000000" points="568.25,298.2148,572.25,308.2148,576.25,298.2148,572.25,302.2148" style="stroke:#000000;stroke-width:1.0;"/><line style="stroke:#000000;stroke-width:1.0;" x1="638.25" x2="662.75" y1="271.8125" y2="271.8125"/><polygon fill="#000000" points="658.75,340.6992,662.75,350.6992,666.75,340.6992,662.75,344.6992" style="stroke:#000000;stroke-width:1.0;"/><line style="stroke:#000000;stroke-width:1.0;" x1="662.75" x2="662.75" y1="271.8125" y2="414.6992"/><line style="stroke:#000000;stroke-width:1.0;" x1="662.75" x2="572.25" y1="414.6992" y2="414.6992"/><line style="stroke:#000000;stroke-width:1.0;" x1="572.25" x2="572.25" y1="414.6992" y2="460.9961"/><polygon fill="#000000" points="568.25,450.9961,572.25,460.9961,576.25,450.9961,572.25,454.9961" style="stroke:#000000;stroke-width:1.0;"/><line style="stroke:#000000;stroke-width:1.0;" x1="572.25" x2="572.25" y1="239.8125" y2="259.8125"/><polygon fill="#000000" points="568.25,249.8125,572.25,259.8125,576.25,249.8125,572.25,253.8125" style="stroke:#000000;stroke-width:1.0;"/><line style="stroke:#000000;stroke-width:1.0;" x1="742.75" x2="742.75" y1="637.6328" y2="672.6328"/><polygon fill="#000000" points="738.75,662.6328,742.75,672.6328,746.75,662.6328,742.75,666.6328" style="stroke:#000000;stroke-width:1.0;"/><line style="stroke:#000000;stroke-width:1.0;" x1="742.75" x2="742.75" y1="579.2617" y2="603.6641"/><polygon fill="#000000" points="738.75,593.6641,742.75,603.6641,746.75,593.6641,742.75,597.6641" style="stroke:#000000;stroke-width:1.0;"/><line style="stroke:#000000;stroke-width:1.0;" x1="783.25" x2="829.25" y1="567.2617" y2="567.2617"/><polygon fill="#000000" points="825.25,645.1484,829.25,655.1484,833.25,645.1484,829.25,649.1484" style="stroke:#000000;stroke-width:1.0;"/><line style="stroke:#000000;stroke-width:1.0;" x1="829.25" x2="829.25" y1="567.2617" y2="734.6328"/><line style="stroke:#000000;stroke-width:1.0;" x1="829.25" x2="584.25" y1="734.6328" y2="734.6328"/><polygon fill="#000000" points="594.25,730.6328,584.25,734.6328,594.25,738.6328,590.25,734.6328" style="stroke:#000000;stroke-width:1.0;"/><line style="stroke:#000000;stroke-width:1.0;" x1="742.75" x2="742.75" y1="528.9648" y2="555.2617"/><polygon fill="#000000" points="738.75,545.2617,742.75,555.2617,746.75,545.2617,742.75,549.2617" style="stroke:#000000;stroke-width:1.0;"/><line style="stroke:#000000;stroke-width:1.0;" x1="461.25" x2="401.75" y1="472.9961" y2="472.9961"/><line style="stroke:#000000;stroke-width:1.0;" x1="401.75" x2="401.75" y1="472.9961" y2="498.1445"/><polygon fill="#000000" points="397.75,488.1445,401.75,498.1445,405.75,488.1445,401.75,492.1445" style="stroke:#000000;stroke-width:1.0;"/><line style="stroke:#000000;stroke-width:1.0;" x1="683.25" x2="742.75" y1="472.9961" y2="472.9961"/><line style="stroke:#000000;stroke-width:1.0;" x1="742.75" x2="742.75" y1="472.9961" y2="494.9961"/><polygon fill="#000000" points="738.75,484.9961,742.75,494.9961,746.75,484.9961,742.75,488.9961" style="stroke:#000000;stroke-width:1.0;"/><line style="stroke:#000000;stroke-width:1.0;" x1="401.75" x2="401.75" y1="532.1133" y2="734.6328"/><line style="stroke:#000000;stroke-width:1.0;" x1="401.75" x2="560.25" y1="734.6328" y2="734.6328"/><polygon fill="#000000" points="550.25,730.6328,560.25,734.6328,550.25,738.6328,554.25,734.6328" style="stroke:#000000;stroke-width:1.0;"/><line style="stroke:#000000;stroke-width:1.0;" x1="138.5" x2="138.5" y1="1062.1558" y2="1082.1558"/><polygon fill="#000000" points="134.5,1072.1558,138.5,1082.1558,142.5,1072.1558,138.5,1076.1558" style="stroke:#000000;stroke-width:1.0;"/><line style="stroke:#000000;stroke-width:1.0;" x1="138.5" x2="138.5" y1="1116.1245" y2="1151.1245"/><polygon fill="#000000" points="134.5,1141.1245,138.5,1151.1245,142.5,1141.1245,138.5,1145.1245" style="stroke:#000000;stroke-width:1.0;"/><line style="stroke:#000000;stroke-width:1.0;" x1="371" x2="371" y1="1175.7339" y2="1205.0933"/><polygon fill="#000000" points="367,1195.0933,371,1205.0933,375,1195.0933,371,1199.0933" style="stroke:#000000;stroke-width:1.0;"/><line style="stroke:#000000;stroke-width:1.0;" x1="371" x2="371" y1="1239.062" y2="1266.0425"/><polygon fill="#000000" points="367,1256.0425,371,1266.0425,375,1256.0425,371,1260.0425" style="stroke:#000000;stroke-width:1.0;"/><line style="stroke:#000000;stroke-width:1.0;" x1="371" x2="371" y1="1300.0112" y2="1320.0112"/><polygon fill="#000000" points="367,1310.0112,371,1320.0112,375,1310.0112,371,1314.0112" style="stroke:#000000;stroke-width:1.0;"/><line style="stroke:#000000;stroke-width:1.0;" x1="575.5" x2="575.5" y1="1175.7339" y2="1205.0933"/><polygon fill="#000000" points="571.5,1195.0933,575.5,1205.0933,579.5,1195.0933,575.5,1199.0933" style="stroke:#000000;stroke-width:1.0;"/><line style="stroke:#000000;stroke-width:1.0;" x1="779.5" x2="779.5" y1="1175.7339" y2="1205.0933"/><polygon fill="#000000" points="775.5,1195.0933,779.5,1205.0933,783.5,1195.0933,779.5,1199.0933" style="stroke:#000000;stroke-width:1.0;"/><line style="stroke:#000000;stroke-width:1.0;" x1="779.5" x2="779.5" y1="1239.062" y2="1266.0425"/><polygon fill="#000000" points="775.5,1256.0425,779.5,1266.0425,783.5,1256.0425,779.5,1260.0425" style="stroke:#000000;stroke-width:1.0;"/><line style="stroke:#000000;stroke-width:1.0;" x1="1006" x2="1006" y1="1175.7339" y2="1205.0933"/><polygon fill="#000000" points="1002,1195.0933,1006,1205.0933,1010,1195.0933,1006,1199.0933" style="stroke:#000000;stroke-width:1.0;"/><line style="stroke:#000000;stroke-width:1.0;" x1="624.75" x2="371" y1="1094.1558" y2="1094.1558"/><line style="stroke:#000000;stroke-width:1.0;" x1="371" x2="371" y1="1094.1558" y2="1141.7651"/><polygon fill="#000000" points="367,1131.7651,371,1141.7651,375,1131.7651,371,1135.7651" style="stroke:#000000;stroke-width:1.0;"/><text fill="#000000" font-family="Verdana" font-size="11" lengthAdjust="spacing" textLength="41" x="371" y="1121.7686">200 OK</text><line style="stroke:#000000;stroke-width:1.0;" x1="748.75" x2="1006" y1="1094.1558" y2="1094.1558"/><line style="stroke:#000000;stroke-width:1.0;" x1="1006" x2="1006" y1="1094.1558" y2="1141.7651"/><polygon fill="#000000" points="1002,1131.7651,1006,1141.7651,1010,1131.7651,1006,1135.7651" style="stroke:#000000;stroke-width:1.0;"/><text fill="#000000" font-family="Verdana" font-size="11" lengthAdjust="spacing" textLength="94" x="1006" y="1121.7686">5xx Server Error</text><line style="stroke:#000000;stroke-width:1.0;" x1="575.5" x2="575.5" y1="1094.1558" y2="1141.7651"/><polygon fill="#000000" points="571.5,1131.7651,575.5,1141.7651,579.5,1131.7651,575.5,1135.7651" style="stroke:#000000;stroke-width:1.0;"/><text fill="#000000" font-family="Verdana" font-size="11" lengthAdjust="spacing" textLength="82" x="575.5" y="1116.7686">404 Not Found</text><line style="stroke:#000000;stroke-width:1.0;" x1="779.5" x2="779.5" y1="1094.1558" y2="1141.7651"/><polygon fill="#000000" points="775.5,1131.7651,779.5,1141.7651,783.5,1131.7651,779.5,1135.7651" style="stroke:#000000;stroke-width:1.0;"/><text fill="#000000" font-family="Verdana" font-size="11" lengthAdjust="spacing" textLength="95" x="779.5" y="1116.7686">429 Rate Limited</text><line style="stroke:#000000;stroke-width:1.0;" x1="779.5" x2="779.5" y1="1300.0112" y2="1342.0112"/><line style="stroke:#000000;stroke-width:1.0;" x1="779.5" x2="698.75" y1="1342.0112" y2="1342.0112"/><polygon fill="#000000" points="708.75,1338.0112,698.75,1342.0112,708.75,1346.0112,704.75,1342.0112" style="stroke:#000000;stroke-width:1.0;"/><line style="stroke:#000000;stroke-width:1.0;" x1="1006" x2="1006" y1="1239.062" y2="1342.0112"/><line style="stroke:#000000;stroke-width:1.0;" x1="1006" x2="698.75" y1="1342.0112" y2="1342.0112"/><polygon fill="#000000" points="708.75,1338.0112,698.75,1342.0112,708.75,1346.0112,704.75,1342.0112" style="stroke:#000000;stroke-width:1.0;"/><line style="stroke:#000000;stroke-width:1.0;" x1="686.75" x2="686.75" y1="1062.1558" y2="1082.1558"/><polygon fill="#000000" points="682.75,1072.1558,686.75,1082.1558,690.75,1072.1558,686.75,1076.1558" style="stroke:#000000;stroke-width:1.0;"/><line style="stroke:#000000;stroke-width:1.0;" x1="499.75" x2="138.5" y1="980.5776" y2="980.5776"/><line style="stroke:#000000;stroke-width:1.0;" x1="138.5" x2="138.5" y1="980.5776" y2="1028.187"/><polygon fill="#000000" points="134.5,1018.187,138.5,1028.187,142.5,1018.187,138.5,1022.187" style="stroke:#000000;stroke-width:1.0;"/><text fill="#000000" font-family="Verdana" font-size="11" lengthAdjust="spacing" textLength="31" x="138.5" y="1008.1904">OPEN</text><line style="stroke:#000000;stroke-width:1.0;" x1="644.75" x2="686.75" y1="980.5776" y2="980.5776"/><line style="stroke:#000000;stroke-width:1.0;" x1="686.75" x2="686.75" y1="980.5776" y2="1028.187"/><polygon fill="#000000" points="682.75,1018.187,686.75,1028.187,690.75,1018.187,686.75,1022.187" style="stroke:#000000;stroke-width:1.0;"/><text fill="#000000" font-family="Verdana" font-size="11" lengthAdjust="spacing" textLength="130" x="686.75" y="1008.1904">CLOSED or HALF_OPEN</text><line style="stroke:#000000;stroke-width:1.0;" x1="138.5" x2="138.5" y1="1185.0933" y2="1376.0112"/><line style="stroke:#000000;stroke-width:1.0;" x1="138.5" x2="560.25" y1="1376.0112" y2="1376.0112"/><polygon fill="#000000" points="550.25,1372.0112,560.25,1376.0112,550.25,1380.0112,554.25,1376.0112" style="stroke:#000000;stroke-width:1.0;"/><line style="stroke:#000000;stroke-width:1.0;" x1="686.75" x2="686.75" y1="1354.0112" y2="1376.0112"/><line style="stroke:#000000;stroke-width:1.0;" x1="686.75" x2="584.25" y1="1376.0112" y2="1376.0112"/><polygon fill="#000000" points="594.25,1372.0112,584.25,1376.0112,594.25,1380.0112,590.25,1376.0112" style="stroke:#000000;stroke-width:1.0;"/><line style="stroke:#000000;stroke-width:1.0;" x1="572.25" x2="572.25" y1="948.5776" y2="968.5776"/><polygon fill="#000000" points="568.25,958.5776,572.25,968.5776,576.25,958.5776,572.25,962.5776" style="stroke:#000000;stroke-width:1.0;"/><line style="stroke:#000000;stroke-width:1.0;" x1="572.25" x2="572.25" y1="1388.0112" y2="1408.0112"/><polygon fill="#000000" points="568.25,1398.0112,572.25,1408.0112,576.25,1398.0112,572.25,1402.0112" style="stroke:#000000;stroke-width:1.0;"/><line style="stroke:#000000;stroke-width:1.0;" x1="572.25" x2="572.25" y1="882.8984" y2="914.6089"/><polygon fill="#000000" points="568.25,904.6089,572.25,914.6089,576.25,904.6089,572.25,908.6089" style="stroke:#000000;stroke-width:1.0;"/><line style="stroke:#000000;stroke-width:1.0;" x1="572.25" x2="572.25" y1="1441.98" y2="1451.98"/><line style="stroke:#000000;stroke-width:1.0;" x1="572.25" x2="1122.5" y1="1451.98" y2="1451.98"/><polygon fill="#000000" points="1118.5,1263.062,1122.5,1253.062,1126.5,1263.062,1122.5,1259.062" style="stroke:#000000;stroke-width:1.0;"/><line style="stroke:#000000;stroke-width:1.0;" x1="1122.5" x2="1122.5" y1="870.8984" y2="1451.98"/><line style="stroke:#000000;stroke-width:1.0;" x1="1122.5" x2="661.75" y1="870.8984" y2="870.8984"/><polygon fill="#000000" points="671.75,866.8984,661.75,870.8984,671.75,874.8984,667.75,870.8984" style="stroke:#000000;stroke-width:1.0;"/><line style="stroke:#000000;stroke-width:1.0;" x1="482.75" x2="22" y1="870.8984" y2="870.8984"/><polygon fill="#000000" points="18,1249.062,22,1259.062,26,1249.062,22,1253.062" style="stroke:#000000;stroke-width:1.0;"/><line style="stroke:#000000;stroke-width:1.0;" x1="22" x2="22" y1="870.8984" y2="1463.98"/><line style="stroke:#000000;stroke-width:1.0;" x1="22" x2="572.25" y1="1463.98" y2="1463.98"/><line style="stroke:#000000;stroke-width:1.0;" x1="572.25" x2="572.25" y1="1463.98" y2="1483.98"/><polygon fill="#000000" points="568.25,1473.98,572.25,1483.98,576.25,1473.98,572.25,1477.98" style="stroke:#000000;stroke-width:1.0;"/><line style="stroke:#000000;stroke-width:1.0;" x1="572.25" x2="572.25" y1="838.8984" y2="858.8984"/><polygon fill="#000000" points="568.25,848.8984,572.25,858.8984,576.25,848.8984,572.25,852.8984" style="stroke:#000000;stroke-width:1.0;"/><line style="stroke:#000000;stroke-width:1.0;" x1="572.25" x2="572.25" y1="1566.3511" y2="1594.8667"/><polygon fill="#000000" points="568.25,1584.8667,572.25,1594.8667,576.25,1584.8667,572.25,1588.8667" style="stroke:#000000;stroke-width:1.0;"/><line style="stroke:#000000;stroke-width:1.0;" x1="572.25" x2="572.25" y1="1507.98" y2="1532.3823"/><polygon fill="#000000" points="568.25,1522.3823,572.25,1532.3823,576.25,1522.3823,572.25,1526.3823" style="stroke:#000000;stroke-width:1.0;"/><line style="stroke:#000000;stroke-width:1.0;" x1="646.25" x2="662.25" y1="1495.98" y2="1495.98"/><polygon fill="#000000" points="658.25,1564.8667,662.25,1574.8667,666.25,1564.8667,662.25,1568.8667" style="stroke:#000000;stroke-width:1.0;"/><line style="stroke:#000000;stroke-width:1.0;" x1="662.25" x2="662.25" y1="1495.98" y2="1638.8667"/><line style="stroke:#000000;stroke-width:1.0;" x1="662.25" x2="572.25" y1="1638.8667" y2="1638.8667"/><line style="stroke:#000000;stroke-width:1.0;" x1="572.25" x2="572.25" y1="1638.8667" y2="1697.1636"/><polygon fill="#000000" points="568.25,1687.1636,572.25,1697.1636,576.25,1687.1636,572.25,1691.1636" style="stroke:#000000;stroke-width:1.0;"/><line style="stroke:#000000;stroke-width:1.0;" x1="572.25" x2="572.25" y1="746.6328" y2="804.9297"/><polygon fill="#000000" points="568.25,794.9297,572.25,804.9297,576.25,794.9297,572.25,798.9297" style="stroke:#000000;stroke-width:1.0;"/><line style="stroke:#000000;stroke-width:1.0;" x1="273.25" x2="273.25" y1="1839.5347" y2="1859.5347"/><polygon fill="#000000" points="269.25,1849.5347,273.25,1859.5347,277.25,1849.5347,273.25,1853.5347" style="stroke:#000000;stroke-width:1.0;"/><line style="stroke:#000000;stroke-width:1.0;" x1="273.25" x2="273.25" y1="1893.5034" y2="1913.5034"/><polygon fill="#000000" points="269.25,1903.5034,273.25,1913.5034,277.25,1903.5034,273.25,1907.5034" style="stroke:#000000;stroke-width:1.0;"/><line style="stroke:#000000;stroke-width:1.0;" x1="273.25" x2="273.25" y1="1781.1636" y2="1805.5659"/><polygon fill="#000000" points="269.25,1795.5659,273.25,1805.5659,277.25,1795.5659,273.25,1799.5659" style="stroke:#000000;stroke-width:1.0;"/><line style="stroke:#000000;stroke-width:1.0;" x1="335.25" x2="365.25" y1="1769.1636" y2="1769.1636"/><polygon fill="#000000" points="361.25,1866.519,365.25,1876.519,369.25,1866.519,365.25,1870.519" style="stroke:#000000;stroke-width:1.0;"/><line style="stroke:#000000;stroke-width:1.0;" x1="365.25" x2="365.25" y1="1769.1636" y2="1979.4722"/><line style="stroke:#000000;stroke-width:1.0;" x1="365.25" x2="285.25" y1="1979.4722" y2="1979.4722"/><polygon fill="#000000" points="295.25,1975.4722,285.25,1979.4722,295.25,1983.4722,291.25,1979.4722" style="stroke:#000000;stroke-width:1.0;"/><line style="stroke:#000000;stroke-width:1.0;" x1="273.25" x2="273.25" y1="1947.4722" y2="1967.4722"/><polygon fill="#000000" points="269.25,1957.4722,273.25,1967.4722,277.25,1957.4722,273.25,1961.4722" style="stroke:#000000;stroke-width:1.0;"/><line style="stroke:#000000;stroke-width:1.0;" x1="505.25" x2="505.25" y1="1839.5347" y2="1859.5347"/><polygon fill="#000000" points="501.25,1849.5347,505.25,1859.5347,509.25,1849.5347,505.25,1853.5347" style="stroke:#000000;stroke-width:1.0;"/><line style="stroke:#000000;stroke-width:1.0;" x1="505.25" x2="505.25" y1="1893.5034" y2="1913.5034"/><polygon fill="#000000" points="501.25,1903.5034,505.25,1913.5034,509.25,1903.5034,505.25,1907.5034" style="stroke:#000000;stroke-width:1.0;"/><line style="stroke:#000000;stroke-width:1.0;" x1="505.25" x2="505.25" y1="1781.1636" y2="1805.5659"/><polygon fill="#000000" points="501.25,1795.5659,505.25,1805.5659,509.25,1795.5659,505.25,1799.5659" style="stroke:#000000;stroke-width:1.0;"/><line style="stroke:#000000;stroke-width:1.0;" x1="574.25" x2="605.25" y1="1769.1636" y2="1769.1636"/><polygon fill="#000000" points="601.25,1866.519,605.25,1876.519,609.25,1866.519,605.25,1870.519" style="stroke:#000000;stroke-width:1.0;"/><line style="stroke:#000000;stroke-width:1.0;" x1="605.25" x2="605.25" y1="1769.1636" y2="1979.4722"/><line style="stroke:#000000;stroke-width:1.0;" x1="605.25" x2="517.25" y1="1979.4722" y2="1979.4722"/><polygon fill="#000000" points="527.25,1975.4722,517.25,1979.4722,527.25,1983.4722,523.25,1979.4722" style="stroke:#000000;stroke-width:1.0;"/><line style="stroke:#000000;stroke-width:1.0;" x1="505.25" x2="505.25" y1="1947.4722" y2="1967.4722"/><polygon fill="#000000" points="501.25,1957.4722,505.25,1967.4722,509.25,1957.4722,505.25,1961.4722" style="stroke:#000000;stroke-width:1.0;"/><line style="stroke:#000000;stroke-width:1.0;" x1="273.25" x2="273.25" y1="1737.1636" y2="1757.1636"/><polygon fill="#000000" points="269.25,1747.1636,273.25,1757.1636,277.25,1747.1636,273.25,1751.1636" style="stroke:#000000;stroke-width:1.0;"/><line style="stroke:#000000;stroke-width:1.0;" x1="505.25" x2="505.25" y1="1737.1636" y2="1757.1636"/><polygon fill="#000000" points="501.25,1747.1636,505.25,1757.1636,509.25,1747.1636,505.25,1751.1636" style="stroke:#000000;stroke-width:1.0;"/><line style="stroke:#000000;stroke-width:1.0;" x1="273.25" x2="273.25" y1="1991.4722" y2="2011.4722"/><polygon fill="#000000" points="269.25,2001.4722,273.25,2011.4722,277.25,2001.4722,273.25,2005.4722" style="stroke:#000000;stroke-width:1.0;"/><line style="stroke:#000000;stroke-width:1.0;" x1="505.25" x2="505.25" y1="1991.4722" y2="2011.4722"/><polygon fill="#000000" points="501.25,2001.4722,505.25,2011.4722,509.25,2001.4722,505.25,2005.4722" style="stroke:#000000;stroke-width:1.0;"/><line style="stroke:#000000;stroke-width:1.0;" x1="446.25" x2="399.25" y1="1709.1636" y2="1709.1636"/><line style="stroke:#000000;stroke-width:1.0;" x1="399.25" x2="399.25" y1="1709.1636" y2="1731.1636"/><polygon fill="#000000" points="395.25,1721.1636,399.25,1731.1636,403.25,1721.1636,399.25,1725.1636" style="stroke:#000000;stroke-width:1.0;"/><line style="stroke:#000000;stroke-width:1.0;" x1="698.25" x2="745.25" y1="1709.1636" y2="1709.1636"/><line style="stroke:#000000;stroke-width:1.0;" x1="745.25" x2="745.25" y1="1709.1636" y2="1731.1636"/><polygon fill="#000000" points="741.25,1721.1636,745.25,1731.1636,749.25,1721.1636,745.25,1725.1636" style="stroke:#000000;stroke-width:1.0;"/><line style="stroke:#000000;stroke-width:1.0;" x1="399.25" x2="399.25" y1="2017.4722" y2="2035.4722"/><line style="stroke:#000000;stroke-width:1.0;" x1="399.25" x2="560.25" y1="2035.4722" y2="2035.4722"/><polygon fill="#000000" points="550.25,2031.4722,560.25,2035.4722,550.25,2039.4722,554.25,2035.4722" style="stroke:#000000;stroke-width:1.0;"/><line style="stroke:#000000;stroke-width:1.0;" x1="745.25" x2="745.25" y1="1765.1323" y2="2035.4722"/><line style="stroke:#000000;stroke-width:1.0;" x1="745.25" x2="584.25" y1="2035.4722" y2="2035.4722"/><polygon fill="#000000" points="594.25,2031.4722,584.25,2035.4722,594.25,2039.4722,590.25,2035.4722" style="stroke:#000000;stroke-width:1.0;"/><line style="stroke:#000000;stroke-width:1.0;" x1="436.75" x2="426.75" y1="2117.769" y2="2117.769"/><line style="stroke:#000000;stroke-width:1.0;" x1="426.75" x2="426.75" y1="2117.769" y2="2139.769"/><polygon fill="#000000" points="422.75,2129.769,426.75,2139.769,430.75,2129.769,426.75,2133.769" style="stroke:#000000;stroke-width:1.0;"/><line style="stroke:#000000;stroke-width:1.0;" x1="707.75" x2="717.75" y1="2117.769" y2="2117.769"/><line style="stroke:#000000;stroke-width:1.0;" x1="717.75" x2="717.75" y1="2117.769" y2="2150.4839"/><polygon fill="#000000" points="713.75,2140.4839,717.75,2150.4839,721.75,2140.4839,717.75,2144.4839" style="stroke:#000000;stroke-width:1.0;"/><line style="stroke:#000000;stroke-width:1.0;" x1="426.75" x2="426.75" y1="2173.7378" y2="2213.1675"/><line style="stroke:#000000;stroke-width:1.0;" x1="426.75" x2="560.25" y1="2213.1675" y2="2213.1675"/><polygon fill="#000000" points="550.25,2209.1675,560.25,2213.1675,550.25,2217.1675,554.25,2213.1675" style="stroke:#000000;stroke-width:1.0;"/><line style="stroke:#000000;stroke-width:1.0;" x1="717.75" x2="717.75" y1="2184.4526" y2="2213.1675"/><line style="stroke:#000000;stroke-width:1.0;" x1="717.75" x2="584.25" y1="2213.1675" y2="2213.1675"/><polygon fill="#000000" points="594.25,2209.1675,584.25,2213.1675,594.25,2217.1675,590.25,2213.1675" style="stroke:#000000;stroke-width:1.0;"/><line style="stroke:#000000;stroke-width:1.0;" x1="572.25" x2="572.25" y1="2225.1675" y2="2245.1675"/><polygon fill="#000000" points="568.25,2235.1675,572.25,2245.1675,576.25,2235.1675,572.25,2239.1675" style="stroke:#000000;stroke-width:1.0;"/><line style="stroke:#000000;stroke-width:1.0;" x1="572.25" x2="572.25" y1="2279.1362" y2="2299.1362"/><polygon fill="#000000" points="568.25,2289.1362,572.25,2299.1362,576.25,2289.1362,572.25,2293.1362" style="stroke:#000000;stroke-width:1.0;"/><line style="stroke:#000000;stroke-width:1.0;" x1="572.25" x2="572.25" y1="2047.4722" y2="2105.769"/><polygon fill="#000000" points="568.25,2095.769,572.25,2105.769,576.25,2095.769,572.25,2099.769" style="stroke:#000000;stroke-width:1.0;"/><line style="stroke:#000000;stroke-width:1.0;" x1="572.25" x2="572.25" y1="2333.105" y2="2365.105"/><polygon fill="#000000" points="568.25,2355.105,572.25,2365.105,576.25,2355.105,572.25,2359.105" style="stroke:#000000;stroke-width:1.0;"/><!--SRC=[ZLPTRzis57tNhxZhonAWtOAYUsWq833if0tc9ORZRYy639gwiZZJf4fIZesX_tsNfBvi9Uq0mxPqgNFFFVTBFxa2TmYbP48bYHDE8dn21pDMee5duGeO2yUSqCe2KndCCKU3YgE5Tp3YJko5Ey94i8rXkoInZXcN9DTpv2Zs21jqgp9W6VnQeNLfehH3C69Jk6i8ffN8te9GN5OPhdZZxUrIDVTCwvEGnmOP0SmZt5WhXuSpr4-eqFX3N1k3Ck31_MIfSjto06SOtmgr8SY_c1IPFz_GIPD4v73HN8AmWBlI7MykWVHIS754Uva0K9YkCWhs4S2xGMEqISbcdIuJb1RXGkdB15KcyYGfIHuH3huP5yYtC6Qym3VmBptXNRRXGw3QQbspnkoS0f5useeIkCS1xZ7JSBilI702MiaZL1Op81sMQisiu35a8FACdkhe1k38C29xwJfvl3dG3RP2k26jJfrmA8jFfxKjgEF_dBgCAZM_tqxq6itkcwp7mfoZ5L9uVQ9-roF-jHA6elQvb68dACjwYyexfSzp8QYwBmmwSrnnNIa7lyEE7LR-Za1BCL2YUyBMyGl3Au9QK-5jIIigSOSnZl1bYGmlVEfUE7SJeJZpKJxERXzQSHQ5qS_mX6OlE7vHRC-4P6k9jqq1HGfCyahwU09joAYSZwtrRoPgBV1GQeNA2IPXJOMjyppjUHvF7vzk9xwcFe-cTwiJ8dyIM_YyMCowrj10OZTUcepLOHgqv8f0VNoLlMbmegFtLrVm-4TpZz1dp5XFFZwKTeQwZ-EWqUj_aBkUzKiP6dAWQSMf6sntC1XE67ou-W0Fsi4T9JZh4ObwaoKOJbJkbMEByluZp3s3gIyZx0FT7lpeS5H-b91tezmHhm9PXZsysfj7201dxbuBBwSQg4ohKgJos-4GoeJi0MOGqmzgw7-xewQBIKw6Lx4XxXKtj2weSNfDbCP-hRihTd8zpPYKK3SNLMZ1gbScM3qemkmygvKwC_qnyT9mk4DVdACi2zVK11EQQDrO7MmNtmh3zJAaHcElAQyNSLwQUnHGfDEU6fPzirJhok-Ve21y1uR6-6K0qKp8I0tOnY_k8S7lnTHZs1qRKcmt_Oyu3a4walIlqV1ikJneO5sw_082XPXXbhwIuhZ4uZk8BvSkkt6JcTvkq9NhrF_rUs9SFpbDAqFKQofEqyLYcWuPjtkMtXg6EtQYrS-k1WchpWQifJgFadHZUosofThXJjDCNqlDNDAfvbVPL6-QOPTNabvaTgL4ZvBsNZlwinEOXKpu6VhDluLHq_m7]--></g></svg>